<svg width="1680" height="1736" viewBox="0 0 1680 1736" fill="none" xmlns="http://www.w3.org/2000/svg">
<g clip-path="url(#clip0_104_4897)">
<path d="M-0.128916 1321.22V1393.99H11.5135V1363.01H35.7338V1352.1H11.5135V1332.14H39.9958V1321.22H-0.128916Z" fill="#61FAC8"/>
<path d="M66.9974 1340.25C59.3051 1340.25 53.0681 1342.85 48.3903 1348.04C43.7126 1353.14 41.3217 1359.79 41.3217 1367.79C41.3217 1376.01 43.7126 1382.66 48.3903 1387.65C53.172 1392.64 59.409 1395.13 66.9974 1395.13C79.1595 1395.13 87.3716 1388.79 90.698 1377.88H79.8872C77.9121 1382.87 73.7541 1385.36 67.3092 1385.36C59.0972 1385.36 53.276 1379.96 52.7562 1371.54H91.1138V1367.27C91.1138 1349.81 81.4464 1340.25 66.9974 1340.25ZM66.8934 1349.91C74.6897 1349.91 79.8872 1355.01 79.9911 1362.91H52.8602C53.5878 1355.32 58.9932 1349.91 66.8934 1349.91Z" fill="#61FAC8"/>
<path d="M121.339 1340.25C113.646 1340.25 107.409 1342.85 102.732 1348.04C98.0538 1353.14 95.6629 1359.79 95.6629 1367.79C95.6629 1376.01 98.0538 1382.66 102.732 1387.65C107.513 1392.64 113.75 1395.13 121.339 1395.13C133.501 1395.13 141.713 1388.79 145.039 1377.88H134.228C132.253 1382.87 128.095 1385.36 121.65 1385.36C113.438 1385.36 107.617 1379.96 107.097 1371.54H145.455V1367.27C145.455 1349.81 135.788 1340.25 121.339 1340.25ZM121.235 1349.91C129.031 1349.91 134.228 1355.01 134.332 1362.91H107.201C107.929 1355.32 113.334 1349.91 121.235 1349.91Z" fill="#61FAC8"/>
<path d="M190.397 1317.07C179.274 1317.07 173.141 1323.3 173.141 1334.53V1341.39H164.201V1351.47H173.141V1393.99H184.264V1351.47H196.841V1341.39H184.264V1334.84C184.264 1329.54 186.654 1326.94 191.436 1326.94C193.411 1326.94 195.386 1327.36 197.361 1328.08V1318.21C195.594 1317.48 193.203 1317.07 190.397 1317.07Z" fill="#61FAC8"/>
<path d="M228.34 1340.87C220.024 1340.87 214.826 1344.92 212.851 1350.33L211.916 1341.39H202.248V1393.99H213.267V1366.65C213.371 1361.76 214.826 1358.02 217.841 1355.53C220.543 1353.14 224.078 1351.99 228.34 1351.99V1340.87Z" fill="#61FAC8"/>
<path d="M254.955 1340.25C247.262 1340.25 241.025 1342.85 236.348 1348.04C231.67 1353.14 229.279 1359.79 229.279 1367.79C229.279 1376.01 231.67 1382.66 236.348 1387.65C241.129 1392.64 247.366 1395.13 254.955 1395.13C267.117 1395.13 275.329 1388.79 278.655 1377.88H267.845C265.869 1382.87 261.711 1385.36 255.267 1385.36C247.055 1385.36 241.233 1379.96 240.714 1371.54H279.071V1367.27C279.071 1349.81 269.404 1340.25 254.955 1340.25ZM254.851 1349.91C262.647 1349.91 267.845 1355.01 267.948 1362.91H240.818C241.545 1355.32 246.951 1349.91 254.851 1349.91Z" fill="#61FAC8"/>
<path d="M309.296 1340.25C301.604 1340.25 295.367 1342.85 290.689 1348.04C286.011 1353.14 283.62 1359.79 283.62 1367.79C283.62 1376.01 286.011 1382.66 290.689 1387.65C295.471 1392.64 301.708 1395.13 309.296 1395.13C321.458 1395.13 329.67 1388.79 332.997 1377.88H322.186C320.211 1382.87 316.053 1385.36 309.608 1385.36C301.396 1385.36 295.575 1379.96 295.055 1371.54H333.412V1367.27C333.412 1349.81 323.745 1340.25 309.296 1340.25ZM309.192 1349.91C316.988 1349.91 322.186 1355.01 322.29 1362.91H295.159C295.886 1355.32 301.292 1349.91 309.192 1349.91Z" fill="#61FAC8"/>
<path d="M370.081 1362.08V1371.95H438.168V1362.08H370.081Z" fill="#61FAC8"/>
<path d="M478.206 1321.22V1393.99H504.817C516.148 1393.99 525.087 1390.66 531.844 1384.01C538.601 1377.36 542.031 1368.52 542.031 1357.61C542.031 1346.69 538.601 1337.96 531.844 1331.31C525.087 1324.55 516.148 1321.22 504.817 1321.22H478.206ZM504.817 1332.14C520.721 1332.14 530.077 1341.49 530.077 1357.61C530.077 1373.72 520.617 1383.07 504.817 1383.07H489.848V1332.14H504.817Z" fill="#61FAC8"/>
<path d="M571.523 1340.25C563.83 1340.25 557.593 1342.85 552.916 1348.04C548.238 1353.14 545.847 1359.79 545.847 1367.79C545.847 1376.01 548.238 1382.66 552.916 1387.65C557.697 1392.64 563.934 1395.13 571.523 1395.13C583.685 1395.13 591.897 1388.79 595.223 1377.88H584.412C582.437 1382.87 578.279 1385.36 571.834 1385.36C563.622 1385.36 557.801 1379.96 557.281 1371.54H595.639V1367.27C595.639 1349.81 585.972 1340.25 571.523 1340.25ZM571.419 1349.91C579.215 1349.91 584.412 1355.01 584.516 1362.91H557.385C558.113 1355.32 563.519 1349.91 571.419 1349.91Z" fill="#61FAC8"/>
<path d="M626.072 1340.25C618.483 1340.25 612.35 1342.85 607.465 1348.04C602.579 1353.24 600.188 1359.79 600.188 1367.79C600.188 1375.8 602.579 1382.45 607.465 1387.54C612.35 1392.64 618.587 1395.13 626.072 1395.13C638.13 1395.13 647.382 1388.58 649.98 1376.63H639.066C637.506 1381.62 632.621 1384.94 626.488 1384.94C622.226 1384.94 618.587 1383.28 615.781 1380.06C612.974 1376.84 611.623 1372.68 611.623 1367.79C611.623 1362.7 612.974 1358.54 615.781 1355.32C618.587 1352.1 622.018 1350.43 626.28 1350.43C632.517 1350.43 637.298 1353.45 639.066 1358.85H649.876C647.693 1346.9 638.442 1340.25 626.072 1340.25Z" fill="#61FAC8"/>
<path d="M678.885 1340.25C671.193 1340.25 664.956 1342.85 660.278 1348.04C655.601 1353.14 653.21 1359.79 653.21 1367.79C653.21 1376.01 655.601 1382.66 660.278 1387.65C665.06 1392.64 671.297 1395.13 678.885 1395.13C691.048 1395.13 699.26 1388.79 702.586 1377.88H691.775C689.8 1382.87 685.642 1385.36 679.197 1385.36C670.985 1385.36 665.164 1379.96 664.644 1371.54H703.002V1367.27C703.002 1349.81 693.334 1340.25 678.885 1340.25ZM678.781 1349.91C686.578 1349.91 691.775 1355.01 691.879 1362.91H664.748C665.476 1355.32 670.881 1349.91 678.781 1349.91Z" fill="#61FAC8"/>
<path d="M735.738 1340.25C728.982 1340.25 723.888 1343.57 721.289 1348.46L720.458 1341.39H710.894V1393.99H721.913V1366.03C721.913 1356.46 726.383 1351.06 732.724 1351.06C738.441 1351.06 741.664 1354.9 741.664 1362.08V1393.99H752.786V1359.89C752.786 1347.94 746.653 1340.25 735.738 1340.25Z" fill="#61FAC8"/>
<path d="M766.017 1328.5L765.913 1341.39H756.661V1351.58H765.913L765.705 1378.92C765.601 1389.83 770.903 1394.72 781.713 1394.72C785.144 1394.72 787.846 1394.3 789.821 1393.57V1383.8C788.158 1384.32 786.183 1384.63 783.896 1384.63C778.491 1384.63 776.724 1382.35 776.724 1376.52L776.932 1351.58H789.821V1341.39H777.036L777.14 1328.5H766.017Z" fill="#61FAC8"/>
<path d="M823.142 1340.87C814.826 1340.87 809.629 1344.92 807.654 1350.33L806.718 1341.39H797.051V1393.99H808.069V1366.65C808.173 1361.76 809.629 1358.02 812.643 1355.53C815.346 1353.14 818.88 1351.99 823.142 1351.99V1340.87Z" fill="#61FAC8"/>
<path d="M846.539 1340.25C840.614 1340.25 835.833 1342.01 832.194 1345.44C828.556 1348.87 826.581 1353.14 826.373 1358.44H837.08C837.08 1353.34 841.134 1350.12 846.539 1350.12C852.257 1350.12 855.167 1353.24 855.167 1359.58V1361.97L840.199 1364.67C829.907 1366.65 824.814 1371.74 824.814 1380.16C824.814 1389.41 831.051 1395.13 840.51 1395.13C847.683 1395.13 852.88 1392.43 855.999 1387.13L856.519 1393.99H866.29V1359.37C866.29 1347 858.91 1340.25 846.539 1340.25ZM855.167 1372.16C855.167 1375.38 854.336 1378.08 852.673 1380.47C850.49 1383.91 847.371 1385.57 843.109 1385.57C838.535 1385.57 835.937 1383.28 835.937 1379.64C835.937 1376.21 838.12 1373.93 842.589 1372.99L855.167 1370.29V1372.16Z" fill="#61FAC8"/>
<path d="M876.391 1318.1V1393.99H887.409V1318.1H876.391Z" fill="#61FAC8"/>
<path d="M898.857 1341.39V1393.99H909.875V1341.39H898.857ZM904.366 1318.62C900.52 1318.62 897.297 1321.64 897.297 1325.69C896.778 1331.72 905.302 1334.84 909.46 1330.58C914.033 1326.73 910.603 1318.21 904.366 1318.62Z" fill="#61FAC8"/>
<path d="M936.811 1340.25C931.094 1340.25 926.52 1341.91 923.298 1345.13C920.075 1348.35 918.516 1352.2 918.516 1356.77C918.516 1365.19 923.61 1369.66 934.94 1372.05C942.944 1373.72 945.231 1375.59 945.231 1379.64C945.231 1383.39 942.424 1385.78 937.331 1385.78C931.822 1385.78 928.495 1382.97 928.391 1378.08H917.269C917.58 1388.58 924.753 1395.13 937.123 1395.13C948.35 1395.13 956.354 1389.1 956.354 1378.6C956.354 1369.87 951.676 1365.3 939.202 1362.8C931.718 1361.14 929.639 1359.58 929.639 1355.84C929.639 1352.2 932.133 1349.71 936.603 1349.71C941.385 1349.71 943.88 1352.1 943.984 1356.88H955.002C954.898 1351.89 953.131 1347.83 949.701 1344.82C946.375 1341.81 942.113 1340.25 936.811 1340.25Z" fill="#61FAC8"/>
<path d="M985.404 1340.25C977.711 1340.25 971.474 1342.85 966.796 1348.04C962.119 1353.14 959.728 1359.79 959.728 1367.79C959.728 1376.01 962.119 1382.66 966.796 1387.65C971.578 1392.64 977.815 1395.13 985.404 1395.13C997.566 1395.13 1005.78 1388.79 1009.1 1377.88H998.293C996.318 1382.87 992.16 1385.36 985.715 1385.36C977.503 1385.36 971.682 1379.96 971.162 1371.54H1009.52V1367.27C1009.52 1349.81 999.853 1340.25 985.404 1340.25ZM985.3 1349.91C993.096 1349.91 998.293 1355.01 998.397 1362.91H971.266C971.994 1355.32 977.399 1349.91 985.3 1349.91Z" fill="#61FAC8"/>
<path d="M1055.34 1318.1V1347.94C1051.7 1342.85 1046.19 1340.25 1038.6 1340.25C1031.43 1340.25 1025.61 1342.85 1020.93 1348.15C1016.36 1353.34 1014.07 1359.89 1014.07 1367.69C1014.07 1375.49 1016.36 1382.03 1020.93 1387.34C1025.5 1392.53 1031.32 1395.13 1038.5 1395.13C1046.19 1395.13 1052.01 1392.33 1055.96 1386.61L1056.69 1393.99H1066.36V1318.1H1055.34ZM1040.58 1350.75C1044.53 1350.75 1047.96 1352.3 1050.97 1355.42C1053.99 1358.44 1055.44 1362.49 1055.44 1367.59V1368.1C1055.44 1373.2 1053.99 1377.25 1050.97 1380.27C1048.06 1383.28 1044.53 1384.74 1040.47 1384.74C1031.64 1384.74 1025.5 1377.77 1025.5 1367.69C1025.5 1357.71 1031.84 1350.75 1040.58 1350.75Z" fill="#61FAC8"/>
<path d="M1106.11 1362.08V1371.95H1174.2V1362.08H1106.11Z" fill="#61FAC8"/>
<path d="M1247.92 1319.87C1237 1319.87 1227.96 1323.41 1220.89 1330.58C1213.93 1337.65 1210.39 1346.59 1210.39 1357.5C1210.39 1368.42 1213.93 1377.46 1220.89 1384.63C1227.96 1391.81 1237 1395.34 1247.92 1395.34C1253.01 1395.34 1258 1394.4 1262.89 1392.53L1275.15 1404.8H1291.37L1272.97 1386.3C1281.18 1379.12 1285.24 1369.46 1285.24 1357.5C1285.24 1346.59 1281.7 1337.65 1274.74 1330.58C1267.77 1323.41 1258.83 1319.87 1247.92 1319.87ZM1222.66 1357.5C1222.66 1349.71 1224.94 1343.36 1229.62 1338.38C1234.3 1333.28 1240.43 1330.79 1247.92 1330.79C1255.4 1330.79 1261.43 1333.28 1266.11 1338.38C1270.79 1343.36 1273.07 1349.71 1273.07 1357.5C1273.07 1366.23 1270.27 1373.09 1264.65 1378.19L1257.9 1371.64H1241.58L1253.95 1383.8C1252.08 1384.22 1250.1 1384.43 1247.92 1384.43C1240.43 1384.43 1234.3 1381.93 1229.62 1376.84C1224.94 1371.74 1222.66 1365.3 1222.66 1357.5Z" fill="#61FAC8"/>
<path d="M1321.96 1341.39V1370.18C1321.96 1379.23 1317.59 1384.43 1311.35 1384.43C1305.43 1384.43 1302.52 1380.68 1302.52 1373.3V1341.39H1291.5V1375.49C1291.5 1387.54 1297.22 1395.13 1308.34 1395.13C1315.1 1395.13 1319.88 1392.43 1322.58 1386.92L1323.31 1393.99H1332.98V1341.39H1321.96Z" fill="#61FAC8"/>
<path d="M1362.64 1340.25C1356.71 1340.25 1351.93 1342.01 1348.29 1345.44C1344.65 1348.87 1342.68 1353.14 1342.47 1358.44H1353.18C1353.18 1353.34 1357.23 1350.12 1362.64 1350.12C1368.35 1350.12 1371.27 1353.24 1371.27 1359.58V1361.97L1356.3 1364.67C1346.01 1366.65 1340.91 1371.74 1340.91 1380.16C1340.91 1389.41 1347.15 1395.13 1356.61 1395.13C1363.78 1395.13 1368.98 1392.43 1372.1 1387.13L1372.62 1393.99H1382.39V1359.37C1382.39 1347 1375.01 1340.25 1362.64 1340.25ZM1371.27 1372.16C1371.27 1375.38 1370.43 1378.08 1368.77 1380.47C1366.59 1383.91 1363.47 1385.57 1359.21 1385.57C1354.63 1385.57 1352.03 1383.28 1352.03 1379.64C1352.03 1376.21 1354.22 1373.93 1358.69 1372.99L1371.27 1370.29V1372.16Z" fill="#61FAC8"/>
<path d="M1417.12 1340.25C1410.37 1340.25 1405.27 1343.57 1402.68 1348.46L1401.84 1341.39H1392.28V1393.99H1403.3V1366.03C1403.3 1356.46 1407.77 1351.06 1414.11 1351.06C1419.83 1351.06 1423.05 1354.9 1423.05 1362.08V1393.99H1434.17V1359.89C1434.17 1347.94 1428.04 1340.25 1417.12 1340.25Z" fill="#61FAC8"/>
<path d="M1447.4 1328.5L1447.3 1341.39H1438.05V1351.58H1447.3L1447.09 1378.92C1446.99 1389.83 1452.29 1394.72 1463.1 1394.72C1466.53 1394.72 1469.23 1394.3 1471.21 1393.57V1383.8C1469.54 1384.32 1467.57 1384.63 1465.28 1384.63C1459.88 1384.63 1458.11 1382.35 1458.11 1376.52L1458.32 1351.58H1471.21V1341.39H1458.42L1458.53 1328.5H1447.4Z" fill="#61FAC8"/>
<path d="M1507.75 1341.39V1370.18C1507.75 1379.23 1503.38 1384.43 1497.15 1384.43C1491.22 1384.43 1488.31 1380.68 1488.31 1373.3V1341.39H1477.29V1375.49C1477.29 1387.54 1483.01 1395.13 1494.13 1395.13C1500.89 1395.13 1505.67 1392.43 1508.37 1386.92L1509.1 1393.99H1518.77V1341.39H1507.75Z" fill="#61FAC8"/>
<path d="M1585.23 1340.25C1578.27 1340.25 1573.07 1343.47 1569.64 1350.02C1567.04 1343.47 1562.05 1340.25 1554.46 1340.25C1547.81 1340.25 1542.82 1343.57 1540.22 1348.46L1539.39 1341.39H1529.82V1393.99H1540.84V1366.03C1540.84 1356.46 1545.21 1351.06 1551.55 1351.06C1557.48 1351.06 1560.39 1354.7 1560.39 1362.08V1393.99H1571.4V1366.03C1571.4 1356.46 1575.98 1351.06 1582.22 1351.06C1588.14 1351.06 1591.05 1354.7 1591.05 1362.08V1393.99H1602.07V1359.89C1602.07 1347.83 1596.14 1340.25 1585.23 1340.25Z" fill="#61FAC8"/>
<path d="M1644.86 1340.25C1639.15 1340.25 1634.57 1341.91 1631.35 1345.13C1628.13 1348.35 1626.57 1352.2 1626.57 1356.77C1626.57 1365.19 1631.66 1369.66 1642.99 1372.05C1651 1373.72 1653.28 1375.59 1653.28 1379.64C1653.28 1383.39 1650.48 1385.78 1645.38 1385.78C1639.87 1385.78 1636.55 1382.97 1636.44 1378.08H1625.32C1625.63 1388.58 1632.81 1395.13 1645.18 1395.13C1656.4 1395.13 1664.41 1389.1 1664.41 1378.6C1664.41 1369.87 1659.73 1365.3 1647.26 1362.8C1639.77 1361.14 1637.69 1359.58 1637.69 1355.84C1637.69 1352.2 1640.19 1349.71 1644.66 1349.71C1649.44 1349.71 1651.93 1352.1 1652.04 1356.88H1663.06C1662.95 1351.89 1661.18 1347.83 1657.75 1344.82C1654.43 1341.81 1650.17 1340.25 1644.86 1340.25Z" fill="#61FAC8"/>
<path d="M1693.46 1340.25C1685.76 1340.25 1679.53 1342.85 1674.85 1348.04C1670.17 1353.14 1667.78 1359.79 1667.78 1367.79C1667.78 1376.01 1670.17 1382.66 1674.85 1387.65C1679.63 1392.64 1685.87 1395.13 1693.46 1395.13C1705.62 1395.13 1713.83 1388.79 1717.16 1377.88H1706.35C1704.37 1382.87 1700.21 1385.36 1693.77 1385.36C1685.56 1385.36 1679.73 1379.96 1679.22 1371.54H1717.57V1367.27C1717.57 1349.81 1707.91 1340.25 1693.46 1340.25ZM1693.35 1349.91C1701.15 1349.91 1706.35 1355.01 1706.45 1362.91H1679.32C1680.05 1355.32 1685.45 1349.91 1693.35 1349.91Z" fill="#61FAC8"/>
<path d="M1748.01 1340.25C1740.42 1340.25 1734.28 1342.85 1729.4 1348.04C1724.51 1353.24 1722.12 1359.79 1722.12 1367.79C1722.12 1375.8 1724.51 1382.45 1729.4 1387.54C1734.28 1392.64 1740.52 1395.13 1748.01 1395.13C1760.06 1395.13 1769.32 1388.58 1771.91 1376.63H1761C1759.44 1381.62 1754.55 1384.94 1748.42 1384.94C1744.16 1384.94 1740.52 1383.28 1737.71 1380.06C1734.91 1376.84 1733.56 1372.68 1733.56 1367.79C1733.56 1362.7 1734.91 1358.54 1737.71 1355.32C1740.52 1352.1 1743.95 1350.43 1748.21 1350.43C1754.45 1350.43 1759.23 1353.45 1761 1358.85H1771.81C1769.63 1346.9 1760.38 1340.25 1748.01 1340.25Z" fill="#61FAC8"/>
<path d="M1808.93 1341.39V1370.18C1808.93 1379.23 1804.56 1384.43 1798.32 1384.43C1792.4 1384.43 1789.49 1380.68 1789.49 1373.3V1341.39H1778.47V1375.49C1778.47 1387.54 1784.19 1395.13 1795.31 1395.13C1802.07 1395.13 1806.85 1392.43 1809.55 1386.92L1810.28 1393.99H1819.95V1341.39H1808.93Z" fill="#61FAC8"/>
<path d="M1857.51 1340.87C1849.19 1340.87 1843.99 1344.92 1842.02 1350.33L1841.08 1341.39H1831.42V1393.99H1842.44V1366.65C1842.54 1361.76 1843.99 1358.02 1847.01 1355.53C1849.71 1353.14 1853.25 1351.99 1857.51 1351.99V1340.87Z" fill="#61FAC8"/>
<path d="M1884.12 1340.25C1876.43 1340.25 1870.19 1342.85 1865.52 1348.04C1860.84 1353.14 1858.45 1359.79 1858.45 1367.79C1858.45 1376.01 1860.84 1382.66 1865.52 1387.65C1870.3 1392.64 1876.53 1395.13 1884.12 1395.13C1896.29 1395.13 1904.5 1388.79 1907.82 1377.88H1897.01C1895.04 1382.87 1890.88 1385.36 1884.44 1385.36C1876.22 1385.36 1870.4 1379.96 1869.88 1371.54H1908.24V1367.27C1908.24 1349.81 1898.57 1340.25 1884.12 1340.25ZM1884.02 1349.91C1891.82 1349.91 1897.01 1355.01 1897.12 1362.91H1869.99C1870.71 1355.32 1876.12 1349.91 1884.02 1349.91Z" fill="#61FAC8"/>
<path d="M-5.32642 1464.08V1473.95H62.7608V1464.08H-5.32642Z" fill="#61FAC8"/>
<path d="M102.695 1423.22V1495.99H145.834V1485.07H114.337V1423.22H102.695Z" fill="#61FAC8"/>
<path d="M151.861 1443.39V1495.99H162.88V1443.39H151.861ZM157.371 1420.62C153.524 1420.62 150.302 1423.64 150.302 1427.69C149.782 1433.72 158.306 1436.84 162.464 1432.58C167.038 1428.73 163.608 1420.21 157.371 1420.62Z" fill="#61FAC8"/>
<path d="M200.419 1443.39C198.028 1442.66 195.533 1442.25 192.934 1442.25C186.801 1442.25 181.812 1444.01 177.965 1447.55C174.119 1451.08 172.248 1455.55 172.248 1461.06C172.248 1465.12 173.392 1468.65 175.678 1471.87C172.04 1474.68 170.273 1478.32 170.273 1482.79C170.273 1487.57 172.456 1491.21 176.926 1493.81C173.184 1495.99 171.313 1499.11 171.313 1503.26C171.313 1513.66 179.629 1519.48 194.701 1519.48C208.527 1519.48 217.155 1512.83 217.155 1501.5C217.155 1492.25 211.229 1486.84 200.315 1486.84H187.113C183.371 1486.84 181.084 1484.97 181.084 1481.96C181.084 1480.08 181.604 1478.63 182.747 1477.49C185.762 1478.84 189.088 1479.56 192.934 1479.56C198.963 1479.56 203.849 1477.8 207.591 1474.37C211.333 1470.83 213.204 1466.36 213.204 1461.06C213.204 1458.25 212.581 1455.55 211.437 1452.95H219.857V1443.39H200.419ZM192.83 1451.29C198.651 1451.29 202.498 1455.24 202.498 1461.06C202.498 1466.57 198.651 1470.73 192.83 1470.73C187.009 1470.73 183.059 1466.57 183.059 1461.06C183.059 1455.24 186.905 1451.29 192.83 1451.29ZM197.82 1495.78C203.537 1495.78 206.344 1497.86 206.344 1502.12C206.344 1507.73 202.498 1510.54 194.701 1510.54C186.801 1510.54 182.227 1507.84 182.227 1502.54C182.227 1498.38 184.93 1496.09 188.776 1495.78H197.82Z" fill="#61FAC8"/>
<path d="M223.182 1420.1V1495.99H234.2V1468.03C234.2 1458.46 238.67 1453.06 245.011 1453.06C250.728 1453.06 253.951 1456.9 253.951 1464.08V1495.99H265.074V1461.89C265.074 1449.94 258.941 1442.25 248.026 1442.25C241.477 1442.25 236.903 1444.64 234.2 1449.52V1420.1H223.182Z" fill="#61FAC8"/>
<path d="M278.304 1430.5L278.2 1443.39H268.949V1453.58H278.2L277.992 1480.92C277.888 1491.83 283.19 1496.72 294.001 1496.72C297.431 1496.72 300.134 1496.3 302.109 1495.57V1485.8C300.446 1486.32 298.471 1486.63 296.184 1486.63C290.778 1486.63 289.011 1484.35 289.011 1478.52L289.219 1453.58H302.109V1443.39H289.323L289.427 1430.5H278.304Z" fill="#61FAC8"/>
<path d="M333.766 1442.25C327.009 1442.25 321.916 1445.57 319.317 1450.46L318.486 1443.39H308.922V1495.99H319.941V1468.03C319.941 1458.46 324.411 1453.06 330.752 1453.06C336.469 1453.06 339.691 1456.9 339.691 1464.08V1495.99H350.814V1461.89C350.814 1449.94 344.681 1442.25 333.766 1442.25Z" fill="#61FAC8"/>
<path d="M361.238 1443.39V1495.99H372.257V1443.39H361.238ZM366.747 1420.62C362.901 1420.62 359.679 1423.64 359.679 1427.69C359.159 1433.72 367.683 1436.84 371.841 1432.58C376.415 1428.73 372.984 1420.21 366.747 1420.62Z" fill="#61FAC8"/>
<path d="M408.34 1442.25C401.583 1442.25 396.49 1445.57 393.891 1450.46L393.059 1443.39H383.496V1495.99H394.515V1468.03C394.515 1458.46 398.985 1453.06 405.325 1453.06C411.043 1453.06 414.265 1456.9 414.265 1464.08V1495.99H425.388V1461.89C425.388 1449.94 419.255 1442.25 408.34 1442.25Z" fill="#61FAC8"/>
<path d="M461.903 1443.39C459.512 1442.66 457.018 1442.25 454.419 1442.25C448.286 1442.25 443.296 1444.01 439.45 1447.55C435.604 1451.08 433.733 1455.55 433.733 1461.06C433.733 1465.12 434.876 1468.65 437.163 1471.87C433.525 1474.68 431.758 1478.32 431.758 1482.79C431.758 1487.57 433.941 1491.21 438.411 1493.81C434.668 1495.99 432.797 1499.11 432.797 1503.26C432.797 1513.66 441.113 1519.48 456.186 1519.48C470.011 1519.48 478.639 1512.83 478.639 1501.5C478.639 1492.25 472.714 1486.84 461.799 1486.84H448.598C444.855 1486.84 442.569 1484.97 442.569 1481.96C442.569 1480.08 443.088 1478.63 444.232 1477.49C447.246 1478.84 450.573 1479.56 454.419 1479.56C460.448 1479.56 465.334 1477.8 469.076 1474.37C472.818 1470.83 474.689 1466.36 474.689 1461.06C474.689 1458.25 474.065 1455.55 472.922 1452.95H481.342V1443.39H461.903ZM454.315 1451.29C460.136 1451.29 463.982 1455.24 463.982 1461.06C463.982 1466.57 460.136 1470.73 454.315 1470.73C448.494 1470.73 444.544 1466.57 444.544 1461.06C444.544 1455.24 448.39 1451.29 454.315 1451.29ZM459.305 1495.78C465.022 1495.78 467.828 1497.86 467.828 1502.12C467.828 1507.73 463.982 1510.54 456.186 1510.54C448.286 1510.54 443.712 1507.84 443.712 1502.54C443.712 1498.38 446.415 1496.09 450.261 1495.78H459.305Z" fill="#61FAC8"/>
<path d="M521.715 1419.07C510.593 1419.07 504.46 1425.3 504.46 1436.53V1443.39H495.52V1453.47H504.46V1495.99H515.582V1453.47H528.16V1443.39H515.582V1436.84C515.582 1431.54 517.973 1428.94 522.755 1428.94C524.73 1428.94 526.705 1429.36 528.68 1430.08V1420.21C526.913 1419.48 524.522 1419.07 521.715 1419.07Z" fill="#61FAC8"/>
<path d="M551.758 1442.25C545.833 1442.25 541.051 1444.01 537.413 1447.44C533.775 1450.87 531.8 1455.14 531.592 1460.44H542.299C542.299 1455.34 546.353 1452.12 551.758 1452.12C557.476 1452.12 560.386 1455.24 560.386 1461.58V1463.97L545.417 1466.67C535.126 1468.65 530.033 1473.74 530.033 1482.16C530.033 1491.41 536.27 1497.13 545.729 1497.13C552.902 1497.13 558.099 1494.43 561.218 1489.13L561.738 1495.99H571.509V1461.37C571.509 1449 564.128 1442.25 551.758 1442.25ZM560.386 1474.16C560.386 1477.38 559.555 1480.08 557.891 1482.47C555.708 1485.91 552.59 1487.57 548.328 1487.57C543.754 1487.57 541.155 1485.28 541.155 1481.64C541.155 1478.21 543.338 1475.93 547.808 1474.99L560.386 1472.29V1474.16Z" fill="#61FAC8"/>
<path d="M597.098 1442.25C591.381 1442.25 586.807 1443.91 583.585 1447.13C580.362 1450.35 578.803 1454.2 578.803 1458.77C578.803 1467.19 583.896 1471.66 595.227 1474.05C603.231 1475.72 605.518 1477.59 605.518 1481.64C605.518 1485.39 602.711 1487.78 597.618 1487.78C592.109 1487.78 588.782 1484.97 588.678 1480.08H577.556C577.867 1490.58 585.04 1497.13 597.41 1497.13C608.637 1497.13 616.641 1491.1 616.641 1480.6C616.641 1471.87 611.963 1467.3 599.489 1464.8C592.005 1463.14 589.926 1461.58 589.926 1457.84C589.926 1454.2 592.42 1451.71 596.89 1451.71C601.672 1451.71 604.167 1454.1 604.271 1458.88H615.289C615.185 1453.89 613.418 1449.83 609.988 1446.82C606.662 1443.81 602.4 1442.25 597.098 1442.25Z" fill="#61FAC8"/>
<path d="M627.083 1430.5L626.979 1443.39H617.728V1453.58H626.979L626.772 1480.92C626.668 1491.83 631.969 1496.72 642.78 1496.72C646.21 1496.72 648.913 1496.3 650.888 1495.57V1485.8C649.225 1486.32 647.25 1486.63 644.963 1486.63C639.557 1486.63 637.79 1484.35 637.79 1478.52L637.998 1453.58H650.888V1443.39H638.102L638.206 1430.5H627.083Z" fill="#61FAC8"/>
<path d="M686.477 1464.08V1473.95H754.564V1464.08H686.477Z" fill="#61FAC8"/>
<path d="M794.602 1423.22V1495.99H806.245V1423.22H794.602Z" fill="#61FAC8"/>
<path d="M842.313 1442.25C835.557 1442.25 830.463 1445.57 827.864 1450.46L827.033 1443.39H817.469V1495.99H828.488V1468.03C828.488 1458.46 832.958 1453.06 839.299 1453.06C845.016 1453.06 848.238 1456.9 848.238 1464.08V1495.99H859.361V1461.89C859.361 1449.94 853.228 1442.25 842.313 1442.25Z" fill="#61FAC8"/>
<path d="M889.224 1419.07C878.413 1419.07 872.488 1425.3 872.488 1436.53V1443.39H863.236V1453.47H872.488V1495.99H883.61V1453.47H895.669V1443.39H883.61V1436.84C883.61 1431.54 885.689 1428.94 889.743 1428.94C891.719 1428.94 893.694 1429.36 895.669 1430.08V1420.21C893.901 1419.48 891.719 1419.07 889.224 1419.07ZM904.608 1443.39V1495.99H915.627V1443.39H904.608ZM903.049 1427.69C903.049 1431.54 906.064 1434.55 910.118 1434.55C914.172 1434.55 917.29 1431.54 917.29 1427.69C917.29 1423.85 914.172 1420.62 910.118 1420.62C906.064 1420.62 903.049 1423.64 903.049 1427.69Z" fill="#61FAC8"/>
<path d="M951.808 1442.25C945.051 1442.25 939.958 1445.57 937.359 1450.46L936.527 1443.39H926.964V1495.99H937.983V1468.03C937.983 1458.46 942.452 1453.06 948.793 1453.06C954.511 1453.06 957.733 1456.9 957.733 1464.08V1495.99H968.856V1461.89C968.856 1449.94 962.723 1442.25 951.808 1442.25Z" fill="#61FAC8"/>
<path d="M979.28 1443.39V1495.99H990.298V1443.39H979.28ZM984.789 1420.62C980.943 1420.62 977.72 1423.64 977.72 1427.69C977.201 1433.72 985.725 1436.84 989.883 1432.58C994.456 1428.73 991.026 1420.21 984.789 1420.62Z" fill="#61FAC8"/>
<path d="M1004.55 1430.5L1004.45 1443.39H995.197V1453.58H1004.45L1004.24 1480.92C1004.14 1491.83 1009.44 1496.72 1020.25 1496.72C1023.68 1496.72 1026.38 1496.3 1028.36 1495.57V1485.8C1026.69 1486.32 1024.72 1486.63 1022.43 1486.63C1017.03 1486.63 1015.26 1484.35 1015.26 1478.52L1015.47 1453.58H1028.36V1443.39H1015.57L1015.67 1430.5H1004.55Z" fill="#61FAC8"/>
<path d="M1056.79 1442.25C1049.1 1442.25 1042.86 1444.85 1038.18 1450.04C1033.51 1455.14 1031.12 1461.79 1031.12 1469.79C1031.12 1478.01 1033.51 1484.66 1038.18 1489.65C1042.97 1494.64 1049.2 1497.13 1056.79 1497.13C1068.95 1497.13 1077.17 1490.79 1080.49 1479.88H1069.68C1067.71 1484.87 1063.55 1487.36 1057.1 1487.36C1048.89 1487.36 1043.07 1481.96 1042.55 1473.54H1080.91V1469.27C1080.91 1451.81 1071.24 1442.25 1056.79 1442.25ZM1056.69 1451.91C1064.48 1451.91 1069.68 1457.01 1069.79 1464.91H1042.65C1043.38 1457.32 1048.79 1451.91 1056.69 1451.91Z" fill="#61FAC8"/>
<path d="M1089.01 1420.1V1495.99H1100.03V1420.1H1089.01Z" fill="#61FAC8"/>
<path d="M1143.39 1443.39L1131.12 1478.63L1130.08 1482.89L1129.04 1478.63L1116.88 1443.39H1105.03L1124.26 1495.26L1115.84 1518.34H1127.38L1155.24 1443.39H1143.39Z" fill="#61FAC8"/>
<path d="M1192.91 1442.25C1187.19 1442.25 1182.62 1443.91 1179.39 1447.13C1176.17 1450.35 1174.61 1454.2 1174.61 1458.77C1174.61 1467.19 1179.71 1471.66 1191.04 1474.05C1199.04 1475.72 1201.33 1477.59 1201.33 1481.64C1201.33 1485.39 1198.52 1487.78 1193.43 1487.78C1187.92 1487.78 1184.59 1484.97 1184.49 1480.08H1173.37C1173.68 1490.58 1180.85 1497.13 1193.22 1497.13C1204.45 1497.13 1212.45 1491.1 1212.45 1480.6C1212.45 1471.87 1207.77 1467.3 1195.3 1464.8C1187.81 1463.14 1185.74 1461.58 1185.74 1457.84C1185.74 1454.2 1188.23 1451.71 1192.7 1451.71C1197.48 1451.71 1199.98 1454.1 1200.08 1458.88H1211.1C1211 1453.89 1209.23 1449.83 1205.8 1446.82C1202.47 1443.81 1198.21 1442.25 1192.91 1442.25Z" fill="#61FAC8"/>
<path d="M1241.71 1442.25C1234.12 1442.25 1227.99 1444.85 1223.1 1450.04C1218.22 1455.24 1215.83 1461.79 1215.83 1469.79C1215.83 1477.8 1218.22 1484.45 1223.1 1489.54C1227.99 1494.64 1234.22 1497.13 1241.71 1497.13C1253.77 1497.13 1263.02 1490.58 1265.62 1478.63H1254.7C1253.14 1483.62 1248.26 1486.94 1242.12 1486.94C1237.86 1486.94 1234.22 1485.28 1231.42 1482.06C1228.61 1478.84 1227.26 1474.68 1227.26 1469.79C1227.26 1464.7 1228.61 1460.54 1231.42 1457.32C1234.22 1454.1 1237.65 1452.43 1241.92 1452.43C1248.15 1452.43 1252.94 1455.45 1254.7 1460.85H1265.51C1263.33 1448.9 1254.08 1442.25 1241.71 1442.25Z" fill="#61FAC8"/>
<path d="M1291.51 1442.25C1285.58 1442.25 1280.8 1444.01 1277.16 1447.44C1273.52 1450.87 1271.55 1455.14 1271.34 1460.44H1282.05C1282.05 1455.34 1286.1 1452.12 1291.51 1452.12C1297.22 1452.12 1300.14 1455.24 1300.14 1461.58V1463.97L1285.17 1466.67C1274.88 1468.65 1269.78 1473.74 1269.78 1482.16C1269.78 1491.41 1276.02 1497.13 1285.48 1497.13C1292.65 1497.13 1297.85 1494.43 1300.97 1489.13L1301.49 1495.99H1311.26V1461.37C1311.26 1449 1303.88 1442.25 1291.51 1442.25ZM1300.14 1474.16C1300.14 1477.38 1299.3 1480.08 1297.64 1482.47C1295.46 1485.91 1292.34 1487.57 1288.08 1487.57C1283.5 1487.57 1280.9 1485.28 1280.9 1481.64C1280.9 1478.21 1283.09 1475.93 1287.56 1474.99L1300.14 1472.29V1474.16Z" fill="#61FAC8"/>
<path d="M1321.36 1420.1V1495.99H1332.38V1420.1H1321.36Z" fill="#61FAC8"/>
<path d="M1362.22 1442.25C1356.3 1442.25 1351.52 1444.01 1347.88 1447.44C1344.24 1450.87 1342.27 1455.14 1342.06 1460.44H1352.76C1352.76 1455.34 1356.82 1452.12 1362.22 1452.12C1367.94 1452.12 1370.85 1455.24 1370.85 1461.58V1463.97L1355.88 1466.67C1345.59 1468.65 1340.5 1473.74 1340.5 1482.16C1340.5 1491.41 1346.74 1497.13 1356.19 1497.13C1363.37 1497.13 1368.56 1494.43 1371.68 1489.13L1372.2 1495.99H1381.97V1461.37C1381.97 1449 1374.59 1442.25 1362.22 1442.25ZM1370.85 1474.16C1370.85 1477.38 1370.02 1480.08 1368.36 1482.47C1366.17 1485.91 1363.06 1487.57 1358.79 1487.57C1354.22 1487.57 1351.62 1485.28 1351.62 1481.64C1351.62 1478.21 1353.8 1475.93 1358.27 1474.99L1370.85 1472.29V1474.16Z" fill="#61FAC8"/>
<path d="M1391.87 1420.1V1495.99H1401.43L1402.26 1488.61C1406.11 1494.33 1411.83 1497.13 1419.62 1497.13C1426.79 1497.13 1432.62 1494.53 1437.19 1489.34C1441.76 1484.03 1444.05 1477.49 1444.05 1469.69C1444.05 1461.89 1441.76 1455.34 1437.19 1450.15C1432.62 1444.85 1426.69 1442.25 1419.52 1442.25C1411.93 1442.25 1405.9 1445.47 1402.89 1449.94V1420.1H1391.87ZM1417.54 1452.75C1426.38 1452.75 1432.72 1459.71 1432.72 1469.69C1432.72 1479.77 1426.48 1486.74 1417.65 1486.74C1413.59 1486.74 1410.06 1485.28 1407.04 1482.27C1404.13 1479.25 1402.68 1475.2 1402.68 1470.1V1469.59C1402.68 1464.49 1404.13 1460.44 1407.15 1457.42C1410.16 1454.3 1413.59 1452.75 1417.54 1452.75Z" fill="#61FAC8"/>
<path d="M1451.29 1420.1V1495.99H1462.31V1420.1H1451.29Z" fill="#61FAC8"/>
<path d="M1495.17 1442.25C1487.48 1442.25 1481.24 1444.85 1476.56 1450.04C1471.88 1455.14 1469.49 1461.79 1469.49 1469.79C1469.49 1478.01 1471.88 1484.66 1476.56 1489.65C1481.34 1494.64 1487.58 1497.13 1495.17 1497.13C1507.33 1497.13 1515.54 1490.79 1518.87 1479.88H1508.06C1506.08 1484.87 1501.93 1487.36 1495.48 1487.36C1487.27 1487.36 1481.45 1481.96 1480.93 1473.54H1519.29V1469.27C1519.29 1451.81 1509.62 1442.25 1495.17 1442.25ZM1495.06 1451.91C1502.86 1451.91 1508.06 1457.01 1508.16 1464.91H1481.03C1481.76 1457.32 1487.16 1451.91 1495.06 1451.91Z" fill="#61FAC8"/>
<path d="M1555.95 1464.08V1473.95H1624.04V1464.08H1555.95Z" fill="#61FAC8"/>
<path d="M1697.76 1421.87C1686.84 1421.87 1677.8 1425.41 1670.73 1432.58C1663.77 1439.65 1660.23 1448.59 1660.23 1459.5C1660.23 1470.42 1663.77 1479.46 1670.73 1486.63C1677.8 1493.81 1686.84 1497.34 1697.76 1497.34C1702.85 1497.34 1707.84 1496.4 1712.73 1494.53L1724.99 1506.8H1741.21L1722.81 1488.3C1731.02 1481.12 1735.08 1471.46 1735.08 1459.5C1735.08 1448.59 1731.54 1439.65 1724.58 1432.58C1717.61 1425.41 1708.67 1421.87 1697.76 1421.87ZM1672.5 1459.5C1672.5 1451.71 1674.79 1445.36 1679.46 1440.38C1684.14 1435.28 1690.27 1432.79 1697.76 1432.79C1705.24 1432.79 1711.27 1435.28 1715.95 1440.38C1720.63 1445.36 1722.91 1451.71 1722.91 1459.5C1722.91 1468.23 1720.11 1475.09 1714.49 1480.19L1707.74 1473.64H1691.42L1703.79 1485.8C1701.92 1486.22 1699.94 1486.43 1697.76 1486.43C1690.27 1486.43 1684.14 1483.93 1679.46 1478.84C1674.79 1473.74 1672.5 1467.3 1672.5 1459.5Z" fill="#61FAC8"/>
<path d="M1771.8 1443.39V1472.18C1771.8 1481.23 1767.43 1486.43 1761.19 1486.43C1755.27 1486.43 1752.36 1482.68 1752.36 1475.3V1443.39H1741.34V1477.49C1741.34 1489.54 1747.06 1497.13 1758.18 1497.13C1764.94 1497.13 1769.72 1494.43 1772.42 1488.92L1773.15 1495.99H1782.82V1443.39H1771.8Z" fill="#61FAC8"/>
<path d="M1812.48 1442.25C1806.55 1442.25 1801.77 1444.01 1798.13 1447.44C1794.49 1450.87 1792.52 1455.14 1792.31 1460.44H1803.02C1803.02 1455.34 1807.07 1452.12 1812.48 1452.12C1818.2 1452.12 1821.11 1455.24 1821.11 1461.58V1463.97L1806.14 1466.67C1795.85 1468.65 1790.75 1473.74 1790.75 1482.16C1790.75 1491.41 1796.99 1497.13 1806.45 1497.13C1813.62 1497.13 1818.82 1494.43 1821.94 1489.13L1822.46 1495.99H1832.23V1461.37C1832.23 1449 1824.85 1442.25 1812.48 1442.25ZM1821.11 1474.16C1821.11 1477.38 1820.27 1480.08 1818.61 1482.47C1816.43 1485.91 1813.31 1487.57 1809.05 1487.57C1804.47 1487.57 1801.88 1485.28 1801.88 1481.64C1801.88 1478.21 1804.06 1475.93 1808.53 1474.99L1821.11 1472.29V1474.16Z" fill="#61FAC8"/>
<path d="M1866.97 1442.25C1860.21 1442.25 1855.12 1445.57 1852.52 1450.46L1851.68 1443.39H1842.12V1495.99H1853.14V1468.03C1853.14 1458.46 1857.61 1453.06 1863.95 1453.06C1869.67 1453.06 1872.89 1456.9 1872.89 1464.08V1495.99H1884.01V1461.89C1884.01 1449.94 1877.88 1442.25 1866.97 1442.25Z" fill="#61FAC8"/>
<path d="M1897.24 1430.5L1897.14 1443.39H1887.89V1453.58H1897.14L1896.93 1480.92C1896.83 1491.83 1902.13 1496.72 1912.94 1496.72C1916.37 1496.72 1919.07 1496.3 1921.05 1495.57V1485.8C1919.39 1486.32 1917.41 1486.63 1915.12 1486.63C1909.72 1486.63 1907.95 1484.35 1907.95 1478.52L1908.16 1453.58H1921.05V1443.39H1908.26L1908.37 1430.5H1897.24Z" fill="#61FAC8"/>
<path d="M1957.59 1443.39V1472.18C1957.59 1481.23 1953.23 1486.43 1946.99 1486.43C1941.06 1486.43 1938.15 1482.68 1938.15 1475.3V1443.39H1927.13V1477.49C1927.13 1489.54 1932.85 1497.13 1943.97 1497.13C1950.73 1497.13 1955.51 1494.43 1958.22 1488.92L1958.94 1495.99H1968.61V1443.39H1957.59Z" fill="#61FAC8"/>
<path d="M2035.07 1442.25C2028.11 1442.25 2022.91 1445.47 2019.48 1452.02C2016.88 1445.47 2011.89 1442.25 2004.3 1442.25C1997.65 1442.25 1992.66 1445.57 1990.06 1450.46L1989.23 1443.39H1979.67V1495.99H1990.68V1468.03C1990.68 1458.46 1995.05 1453.06 2001.39 1453.06C2007.32 1453.06 2010.23 1456.7 2010.23 1464.08V1495.99H2021.25V1468.03C2021.25 1458.46 2025.82 1453.06 2032.06 1453.06C2037.98 1453.06 2040.89 1456.7 2040.89 1464.08V1495.99H2051.91V1461.89C2051.91 1449.83 2045.99 1442.25 2035.07 1442.25Z" fill="#61FAC8"/>
<path d="M2094.71 1442.25C2088.99 1442.25 2084.41 1443.91 2081.19 1447.13C2077.97 1450.35 2076.41 1454.2 2076.41 1458.77C2076.41 1467.19 2081.5 1471.66 2092.83 1474.05C2100.84 1475.72 2103.12 1477.59 2103.12 1481.64C2103.12 1485.39 2100.32 1487.78 2095.22 1487.78C2089.72 1487.78 2086.39 1484.97 2086.28 1480.08H2075.16C2075.47 1490.58 2082.65 1497.13 2095.02 1497.13C2106.24 1497.13 2114.25 1491.1 2114.25 1480.6C2114.25 1471.87 2109.57 1467.3 2097.1 1464.8C2089.61 1463.14 2087.53 1461.58 2087.53 1457.84C2087.53 1454.2 2090.03 1451.71 2094.5 1451.71C2099.28 1451.71 2101.77 1454.1 2101.88 1458.88H2112.9C2112.79 1453.89 2111.03 1449.83 2107.59 1446.82C2104.27 1443.81 2100.01 1442.25 2094.71 1442.25Z" fill="#61FAC8"/>
<path d="M2143.3 1442.25C2135.61 1442.25 2129.37 1444.85 2124.69 1450.04C2120.01 1455.14 2117.62 1461.79 2117.62 1469.79C2117.62 1478.01 2120.01 1484.66 2124.69 1489.65C2129.47 1494.64 2135.71 1497.13 2143.3 1497.13C2155.46 1497.13 2163.67 1490.79 2167 1479.88H2156.19C2154.21 1484.87 2150.05 1487.36 2143.61 1487.36C2135.4 1487.36 2129.58 1481.96 2129.06 1473.54H2167.41V1469.27C2167.41 1451.81 2157.75 1442.25 2143.3 1442.25ZM2143.19 1451.91C2150.99 1451.91 2156.19 1457.01 2156.29 1464.91H2129.16C2129.89 1457.32 2135.29 1451.91 2143.19 1451.91Z" fill="#61FAC8"/>
<path d="M2197.85 1442.25C2190.26 1442.25 2184.13 1444.85 2179.24 1450.04C2174.35 1455.24 2171.96 1461.79 2171.96 1469.79C2171.96 1477.8 2174.35 1484.45 2179.24 1489.54C2184.13 1494.64 2190.36 1497.13 2197.85 1497.13C2209.9 1497.13 2219.16 1490.58 2221.76 1478.63H2210.84C2209.28 1483.62 2204.4 1486.94 2198.26 1486.94C2194 1486.94 2190.36 1485.28 2187.56 1482.06C2184.75 1478.84 2183.4 1474.68 2183.4 1469.79C2183.4 1464.7 2184.75 1460.54 2187.56 1457.32C2190.36 1454.1 2193.79 1452.43 2198.05 1452.43C2204.29 1452.43 2209.07 1455.45 2210.84 1460.85H2221.65C2219.47 1448.9 2210.22 1442.25 2197.85 1442.25Z" fill="#61FAC8"/>
<path d="M2258.77 1443.39V1472.18C2258.77 1481.23 2254.4 1486.43 2248.17 1486.43C2242.24 1486.43 2239.33 1482.68 2239.33 1475.3V1443.39H2228.31V1477.49C2228.31 1489.54 2234.03 1497.13 2245.15 1497.13C2251.91 1497.13 2256.69 1494.43 2259.39 1488.92L2260.12 1495.99H2269.79V1443.39H2258.77Z" fill="#61FAC8"/>
<path d="M2307.35 1442.87C2299.03 1442.87 2293.84 1446.92 2291.86 1452.33L2290.93 1443.39H2281.26V1495.99H2292.28V1468.65C2292.38 1463.76 2293.84 1460.02 2296.85 1457.53C2299.55 1455.14 2303.09 1453.99 2307.35 1453.99V1442.87Z" fill="#61FAC8"/>
<path d="M2333.96 1442.25C2326.27 1442.25 2320.03 1444.85 2315.36 1450.04C2310.68 1455.14 2308.29 1461.79 2308.29 1469.79C2308.29 1478.01 2310.68 1484.66 2315.36 1489.65C2320.14 1494.64 2326.38 1497.13 2333.96 1497.13C2346.13 1497.13 2354.34 1490.79 2357.66 1479.88H2346.85C2344.88 1484.87 2340.72 1487.36 2334.28 1487.36C2326.06 1487.36 2320.24 1481.96 2319.72 1473.54H2358.08V1469.27C2358.08 1451.81 2348.41 1442.25 2333.96 1442.25ZM2333.86 1451.91C2341.66 1451.91 2346.85 1457.01 2346.96 1464.91H2319.83C2320.55 1457.32 2325.96 1451.91 2333.86 1451.91Z" fill="#61FAC8"/>
<path fill-rule="evenodd" clip-rule="evenodd" d="M1698.39 -0.358816H-128.305C-128.305 -0.358816 -284.239 1014.54 -281.967 1139.67C-279.223 1290.84 251.721 785.625 570.548 999.322C889.375 1213.02 993.34 1495.79 1352.6 1416.66C1511.97 1381.56 1636.61 1191.55 1748.79 1044.28C1889.5 859.568 2010.6 960.195 2156.04 1044.28C2417.44 1195.41 1977.45 1772.4 2115.34 1630.9C2253.23 1489.4 2588.23 362.181 2314.14 208.087C2040.05 53.9937 1916.92 -27 1916.92 -27L1698.39 -0.358816Z" fill="url(#paint0_radial_104_4897)"/>
<path d="M1487.26 1348.58V1341.39H1476.24V1356.98C1479.94 1354.25 1483.61 1351.44 1487.26 1348.58Z" fill="white"/>
<path d="M1457.11 1370.4L1457.27 1351.58H1470.16V1341.39H1457.37L1457.48 1328.5H1446.35L1446.25 1341.39H1437V1351.58H1446.25L1446.05 1377.48C1449.76 1375.19 1453.44 1372.83 1457.11 1370.4Z" fill="white"/>
<path d="M1433.12 1385.1V1359.89C1433.12 1347.94 1426.99 1340.25 1416.07 1340.25C1409.32 1340.25 1404.22 1343.57 1401.63 1348.46L1400.79 1341.39H1391.23V1393.99H1402.25V1366.03C1402.25 1356.46 1406.72 1351.06 1413.06 1351.06C1418.78 1351.06 1422 1354.9 1422 1362.08V1391.1C1425.73 1389.18 1429.43 1387.18 1433.12 1385.1Z" fill="white"/>
<path d="M1331.33 1420.98V1420.1H1320.31V1422.93C1323.95 1422.32 1327.63 1421.67 1331.33 1420.98Z" fill="white"/>
<path d="M1065.31 1393.12V1318.1H1054.29V1347.94C1050.65 1342.84 1045.14 1340.25 1037.55 1340.25C1030.38 1340.25 1024.56 1342.84 1019.88 1348.15C1015.85 1352.73 1013.59 1358.36 1013.11 1364.98C1017.01 1367.38 1020.92 1369.73 1024.86 1372.02C1024.59 1370.66 1024.45 1369.21 1024.45 1367.69C1024.45 1357.71 1030.79 1350.74 1039.53 1350.74C1043.48 1350.74 1046.91 1352.3 1049.92 1355.42C1052.94 1358.44 1054.39 1362.49 1054.39 1367.58V1368.1C1054.39 1373.2 1052.94 1377.25 1049.92 1380.27C1048.59 1381.64 1047.13 1382.69 1045.55 1383.43C1048.38 1384.9 1051.21 1386.34 1054.07 1387.75C1054.36 1387.38 1054.64 1387 1054.91 1386.61L1055.07 1388.25C1058.46 1389.91 1061.87 1391.54 1065.31 1393.12Z" fill="white"/>
<path d="M1008.13 1361.87C1006.32 1347.85 997.235 1340.25 984.353 1340.25C981.841 1340.25 979.483 1340.52 977.284 1341.08C987.467 1348.37 997.736 1355.31 1008.13 1361.87Z" fill="white"/>
<path d="M1105.06 1362.08V1371.95H1173.15V1362.08H1105.06Z" fill="white"/>
<path fill-rule="evenodd" clip-rule="evenodd" d="M1219.84 1330.58C1226.91 1323.41 1235.95 1319.87 1246.87 1319.87C1257.78 1319.87 1266.72 1323.41 1273.69 1330.58C1280.65 1337.65 1284.19 1346.59 1284.19 1357.5C1284.19 1369.46 1280.13 1379.12 1271.92 1386.3L1290.32 1404.8H1274.1L1261.84 1392.53C1256.95 1394.4 1251.96 1395.34 1246.87 1395.34C1235.95 1395.34 1226.91 1391.81 1219.84 1384.63C1212.88 1377.46 1209.34 1368.42 1209.34 1357.5C1209.34 1346.59 1212.88 1337.65 1219.84 1330.58ZM1228.57 1338.37C1223.89 1343.36 1221.61 1349.71 1221.61 1357.5C1221.61 1365.3 1223.89 1371.74 1228.57 1376.84C1233.25 1381.93 1239.38 1384.42 1246.87 1384.42C1249.05 1384.42 1251.03 1384.22 1252.9 1383.8L1240.53 1371.64H1256.85L1263.6 1378.19C1269.22 1373.09 1272.02 1366.23 1272.02 1357.5C1272.02 1349.71 1269.74 1343.36 1265.06 1338.37C1260.38 1333.28 1254.35 1330.79 1246.87 1330.79C1239.38 1330.79 1233.25 1333.28 1228.57 1338.37Z" fill="white"/>
<path d="M1320.91 1341.39V1370.18C1320.91 1379.23 1316.54 1384.42 1310.3 1384.42C1304.38 1384.42 1301.47 1380.68 1301.47 1373.3V1341.39H1290.45V1375.48C1290.45 1387.54 1296.17 1395.13 1307.29 1395.13C1314.05 1395.13 1318.83 1392.43 1321.53 1386.92L1322.26 1393.99H1331.93V1341.39H1320.91Z" fill="white"/>
<path fill-rule="evenodd" clip-rule="evenodd" d="M1347.24 1345.44C1350.88 1342.01 1355.66 1340.25 1361.59 1340.25C1373.96 1340.25 1381.34 1347 1381.34 1359.37V1393.99H1371.57L1371.05 1387.13C1367.93 1392.43 1362.73 1395.13 1355.56 1395.13C1346.1 1395.13 1339.86 1389.41 1339.86 1380.16C1339.86 1371.74 1344.96 1366.65 1355.25 1364.67L1370.21 1361.97V1359.58C1370.21 1353.24 1367.3 1350.12 1361.59 1350.12C1356.18 1350.12 1352.13 1353.34 1352.13 1358.44H1341.42C1341.63 1353.14 1343.6 1348.87 1347.24 1345.44ZM1367.72 1380.47C1369.38 1378.08 1370.21 1375.38 1370.21 1372.16V1370.29L1357.64 1372.99C1353.17 1373.93 1350.98 1376.21 1350.98 1379.64C1350.98 1383.28 1353.58 1385.57 1358.16 1385.57C1362.42 1385.57 1365.54 1383.9 1367.72 1380.47Z" fill="white"/>
</g>
<defs>
<radialGradient id="paint0_radial_104_4897" cx="0" cy="0" r="1" gradientUnits="userSpaceOnUse" gradientTransform="translate(1380.51 -83.8028) rotate(-34.4594) scale(1726.22 1618.46)">
<stop stop-color="#8500E3"/>
<stop offset="0.763991" stop-color="#4C10B1"/>
<stop offset="0.979891" stop-color="#4813A1"/>
</radialGradient>
<clipPath id="clip0_104_4897">
<rect width="1680" height="1736" fill="white"/>
</clipPath>
</defs>
</svg>
