<svg width="2070" height="1212" viewBox="0 0 2070 1212" fill="none" xmlns="http://www.w3.org/2000/svg">
<g clip-path="url(#clip0_102_733)">
<path fill-rule="evenodd" clip-rule="evenodd" d="M-47.2443 0H2117.89V1217.12H-47.2443V0Z" fill="url(#paint0_radial_102_733)"/>
<path opacity="0.462013" fill-rule="evenodd" clip-rule="evenodd" d="M889.821 170.67C423.151 220.262 354.596 448.78 46.3319 359.085C-261.932 269.389 -255.432 -179.141 -18.0453 -348.391C219.341 -517.641 563.524 -582.346 782.042 -440.578C1000.56 -298.81 1687.35 -272.742 1958.03 -487.638C2228.72 -702.535 2308.16 -601.433 2497.79 -494.408C2687.43 -387.383 3186.25 51.953 2901.49 272.925C2616.74 493.897 2458.09 728.209 2003.24 707.643C1548.38 687.076 1356.49 121.078 889.821 170.67Z" fill="url(#paint1_radial_102_733)"/>
<path fill-rule="evenodd" clip-rule="evenodd" d="M1528.67 451.258C1528.67 451.931 1527.97 452.478 1527.12 452.478C1526.27 452.478 1525.57 451.931 1525.57 451.258C1525.57 450.585 1526.27 450.039 1527.12 450.039C1527.97 450.039 1528.67 450.585 1528.67 451.258" fill="#C4BEFA"/>
<path fill-rule="evenodd" clip-rule="evenodd" d="M1610.63 451.258C1610.63 451.931 1609.94 452.478 1609.08 452.478C1608.23 452.478 1607.54 451.931 1607.54 451.258C1607.54 450.585 1608.23 450.039 1609.08 450.039C1609.94 450.039 1610.63 450.585 1610.63 451.258" fill="#C4BEFA"/>
<path fill-rule="evenodd" clip-rule="evenodd" d="M1695.69 451.258C1695.69 451.931 1695 452.478 1694.14 452.478C1693.29 452.478 1692.6 451.931 1692.6 451.258C1692.6 450.585 1693.29 450.039 1694.14 450.039C1695 450.039 1695.69 450.585 1695.69 451.258" fill="#C4BEFA"/>
<path fill-rule="evenodd" clip-rule="evenodd" d="M1777.66 451.258C1777.66 451.931 1776.96 452.478 1776.11 452.478C1775.26 452.478 1774.56 451.931 1774.56 451.258C1774.56 450.585 1775.26 450.039 1776.11 450.039C1776.96 450.039 1777.66 450.585 1777.66 451.258" fill="#C4BEFA"/>
<path fill-rule="evenodd" clip-rule="evenodd" d="M1862.72 451.258C1862.72 451.931 1862.02 452.478 1861.17 452.478C1860.32 452.478 1859.62 451.931 1859.62 451.258C1859.62 450.585 1860.32 450.039 1861.17 450.039C1862.02 450.039 1862.72 450.585 1862.72 451.258" fill="#C4BEFA"/>
<path fill-rule="evenodd" clip-rule="evenodd" d="M1944.68 451.258C1944.68 451.931 1943.99 452.478 1943.13 452.478C1942.28 452.478 1941.59 451.931 1941.59 451.258C1941.59 450.585 1942.28 450.039 1943.13 450.039C1943.99 450.039 1944.68 450.585 1944.68 451.258" fill="#C4BEFA"/>
<path fill-rule="evenodd" clip-rule="evenodd" d="M2031.29 451.258C2031.29 451.931 2030.59 452.478 2029.74 452.478C2028.89 452.478 2028.19 451.931 2028.19 451.258C2028.19 450.585 2028.89 450.039 2029.74 450.039C2030.59 450.039 2031.29 450.585 2031.29 451.258" fill="#C4BEFA"/>
<path fill-rule="evenodd" clip-rule="evenodd" d="M1528.67 514.663C1528.67 515.336 1527.97 515.882 1527.12 515.882C1526.27 515.882 1525.57 515.336 1525.57 514.663C1525.57 513.99 1526.27 513.443 1527.12 513.443C1527.97 513.443 1528.67 513.99 1528.67 514.663" fill="#C4BEFA"/>
<path fill-rule="evenodd" clip-rule="evenodd" d="M1610.63 514.663C1610.63 515.336 1609.94 515.882 1609.09 515.882C1608.23 515.882 1607.54 515.336 1607.54 514.663C1607.54 513.99 1608.23 513.443 1609.09 513.443C1609.94 513.443 1610.63 513.99 1610.63 514.663" fill="#C4BEFA"/>
<path fill-rule="evenodd" clip-rule="evenodd" d="M1695.69 514.663C1695.69 515.336 1695 515.882 1694.14 515.882C1693.29 515.882 1692.6 515.336 1692.6 514.663C1692.6 513.99 1693.29 513.443 1694.14 513.443C1695 513.443 1695.69 513.99 1695.69 514.663" fill="#C4BEFA"/>
<path fill-rule="evenodd" clip-rule="evenodd" d="M1777.66 514.663C1777.66 515.336 1776.96 515.882 1776.11 515.882C1775.26 515.882 1774.56 515.336 1774.56 514.663C1774.56 513.99 1775.26 513.443 1776.11 513.443C1776.96 513.443 1777.66 513.99 1777.66 514.663" fill="#C4BEFA"/>
<path fill-rule="evenodd" clip-rule="evenodd" d="M1862.72 514.663C1862.72 515.336 1862.02 515.882 1861.17 515.882C1860.32 515.882 1859.62 515.336 1859.62 514.663C1859.62 513.99 1860.32 513.443 1861.17 513.443C1862.02 513.443 1862.72 513.99 1862.72 514.663" fill="#C4BEFA"/>
<path fill-rule="evenodd" clip-rule="evenodd" d="M1944.68 514.663C1944.68 515.336 1943.99 515.882 1943.13 515.882C1942.28 515.882 1941.59 515.336 1941.59 514.663C1941.59 513.99 1942.28 513.443 1943.13 513.443C1943.99 513.443 1944.68 513.99 1944.68 514.663" fill="#C4BEFA"/>
<path fill-rule="evenodd" clip-rule="evenodd" d="M2031.29 514.663C2031.29 515.336 2030.59 515.882 2029.74 515.882C2028.89 515.882 2028.19 515.336 2028.19 514.663C2028.19 513.99 2028.89 513.443 2029.74 513.443C2030.59 513.443 2031.29 513.99 2031.29 514.663" fill="#C4BEFA"/>
<path fill-rule="evenodd" clip-rule="evenodd" d="M1528.67 581.724C1528.67 582.397 1527.97 582.943 1527.12 582.943C1526.27 582.943 1525.57 582.397 1525.57 581.724C1525.57 581.051 1526.27 580.505 1527.12 580.505C1527.97 580.505 1528.67 581.051 1528.67 581.724" fill="#C4BEFA"/>
<path fill-rule="evenodd" clip-rule="evenodd" d="M1610.63 581.724C1610.63 582.397 1609.94 582.943 1609.09 582.943C1608.23 582.943 1607.54 582.397 1607.54 581.724C1607.54 581.051 1608.23 580.505 1609.09 580.505C1609.94 580.505 1610.63 581.051 1610.63 581.724" fill="#C4BEFA"/>
<path fill-rule="evenodd" clip-rule="evenodd" d="M1695.69 581.724C1695.69 582.397 1695 582.943 1694.14 582.943C1693.29 582.943 1692.6 582.397 1692.6 581.724C1692.6 581.051 1693.29 580.505 1694.14 580.505C1695 580.505 1695.69 581.051 1695.69 581.724" fill="#C4BEFA"/>
<path fill-rule="evenodd" clip-rule="evenodd" d="M1777.66 581.724C1777.66 582.397 1776.96 582.943 1776.11 582.943C1775.26 582.943 1774.56 582.397 1774.56 581.724C1774.56 581.051 1775.26 580.505 1776.11 580.505C1776.96 580.505 1777.66 581.051 1777.66 581.724" fill="#C4BEFA"/>
<path fill-rule="evenodd" clip-rule="evenodd" d="M1862.72 581.724C1862.72 582.397 1862.02 582.943 1861.17 582.943C1860.32 582.943 1859.62 582.397 1859.62 581.724C1859.62 581.051 1860.32 580.505 1861.17 580.505C1862.02 580.505 1862.72 581.051 1862.72 581.724" fill="#C4BEFA"/>
<path fill-rule="evenodd" clip-rule="evenodd" d="M1944.68 581.724C1944.68 582.397 1943.99 582.943 1943.13 582.943C1942.28 582.943 1941.59 582.397 1941.59 581.724C1941.59 581.051 1942.28 580.505 1943.13 580.505C1943.99 580.505 1944.68 581.051 1944.68 581.724" fill="#C4BEFA"/>
<path fill-rule="evenodd" clip-rule="evenodd" d="M2031.29 581.724C2031.29 582.397 2030.59 582.943 2029.74 582.943C2028.89 582.943 2028.19 582.397 2028.19 581.724C2028.19 581.051 2028.89 580.505 2029.74 580.505C2030.59 580.505 2031.29 581.051 2031.29 581.724" fill="#C4BEFA"/>
<path fill-rule="evenodd" clip-rule="evenodd" d="M1528.67 646.346C1528.67 647.019 1527.97 647.566 1527.12 647.566C1526.27 647.566 1525.57 647.019 1525.57 646.346C1525.57 645.673 1526.27 645.127 1527.12 645.127C1527.97 645.127 1528.67 645.673 1528.67 646.346" fill="#C4BEFA"/>
<path fill-rule="evenodd" clip-rule="evenodd" d="M1610.63 646.346C1610.63 647.019 1609.94 647.566 1609.09 647.566C1608.23 647.566 1607.54 647.019 1607.54 646.346C1607.54 645.673 1608.23 645.127 1609.09 645.127C1609.94 645.127 1610.63 645.673 1610.63 646.346" fill="#C4BEFA"/>
<path fill-rule="evenodd" clip-rule="evenodd" d="M1695.69 646.346C1695.69 647.019 1695 647.566 1694.14 647.566C1693.29 647.566 1692.6 647.019 1692.6 646.346C1692.6 645.673 1693.29 645.127 1694.14 645.127C1695 645.127 1695.69 645.673 1695.69 646.346" fill="#C4BEFA"/>
<path fill-rule="evenodd" clip-rule="evenodd" d="M1777.66 646.346C1777.66 647.019 1776.96 647.566 1776.11 647.566C1775.26 647.566 1774.56 647.019 1774.56 646.346C1774.56 645.673 1775.26 645.127 1776.11 645.127C1776.96 645.127 1777.66 645.673 1777.66 646.346" fill="#C4BEFA"/>
<path fill-rule="evenodd" clip-rule="evenodd" d="M1862.72 646.346C1862.72 647.019 1862.02 647.566 1861.17 647.566C1860.32 647.566 1859.62 647.019 1859.62 646.346C1859.62 645.673 1860.32 645.127 1861.17 645.127C1862.02 645.127 1862.72 645.673 1862.72 646.346" fill="#C4BEFA"/>
<path fill-rule="evenodd" clip-rule="evenodd" d="M1944.68 646.346C1944.68 647.019 1943.99 647.566 1943.13 647.566C1942.28 647.566 1941.59 647.019 1941.59 646.346C1941.59 645.673 1942.28 645.127 1943.13 645.127C1943.99 645.127 1944.68 645.673 1944.68 646.346" fill="#C4BEFA"/>
<path fill-rule="evenodd" clip-rule="evenodd" d="M2031.29 646.346C2031.29 647.019 2030.59 647.566 2029.74 647.566C2028.89 647.566 2028.19 647.019 2028.19 646.346C2028.19 645.673 2028.89 645.127 2029.74 645.127C2030.59 645.127 2031.29 645.673 2031.29 646.346" fill="#C4BEFA"/>
<path fill-rule="evenodd" clip-rule="evenodd" d="M1528.67 713.409C1528.67 714.082 1527.97 714.628 1527.12 714.628C1526.27 714.628 1525.57 714.082 1525.57 713.409C1525.57 712.736 1526.27 712.189 1527.12 712.189C1527.97 712.189 1528.67 712.736 1528.67 713.409" fill="#C4BEFA"/>
<path fill-rule="evenodd" clip-rule="evenodd" d="M1610.63 713.409C1610.63 714.082 1609.94 714.628 1609.08 714.628C1608.23 714.628 1607.54 714.082 1607.54 713.409C1607.54 712.736 1608.23 712.189 1609.08 712.189C1609.94 712.189 1610.63 712.736 1610.63 713.409" fill="#C4BEFA"/>
<path fill-rule="evenodd" clip-rule="evenodd" d="M1695.69 713.409C1695.69 714.082 1695 714.628 1694.14 714.628C1693.29 714.628 1692.6 714.082 1692.6 713.409C1692.6 712.736 1693.29 712.189 1694.14 712.189C1695 712.189 1695.69 712.736 1695.69 713.409" fill="#C4BEFA"/>
<path fill-rule="evenodd" clip-rule="evenodd" d="M1777.66 713.409C1777.66 714.082 1776.96 714.628 1776.11 714.628C1775.26 714.628 1774.56 714.082 1774.56 713.409C1774.56 712.736 1775.26 712.189 1776.11 712.189C1776.96 712.189 1777.66 712.736 1777.66 713.409" fill="#C4BEFA"/>
<path fill-rule="evenodd" clip-rule="evenodd" d="M1862.72 713.409C1862.72 714.082 1862.02 714.628 1861.17 714.628C1860.32 714.628 1859.62 714.082 1859.62 713.409C1859.62 712.736 1860.32 712.189 1861.17 712.189C1862.02 712.189 1862.72 712.736 1862.72 713.409" fill="#C4BEFA"/>
<path fill-rule="evenodd" clip-rule="evenodd" d="M1944.68 713.409C1944.68 714.082 1943.99 714.628 1943.13 714.628C1942.28 714.628 1941.59 714.082 1941.59 713.409C1941.59 712.736 1942.28 712.189 1943.13 712.189C1943.99 712.189 1944.68 712.736 1944.68 713.409" fill="#C4BEFA"/>
<path fill-rule="evenodd" clip-rule="evenodd" d="M2031.29 713.409C2031.29 714.082 2030.59 714.628 2029.74 714.628C2028.89 714.628 2028.19 714.082 2028.19 713.409C2028.19 712.736 2028.89 712.189 2029.74 712.189C2030.59 712.189 2031.29 712.736 2031.29 713.409" fill="#C4BEFA"/>
<path fill-rule="evenodd" clip-rule="evenodd" d="M1528.67 779.252C1528.67 779.925 1527.97 780.471 1527.12 780.471C1526.27 780.471 1525.57 779.925 1525.57 779.252C1525.57 778.578 1526.27 778.032 1527.12 778.032C1527.97 778.032 1528.67 778.578 1528.67 779.252" fill="#C4BEFA"/>
<path fill-rule="evenodd" clip-rule="evenodd" d="M1610.63 779.252C1610.63 779.925 1609.94 780.471 1609.08 780.471C1608.23 780.471 1607.54 779.925 1607.54 779.252C1607.54 778.578 1608.23 778.032 1609.08 778.032C1609.94 778.032 1610.63 778.578 1610.63 779.252" fill="#C4BEFA"/>
<path fill-rule="evenodd" clip-rule="evenodd" d="M1695.69 779.252C1695.69 779.925 1695 780.471 1694.14 780.471C1693.29 780.471 1692.6 779.925 1692.6 779.252C1692.6 778.578 1693.29 778.032 1694.14 778.032C1695 778.032 1695.69 778.578 1695.69 779.252" fill="#C4BEFA"/>
<path fill-rule="evenodd" clip-rule="evenodd" d="M1777.66 779.252C1777.66 779.925 1776.96 780.471 1776.11 780.471C1775.26 780.471 1774.56 779.925 1774.56 779.252C1774.56 778.578 1775.26 778.032 1776.11 778.032C1776.96 778.032 1777.66 778.578 1777.66 779.252" fill="#C4BEFA"/>
<path fill-rule="evenodd" clip-rule="evenodd" d="M1862.72 779.252C1862.72 779.925 1862.02 780.471 1861.17 780.471C1860.32 780.471 1859.62 779.925 1859.62 779.252C1859.62 778.578 1860.32 778.032 1861.17 778.032C1862.02 778.032 1862.72 778.578 1862.72 779.252" fill="#C4BEFA"/>
<path fill-rule="evenodd" clip-rule="evenodd" d="M1944.68 779.252C1944.68 779.925 1943.99 780.471 1943.13 780.471C1942.28 780.471 1941.59 779.925 1941.59 779.252C1941.59 778.578 1942.28 778.032 1943.13 778.032C1943.99 778.032 1944.68 778.578 1944.68 779.252" fill="#C4BEFA"/>
<path fill-rule="evenodd" clip-rule="evenodd" d="M2031.29 779.252C2031.29 779.925 2030.59 780.471 2029.74 780.471C2028.89 780.471 2028.19 779.925 2028.19 779.252C2028.19 778.578 2028.89 778.032 2029.74 778.032C2030.59 778.032 2031.29 778.578 2031.29 779.252" fill="#C4BEFA"/>
<path fill-rule="evenodd" clip-rule="evenodd" d="M1528.67 845.094C1528.67 845.767 1527.97 846.314 1527.12 846.314C1526.27 846.314 1525.57 845.767 1525.57 845.094C1525.57 844.421 1526.27 843.875 1527.12 843.875C1527.97 843.875 1528.67 844.421 1528.67 845.094" fill="#C4BEFA"/>
<path fill-rule="evenodd" clip-rule="evenodd" d="M1610.63 845.094C1610.63 845.767 1609.94 846.314 1609.09 846.314C1608.23 846.314 1607.54 845.767 1607.54 845.094C1607.54 844.421 1608.23 843.875 1609.09 843.875C1609.94 843.875 1610.63 844.421 1610.63 845.094" fill="#C4BEFA"/>
<path fill-rule="evenodd" clip-rule="evenodd" d="M1695.69 845.094C1695.69 845.767 1695 846.314 1694.14 846.314C1693.29 846.314 1692.6 845.767 1692.6 845.094C1692.6 844.421 1693.29 843.875 1694.14 843.875C1695 843.875 1695.69 844.421 1695.69 845.094" fill="#C4BEFA"/>
<path fill-rule="evenodd" clip-rule="evenodd" d="M1777.66 845.094C1777.66 845.767 1776.96 846.314 1776.11 846.314C1775.26 846.314 1774.56 845.767 1774.56 845.094C1774.56 844.421 1775.26 843.875 1776.11 843.875C1776.96 843.875 1777.66 844.421 1777.66 845.094" fill="#C4BEFA"/>
<path fill-rule="evenodd" clip-rule="evenodd" d="M1862.72 845.094C1862.72 845.767 1862.02 846.314 1861.17 846.314C1860.32 846.314 1859.62 845.767 1859.62 845.094C1859.62 844.421 1860.32 843.875 1861.17 843.875C1862.02 843.875 1862.72 844.421 1862.72 845.094" fill="#C4BEFA"/>
<path fill-rule="evenodd" clip-rule="evenodd" d="M1944.68 845.094C1944.68 845.767 1943.99 846.314 1943.13 846.314C1942.28 846.314 1941.59 845.767 1941.59 845.094C1941.59 844.421 1942.28 843.875 1943.13 843.875C1943.99 843.875 1944.68 844.421 1944.68 845.094" fill="#C4BEFA"/>
<path fill-rule="evenodd" clip-rule="evenodd" d="M2031.29 845.094C2031.29 845.767 2030.59 846.314 2029.74 846.314C2028.89 846.314 2028.19 845.767 2028.19 845.094C2028.19 844.421 2028.89 843.875 2029.74 843.875C2030.59 843.875 2031.29 844.421 2031.29 845.094" fill="#C4BEFA"/>
<path fill-rule="evenodd" clip-rule="evenodd" d="M1528.67 912.156C1528.67 912.829 1527.97 913.375 1527.12 913.375C1526.27 913.375 1525.57 912.829 1525.57 912.156C1525.57 911.483 1526.27 910.937 1527.12 910.937C1527.97 910.937 1528.67 911.483 1528.67 912.156" fill="#C4BEFA"/>
<path fill-rule="evenodd" clip-rule="evenodd" d="M1610.63 912.156C1610.63 912.829 1609.94 913.375 1609.09 913.375C1608.23 913.375 1607.54 912.829 1607.54 912.156C1607.54 911.483 1608.23 910.937 1609.09 910.937C1609.94 910.937 1610.63 911.483 1610.63 912.156" fill="#C4BEFA"/>
<path fill-rule="evenodd" clip-rule="evenodd" d="M1695.69 912.156C1695.69 912.829 1695 913.375 1694.14 913.375C1693.29 913.375 1692.6 912.829 1692.6 912.156C1692.6 911.483 1693.29 910.937 1694.14 910.937C1695 910.937 1695.69 911.483 1695.69 912.156" fill="#C4BEFA"/>
<path fill-rule="evenodd" clip-rule="evenodd" d="M1777.66 912.156C1777.66 912.829 1776.96 913.375 1776.11 913.375C1775.26 913.375 1774.56 912.829 1774.56 912.156C1774.56 911.483 1775.26 910.937 1776.11 910.937C1776.96 910.937 1777.66 911.483 1777.66 912.156" fill="#C4BEFA"/>
<path fill-rule="evenodd" clip-rule="evenodd" d="M1862.72 912.156C1862.72 912.829 1862.02 913.375 1861.17 913.375C1860.32 913.375 1859.62 912.829 1859.62 912.156C1859.62 911.483 1860.32 910.937 1861.17 910.937C1862.02 910.937 1862.72 911.483 1862.72 912.156" fill="#C4BEFA"/>
<path fill-rule="evenodd" clip-rule="evenodd" d="M1944.68 912.156C1944.68 912.829 1943.99 913.375 1943.13 913.375C1942.28 913.375 1941.59 912.829 1941.59 912.156C1941.59 911.483 1942.28 910.937 1943.13 910.937C1943.99 910.937 1944.68 911.483 1944.68 912.156" fill="#C4BEFA"/>
<path fill-rule="evenodd" clip-rule="evenodd" d="M2031.29 912.156C2031.29 912.829 2030.59 913.375 2029.74 913.375C2028.89 913.375 2028.19 912.829 2028.19 912.156C2028.19 911.483 2028.89 910.937 2029.74 910.937C2030.59 910.937 2031.29 911.483 2031.29 912.156" fill="#C4BEFA"/>
<path fill-rule="evenodd" clip-rule="evenodd" d="M1528.67 977.998C1528.67 978.671 1527.97 979.217 1527.12 979.217C1526.27 979.217 1525.57 978.671 1525.57 977.998C1525.57 977.325 1526.27 976.778 1527.12 976.778C1527.97 976.778 1528.67 977.325 1528.67 977.998" fill="#C4BEFA"/>
<path fill-rule="evenodd" clip-rule="evenodd" d="M1610.63 977.998C1610.63 978.671 1609.94 979.217 1609.09 979.217C1608.23 979.217 1607.54 978.671 1607.54 977.998C1607.54 977.325 1608.23 976.778 1609.09 976.778C1609.94 976.778 1610.63 977.325 1610.63 977.998" fill="#C4BEFA"/>
<path fill-rule="evenodd" clip-rule="evenodd" d="M1695.69 977.998C1695.69 978.671 1695 979.217 1694.14 979.217C1693.29 979.217 1692.6 978.671 1692.6 977.998C1692.6 977.325 1693.29 976.778 1694.14 976.778C1695 976.778 1695.69 977.325 1695.69 977.998" fill="#C4BEFA"/>
<path fill-rule="evenodd" clip-rule="evenodd" d="M1777.66 977.998C1777.66 978.671 1776.96 979.217 1776.11 979.217C1775.26 979.217 1774.56 978.671 1774.56 977.998C1774.56 977.325 1775.26 976.778 1776.11 976.778C1776.96 976.778 1777.66 977.325 1777.66 977.998" fill="#C4BEFA"/>
<path fill-rule="evenodd" clip-rule="evenodd" d="M1862.72 977.998C1862.72 978.671 1862.02 979.217 1861.17 979.217C1860.32 979.217 1859.62 978.671 1859.62 977.998C1859.62 977.325 1860.32 976.778 1861.17 976.778C1862.02 976.778 1862.72 977.325 1862.72 977.998" fill="#C4BEFA"/>
<path fill-rule="evenodd" clip-rule="evenodd" d="M1944.68 977.998C1944.68 978.671 1943.99 979.217 1943.13 979.217C1942.28 979.217 1941.59 978.671 1941.59 977.998C1941.59 977.325 1942.28 976.778 1943.13 976.778C1943.99 976.778 1944.68 977.325 1944.68 977.998" fill="#C4BEFA"/>
<path fill-rule="evenodd" clip-rule="evenodd" d="M2031.29 977.998C2031.29 978.671 2030.59 979.217 2029.74 979.217C2028.89 979.217 2028.19 978.671 2028.19 977.998C2028.19 977.325 2028.89 976.778 2029.74 976.778C2030.59 976.778 2031.29 977.325 2031.29 977.998" fill="#C4BEFA"/>
<path fill-rule="evenodd" clip-rule="evenodd" d="M1528.67 1043.84C1528.67 1044.51 1527.97 1045.06 1527.12 1045.06C1526.27 1045.06 1525.57 1044.51 1525.57 1043.84C1525.57 1043.17 1526.27 1042.62 1527.12 1042.62C1527.97 1042.62 1528.67 1043.17 1528.67 1043.84" fill="#C4BEFA"/>
<path fill-rule="evenodd" clip-rule="evenodd" d="M1610.63 1043.84C1610.63 1044.51 1609.94 1045.06 1609.08 1045.06C1608.23 1045.06 1607.54 1044.51 1607.54 1043.84C1607.54 1043.17 1608.23 1042.62 1609.08 1042.62C1609.94 1042.62 1610.63 1043.17 1610.63 1043.84" fill="#C4BEFA"/>
<path fill-rule="evenodd" clip-rule="evenodd" d="M1695.69 1043.84C1695.69 1044.51 1695 1045.06 1694.14 1045.06C1693.29 1045.06 1692.6 1044.51 1692.6 1043.84C1692.6 1043.17 1693.29 1042.62 1694.14 1042.62C1695 1042.62 1695.69 1043.17 1695.69 1043.84" fill="#C4BEFA"/>
<path fill-rule="evenodd" clip-rule="evenodd" d="M1777.66 1043.84C1777.66 1044.51 1776.96 1045.06 1776.11 1045.06C1775.26 1045.06 1774.56 1044.51 1774.56 1043.84C1774.56 1043.17 1775.26 1042.62 1776.11 1042.62C1776.96 1042.62 1777.66 1043.17 1777.66 1043.84" fill="#C4BEFA"/>
<path fill-rule="evenodd" clip-rule="evenodd" d="M1862.72 1043.84C1862.72 1044.51 1862.02 1045.06 1861.17 1045.06C1860.32 1045.06 1859.62 1044.51 1859.62 1043.84C1859.62 1043.17 1860.32 1042.62 1861.17 1042.62C1862.02 1042.62 1862.72 1043.17 1862.72 1043.84" fill="#C4BEFA"/>
<path fill-rule="evenodd" clip-rule="evenodd" d="M1944.68 1043.84C1944.68 1044.51 1943.99 1045.06 1943.13 1045.06C1942.28 1045.06 1941.59 1044.51 1941.59 1043.84C1941.59 1043.17 1942.28 1042.62 1943.13 1042.62C1943.99 1042.62 1944.68 1043.17 1944.68 1043.84" fill="#C4BEFA"/>
<path fill-rule="evenodd" clip-rule="evenodd" d="M2031.29 1043.84C2031.29 1044.51 2030.59 1045.06 2029.74 1045.06C2028.89 1045.06 2028.19 1044.51 2028.19 1043.84C2028.19 1043.17 2028.89 1042.62 2029.74 1042.62C2030.59 1042.62 2031.29 1043.17 2031.29 1043.84" fill="#C4BEFA"/>
<path fill-rule="evenodd" clip-rule="evenodd" d="M1528.67 1109.68C1528.67 1110.36 1527.97 1110.9 1527.12 1110.9C1526.27 1110.9 1525.57 1110.36 1525.57 1109.68C1525.57 1109.01 1526.27 1108.46 1527.12 1108.46C1527.97 1108.46 1528.67 1109.01 1528.67 1109.68" fill="#C4BEFA"/>
<path fill-rule="evenodd" clip-rule="evenodd" d="M1610.63 1109.68C1610.63 1110.36 1609.94 1110.9 1609.08 1110.9C1608.23 1110.9 1607.54 1110.36 1607.54 1109.68C1607.54 1109.01 1608.23 1108.46 1609.08 1108.46C1609.94 1108.46 1610.63 1109.01 1610.63 1109.68" fill="#C4BEFA"/>
<path fill-rule="evenodd" clip-rule="evenodd" d="M1695.69 1109.68C1695.69 1110.36 1695 1110.9 1694.14 1110.9C1693.29 1110.9 1692.6 1110.36 1692.6 1109.68C1692.6 1109.01 1693.29 1108.46 1694.14 1108.46C1695 1108.46 1695.69 1109.01 1695.69 1109.68" fill="#C4BEFA"/>
<path fill-rule="evenodd" clip-rule="evenodd" d="M1777.66 1109.68C1777.66 1110.36 1776.96 1110.9 1776.11 1110.9C1775.26 1110.9 1774.56 1110.36 1774.56 1109.68C1774.56 1109.01 1775.26 1108.46 1776.11 1108.46C1776.96 1108.46 1777.66 1109.01 1777.66 1109.68" fill="#C4BEFA"/>
<path fill-rule="evenodd" clip-rule="evenodd" d="M1862.72 1109.68C1862.72 1110.36 1862.02 1110.9 1861.17 1110.9C1860.32 1110.9 1859.62 1110.36 1859.62 1109.68C1859.62 1109.01 1860.32 1108.46 1861.17 1108.46C1862.02 1108.46 1862.72 1109.01 1862.72 1109.68" fill="#C4BEFA"/>
<path fill-rule="evenodd" clip-rule="evenodd" d="M1944.68 1109.68C1944.68 1110.36 1943.99 1110.9 1943.13 1110.9C1942.28 1110.9 1941.59 1110.36 1941.59 1109.68C1941.59 1109.01 1942.28 1108.46 1943.13 1108.46C1943.99 1108.46 1944.68 1109.01 1944.68 1109.68" fill="#C4BEFA"/>
<path fill-rule="evenodd" clip-rule="evenodd" d="M2031.29 1109.68C2031.29 1110.36 2030.59 1110.9 2029.74 1110.9C2028.89 1110.9 2028.19 1110.36 2028.19 1109.68C2028.19 1109.01 2028.89 1108.46 2029.74 1108.46C2030.59 1108.46 2031.29 1109.01 2031.29 1109.68" fill="#C4BEFA"/>
<path fill-rule="evenodd" clip-rule="evenodd" d="M1528.67 1174.31C1528.67 1174.98 1527.97 1175.53 1527.12 1175.53C1526.27 1175.53 1525.57 1174.98 1525.57 1174.31C1525.57 1173.63 1526.27 1173.09 1527.12 1173.09C1527.97 1173.09 1528.67 1173.63 1528.67 1174.31" fill="#C4BEFA"/>
<path fill-rule="evenodd" clip-rule="evenodd" d="M1610.63 1174.31C1610.63 1174.98 1609.94 1175.53 1609.09 1175.53C1608.23 1175.53 1607.54 1174.98 1607.54 1174.31C1607.54 1173.63 1608.23 1173.09 1609.09 1173.09C1609.94 1173.09 1610.63 1173.63 1610.63 1174.31" fill="#C4BEFA"/>
<path fill-rule="evenodd" clip-rule="evenodd" d="M1695.69 1174.31C1695.69 1174.98 1695 1175.53 1694.14 1175.53C1693.29 1175.53 1692.6 1174.98 1692.6 1174.31C1692.6 1173.63 1693.29 1173.09 1694.14 1173.09C1695 1173.09 1695.69 1173.63 1695.69 1174.31" fill="#C4BEFA"/>
<path fill-rule="evenodd" clip-rule="evenodd" d="M1777.66 1174.31C1777.66 1174.98 1776.96 1175.53 1776.11 1175.53C1775.26 1175.53 1774.56 1174.98 1774.56 1174.31C1774.56 1173.63 1775.26 1173.09 1776.11 1173.09C1776.96 1173.09 1777.66 1173.63 1777.66 1174.31" fill="#C4BEFA"/>
<path fill-rule="evenodd" clip-rule="evenodd" d="M1862.72 1174.31C1862.72 1174.98 1862.02 1175.53 1861.17 1175.53C1860.32 1175.53 1859.62 1174.98 1859.62 1174.31C1859.62 1173.63 1860.32 1173.09 1861.17 1173.09C1862.02 1173.09 1862.72 1173.63 1862.72 1174.31" fill="#C4BEFA"/>
<path fill-rule="evenodd" clip-rule="evenodd" d="M1944.68 1174.31C1944.68 1174.98 1943.99 1175.53 1943.13 1175.53C1942.28 1175.53 1941.59 1174.98 1941.59 1174.31C1941.59 1173.63 1942.28 1173.09 1943.13 1173.09C1943.99 1173.09 1944.68 1173.63 1944.68 1174.31" fill="#C4BEFA"/>
<path fill-rule="evenodd" clip-rule="evenodd" d="M2031.29 1174.31C2031.29 1174.98 2030.59 1175.53 2029.74 1175.53C2028.89 1175.53 2028.19 1174.98 2028.19 1174.31C2028.19 1173.63 2028.89 1173.09 2029.74 1173.09C2030.59 1173.09 2031.29 1173.63 2031.29 1174.31" fill="#C4BEFA"/>
<path fill-rule="evenodd" clip-rule="evenodd" d="M1039.55 1379C880.911 1379 752.31 1252.4 752.31 1096.24C752.31 940.072 880.911 813.474 1039.55 813.474" fill="#8039FF"/>
<path fill-rule="evenodd" clip-rule="evenodd" d="M1435.86 733.055C1435.86 953.385 1257.43 1132.37 1036.87 1132.37V814.656C1081.55 814.656 1118.14 778.329 1118.14 733.055H1435.86Z" fill="#6627D7"/>
<path fill-rule="evenodd" clip-rule="evenodd" d="M1056.21 427.603C1053.9 442.956 1050.01 570.352 1047.71 652.288C1047.31 666.215 1066.5 670.126 1071.71 657.201L1076.25 645.926C1087.69 617.511 1111.52 595.908 1140.92 587.305V587.305C1140.92 452.312 1059.66 404.756 1056.21 427.603Z" fill="url(#paint2_linear_102_733)"/>
<path fill-rule="evenodd" clip-rule="evenodd" d="M1035.9 775.842C1035.88 775.813 1035.86 775.783 1035.83 775.753C1035.06 774.815 1033.96 773.449 1032.64 771.746C1029.99 768.339 1026.47 763.592 1022.95 758.227C1019.42 752.857 1015.92 746.895 1013.3 741.056C1010.67 735.191 1009 729.579 1009 724.872H1006.03C1006.03 730.198 1007.9 736.263 1010.59 742.271C1013.3 748.305 1016.89 754.411 1020.47 759.856C1024.04 765.305 1027.62 770.117 1030.29 773.567C1031.63 775.292 1032.75 776.679 1033.53 777.635C1033.93 778.113 1034.23 778.484 1034.44 778.736C1034.55 778.862 1034.63 778.959 1034.69 779.024L1034.75 779.099L1034.77 779.125C1034.77 779.125 1034.77 779.126 1035.9 778.161L1034.77 779.125L1035.9 780.445L1037.03 779.127L1035.9 778.161C1037.03 779.127 1037.03 779.127 1037.03 779.127L1037.05 779.1L1037.12 779.026C1037.17 778.96 1037.25 778.864 1037.36 778.738C1037.57 778.486 1037.88 778.115 1038.27 777.636C1039.06 776.68 1040.18 775.294 1041.52 773.568C1044.2 770.119 1047.79 765.306 1051.37 759.857C1054.95 754.413 1058.56 748.306 1061.27 742.272C1063.97 736.264 1065.85 730.199 1065.85 724.872H1062.88C1062.88 729.578 1061.2 735.19 1058.56 741.055C1055.94 746.894 1052.42 752.855 1048.89 758.225C1045.36 763.59 1041.83 768.338 1039.18 771.745C1037.85 773.447 1036.75 774.813 1035.98 775.752C1035.95 775.783 1035.93 775.813 1035.9 775.842Z" fill="white"/>
<path fill-rule="evenodd" clip-rule="evenodd" d="M1036.57 616.811C1037.39 616.811 1038.05 617.475 1038.05 618.295V694.422C1038.05 695.242 1037.39 695.907 1036.57 695.907C1035.75 695.907 1035.08 695.242 1035.08 694.422V618.295C1035.08 617.475 1035.75 616.811 1036.57 616.811Z" fill="white"/>
<path fill-rule="evenodd" clip-rule="evenodd" d="M1037.02 400.319L1035.93 401.333L1034.81 400.363L1035.89 399.11L1037.02 400.319ZM1087.73 469.786C1110.4 515.651 1128.43 590.612 1096.93 698.644L1096.62 699.713H975.244L974.932 698.644C971.319 686.243 968.357 674.318 965.98 662.852C947.646 574.43 964.088 513.424 984.135 472.836C992.099 456.717 1004.79 438.586 1015.44 424.525C1020.78 417.486 1025.61 411.448 1029.12 407.17C1030.87 405.031 1032.29 403.331 1033.28 402.165C1033.77 401.582 1034.15 401.132 1034.41 400.828C1034.54 400.676 1034.64 400.56 1034.71 400.482L1034.8 400.371L1034.81 400.365L1034.81 400.363C1034.81 400.362 1034.81 400.363 1035.93 401.333C1037.02 400.319 1037.02 400.319 1037.02 400.319L1037.04 400.348L1037.12 400.43C1037.19 400.503 1037.29 400.61 1037.42 400.751C1037.68 401.033 1038.06 401.45 1038.55 401.992C1039.54 403.075 1040.96 404.657 1042.71 406.654C1046.22 410.647 1051.06 416.305 1056.4 422.966C1067.06 436.269 1079.76 453.647 1087.73 469.786ZM1035.98 403.572C1035.84 403.727 1035.7 403.896 1035.55 404.079C1034.57 405.235 1033.16 406.924 1031.42 409.052C1027.93 413.308 1023.11 419.315 1017.81 426.319C1007.18 440.345 994.633 458.294 986.798 474.15C967.025 514.182 950.696 574.516 968.887 662.25C971.18 673.306 974.021 684.8 977.473 696.744H1094.39C1125.25 590.009 1107.34 516.156 1085.07 471.101C1077.25 455.257 1064.71 438.08 1054.09 424.823C1048.78 418.204 1043.97 412.581 1040.48 408.613C1038.74 406.63 1037.33 405.061 1036.35 403.989C1036.22 403.84 1036.09 403.701 1035.98 403.572Z" fill="white"/>
<path fill-rule="evenodd" clip-rule="evenodd" d="M1100.99 508.126H972.142V505.156H1100.99V508.126Z" fill="white"/>
<path fill-rule="evenodd" clip-rule="evenodd" d="M907.695 665.117C917.223 647.491 933.106 627.179 958.446 616.919L959.561 619.671C935.104 629.574 919.659 649.229 910.307 666.529C905.637 675.169 902.505 683.189 900.542 689.046C899.56 691.974 898.872 694.358 898.43 696.006C898.359 696.271 898.294 696.517 898.236 696.744H977.195V699.713H894.508L894.895 697.916L896.347 698.229C894.895 697.916 894.895 697.916 894.895 697.915L894.896 697.911L894.898 697.901L894.906 697.865C894.913 697.833 894.924 697.787 894.937 697.727C894.964 697.608 895.005 697.433 895.059 697.206C895.169 696.751 895.334 696.086 895.562 695.236C896.018 693.536 896.724 691.094 897.726 688.103C899.73 682.123 902.926 673.94 907.695 665.117Z" fill="white"/>
<path fill-rule="evenodd" clip-rule="evenodd" d="M1161.56 666.529C1152.21 649.229 1136.77 629.574 1112.31 619.671L1113.42 616.919C1138.76 627.179 1154.65 647.491 1164.18 665.117C1168.95 673.94 1172.14 682.123 1174.15 688.102C1175.15 691.093 1175.86 693.536 1176.31 695.236C1176.54 696.086 1176.71 696.751 1176.81 697.205C1176.87 697.433 1176.91 697.608 1176.94 697.727C1176.94 697.759 1176.95 697.788 1176.96 697.812C1176.96 697.832 1176.96 697.85 1176.97 697.864L1176.98 697.901L1176.98 697.914C1176.98 697.915 1176.98 697.916 1175.53 698.229L1176.98 697.916L1177.37 699.713H1094.68V696.744H1173.64C1173.58 696.517 1173.51 696.271 1173.44 696.006C1173 694.358 1172.31 691.974 1171.33 689.046C1169.37 683.189 1166.24 675.169 1161.56 666.529Z" fill="white"/>
<path fill-rule="evenodd" clip-rule="evenodd" d="M1274.26 333.24C1274.23 333.24 1274.21 333.244 1274.18 333.244C1273.19 319.855 1262.36 309.306 1249.13 309.306C1235.24 309.306 1223.99 320.914 1223.99 335.235V339.224H1221.09C1212.34 339.224 1205.16 346.285 1204.66 355.18V373.132H1274.26C1284.94 373.132 1293.59 364.202 1293.59 353.186C1293.59 342.17 1284.94 333.24 1274.26 333.24Z" fill="white"/>
<path fill-rule="evenodd" clip-rule="evenodd" d="M800.257 603.202C799.617 595.731 793.116 589.843 785.177 589.843C776.848 589.843 770.096 596.322 770.096 604.315V606.541H768.356C763.106 606.541 758.797 610.482 758.496 615.447V625.466H800.257C806.664 625.466 811.857 620.483 811.857 614.334C811.857 608.186 806.664 603.202 800.257 603.202Z" fill="white"/>
<path d="M1018.25 803.016V879.521" stroke="#8039FF" stroke-width="2.96933" stroke-linecap="square"/>
<path d="M1052.27 829.344V913.544" stroke="white" stroke-width="2.96933" stroke-linecap="square"/>
<path d="M1035.26 813.975V858.989" stroke="white" stroke-width="2.96933"/>
<path d="M1035.2 793.368V812.664" stroke="#8039FF" stroke-width="2.96933" stroke-linecap="square"/>
<path d="M1018.18 815.576V883.298" stroke="white" stroke-width="2.96933"/>
<path fill-rule="evenodd" clip-rule="evenodd" d="M848.216 1137.56H1190.7C1200.14 1129.53 1206.14 1117.55 1206.14 1104.16C1206.14 1079.98 1186.56 1060.37 1162.41 1060.37C1159.45 1060.37 1156.56 1060.67 1153.76 1061.23C1140.35 1019.4 1101.18 989.127 1054.95 989.127C1005.38 989.127 963.923 1023.94 953.64 1070.48C942.777 1063.16 929.695 1058.89 915.616 1058.89C877.959 1058.89 847.432 1089.46 847.432 1127.17C847.432 1130.7 847.7 1134.17 848.216 1137.56Z" fill="url(#paint3_linear_102_733)"/>
</g>
<defs>
<radialGradient id="paint0_radial_102_733" cx="0" cy="0" r="1" gradientUnits="userSpaceOnUse" gradientTransform="translate(-230.47 1256.65) rotate(-30.6245) scale(1521.63 1335.82)">
<stop stop-color="#8500E3"/>
<stop offset="1" stop-color="#4813A1"/>
</radialGradient>
<radialGradient id="paint1_radial_102_733" cx="0" cy="0" r="1" gradientUnits="userSpaceOnUse" gradientTransform="translate(1923 813.902) rotate(17.069) scale(1820.4 1553.56)">
<stop stop-color="#6C00E3"/>
<stop offset="1" stop-color="#3A1188"/>
</radialGradient>
<linearGradient id="paint2_linear_102_733" x1="1085.53" y1="349.248" x2="1213.58" y2="376.904" gradientUnits="userSpaceOnUse">
<stop stop-color="#60F9C7"/>
<stop offset="1" stop-color="#3072D2"/>
</linearGradient>
<linearGradient id="paint3_linear_102_733" x1="732.918" y1="1073.87" x2="787.096" y2="1291.86" gradientUnits="userSpaceOnUse">
<stop stop-color="#61F9C8"/>
<stop offset="1" stop-color="#234DD5"/>
</linearGradient>
<clipPath id="clip0_102_733">
<rect width="2070" height="1212" fill="white"/>
</clipPath>
</defs>
</svg>
