<svg width="1512" height="1049" viewBox="0 0 1512 1049" fill="none" xmlns="http://www.w3.org/2000/svg">
<path d="M115.538 124.602L115.538 279.984H210.765L210.765 251.571L146.171 251.571L146.171 124.602H115.538Z" fill="#6423D2"/>
<path d="M267.193 165.001C241.222 165.001 223.908 181.205 222.354 204.513H250.323C250.323 195.634 257.426 189.64 267.193 189.64C277.626 189.64 282.953 195.412 282.953 206.732V210.95L253.875 216.277C231.899 219.829 219.025 229.374 219.025 250.017C219.025 269.773 232.787 282.425 253.209 282.425C267.637 282.425 278.292 277.098 285.395 266.221L287.171 279.984L311.81 279.984V206.066C311.81 179.208 294.718 165.001 267.193 165.001ZM282.953 233.591C282.953 239.362 281.621 244.246 278.958 248.463C274.74 255.345 268.747 258.674 260.978 258.674C252.765 258.674 247.881 254.457 247.881 247.575C247.881 241.138 252.099 236.921 260.534 234.923L282.953 230.262V233.591Z" fill="#6423D2"/>
<path d="M394.911 166.333C377.153 166.333 366.277 174.102 362.059 185.423L359.395 167.443H334.534V279.984H363.391V222.714C363.835 213.17 366.943 206.288 372.492 201.849C378.263 197.409 385.81 195.19 394.911 195.19V166.333Z" fill="#6423D2"/>
<path d="M445.941 165.001C432.844 165.001 422.634 168.553 415.309 175.656C407.983 182.537 404.432 191.194 404.432 201.627C404.432 220.051 415.753 230.705 440.392 234.923C456.374 237.809 460.813 241.582 460.813 248.907C460.813 255.789 455.708 259.562 446.829 259.562C436.396 259.562 430.847 254.901 430.625 245.8L402.212 245.8C402.878 268.219 418.86 282.425 446.163 282.425C471.246 282.425 489.67 269.995 489.67 245.8C489.67 226.932 479.681 216.055 453.044 211.616C437.728 208.952 433.288 205.844 433.288 198.741C433.288 191.86 437.728 187.643 445.719 187.643C453.932 187.643 458.371 191.86 458.593 200.517H487.228C486.34 179.208 469.692 165.001 445.941 165.001Z" fill="#6423D2"/>
<path d="M542.213 165.001C529.117 165.001 518.906 168.553 511.581 175.656C504.256 182.537 500.704 191.194 500.704 201.627C500.704 220.051 512.025 230.705 536.664 234.923C552.646 237.809 557.086 241.582 557.086 248.907C557.086 255.789 551.98 259.562 543.101 259.562C532.669 259.562 527.119 254.901 526.897 245.8L498.485 245.8C499.15 268.219 515.133 282.425 542.435 282.425C567.518 282.425 585.942 269.995 585.942 245.8C585.942 226.932 575.953 216.055 549.317 211.616C534 208.952 529.561 205.844 529.561 198.741C529.561 191.86 534 187.643 541.991 187.643C550.204 187.643 554.644 191.86 554.866 200.517H583.501C582.613 179.208 565.965 165.001 542.213 165.001Z" fill="#6423D2"/>
<path d="M650.694 165.001C634.046 165.001 620.728 170.551 610.295 181.649C599.862 192.526 594.757 206.732 594.757 223.824C594.757 241.36 599.862 255.567 610.073 266.443C620.506 277.098 634.046 282.425 650.694 282.425C677.553 282.425 695.089 268.885 702.192 244.69H674.224C670.894 253.347 663.347 257.786 651.582 257.786C635.822 257.786 625.389 247.575 624.501 232.481L702.858 232.481V223.602C702.858 185.201 681.771 165.001 650.694 165.001ZM624.723 212.504C626.277 198.519 635.822 188.974 650.029 188.974C664.235 188.974 673.558 198.297 673.78 212.504L624.723 212.504Z" fill="#6423D2"/>
<path d="M721.136 167.443V279.984H749.993V167.443L721.136 167.443ZM735.565 117.277C725.798 117.277 718.029 124.824 718.029 134.369C718.029 144.136 725.798 151.461 735.565 151.461C745.332 151.461 753.101 144.136 753.101 134.369C753.101 124.824 745.11 117.277 735.565 117.277Z" fill="#6423D2"/>
<path d="M781.576 140.14L781.354 167.443H762.93V193.636H781.354L780.91 246.022C780.688 270.883 792.896 281.537 817.979 281.537C825.749 281.537 831.964 280.65 836.181 279.096V253.791C832.408 254.901 828.634 255.345 824.417 255.345C813.54 255.345 809.766 250.905 809.766 239.14L810.21 193.636H836.181V167.443H810.432L810.654 140.14H781.576Z" fill="#6423D2"/>
<path d="M1101.93 121.628V136.735H1103.89V130.843H1106.4C1107.91 130.843 1109.12 130.433 1110 129.592C1110.89 128.75 1111.34 127.628 1111.34 126.268C1111.34 124.887 1110.89 123.765 1110 122.923C1109.12 122.06 1107.91 121.628 1106.4 121.628H1101.93ZM1106.4 123.463C1108.19 123.463 1109.35 124.542 1109.35 126.268C1109.35 127.973 1108.19 129.009 1106.4 129.009H1103.89V123.463H1106.4Z" fill="#A4A0AB"/>
<path d="M1118.68 125.75C1116.95 125.75 1115.83 126.635 1115.42 127.757L1115.29 125.858H1113.63V136.735H1115.48V130.973C1115.51 129.85 1115.83 128.987 1116.48 128.405C1117.06 127.865 1117.79 127.606 1118.68 127.606V125.75Z" fill="#A4A0AB"/>
<path d="M1123.12 122.513C1123.12 121.801 1122.54 121.24 1121.83 121.24C1121.11 121.24 1120.55 121.801 1120.55 122.513C1120.55 123.204 1121.11 123.765 1121.83 123.765C1122.54 123.765 1123.12 123.204 1123.12 122.513ZM1120.9 125.858V136.735H1122.75V125.858H1120.9Z" fill="#A4A0AB"/>
<path d="M1137.34 125.621C1135.88 125.621 1134.78 126.311 1134.06 127.692C1133.5 126.311 1132.45 125.621 1130.89 125.621C1129.49 125.621 1128.39 126.333 1127.87 127.347L1127.76 125.858H1126.1V136.735H1127.96V130.908C1127.96 128.75 1128.99 127.433 1130.46 127.433C1131.78 127.433 1132.55 128.34 1132.55 130.002V136.735H1134.41V130.757C1134.43 128.685 1135.47 127.433 1136.91 127.433C1138.23 127.433 1139.01 128.34 1139.01 130.002V136.735H1140.86V129.699C1140.86 127.218 1139.61 125.621 1137.34 125.621Z" fill="#A4A0AB"/>
<path d="M1147.68 125.621C1146.5 125.621 1145.55 125.966 1144.79 126.678C1144.04 127.39 1143.65 128.275 1143.63 129.333H1145.46C1145.46 128.059 1146.41 127.347 1147.68 127.347C1149.02 127.347 1149.69 128.102 1149.69 129.592V130.131L1146.37 130.757C1144.34 131.145 1143.33 132.203 1143.33 133.908C1143.33 135.785 1144.58 136.972 1146.5 136.972C1148.03 136.972 1149.22 136.282 1149.8 135.246L1149.89 136.735H1151.57V129.527C1151.57 127.023 1150.12 125.621 1147.68 125.621ZM1149.69 132.16C1149.69 132.937 1149.48 133.606 1149.07 134.167C1148.55 134.879 1147.81 135.246 1146.86 135.246C1145.81 135.246 1145.2 134.749 1145.2 133.886C1145.2 133.001 1145.76 132.634 1146.71 132.397L1149.69 131.75V132.16Z" fill="#A4A0AB"/>
<path d="M1159.82 125.75C1158.09 125.75 1156.97 126.635 1156.56 127.757L1156.43 125.858H1154.77V136.735H1156.62V130.973C1156.64 129.85 1156.97 128.987 1157.61 128.405C1158.2 127.865 1158.93 127.606 1159.82 127.606V125.75Z" fill="#A4A0AB"/>
<path d="M1168.96 125.858L1166.09 133.67L1165.87 134.49L1165.66 133.67L1162.79 125.858H1160.8L1164.88 136.584L1163.07 141.375H1165.03L1170.97 125.858H1168.96Z" fill="#A4A0AB"/>
<path d="M1076.92 307.868C1075.56 307.868 1074.48 308.256 1073.71 309.055C1072.95 309.853 1072.56 310.846 1072.56 312.076C1072.56 313.22 1072.89 314.126 1073.56 314.774C1074.22 315.4 1075.26 315.982 1076.66 316.5C1078.99 317.299 1079.84 318.011 1079.84 319.284C1079.84 320.773 1078.89 321.787 1077.16 321.787C1075.26 321.787 1074.14 320.73 1074.12 318.809H1072.13C1072.2 321.68 1074.01 323.536 1077.14 323.536C1079.92 323.536 1081.82 321.852 1081.82 319.155C1081.82 318.054 1081.5 317.191 1080.85 316.543C1080.2 315.896 1079.1 315.292 1077.55 314.709C1076.4 314.256 1075.61 313.846 1075.17 313.5C1074.76 313.134 1074.55 312.616 1074.55 311.925C1074.55 310.479 1075.43 309.637 1076.88 309.637C1078.35 309.637 1079.34 310.565 1079.36 312.141H1081.35C1081.28 309.379 1079.6 307.868 1076.92 307.868Z" fill="#A4A0AB"/>
<path d="M1088.65 312.141C1087.07 312.141 1085.82 312.68 1084.85 313.759C1083.88 314.817 1083.4 316.176 1083.4 317.838C1083.4 319.543 1083.9 320.903 1084.87 321.939C1085.84 322.974 1087.12 323.492 1088.65 323.492C1091.13 323.492 1092.81 322.176 1093.48 319.996H1091.63C1091.17 321.183 1090.2 321.766 1088.69 321.766C1086.81 321.766 1085.48 320.536 1085.32 318.55H1093.59V317.666C1093.59 314.105 1091.6 312.141 1088.65 312.141ZM1088.65 313.867C1090.46 313.867 1091.69 315.054 1091.71 316.889H1085.35C1085.58 315.097 1086.81 313.867 1088.65 313.867Z" fill="#A4A0AB"/>
<path d="M1100.79 312.141C1099.26 312.141 1098 312.68 1096.99 313.759C1096 314.838 1095.5 316.198 1095.5 317.838C1095.5 319.478 1096 320.838 1096.99 321.895C1097.98 322.953 1099.26 323.492 1100.79 323.492C1103.21 323.492 1105.06 322.197 1105.64 319.867H1103.77C1103.4 321.011 1102.23 321.766 1100.85 321.766C1099.86 321.766 1099.04 321.399 1098.39 320.644C1097.75 319.888 1097.42 318.96 1097.42 317.838C1097.42 316.694 1097.75 315.745 1098.37 314.99C1099.02 314.234 1099.84 313.867 1100.81 313.867C1102.21 313.867 1103.33 314.558 1103.77 315.766H1105.62C1105.1 313.436 1103.23 312.141 1100.79 312.141Z" fill="#A4A0AB"/>
<path d="M1114.38 312.378V318.421C1114.38 320.471 1113.35 321.701 1111.9 321.701C1110.58 321.701 1109.83 320.816 1109.83 319.111V312.378H1107.97V319.414C1107.97 321.917 1109.2 323.492 1111.47 323.492C1112.92 323.492 1113.93 322.91 1114.47 321.766L1114.58 323.255H1116.24V312.378H1114.38Z" fill="#A4A0AB"/>
<path d="M1124.36 312.141C1122.91 312.141 1121.9 312.724 1121.3 313.867L1121.19 312.378H1119.53V323.255H1121.38V317.428C1121.38 315.27 1122.44 313.954 1123.91 313.954C1125.22 313.954 1126.02 314.86 1126.02 316.522V323.255H1127.9V316.22C1127.9 313.738 1126.63 312.141 1124.36 312.141Z" fill="#A4A0AB"/>
<path d="M1138.85 307.501V313.867C1138.09 312.724 1136.88 312.141 1135.22 312.141C1133.71 312.141 1132.48 312.68 1131.53 313.759C1130.6 314.838 1130.13 316.198 1130.13 317.817C1130.13 319.457 1130.6 320.816 1131.53 321.895C1132.46 322.953 1133.69 323.492 1135.2 323.492C1136.84 323.492 1138.09 322.888 1138.93 321.658L1139.04 323.255H1140.7V307.501H1138.85ZM1135.5 313.91C1136.41 313.91 1137.18 314.277 1137.85 314.99C1138.52 315.702 1138.87 316.651 1138.87 317.817V317.924C1138.87 319.068 1138.52 319.975 1137.85 320.687C1137.18 321.399 1136.41 321.744 1135.48 321.744C1133.41 321.744 1132.05 320.147 1132.05 317.817C1132.05 316.673 1132.37 315.723 1133.02 315.011C1133.67 314.277 1134.49 313.91 1135.5 313.91Z" fill="#A4A0AB"/>
<path d="M1147.68 312.141C1146.5 312.141 1145.55 312.486 1144.79 313.198C1144.04 313.91 1143.65 314.795 1143.63 315.853H1145.46C1145.46 314.579 1146.41 313.867 1147.68 313.867C1149.02 313.867 1149.69 314.623 1149.69 316.112V316.651L1146.37 317.277C1144.34 317.666 1143.33 318.723 1143.33 320.428C1143.33 322.305 1144.58 323.492 1146.5 323.492C1148.03 323.492 1149.22 322.802 1149.8 321.766L1149.89 323.255H1151.57V316.047C1151.57 313.544 1150.12 312.141 1147.68 312.141ZM1149.69 318.68C1149.69 319.457 1149.48 320.126 1149.07 320.687C1148.55 321.399 1147.81 321.766 1146.86 321.766C1145.81 321.766 1145.2 321.27 1145.2 320.406C1145.2 319.521 1145.76 319.155 1146.71 318.917L1149.69 318.27V318.68Z" fill="#A4A0AB"/>
<path d="M1159.82 312.27C1158.09 312.27 1156.97 313.155 1156.56 314.277L1156.43 312.378H1154.77V323.255H1156.62V317.493C1156.64 316.371 1156.97 315.507 1157.61 314.925C1158.2 314.385 1158.93 314.126 1159.82 314.126V312.27Z" fill="#A4A0AB"/>
<path d="M1168.96 312.378L1166.09 320.19L1165.87 321.011L1165.66 320.19L1162.79 312.378H1160.8L1164.88 323.104L1163.07 327.895H1165.03L1170.97 312.378H1168.96Z" fill="#A4A0AB"/>
<circle cx="1384.83" cy="127.628" r="127.172" fill="#6423D2"/>
<ellipse cx="1384.83" cy="691.966" rx="11.5611" ry="11.7153" fill="#6423D2"/>
<ellipse cx="1384.83" cy="1006.43" rx="11.5611" ry="11.7153" fill="#61FAC8"/>
<ellipse cx="1384.83" cy="661.136" rx="11.5611" ry="11.7153" fill="#8B4EF1"/>
<ellipse cx="1384.83" cy="975.599" rx="11.5611" ry="11.7153" fill="#BBFFE9"/>
<ellipse cx="1384.83" cy="587.144" rx="11.5611" ry="11.7153" fill="#BA91FF"/>
<ellipse cx="1384.83" cy="881.568" rx="11.5611" ry="11.7153" fill="#D2FFF0"/>
<ellipse cx="1384.83" cy="722.795" rx="11.5611" ry="11.7153" fill="#451794"/>
<ellipse cx="1384.83" cy="1037.26" rx="11.5611" ry="11.7153" fill="#3BD5A2"/>
<g style="mix-blend-mode:multiply">
<circle cx="1384.83" cy="300.275" r="127.172" fill="#61FAC8"/>
</g>
</svg>
