<svg fill="none" height="926" viewBox="0 0 632 926" width="632" xmlns="http://www.w3.org/2000/svg"><path d="m0 0h632v926h-632z" fill="#ebeffb"/><path d="m81.0411 837.763h-5.8445c-.1667-.959-.4741-1.808-.922-2.548-.448-.75-1.0054-1.385-1.6721-1.906-.6668-.521-1.4273-.912-2.2816-1.172-.8439-.271-1.7555-.406-2.7348-.406-1.7398 0-3.2817.437-4.6256 1.312-1.344.865-2.3962 2.136-3.1567 3.813-.7605 1.667-1.1408 3.704-1.1408 6.111 0 2.448.3803 4.511 1.1408 6.188.7709 1.667 1.8232 2.927 3.1567 3.782 1.3439.844 2.8806 1.265 4.61 1.265.9585 0 1.8544-.125 2.6879-.375.8438-.26 1.5992-.64 2.2659-1.14.6772-.5 1.245-1.115 1.7034-1.844.4688-.73.7918-1.563.9689-2.501l5.8445.032c-.2188 1.521-.6928 2.948-1.422 4.281-.7189 1.334-1.6617 2.511-2.8286 3.532-1.1668 1.011-2.5316 1.802-4.0943 2.375-1.5627.563-3.2973.844-5.2038.844-2.8129 0-5.3237-.651-7.5323-1.953-2.2087-1.302-3.9485-3.183-5.2195-5.641-1.271-2.459-1.9065-5.408-1.9065-8.845 0-3.449.6407-6.397 1.9221-8.845 1.2814-2.459 3.0265-4.34 5.2351-5.642 2.2087-1.302 4.709-1.953 7.5011-1.953 1.7815 0 3.4379.25 4.9694.75s2.8962 1.234 4.0943 2.203c1.1981.959 2.1826 2.136 2.9536 3.532.7813 1.386 1.2918 2.969 1.5314 4.751zm13.5493 21.675c-2.3441 0-4.3756-.516-6.0946-1.548-1.719-1.031-3.0525-2.474-4.0006-4.328-.9376-1.855-1.4064-4.022-1.4064-6.501 0-2.48.4688-4.652 1.4064-6.517.9481-1.865 2.2816-3.313 4.0006-4.344s3.7505-1.547 6.0946-1.547c2.344 0 4.3756.516 6.0946 1.547s3.047 2.479 3.985 4.344c.948 1.865 1.422 4.037 1.422 6.517 0 2.479-.474 4.646-1.422 6.501-.938 1.854-2.266 3.297-3.985 4.328-1.719 1.032-3.7506 1.548-6.0946 1.548zm.0312-4.532c1.271 0 2.3337-.349 3.188-1.047.8542-.709 1.4898-1.657 1.9065-2.844.4269-1.188.6409-2.511.6409-3.97 0-1.469-.214-2.797-.6409-3.985-.4167-1.198-1.0523-2.151-1.9065-2.859-.8543-.709-1.917-1.063-3.188-1.063-1.3022 0-2.3857.354-3.2504 1.063-.8543.708-1.495 1.661-1.9222 2.859-.4167 1.188-.6251 2.516-.6251 3.985 0 1.459.2084 2.782.6251 3.97.4272 1.187 1.0679 2.135 1.9222 2.844.8647.698 1.9482 1.047 3.2504 1.047zm19.9484-10.002v14.065h-5.657v-24.004h5.407v4.079h.281c.553-1.344 1.433-2.412 2.641-3.203 1.219-.792 2.725-1.188 4.517-1.188 1.656 0 3.099.354 4.328 1.063 1.24.708 2.199 1.734 2.876 3.078.687 1.344 1.026 2.974 1.016 4.891v15.284h-5.657v-14.409c0-1.604-.417-2.859-1.251-3.766-.823-.906-1.963-1.359-3.422-1.359-.99 0-1.87.219-2.641.656-.761.427-1.36 1.047-1.797 1.86-.427.812-.641 1.797-.641 2.953zm24.836 0v14.065h-5.657v-24.004h5.407v4.079h.281c.553-1.344 1.433-2.412 2.641-3.203 1.219-.792 2.725-1.188 4.517-1.188 1.656 0 3.099.354 4.328 1.063 1.24.708 2.199 1.734 2.876 3.078.687 1.344 1.026 2.974 1.016 4.891v15.284h-5.657v-14.409c0-1.604-.417-2.859-1.251-3.766-.823-.906-1.963-1.359-3.422-1.359-.99 0-1.87.219-2.641.656-.761.427-1.36 1.047-1.797 1.86-.427.812-.641 1.797-.641 2.953zm29.806 14.534c-2.407 0-4.485-.501-6.236-1.501-1.74-1.01-3.078-2.437-4.016-4.281-.938-1.855-1.406-4.038-1.406-6.548 0-2.469.468-4.636 1.406-6.501.948-1.875 2.271-3.334 3.969-4.376 1.699-1.052 3.694-1.578 5.986-1.578 1.479 0 2.875.239 4.188.719 1.323.469 2.49 1.198 3.5 2.188 1.021.989 1.823 2.25 2.407 3.781.583 1.521.875 3.334.875 5.439v1.734h-19.675v-3.813h14.252c-.01-1.083-.245-2.047-.703-2.891-.458-.854-1.099-1.526-1.922-2.016-.813-.489-1.761-.734-2.844-.734-1.157 0-2.172.281-3.048.844-.875.552-1.557 1.281-2.047 2.187-.479.896-.724 1.881-.734 2.954v3.329c0 1.396.255 2.594.766 3.594.51.989 1.224 1.75 2.14 2.281.917.521 1.99.782 3.22.782.823 0 1.568-.115 2.234-.344.667-.24 1.245-.589 1.735-1.047.49-.459.859-1.026 1.11-1.703l5.282.593c-.334 1.396-.969 2.615-1.907 3.657-.927 1.032-2.115 1.834-3.563 2.407-1.448.562-3.105.844-4.969.844zm23.949 0c-2.396 0-4.454-.527-6.173-1.579-1.709-1.052-3.027-2.505-3.954-4.36-.917-1.865-1.375-4.011-1.375-6.438 0-2.438.469-4.589 1.407-6.454.937-1.875 2.26-3.334 3.969-4.376 1.719-1.052 3.75-1.578 6.094-1.578 1.949 0 3.673.359 5.173 1.078 1.511.709 2.714 1.714 3.61 3.016.896 1.292 1.406 2.803 1.531 4.532h-5.407c-.218-1.156-.739-2.12-1.562-2.891-.813-.781-1.902-1.172-3.266-1.172-1.157 0-2.173.313-3.048.938-.875.614-1.557 1.5-2.047 2.656-.479 1.157-.719 2.542-.719 4.157 0 1.636.24 3.042.719 4.219.479 1.167 1.151 2.068 2.016 2.704.875.625 1.901.938 3.079.938.833 0 1.578-.157 2.234-.469.667-.323 1.224-.787 1.672-1.391s.756-1.339.922-2.204h5.407c-.135 1.699-.635 3.204-1.5 4.517-.865 1.302-2.042 2.323-3.532 3.063-1.489.729-3.24 1.094-5.25 1.094zm24.933-24.473v4.376h-13.798v-4.376zm-10.392-5.75h5.657v22.534c0 .761.115 1.344.344 1.75.24.396.552.667.938.813.385.146.812.219 1.281.219.354 0 .677-.026.969-.079.302-.052.531-.098.688-.14l.953 4.422c-.302.105-.735.219-1.297.344-.552.125-1.23.198-2.032.219-1.417.042-2.693-.172-3.828-.641-1.136-.479-2.037-1.219-2.704-2.219-.656-1-.979-2.25-.969-3.75zm16.628 30.098c-.948 0-1.761-.334-2.438-1.001-.677-.666-1.01-1.479-1-2.437-.01-.938.323-1.74 1-2.407s1.49-1 2.438-1c.917 0 1.714.333 2.391 1 .688.667 1.037 1.469 1.047 2.407-.01.635-.177 1.213-.5 1.734-.313.521-.729.938-1.25 1.25-.511.302-1.073.454-1.688.454z" fill="#372fff"/><circle fill="#e0dfff" r="69.7512" stroke="#a5a1ff" stroke-width="1.57165" transform="matrix(-1 0 0 1 253.038 351.861)"/><circle fill="#e0dfff" r="69.7512" stroke="#a5a1ff" stroke-width="1.57165" transform="matrix(-1 0 0 1 367.537 351.861)"/><circle fill="#e0dfff" r="69.7512" stroke="#a5a1ff" stroke-width="1.57165" transform="matrix(-1 0 0 1 253.038 466.588)"/><circle fill="#e0dfff" r="69.7512" stroke="#a5a1ff" stroke-width="1.57165" transform="matrix(-1 0 0 1 367.537 466.588)"/><g fill="#372fff"><path clip-rule="evenodd" d="m408.595 409.225c-11.565-8.293-25.741-13.174-41.057-13.174-15.317 0-29.493 4.881-41.058 13.174 11.565 8.292 25.741 13.173 41.058 13.173 15.316 0 29.492-4.881 41.057-13.173z" fill-rule="evenodd"/><path clip-rule="evenodd" d="m310.174 392.916c8.292-11.565 13.174-25.741 13.174-41.058 0-15.316-4.882-29.492-13.174-41.057-8.292 11.565-13.174 25.741-13.174 41.057 0 15.317 4.882 29.493 13.174 41.058z" fill-rule="evenodd"/><path clip-rule="evenodd" d="m310.174 507.646c8.292-11.565 13.174-25.741 13.174-41.057 0-15.317-4.882-29.493-13.174-41.058-8.292 11.565-13.174 25.741-13.174 41.058 0 15.316 4.882 29.492 13.174 41.057z" fill-rule="evenodd"/><path clip-rule="evenodd" d="m294.094 409.225c-11.564-8.293-25.741-13.174-41.057-13.174s-29.492 4.881-41.057 13.174c11.565 8.292 25.741 13.173 41.057 13.173s29.493-4.881 41.057-13.173z" fill-rule="evenodd"/><ellipse cx="577.869" cy="49.2136" rx="7.79842" ry="7.85813"/><ellipse cx="554.886" cy="49.2136" rx="7.79841" ry="7.85813"/></g></svg>