<svg fill="none" height="1832" viewBox="0 0 3276 1832" width="3276" xmlns="http://www.w3.org/2000/svg" xmlns:xlink="http://www.w3.org/1999/xlink"><radialGradient id="a" cx="0" cy="0" gradientTransform="matrix(0 166.396 -48.2563 0 859.859 1298.54)" gradientUnits="userSpaceOnUse" r="1"><stop offset="0" stop-color="#e0dfff"/><stop offset="1" stop-color="#c4c4c4" stop-opacity="0"/></radialGradient><clipPath id="b"><path d="m0 0h3276v1832h-3276z"/></clipPath><g clip-path="url(#b)"><rect fill="#f9f9fc" height="872" rx="40.3535" width="726" x="246"/><path d="m520.53 751h-15.912v-46.957h16.233c4.662 0 8.667.94 12.015 2.82 3.362 1.865 5.946 4.548 7.749 8.048 1.804 3.501 2.706 7.689 2.706 12.565 0 4.891-.91 9.095-2.729 12.61-1.803 3.516-4.409 6.214-7.818 8.094-3.393 1.88-7.475 2.82-12.244 2.82zm-7.405-7.36h6.993c3.271 0 5.999-.596 8.185-1.788 2.186-1.208 3.829-3.004 4.929-5.388 1.101-2.4 1.651-5.396 1.651-8.988s-.55-6.573-1.651-8.942c-1.1-2.385-2.728-4.165-4.883-5.342-2.14-1.193-4.8-1.789-7.979-1.789h-7.245z" fill="#000"/><path d="m566.627 751.688c-3.531 0-6.58-.734-9.148-2.201-2.553-1.483-4.517-3.577-5.892-6.282-1.376-2.721-2.064-5.923-2.064-9.607 0-3.623.688-6.802 2.064-9.538 1.39-2.752 3.332-4.892 5.823-6.42 2.492-1.544 5.419-2.316 8.782-2.316 2.17 0 4.219.352 6.144 1.055 1.942.688 3.654 1.757 5.136 3.21 1.498 1.452 2.675 3.301 3.531 5.548.856 2.232 1.284 4.892 1.284 7.979v2.545h-28.866v-5.594h20.91c-.015-1.59-.359-3.004-1.032-4.242-.672-1.253-1.612-2.239-2.82-2.958-1.192-.718-2.583-1.077-4.173-1.077-1.696 0-3.187.412-4.471 1.238-1.284.81-2.285 1.88-3.003 3.21-.703 1.314-1.063 2.759-1.078 4.333v4.884c0 2.048.375 3.806 1.124 5.273.749 1.452 1.796 2.568 3.141 3.348 1.345.764 2.919 1.146 4.723 1.146 1.208 0 2.3-.168 3.279-.504.978-.352 1.826-.864 2.545-1.536.718-.673 1.261-1.506 1.628-2.499l7.749.871c-.489 2.048-1.421 3.836-2.797 5.365-1.36 1.513-3.103 2.69-5.227 3.531-2.125.825-4.556 1.238-7.292 1.238z" fill="#000"/><path d="m617.144 725.091-7.567.826c-.213-.764-.588-1.483-1.123-2.155-.52-.673-1.223-1.216-2.109-1.628-.887-.413-1.972-.619-3.256-.619-1.727 0-3.18.374-4.357 1.123-1.161.749-1.734 1.72-1.719 2.912-.015 1.024.359 1.857 1.123 2.499.78.642 2.064 1.169 3.852 1.582l6.007 1.284c3.333.719 5.809 1.857 7.429 3.416 1.636 1.56 2.461 3.6 2.476 6.122-.015 2.217-.665 4.173-1.948 5.87-1.269 1.681-3.035 2.996-5.297 3.943-2.262.948-4.861 1.422-7.795 1.422-4.311 0-7.781-.902-10.41-2.705-2.629-1.819-4.196-4.349-4.7-7.59l8.094-.779c.366 1.589 1.146 2.789 2.338 3.599 1.192.811 2.744 1.216 4.655 1.216 1.971 0 3.553-.405 4.746-1.216 1.207-.81 1.811-1.811 1.811-3.003 0-1.009-.39-1.842-1.169-2.499-.765-.658-1.957-1.162-3.577-1.514l-6.007-1.261c-3.378-.703-5.877-1.887-7.498-3.553-1.62-1.682-2.422-3.807-2.407-6.375-.015-2.17.573-4.05 1.765-5.64 1.208-1.605 2.882-2.843 5.022-3.714 2.155-.887 4.639-1.33 7.451-1.33 4.127 0 7.375.879 9.745 2.637 2.384 1.758 3.859 4.134 4.425 7.13z" fill="#000"/><path d="m624.744 751v-35.217h8.3v35.217zm4.173-40.216c-1.314 0-2.445-.435-3.393-1.307-.948-.886-1.422-1.949-1.422-3.187 0-1.253.474-2.315 1.422-3.187.948-.886 2.079-1.33 3.393-1.33 1.33 0 2.461.444 3.394 1.33.947.872 1.421 1.934 1.421 3.187 0 1.238-.474 2.301-1.421 3.187-.933.872-2.064 1.307-3.394 1.307z" fill="#000"/><path d="m656.895 764.94c-2.98 0-5.54-.405-7.68-1.215-2.14-.795-3.86-1.865-5.159-3.21-1.3-1.345-2.201-2.835-2.706-4.471l7.475-1.811c.336.688.825 1.368 1.467 2.041.642.687 1.506 1.253 2.591 1.696 1.101.459 2.484.688 4.15.688 2.354 0 4.303-.573 5.847-1.719 1.544-1.132 2.315-2.996 2.315-5.595v-6.672h-.412c-.428.856-1.055 1.735-1.88 2.637-.81.902-1.888 1.658-3.233 2.27-1.33.611-3.004.917-5.021.917-2.706 0-5.159-.635-7.36-1.903-2.186-1.284-3.929-3.195-5.228-5.732-1.284-2.553-1.926-5.748-1.926-9.584 0-3.867.642-7.131 1.926-9.791 1.299-2.675 3.049-4.7 5.251-6.076 2.201-1.391 4.654-2.086 7.359-2.086 2.064 0 3.761.352 5.09 1.055 1.346.688 2.416 1.521 3.21 2.499.795.963 1.399 1.872 1.812 2.728h.458v-5.823h8.186v35.79c0 3.012-.719 5.503-2.156 7.475-1.436 1.972-3.401 3.447-5.892 4.425-2.492.978-5.319 1.467-8.484 1.467zm.069-20.956c1.758 0 3.256-.428 4.494-1.284s2.178-2.086 2.82-3.691.963-3.531.963-5.778c0-2.217-.321-4.158-.963-5.824-.626-1.666-1.559-2.958-2.797-3.875-1.223-.932-2.728-1.398-4.517-1.398-1.849 0-3.393.481-4.631 1.444s-2.171 2.285-2.797 3.967c-.627 1.666-.941 3.561-.941 5.686 0 2.155.314 4.043.941 5.663.642 1.605 1.582 2.858 2.82 3.76 1.253.887 2.789 1.33 4.608 1.33z" fill="#000"/><path d="m690.233 730.365v20.635h-8.3v-35.217h7.933v5.984h.413c.81-1.972 2.102-3.539 3.875-4.7 1.788-1.162 3.997-1.743 6.626-1.743 2.43 0 4.547.52 6.351 1.559 1.819 1.039 3.225 2.545 4.219 4.517 1.009 1.972 1.505 4.364 1.49 7.176v22.424h-8.3v-21.14c0-2.354-.611-4.195-1.834-5.525-1.208-1.33-2.881-1.995-5.021-1.995-1.452 0-2.744.321-3.875.963-1.116.627-1.995 1.536-2.637 2.728-.627 1.193-.94 2.637-.94 4.334z" fill="#000"/><path d="m715.715 376.497 13.316-9.988v169.788l-13.316-29.963z" fill="#e0dfff"/><g clip-rule="evenodd" fill-rule="evenodd"><path d="m744.061 379.148c0-8.085-6.554-14.639-14.639-14.639-8.084 0-14.638 6.554-14.638 14.639v128.56l14.638 26.223 14.639-26.223zm-14.639-10.639c5.876 0 10.639 4.763 10.639 10.639v127.519l-10.639 19.058-10.638-19.058v-127.519c0-5.876 4.763-10.639 10.638-10.639z" fill="#372fff"/><path d="m717.358 499.735h24.703v-4h-24.703z" fill="#372fff"/><path d="m717.358 391.809h24.703v-4h-24.703z" fill="#372fff"/><path d="m689.024 210.12c1.105 0 2 .895 2 2v97.773c0 1.105-.895 2-2 2-1.104 0-2-.895-2-2v-97.773c0-1.105.896-2 2-2z" fill="#372fff"/><path d="m723.279 225.796c1.105 0 2 .895 2 2v4.011c0 1.104-.895 2-2 2-1.104 0-2-.896-2-2v-4.011c0-1.105.896-2 2-2zm0 12.032c1.105 0 2 .896 2 2v8.022c0 1.104-.895 2-2 2-1.104 0-2-.896-2-2v-8.022c0-1.104.896-2 2-2zm0 16.043c1.105 0 2 .896 2 2v2.011h2.696c1.104 0 2 .896 2 2 0 1.105-.896 2-2 2h-4.696c-1.104 0-2-.895-2-2v-4.011c0-1.104.896-2 2-2zm12.087 6.011c0-1.104.895-2 2-2h9.391c1.105 0 2 .896 2 2 0 1.105-.895 2-2 2h-9.391c-1.105 0-2-.895-2-2zm18.782 0c0-1.104.896-2 2-2h4.696c1.104 0 2 .896 2 2 0 1.105-.896 2-2 2h-4.696c-1.104 0-2-.895-2-2z" fill="#a5a1ff"/><path d="m677.928 302.616c0-1.105.895-2 2-2h72.409c1.105 0 2 .895 2 2 0 1.104-.895 2-2 2h-72.409c-1.105 0-2-.896-2-2z" fill="#372fff"/><path d="m723.279 257.882c1.105 0 2 .895 2 2v42.734c0 1.105-.895 2-2 2-1.104 0-2-.895-2-2v-40.734h-41.352c-1.105 0-2-.896-2-2 0-1.105.895-2 2-2z" fill="#372fff"/><path d="m678.344 221.175c0-1.104.895-2 2-2h97.794c1.104 0 2 .896 2 2 0 1.105-.896 2-2 2h-97.794c-1.105 0-2-.895-2-2z" fill="#372fff"/><path d="m770.707 302.986c0 1.104-.896 2-2 2-1.105 0-2-.896-2-2v-89.093c0-1.105.895-2 2-2 1.104 0 2 .895 2 2z" fill="#372fff"/><path d="m542.388 310.944 11.862-47.448 11.862 47.448c-3.797.946-7.771 1.449-11.862 1.449s-8.064-.503-11.862-1.449z" fill="#e0dfff"/><path d="m554.25 261.496c.918 0 1.718.624 1.941 1.515l66.583 266.333c.268 1.072-.384 2.157-1.455 2.425-1.072.268-2.158-.383-2.426-1.455l-64.643-258.572-64.643 258.572c-.268 1.072-1.354 1.723-2.425 1.455-1.072-.268-1.723-1.353-1.455-2.425l66.583-266.333c.223-.891 1.023-1.515 1.94-1.515z" fill="#372fff"/><path d="m620.834 398.662h-101.956v-4h101.956z" fill="#372fff"/><path d="m554.25 216.598c-1.104 0-2-.895-2-2v-37.453c0-1.105.896-2 2-2 1.105 0 2 .895 2 2v37.453c0 1.105-.895 2-2 2z" fill="#372fff"/><path d="m554.25 216.598c-25.9 0-46.897 20.997-46.897 46.897 0 25.901 20.997 46.897 46.897 46.897 25.901 0 46.898-20.996 46.898-46.897 0-25.9-20.997-46.897-46.898-46.897zm-50.897 46.897c0-28.109 22.788-50.897 50.897-50.897 28.11 0 50.898 22.788 50.898 50.897 0 28.11-22.788 50.897-50.898 50.897-28.109 0-50.897-22.787-50.897-50.897z" fill="#372fff"/></g><rect fill="#f9f9fc" height="872" rx="40.3535" width="726" x="1892"/><path d="m2154.04 716.952c-.22-2.003-1.12-3.562-2.71-4.677-1.57-1.116-3.62-1.674-6.14-1.674-1.78 0-3.3.267-4.57.802-1.26.535-2.23 1.261-2.91 2.178-.67.918-1.01 1.965-1.03 3.142 0 .978.22 1.826.67 2.545.45.718 1.07 1.329 1.85 1.834.78.489 1.65.902 2.59 1.238.95.336 1.91.619 2.87.848l4.4 1.101c1.78.413 3.48.971 5.12 1.674 1.65.703 3.12 1.589 4.42 2.659 1.31 1.07 2.35 2.362 3.12 3.875.76 1.513 1.14 3.287 1.14 5.319 0 2.752-.7 5.175-2.1 7.269-1.41 2.079-3.44 3.706-6.1 4.883-2.65 1.162-5.85 1.743-9.61 1.743-3.65 0-6.83-.566-9.52-1.697-2.67-1.131-4.76-2.782-6.28-4.952-1.5-2.171-2.31-4.815-2.43-7.933h8.37c.12 1.635.63 2.996 1.51 4.081.89 1.085 2.04 1.895 3.47 2.43s3.04.803 4.81.803c1.85 0 3.47-.275 4.86-.826 1.41-.565 2.51-1.345 3.3-2.338.8-1.009 1.2-2.186 1.22-3.531-.02-1.223-.38-2.232-1.08-3.027-.7-.81-1.69-1.482-2.96-2.017-1.25-.551-2.72-1.04-4.4-1.468l-5.34-1.376c-3.87-.993-6.93-2.499-9.17-4.516-2.23-2.033-3.35-4.731-3.35-8.094 0-2.767.75-5.189 2.25-7.268 1.51-2.079 3.57-3.692 6.16-4.838 2.6-1.162 5.55-1.743 8.83-1.743 3.33 0 6.25.581 8.76 1.743 2.52 1.146 4.5 2.744 5.94 4.792 1.44 2.033 2.18 4.371 2.22 7.016z" fill="#000"/><path d="m2185.67 751.688c-3.53 0-6.58-.734-9.15-2.201-2.55-1.483-4.51-3.577-5.89-6.282-1.37-2.721-2.06-5.923-2.06-9.607 0-3.623.69-6.802 2.06-9.538 1.39-2.752 3.33-4.892 5.83-6.42 2.49-1.544 5.41-2.316 8.78-2.316 2.17 0 4.22.352 6.14 1.055 1.94.688 3.65 1.757 5.14 3.21 1.5 1.452 2.67 3.301 3.53 5.548.85 2.232 1.28 4.892 1.28 7.979v2.545h-28.86v-5.594h20.91c-.02-1.59-.36-3.004-1.04-4.242-.67-1.253-1.61-2.239-2.82-2.958-1.19-.718-2.58-1.077-4.17-1.077-1.7 0-3.19.412-4.47 1.238-1.28.81-2.28 1.88-3 3.21-.71 1.314-1.07 2.759-1.08 4.333v4.884c0 2.048.37 3.806 1.12 5.273.75 1.452 1.8 2.568 3.14 3.348 1.35.764 2.92 1.146 4.73 1.146 1.2 0 2.3-.168 3.28-.504.97-.352 1.82-.864 2.54-1.536.72-.673 1.26-1.506 1.63-2.499l7.75.871c-.49 2.048-1.42 3.836-2.8 5.365-1.36 1.513-3.1 2.69-5.23 3.531-2.12.825-4.55 1.238-7.29 1.238z" fill="#000"/><path d="m2225.94 715.783v6.419h-20.25v-6.419zm-15.25-8.438h8.3v33.062c0 1.116.17 1.972.51 2.568.35.581.81.979 1.37 1.193.57.214 1.2.321 1.88.321.52 0 1-.039 1.42-.115.45-.076.78-.145 1.01-.206l1.4 6.488c-.44.153-1.08.321-1.9.505-.81.183-1.8.29-2.98.321-2.08.061-3.95-.253-5.62-.94-1.67-.704-2.99-1.789-3.97-3.256-.96-1.468-1.43-3.302-1.42-5.503z" fill="#000"/><path d="m2250.47 715.783v6.419h-20.25v-6.419zm-15.25-8.438h8.3v33.062c0 1.116.17 1.972.5 2.568.36.581.81.979 1.38 1.193s1.19.321 1.88.321c.52 0 .99-.039 1.42-.115.45-.076.78-.145 1.01-.206l1.4 6.488c-.44.153-1.08.321-1.9.505-.81.183-1.81.29-2.98.321-2.08.061-3.96-.253-5.62-.94-1.67-.704-2.99-1.789-3.97-3.256-.96-1.468-1.43-3.302-1.42-5.503z" fill="#000"/><path d="m2257.41 751v-35.217h8.3v35.217zm4.17-40.216c-1.31 0-2.44-.435-3.39-1.307-.95-.886-1.42-1.949-1.42-3.187 0-1.253.47-2.315 1.42-3.187.95-.886 2.08-1.33 3.39-1.33 1.33 0 2.46.444 3.4 1.33.94.872 1.42 1.934 1.42 3.187 0 1.238-.48 2.301-1.42 3.187-.94.872-2.07 1.307-3.4 1.307z" fill="#000"/><path d="m2282.54 730.365v20.635h-8.3v-35.217h7.94v5.984h.41c.81-1.972 2.1-3.539 3.87-4.7 1.79-1.162 4-1.743 6.63-1.743 2.43 0 4.55.52 6.35 1.559 1.82 1.039 3.23 2.545 4.22 4.517 1.01 1.972 1.51 4.364 1.49 7.176v22.424h-8.3v-21.14c0-2.354-.61-4.195-1.83-5.525-1.21-1.33-2.88-1.995-5.02-1.995-1.46 0-2.75.321-3.88.963-1.11.627-1.99 1.536-2.64 2.728-.62 1.193-.94 2.637-.94 4.334z" fill="#000"/><path d="m2328.9 764.94c-2.98 0-5.54-.405-7.68-1.215-2.14-.795-3.86-1.865-5.15-3.21-1.3-1.345-2.21-2.835-2.71-4.471l7.47-1.811c.34.688.83 1.368 1.47 2.041.64.687 1.51 1.253 2.59 1.696 1.1.459 2.49.688 4.15.688 2.36 0 4.31-.573 5.85-1.719 1.54-1.132 2.31-2.996 2.31-5.595v-6.672h-.41c-.43.856-1.05 1.735-1.88 2.637-.81.902-1.89 1.658-3.23 2.27-1.33.611-3 .917-5.02.917-2.71 0-5.16-.635-7.36-1.903-2.19-1.284-3.93-3.195-5.23-5.732-1.28-2.553-1.93-5.748-1.93-9.584 0-3.867.65-7.131 1.93-9.791 1.3-2.675 3.05-4.7 5.25-6.076 2.2-1.391 4.66-2.086 7.36-2.086 2.06 0 3.76.352 5.09 1.055 1.35.688 2.42 1.521 3.21 2.499.8.963 1.4 1.872 1.81 2.728h.46v-5.823h8.19v35.79c0 3.012-.72 5.503-2.16 7.475s-3.4 3.447-5.89 4.425-5.32 1.467-8.49 1.467zm.07-20.956c1.76 0 3.26-.428 4.5-1.284s2.18-2.086 2.82-3.691.96-3.531.96-5.778c0-2.217-.32-4.158-.96-5.824-.63-1.666-1.56-2.958-2.8-3.875-1.22-.932-2.73-1.398-4.52-1.398-1.85 0-3.39.481-4.63 1.444s-2.17 2.285-2.8 3.967c-.62 1.666-.94 3.561-.94 5.686 0 2.155.32 4.043.94 5.663.65 1.605 1.59 2.858 2.82 3.76 1.26.887 2.79 1.33 4.61 1.33z" fill="#000"/><path d="m2381.78 725.091-7.57.826c-.21-.764-.59-1.483-1.12-2.155-.52-.673-1.23-1.216-2.11-1.628-.89-.413-1.97-.619-3.26-.619-1.73 0-3.18.374-4.35 1.123s-1.74 1.72-1.72 2.912c-.02 1.024.36 1.857 1.12 2.499.78.642 2.06 1.169 3.85 1.582l6.01 1.284c3.33.719 5.81 1.857 7.43 3.416 1.63 1.56 2.46 3.6 2.47 6.122-.01 2.217-.66 4.173-1.95 5.87-1.26 1.681-3.03 2.996-5.29 3.943-2.26.948-4.86 1.422-7.8 1.422-4.31 0-7.78-.902-10.41-2.705-2.63-1.819-4.19-4.349-4.7-7.59l8.1-.779c.36 1.589 1.14 2.789 2.34 3.599 1.19.811 2.74 1.216 4.65 1.216 1.97 0 3.55-.405 4.75-1.216 1.2-.81 1.81-1.811 1.81-3.003 0-1.009-.39-1.842-1.17-2.499-.77-.658-1.96-1.162-3.58-1.514l-6.01-1.261c-3.37-.703-5.87-1.887-7.49-3.553-1.62-1.682-2.43-3.807-2.41-6.375-.02-2.17.57-4.05 1.76-5.64 1.21-1.605 2.89-2.843 5.03-3.714 2.15-.887 4.63-1.33 7.45-1.33 4.12 0 7.37.879 9.74 2.637 2.39 1.758 3.86 4.134 4.43 7.13z" fill="#000"/><path clip-rule="evenodd" d="m2406.04 200.371c0 1.104-.9 2-2 2h-309.06c-1.1 0-2-.896-2-2 0-1.105.9-2 2-2h309.06c1.1 0 2 .895 2 2z" fill="#372fff" fill-rule="evenodd"/><path clip-rule="evenodd" d="m2183.35 412.43v-214.059h4v214.059z" fill="#372fff" fill-rule="evenodd"/><path clip-rule="evenodd" d="m2135.77 326.29v-127.919h4v127.919z" fill="#372fff" fill-rule="evenodd"/><path clip-rule="evenodd" d="m2228.28 313.375v-115.004h4v115.004z" fill="#372fff" fill-rule="evenodd"/><path clip-rule="evenodd" d="m2270.14 351.332v-152.961h4v152.961z" fill="#372fff" fill-rule="evenodd"/><path clip-rule="evenodd" d="m2228.28 315.375c-5.93 0-10.74 4.809-10.74 10.741s4.81 10.741 10.74 10.741 10.74-4.809 10.74-10.741-4.81-10.741-10.74-10.741zm-14.74 10.741c0-8.142 6.6-14.741 14.74-14.741s14.74 6.599 14.74 14.741c0 8.141-6.6 14.741-14.74 14.741s-14.74-6.6-14.74-14.741z" fill="#372fff" fill-rule="evenodd"/><path clip-rule="evenodd" d="m2135.77 327.851c-12.96 0-23.48 10.514-23.48 23.482 0 12.969 10.52 23.483 23.48 23.483 12.97 0 23.49-10.514 23.49-23.483 0-12.968-10.52-23.482-23.49-23.482zm-27.48 23.482c0-15.178 12.31-27.482 27.48-27.482 15.18 0 27.49 12.304 27.49 27.482 0 15.179-12.31 27.483-27.49 27.483-15.17 0-27.48-12.304-27.48-27.483z" fill="#372fff" fill-rule="evenodd"/><path d="m2299.92 376.814h-50.96c0-14.073 11.41-25.482 25.48-25.482 14.08 0 25.48 11.409 25.48 25.482z" fill="#e0dfff"/><path clip-rule="evenodd" d="m2251.04 374.814h46.8c-1.01-12.032-11.1-21.482-23.4-21.482-12.29 0-22.38 9.45-23.4 21.482zm-4.08 2c0-15.178 12.3-27.482 27.48-27.482s27.48 12.304 27.48 27.482c0 1.105-.89 2-2 2h-50.96c-1.1 0-2-.895-2-2z" fill="#372fff" fill-rule="evenodd"/><path d="m2238.97 446.215h-107.55c0-29.698 24.08-53.773 53.78-53.773 29.69 0 53.77 24.075 53.77 53.773z" fill="#e0dfff"/><path clip-rule="evenodd" d="m2133.46 444.215h103.47c-1.05-27.667-23.81-49.773-51.73-49.773-27.93 0-50.69 22.106-51.74 49.773zm-4.04 2c0-30.803 24.97-55.773 55.78-55.773 30.8 0 55.77 24.97 55.77 55.773 0 1.105-.9 2-2 2h-107.55c-1.1 0-2-.895-2-2z" fill="#372fff" fill-rule="evenodd"/><path clip-rule="evenodd" d="m2350.27 418.052-1.33 1.491-1.33-1.491c.76-.679 1.9-.679 2.66 0zm-1.33 89.45c-1.33 1.491-1.33 1.49-1.33 1.49l-.01-.006-.02-.014-.05-.05c-.05-.042-.11-.103-.2-.183-.17-.16-.42-.393-.73-.696-.62-.607-1.51-1.494-2.56-2.633-2.11-2.277-4.92-5.569-7.74-9.642-5.6-8.107-11.35-19.505-11.35-32.246 0-12.74 5.75-24.138 11.35-32.246 2.82-4.072 5.63-7.364 7.74-9.641 1.05-1.139 1.94-2.027 2.56-2.633.31-.303.56-.537.73-.696.09-.08.15-.141.2-.184l.05-.049.02-.014.01-.006s0-.001 1.33 1.49c1.33-1.491 1.33-1.49 1.34-1.49v.002.004l.02.014.05.049c.05.043.11.104.2.184.17.159.42.393.73.696.62.606 1.51 1.494 2.56 2.633 2.11 2.277 4.93 5.569 7.74 9.641 5.6 8.108 11.35 19.506 11.35 32.246 0 12.741-5.75 24.139-11.35 32.246-2.81 4.073-5.63 7.365-7.74 9.642-1.05 1.139-1.94 2.026-2.56 2.633-.31.303-.56.536-.73.696-.09.08-.15.141-.2.183l-.05.05-.02.014v.006c-.01 0-.01.001-1.34-1.49zm0 0-1.33 1.491c.76.678 1.9.678 2.66 0zm0-2.769c.53-.529 1.2-1.214 1.97-2.043 2.01-2.17 4.7-5.313 7.38-9.196 5.39-7.802 10.64-18.394 10.64-29.972 0-11.577-5.25-22.169-10.64-29.972-2.68-3.882-5.37-7.025-7.38-9.195-.77-.829-1.44-1.515-1.97-2.043-.53.528-1.2 1.214-1.97 2.043-2.01 2.17-4.7 5.313-7.38 9.195-5.39 7.803-10.64 18.395-10.64 29.972 0 11.578 5.25 22.17 10.64 29.972 2.68 3.883 5.37 7.026 7.38 9.196.77.829 1.44 1.514 1.97 2.043z" fill="#372fff" fill-rule="evenodd"/><path clip-rule="evenodd" d="m2287.44 466.109c0-1.104.89-2 2-2h37.51v4h-35.46c1.13 21.087 20.03 37.393 41.41 37.393h32.34c21.14 0 40.26-16.312 41.41-37.393h-35.72v-4h37.77c1.11 0 2 .896 2 2 0 24.527-21.74 43.393-45.46 43.393h-32.34c-23.99 0-45.46-18.873-45.46-43.393z" fill="#372fff" fill-rule="evenodd"/><path clip-rule="evenodd" d="m2346.94 572.765v-65.264h4v65.264z" fill="#372fff" fill-rule="evenodd"/><path clip-rule="evenodd" d="m2350.27 418.054-1.33 1.491-1.33-1.491c.76-.679 1.9-.679 2.66 0zm-1.33 89.45c-1.33 1.491-1.33 1.49-1.33 1.49l-.01-.006-.02-.014-.05-.05c-.05-.042-.11-.103-.2-.183-.17-.16-.42-.393-.73-.696-.62-.607-1.51-1.494-2.56-2.633-2.11-2.277-4.92-5.569-7.74-9.642-5.6-8.107-11.35-19.505-11.35-32.246s5.75-24.138 11.35-32.246c2.82-4.072 5.63-7.364 7.74-9.641 1.05-1.139 1.94-2.027 2.56-2.633.31-.303.56-.537.73-.696.09-.08.15-.141.2-.184l.05-.049.02-.014.01-.006c0-.001 0-.001 1.33 1.49 1.33-1.491 1.33-1.491 1.34-1.49v.001.005l.02.014.05.049c.05.043.11.104.2.184.17.159.42.393.73.696.62.606 1.51 1.494 2.56 2.633 2.11 2.277 4.93 5.569 7.74 9.641 5.6 8.108 11.35 19.505 11.35 32.246s-5.75 24.139-11.35 32.246c-2.81 4.073-5.63 7.365-7.74 9.642-1.05 1.139-1.94 2.026-2.56 2.633-.31.303-.56.536-.73.696-.09.08-.15.141-.2.183l-.05.05-.02.014v.006c-.01 0-.01.001-1.34-1.49zm0 0-1.33 1.491c.76.678 1.9.678 2.66 0zm0-2.769c.53-.529 1.2-1.214 1.97-2.043 2.01-2.17 4.7-5.313 7.38-9.196 5.39-7.802 10.64-18.394 10.64-29.972 0-11.577-5.25-22.169-10.64-29.972-2.68-3.882-5.37-7.025-7.38-9.195-.77-.829-1.44-1.515-1.97-2.044-.53.529-1.2 1.215-1.97 2.044-2.01 2.17-4.7 5.313-7.38 9.195-5.39 7.803-10.64 18.395-10.64 29.972 0 11.578 5.25 22.17 10.64 29.972 2.68 3.883 5.37 7.026 7.38 9.196.77.829 1.44 1.514 1.97 2.043z" fill="#372fff" fill-rule="evenodd"/><path clip-rule="evenodd" d="m2287.44 466.111c0-1.104.89-2 2-2h37.51v4h-35.46c1.13 21.087 20.03 37.393 41.41 37.393h32.34c21.14 0 40.26-16.313 41.41-37.393h-35.72v-4h37.77c1.11 0 2 .896 2 2 0 24.527-21.74 43.393-45.46 43.393h-32.34c-23.99 0-45.46-18.873-45.46-43.393z" fill="#372fff" fill-rule="evenodd"/><path clip-rule="evenodd" d="m2346.94 572.767v-65.264h4v65.264z" fill="#372fff" fill-rule="evenodd"/><path clip-rule="evenodd" d="m2350.27 418.054-1.33 1.491-1.33-1.491c.76-.679 1.9-.679 2.66 0zm-1.33 89.45c-1.33 1.491-1.33 1.49-1.33 1.49l-.01-.006-.02-.014-.05-.05c-.05-.042-.11-.103-.2-.183-.17-.16-.42-.393-.73-.696-.62-.607-1.51-1.494-2.56-2.633-2.11-2.277-4.92-5.569-7.74-9.642-5.6-8.107-11.35-19.505-11.35-32.246s5.75-24.138 11.35-32.246c2.82-4.072 5.63-7.364 7.74-9.641 1.05-1.139 1.94-2.027 2.56-2.633.31-.303.56-.537.73-.696.09-.08.15-.141.2-.184l.05-.049.02-.014.01-.006c0-.001 0-.001 1.33 1.49 1.33-1.491 1.33-1.491 1.34-1.49v.001.005l.02.014.05.049c.05.043.11.104.2.184.17.159.42.393.73.696.62.606 1.51 1.494 2.56 2.633 2.11 2.277 4.93 5.569 7.74 9.641 5.6 8.108 11.35 19.505 11.35 32.246s-5.75 24.139-11.35 32.246c-2.81 4.073-5.63 7.365-7.74 9.642-1.05 1.139-1.94 2.026-2.56 2.633-.31.303-.56.536-.73.696-.09.08-.15.141-.2.183l-.05.05-.02.014v.006c-.01 0-.01.001-1.34-1.49zm0 0-1.33 1.491c.76.678 1.9.678 2.66 0zm0-2.769c.53-.529 1.2-1.214 1.97-2.043 2.01-2.17 4.7-5.313 7.38-9.196 5.39-7.802 10.64-18.394 10.64-29.972 0-11.577-5.25-22.169-10.64-29.972-2.68-3.882-5.37-7.025-7.38-9.195-.77-.829-1.44-1.515-1.97-2.044-.53.529-1.2 1.215-1.97 2.044-2.01 2.17-4.7 5.313-7.38 9.195-5.39 7.803-10.64 18.395-10.64 29.972 0 11.578 5.25 22.17 10.64 29.972 2.68 3.883 5.37 7.026 7.38 9.196.77.829 1.44 1.514 1.97 2.043z" fill="#372fff" fill-rule="evenodd"/><path clip-rule="evenodd" d="m2287.44 466.111c0-1.104.89-2 2-2h37.51v4h-35.46c1.13 21.087 20.03 37.393 41.41 37.393h32.34c21.14 0 40.26-16.313 41.41-37.393h-35.72v-4h37.77c1.11 0 2 .896 2 2 0 24.527-21.74 43.393-45.46 43.393h-32.34c-23.99 0-45.46-18.873-45.46-43.393z" fill="#372fff" fill-rule="evenodd"/><path clip-rule="evenodd" d="m2346.94 572.767v-65.264h4v65.264z" fill="#372fff" fill-rule="evenodd"/><rect fill="#f9f9fc" height="872" rx="40.3535" width="726" x="2715"/><path d="m2965.7 751h-15.92v-46.957h16.24c4.66 0 8.66.94 12.01 2.82 3.36 1.865 5.95 4.548 7.75 8.048 1.81 3.501 2.71 7.689 2.71 12.565 0 4.891-.91 9.095-2.73 12.61-1.8 3.516-4.41 6.214-7.82 8.094-3.39 1.88-7.47 2.82-12.24 2.82zm-7.41-7.36h6.99c3.28 0 6-.596 8.19-1.788 2.19-1.208 3.83-3.004 4.93-5.388 1.1-2.4 1.65-5.396 1.65-8.988s-.55-6.573-1.65-8.942c-1.1-2.385-2.73-4.165-4.88-5.342-2.14-1.193-4.8-1.789-7.98-1.789h-7.25z" fill="#000"/><path d="m2996.2 751v-35.217h8.3v35.217zm4.18-40.216c-1.32 0-2.45-.435-3.4-1.307-.95-.886-1.42-1.949-1.42-3.187 0-1.253.47-2.315 1.42-3.187.95-.886 2.08-1.33 3.4-1.33 1.33 0 2.46.444 3.39 1.33.95.872 1.42 1.934 1.42 3.187 0 1.238-.47 2.301-1.42 3.187-.93.872-2.06 1.307-3.39 1.307z" fill="#000"/><path d="m3040.87 725.091-7.56.826c-.22-.764-.59-1.483-1.13-2.155-.52-.673-1.22-1.216-2.11-1.628-.88-.413-1.97-.619-3.25-.619-1.73 0-3.18.374-4.36 1.123-1.16.749-1.73 1.72-1.72 2.912-.01 1.024.36 1.857 1.13 2.499s2.06 1.169 3.85 1.582l6 1.284c3.34.719 5.81 1.857 7.43 3.416 1.64 1.56 2.46 3.6 2.48 6.122-.02 2.217-.67 4.173-1.95 5.87-1.27 1.681-3.03 2.996-5.3 3.943-2.26.948-4.86 1.422-7.79 1.422-4.31 0-7.78-.902-10.41-2.705-2.63-1.819-4.2-4.349-4.7-7.59l8.09-.779c.37 1.589 1.15 2.789 2.34 3.599 1.19.811 2.74 1.216 4.66 1.216 1.97 0 3.55-.405 4.74-1.216 1.21-.81 1.81-1.811 1.81-3.003 0-1.009-.39-1.842-1.17-2.499-.76-.658-1.95-1.162-3.57-1.514l-6.01-1.261c-3.38-.703-5.88-1.887-7.5-3.553-1.62-1.682-2.42-3.807-2.41-6.375-.01-2.17.58-4.05 1.77-5.64 1.21-1.605 2.88-2.843 5.02-3.714 2.16-.887 4.64-1.33 7.45-1.33 4.13 0 7.38.879 9.75 2.637 2.38 1.758 3.86 4.134 4.42 7.13z" fill="#000"/><path d="m3048.47 764.207v-48.424h8.17v5.823h.48c.43-.856 1.03-1.765 1.81-2.728.78-.978 1.83-1.811 3.16-2.499 1.33-.703 3.03-1.055 5.09-1.055 2.72 0 5.18.695 7.36 2.086 2.2 1.376 3.95 3.417 5.23 6.122 1.3 2.69 1.95 5.992 1.95 9.905 0 3.867-.64 7.154-1.9 9.859-1.27 2.706-3 4.769-5.19 6.191-2.18 1.421-4.66 2.132-7.42 2.132-2.02 0-3.7-.336-5.03-1.009-1.33-.672-2.4-1.482-3.21-2.43-.79-.963-1.41-1.872-1.85-2.728h-.35v18.755zm8.14-30.816c0 2.278.32 4.273.97 5.985s1.59 3.049 2.82 4.012c1.23.948 2.73 1.422 4.49 1.422 1.83 0 3.37-.49 4.61-1.468 1.24-.993 2.17-2.346 2.8-4.058.64-1.727.96-3.692.96-5.893 0-2.185-.31-4.127-.94-5.823-.63-1.697-1.56-3.027-2.8-3.99s-2.78-1.444-4.63-1.444c-1.77 0-3.28.466-4.52 1.398-1.24.933-2.18 2.24-2.82 3.921-.62 1.681-.94 3.661-.94 5.938z" fill="#000"/><path d="m3097.13 704.043v46.957h-8.3v-46.957z" fill="#000"/><path d="m3115.8 751.711c-2.24 0-4.25-.397-6.03-1.192-1.78-.81-3.18-2.003-4.22-3.577-1.03-1.575-1.54-3.516-1.54-5.824 0-1.987.37-3.63 1.1-4.929.74-1.3 1.74-2.339 3.01-3.119 1.26-.779 2.69-1.368 4.28-1.765 1.61-.413 3.27-.711 4.98-.894 2.06-.214 3.74-.405 5.02-.574 1.28-.183 2.22-.458 2.8-.825.59-.382.89-.971.89-1.765v-.138c0-1.727-.51-3.065-1.54-4.012-1.02-.948-2.49-1.422-4.42-1.422-2.03 0-3.65.443-4.84 1.33-1.18.886-1.97 1.934-2.38 3.141l-7.75-1.1c.61-2.14 1.62-3.929 3.02-5.366 1.41-1.452 3.13-2.537 5.16-3.255 2.04-.734 4.28-1.101 6.74-1.101 1.7 0 3.39.199 5.07.596 1.68.398 3.22 1.055 4.61 1.972 1.39.902 2.51 2.132 3.35 3.691.85 1.559 1.28 3.508 1.28 5.847v23.57h-7.98v-4.838h-.27c-.51.979-1.22 1.896-2.14 2.752-.9.84-2.04 1.521-3.41 2.04-1.36.505-2.96.757-4.79.757zm2.15-6.099c1.67 0 3.11-.329 4.33-.986 1.23-.672 2.17-1.559 2.82-2.66.68-1.1 1.01-2.3 1.01-3.599v-4.15c-.26.214-.7.412-1.33.596-.61.183-1.3.344-2.06.481-.76.138-1.52.26-2.27.367s-1.4.199-1.95.275c-1.24.169-2.34.444-3.32.826s-1.75.917-2.32 1.605c-.56.672-.85 1.544-.85 2.614 0 1.528.56 2.682 1.68 3.462 1.11.779 2.53 1.169 4.26 1.169z" fill="#000"/><path d="m3146.63 764.207c-1.13 0-2.17-.092-3.14-.275-.94-.168-1.7-.367-2.27-.596l1.93-6.466c1.21.351 2.28.519 3.23.504s1.78-.313 2.5-.894c.73-.566 1.35-1.513 1.86-2.843l.71-1.903-12.77-35.951h8.8l8.12 26.596h.37l8.14-26.596h8.82l-14.1 39.482c-.66 1.865-1.53 3.462-2.61 4.792-1.09 1.345-2.42 2.369-3.99 3.072-1.56.719-3.43 1.078-5.6 1.078z" fill="#000"/><path d="m3206.51 725.091-7.57.826c-.21-.764-.58-1.483-1.12-2.155-.52-.673-1.22-1.216-2.11-1.628-.88-.413-1.97-.619-3.25-.619-1.73 0-3.18.374-4.36 1.123-1.16.749-1.74 1.72-1.72 2.912-.02 1.024.36 1.857 1.12 2.499.78.642 2.07 1.169 3.86 1.582l6 1.284c3.34.719 5.81 1.857 7.43 3.416 1.64 1.56 2.46 3.6 2.48 6.122-.02 2.217-.67 4.173-1.95 5.87-1.27 1.681-3.04 2.996-5.3 3.943-2.26.948-4.86 1.422-7.79 1.422-4.31 0-7.78-.902-10.41-2.705-2.63-1.819-4.2-4.349-4.7-7.59l8.09-.779c.37 1.589 1.15 2.789 2.34 3.599 1.19.811 2.74 1.216 4.65 1.216 1.98 0 3.56-.405 4.75-1.216 1.21-.81 1.81-1.811 1.81-3.003 0-1.009-.39-1.842-1.17-2.499-.76-.658-1.95-1.162-3.57-1.514l-6.01-1.261c-3.38-.703-5.88-1.887-7.5-3.553-1.62-1.682-2.42-3.807-2.41-6.375-.01-2.17.58-4.05 1.77-5.64 1.21-1.605 2.88-2.843 5.02-3.714 2.16-.887 4.64-1.33 7.45-1.33 4.13 0 7.38.879 9.75 2.637 2.38 1.758 3.86 4.134 4.42 7.13z" fill="#000"/><path d="m3227.99 237.254v139.825h-299.62v-139.825z" fill="#f9f9fc"/><path clip-rule="evenodd" d="m3227.99 235.254c1.11 0 2 .896 2 2v139.825c0 1.105-.89 2-2 2h-299.62c-1.11 0-2-.895-2-2v-139.825c0-1.104.89-2 2-2zm-2 4h-295.62v135.825h295.62z" fill="#372fff" fill-rule="evenodd"/><path clip-rule="evenodd" d="m3076.18 236.675v-33.291h4v33.291z" fill="#372fff" fill-rule="evenodd"/><path clip-rule="evenodd" d="m3024.91 201.384c0-1.105.9-2 2-2h95.88c1.1 0 2 .895 2 2 0 1.104-.9 2-2 2h-95.88c-1.1 0-2-.896-2-2z" fill="#372fff" fill-rule="evenodd"/><path d="m3144.38 347.198 37.42 18.71c3.18 1.58 5.19 4.823 5.19 8.373v118.182c0 3.55-2.01 6.793-5.19 8.373l-37.42 18.709c-2.64 1.319-5.74 1.319-8.37 0l-37.42-18.709c-3.18-1.601-5.17-4.863-5.15-8.42v-118.135c0-3.55 2.01-6.793 5.19-8.373l37.42-18.71c2.62-1.303 5.71-1.303 8.33 0z" style="fill-rule:evenodd;clip-rule:evenodd;fill:#f9f9fc;stroke:#372fff;stroke-width:4;stroke-linecap:round;stroke-linejoin:round"/><path clip-rule="evenodd" d="m3094.94 369.229 45.28 22.639 45.27-22.639" fill="#f9f9fc" fill-rule="evenodd"/><path clip-rule="evenodd" d="m3093.15 368.335c.49-.988 1.69-1.388 2.68-.894l44.39 22.191 44.38-22.191c.99-.494 2.19-.094 2.68.894.5.988.09 2.189-.89 2.683l-45.28 22.639c-.56.281-1.23.281-1.79 0l-45.28-22.639c-.98-.494-1.38-1.695-.89-2.683z" fill="#372fff" fill-rule="evenodd"/><path clip-rule="evenodd" d="m3140.21 389.867c1.11 0 2 .896 2 2v125.513c0 1.104-.89 2-2 2-1.1 0-2-.896-2-2v-125.513c0-1.104.9-2 2-2z" fill="#372fff" fill-rule="evenodd"/><path d="m3096.61 373.501 40.07 20.263v122.13l-40.07-19.891z" fill="#e0dfff"/><path d="m2999.02 408.237 28.38 14.189c2.41 1.198 3.94 3.657 3.94 6.349v40.346c0 2.692-1.53 5.151-3.94 6.349l-28.37 14.188c-2 1-4.36 1-6.35 0l-28.38-14.188c-2.41-1.214-3.92-3.688-3.9-6.385v-40.31c0-2.692 1.52-5.151 3.93-6.349l28.38-14.189c1.99-.988 4.33-.988 6.31 0z" style="fill-rule:evenodd;clip-rule:evenodd;fill:#f9f9fc;stroke:#372fff;stroke-width:4;stroke-linecap:round;stroke-linejoin:round"/><path clip-rule="evenodd" d="m2961.53 424.944 34.34 17.168 34.33-17.168" fill="#f9f9fc" fill-rule="evenodd"/><path clip-rule="evenodd" d="m2959.74 424.05c.5-.988 1.7-1.389 2.69-.895l33.44 16.721 33.44-16.721c.99-.494 2.19-.093 2.68.895.5.988.1 2.189-.89 2.683l-34.34 17.168c-.56.282-1.22.282-1.79 0l-34.33-17.168c-.99-.494-1.39-1.695-.9-2.683z" fill="#372fff" fill-rule="evenodd"/><path clip-rule="evenodd" d="m2995.87 440.112c1.1 0 2 .896 2 2v48.297c0 1.104-.9 2-2 2-1.11 0-2-.896-2-2v-48.297c0-1.104.89-2 2-2z" fill="#372fff" fill-rule="evenodd"/><rect fill="#f9f9fc" height="872" rx="40.3535" width="726" x="1471" y="960"/><path d="m1764.2 1711v-46.96h17.61c3.61 0 6.64.68 9.08 2.02 2.46 1.35 4.32 3.2 5.57 5.55 1.27 2.34 1.91 5 1.91 7.98 0 3.01-.64 5.68-1.91 8.02s-3.14 4.18-5.61 5.53c-2.48 1.33-5.53 1.99-9.15 1.99h-11.67v-6.99h10.52c2.11 0 3.84-.37 5.18-1.1 1.35-.73 2.34-1.74 2.98-3.03.66-1.28.99-2.76.99-4.42 0-1.67-.33-3.13-.99-4.4-.64-1.27-1.64-2.26-3-2.96-1.35-.72-3.08-1.08-5.21-1.08h-7.79v39.85z" fill="#000"/><path d="m1805.39 1711v-35.22h8.05v5.87h.36c.64-2.03 1.74-3.6 3.3-4.7 1.58-1.11 3.37-1.67 5.39-1.67.46 0 .97.02 1.54.07.58.03 1.06.08 1.44.16v7.63c-.35-.12-.91-.23-1.67-.32-.75-.11-1.48-.16-2.18-.16-1.51 0-2.87.33-4.08.99-1.19.64-2.13 1.53-2.82 2.68s-1.03 2.47-1.03 3.97v20.7z" fill="#000"/><path d="m1830.99 1711v-35.22h8.3v35.22zm4.17-40.22c-1.32 0-2.45-.43-3.39-1.3-.95-.89-1.43-1.95-1.43-3.19 0-1.25.48-2.32 1.43-3.19.94-.88 2.07-1.33 3.39-1.33 1.33 0 2.46.45 3.39 1.33.95.87 1.42 1.94 1.42 3.19 0 1.24-.47 2.3-1.42 3.19-.93.87-2.06 1.3-3.39 1.3z" fill="#000"/><path d="m1856.12 1690.36v20.64h-8.3v-35.22h7.93v5.99h.42c.81-1.98 2.1-3.54 3.87-4.7 1.79-1.17 4-1.75 6.63-1.75 2.43 0 4.55.52 6.35 1.56 1.82 1.04 3.22 2.55 4.22 4.52 1.01 1.97 1.5 4.36 1.49 7.18v22.42h-8.3v-21.14c0-2.35-.61-4.2-1.84-5.53-1.2-1.33-2.88-1.99-5.02-1.99-1.45 0-2.74.32-3.87.96-1.12.63-2 1.54-2.64 2.73-.63 1.19-.94 2.64-.94 4.33z" fill="#000"/><path d="m1904.75 1675.78v6.42h-20.24v-6.42zm-15.25-8.44h8.3v33.07c0 1.11.17 1.97.51 2.57.35.58.81.97 1.38 1.19.56.21 1.19.32 1.88.32.51 0 .99-.04 1.42-.12.44-.07.78-.14 1.01-.2l1.39 6.49c-.44.15-1.07.32-1.9.5-.81.18-1.8.29-2.98.32-2.08.06-3.95-.25-5.62-.94-1.66-.7-2.99-1.79-3.96-3.25-.97-1.47-1.44-3.31-1.43-5.51z" fill="#000"/><path d="m1706.01 1197.95h213.07v281.61h-213.07z" fill="#f9f9fc"/><path clip-rule="evenodd" d="m1704.01 1197.95c0-1.11.89-2 2-2h213.07c1.1 0 2 .89 2 2v281.61c0 1.1-.9 2-2 2h-213.07c-1.11 0-2-.9-2-2zm4 2v277.61h209.07v-277.61z" fill="#372fff" fill-rule="evenodd"/><path clip-rule="evenodd" d="m1732.94 1161.38c1.1 0 2 .9 2 2v59.93c0 1.1-.9 2-2 2-1.11 0-2-.9-2-2v-59.93c0-1.1.89-2 2-2z" fill="#372fff" fill-rule="evenodd"/><path clip-rule="evenodd" d="m1892.74 1161.38c1.1 0 2 .9 2 2v59.13c0 1.1-.9 2-2 2-1.11 0-2-.9-2-2v-59.13c0-1.1.89-2 2-2z" fill="#372fff" fill-rule="evenodd"/><path clip-rule="evenodd" d="m1788.49 1363.61c.76.04 1.42.51 1.72 1.21l9.01 21.02c.43 1.02-.04 2.19-1.05 2.63-1.02.43-2.2-.04-2.63-1.05l-7.43-17.36-25.37 43.94h17.18c1.1 0 2 .9 2 2 0 1.11-.9 2-2 2h-20.64c-.72 0-1.38-.38-1.74-1-.35-.62-.35-1.38 0-2l29.1-50.4c.38-.65 1.1-1.04 1.85-.99z" fill="#372fff" fill-rule="evenodd"/><path d="m1833.34 1343.55 42.55 73.7h-85.1z" fill="#e0dfff"/><path clip-rule="evenodd" d="m1833.34 1341.55c.71 0 1.37.38 1.73 1l42.55 73.7c.36.62.36 1.39 0 2-.35.62-1.01 1-1.73 1h-85.1c-.72 0-1.38-.38-1.74-1-.35-.61-.35-1.38 0-2l42.56-73.7c.35-.62 1.01-1 1.73-1zm-39.09 73.7h78.18l-39.09-67.7z" fill="#372fff" fill-rule="evenodd"/><path d="m1794.65 1301.57c0 9.88-8.01 17.89-17.9 17.89-9.88 0-17.89-8.01-17.89-17.89 0-9.89 8.01-17.9 17.89-17.9 9.89 0 17.9 8.01 17.9 17.9z" fill="#e0dfff"/><path clip-rule="evenodd" d="m1776.75 1315.46c7.68 0 13.9-6.22 13.9-13.89 0-7.68-6.22-13.9-13.9-13.9-7.67 0-13.89 6.22-13.89 13.9 0 7.67 6.22 13.89 13.89 13.89zm0 4c9.89 0 17.9-8.01 17.9-17.89 0-9.89-8.01-17.9-17.9-17.9-9.88 0-17.89 8.01-17.89 17.9 0 9.88 8.01 17.89 17.89 17.89z" fill="#372fff" fill-rule="evenodd"/><path d="m1739.3 1224.57c0 3.52-2.85 6.37-6.36 6.37-3.52 0-6.37-2.85-6.37-6.37 0-3.51 2.85-6.36 6.37-6.36 3.51 0 6.36 2.85 6.36 6.36z" fill="#372fff"/><path d="m1899.1 1221.58c0 3.51-2.85 6.36-6.36 6.36-3.52 0-6.37-2.85-6.37-6.36 0-3.52 2.85-6.37 6.37-6.37 3.51 0 6.36 2.85 6.36 6.37z" fill="#372fff"/><path d="m1919.08 1317.12-54.37-27.33 54.37-27.33 54.36 27.33z" fill="#f9f9fc"/><path clip-rule="evenodd" d="m1919.08 1260.22 58.81 29.57-58.81 29.56-58.82-29.56zm-49.92 29.57 49.92 25.09 49.91-25.09-49.91-25.09z" fill="#372fff" fill-rule="evenodd"/><path clip-rule="evenodd" d="m1863.81 1331.32 1.8-3.57 53.47 26.88 53.46-26.88 1.8 3.57-55.26 27.78z" fill="#372fff" fill-rule="evenodd"/><path clip-rule="evenodd" d="m1919.08 1334.75-53.47-26.88-1.8 3.58 55.27 27.78 55.26-27.78-1.8-3.58z" fill="#372fff" fill-rule="evenodd"/><rect fill="#f9f9fc" height="872" rx="40.3535" width="726" x="2294" y="960"/><path d="m2550.71 1676.95c-.21-2-1.12-3.56-2.71-4.68-1.57-1.11-3.62-1.67-6.14-1.67-1.77 0-3.29.27-4.56.8-1.27.54-2.24 1.26-2.92 2.18-.67.92-1.01 1.97-1.03 3.14 0 .98.22 1.83.67 2.55.46.72 1.08 1.33 1.85 1.83.78.49 1.65.9 2.6 1.24.94.34 1.9.62 2.86.85l4.4 1.1c1.78.41 3.48.97 5.12 1.67 1.65.71 3.12 1.59 4.42 2.66 1.32 1.07 2.36 2.36 3.12 3.88.76 1.51 1.15 3.28 1.15 5.32 0 2.75-.71 5.17-2.11 7.26-1.41 2.08-3.44 3.71-6.1 4.89-2.65 1.16-5.85 1.74-9.61 1.74-3.65 0-6.82-.56-9.51-1.7-2.68-1.13-4.77-2.78-6.29-4.95-1.49-2.17-2.3-4.81-2.43-7.93h8.37c.12 1.63.63 2.99 1.52 4.08.88 1.09 2.04 1.9 3.46 2.43 1.43.54 3.04.8 4.81.8 1.85 0 3.47-.27 4.86-.82 1.41-.57 2.51-1.35 3.31-2.34.79-1.01 1.2-2.19 1.21-3.53-.01-1.23-.37-2.23-1.08-3.03-.7-.81-1.69-1.48-2.95-2.02-1.26-.55-2.73-1.04-4.41-1.46l-5.34-1.38c-3.87-.99-6.92-2.5-9.17-4.52-2.23-2.03-3.35-4.73-3.35-8.09 0-2.77.75-5.19 2.25-7.27 1.51-2.08 3.57-3.69 6.17-4.84 2.59-1.16 5.54-1.74 8.82-1.74 3.34 0 6.26.58 8.76 1.74 2.52 1.15 4.5 2.75 5.94 4.8 1.44 2.03 2.18 4.37 2.22 7.01z" fill="#000"/><path d="m2582.34 1711.69c-3.53 0-6.58-.74-9.14-2.2-2.56-1.49-4.52-3.58-5.9-6.29-1.37-2.72-2.06-5.92-2.06-9.6 0-3.62.69-6.8 2.06-9.54 1.39-2.75 3.34-4.89 5.83-6.42 2.49-1.54 5.42-2.32 8.78-2.32 2.17 0 4.22.36 6.14 1.06 1.94.69 3.66 1.76 5.14 3.21 1.5 1.45 2.67 3.3 3.53 5.55.86 2.23 1.28 4.89 1.28 7.98v2.54h-28.86v-5.59h20.91c-.02-1.59-.36-3.01-1.03-4.24-.68-1.26-1.62-2.24-2.82-2.96s-2.59-1.08-4.18-1.08c-1.69 0-3.18.41-4.47 1.24-1.28.81-2.28 1.88-3 3.21-.7 1.31-1.06 2.76-1.08 4.33v4.88c0 2.05.38 3.81 1.12 5.28.75 1.45 1.8 2.57 3.15 3.35 1.34.76 2.92 1.14 4.72 1.14 1.21 0 2.3-.17 3.28-.5.98-.35 1.82-.87 2.54-1.54s1.26-1.5 1.63-2.5l7.75.87c-.49 2.05-1.42 3.84-2.8 5.37-1.36 1.51-3.1 2.69-5.22 3.53-2.13.83-4.56 1.24-7.3 1.24z" fill="#000"/><path d="m2605.03 1711v-35.22h8.04v5.87h.37c.64-2.03 1.74-3.6 3.3-4.7 1.58-1.11 3.37-1.67 5.39-1.67.46 0 .97.02 1.54.07.58.03 1.06.08 1.44.16v7.63c-.35-.12-.91-.23-1.67-.32-.75-.11-1.48-.16-2.18-.16-1.51 0-2.87.33-4.08.99-1.19.64-2.13 1.53-2.82 2.68s-1.03 2.47-1.03 3.97v20.7z" fill="#000"/><path d="m2663.15 1675.78-12.54 35.22h-9.17l-12.54-35.22h8.85l8.09 26.16h.37l8.12-26.16z" fill="#000"/><path d="m2668.9 1711v-35.22h8.3v35.22zm4.17-40.22c-1.31 0-2.44-.43-3.39-1.3-.95-.89-1.42-1.95-1.42-3.19 0-1.25.47-2.32 1.42-3.19.95-.88 2.08-1.33 3.39-1.33 1.33 0 2.46.45 3.39 1.33.95.87 1.43 1.94 1.43 3.19 0 1.24-.48 2.3-1.43 3.19-.93.87-2.06 1.3-3.39 1.3z" fill="#000"/><path d="m2701.1 1711.69c-3.52 0-6.54-.77-9.06-2.32-2.51-1.54-4.44-3.67-5.8-6.39-1.35-2.74-2.02-5.89-2.02-9.45 0-3.58.69-6.73 2.06-9.47 1.38-2.75 3.32-4.89 5.83-6.42 2.52-1.54 5.5-2.32 8.94-2.32 2.86 0 5.39.53 7.59 1.59 2.21 1.04 3.98 2.51 5.29 4.42 1.32 1.9 2.07 4.11 2.25 6.65h-7.93c-.32-1.7-1.09-3.11-2.29-4.24-1.2-1.15-2.79-1.72-4.8-1.72-1.69 0-3.18.46-4.47 1.37-1.28.91-2.28 2.21-3 3.9-.7 1.7-1.06 3.73-1.06 6.1 0 2.4.36 4.46 1.06 6.19.7 1.71 1.69 3.04 2.96 3.97 1.28.92 2.79 1.37 4.51 1.37 1.23 0 2.32-.23 3.28-.68.98-.48 1.8-1.16 2.46-2.04.65-.89 1.1-1.97 1.35-3.24h7.93c-.2 2.49-.93 4.7-2.2 6.63-1.27 1.91-3 3.41-5.18 4.49-2.19 1.07-4.75 1.61-7.7 1.61z" fill="#000"/><path d="m2738.59 1711.69c-3.53 0-6.58-.74-9.15-2.2-2.55-1.49-4.52-3.58-5.89-6.29-1.38-2.72-2.07-5.92-2.07-9.6 0-3.62.69-6.8 2.07-9.54 1.39-2.75 3.33-4.89 5.82-6.42 2.49-1.54 5.42-2.32 8.78-2.32 2.17 0 4.22.36 6.15 1.06 1.94.69 3.65 1.76 5.13 3.21 1.5 1.45 2.68 3.3 3.53 5.55.86 2.23 1.29 4.89 1.29 7.98v2.54h-28.87v-5.59h20.91c-.01-1.59-.36-3.01-1.03-4.24-.67-1.26-1.61-2.24-2.82-2.96-1.19-.72-2.58-1.08-4.17-1.08-1.7 0-3.19.41-4.47 1.24-1.29.81-2.29 1.88-3.01 3.21-.7 1.31-1.06 2.76-1.07 4.33v4.88c0 2.05.37 3.81 1.12 5.28.75 1.45 1.79 2.57 3.14 3.35 1.34.76 2.92 1.14 4.72 1.14 1.21 0 2.3-.17 3.28-.5.98-.35 1.83-.87 2.55-1.54s1.26-1.5 1.62-2.5l7.75.87c-.48 2.05-1.42 3.84-2.79 5.37-1.36 1.51-3.11 2.69-5.23 3.53-2.13.83-4.56 1.24-7.29 1.24z" fill="#000"/><path d="m2789.1 1685.09-7.56.83c-.22-.77-.59-1.49-1.12-2.16-.52-.67-1.23-1.21-2.11-1.63-.89-.41-1.98-.62-3.26-.62-1.73 0-3.18.38-4.36 1.13-1.16.75-1.73 1.72-1.72 2.91-.01 1.02.36 1.86 1.13 2.5.78.64 2.06 1.17 3.85 1.58l6.01 1.29c3.33.71 5.8 1.85 7.43 3.41s2.46 3.6 2.47 6.12c-.01 2.22-.66 4.18-1.95 5.87-1.27 1.68-3.03 3-5.29 3.95-2.27.94-4.86 1.42-7.8 1.42-4.31 0-7.78-.9-10.41-2.71-2.63-1.82-4.19-4.35-4.7-7.59l8.09-.78c.37 1.59 1.15 2.79 2.34 3.6 1.2.81 2.75 1.22 4.66 1.22 1.97 0 3.55-.41 4.74-1.22 1.21-.81 1.82-1.81 1.82-3 0-1.01-.39-1.84-1.17-2.5-.77-.66-1.96-1.16-3.58-1.51l-6.01-1.26c-3.38-.71-5.88-1.89-7.5-3.56-1.62-1.68-2.42-3.8-2.4-6.37-.02-2.17.57-4.05 1.76-5.64 1.21-1.61 2.88-2.84 5.02-3.72 2.16-.88 4.64-1.33 7.46-1.33 4.12 0 7.37.88 9.74 2.64 2.38 1.76 3.86 4.14 4.42 7.13z" fill="#000"/><path clip-rule="evenodd" d="m2662.38 1480.53v-127.96h4v127.96z" fill="#372fff" fill-rule="evenodd"/><path clip-rule="evenodd" d="m2702.66 1433.31-36.85 37.37-2.85-2.81 36.85-37.37z" fill="#372fff" fill-rule="evenodd"/><path clip-rule="evenodd" d="m2562.01 1269.12 59.03 187.82h-118.06zm-53.58 183.82h107.16l-53.58-170.48z" fill="#372fff" fill-rule="evenodd"/><path clip-rule="evenodd" d="m2560.01 1480.53v-56.3h4v56.3z" fill="#372fff" fill-rule="evenodd"/><path clip-rule="evenodd" d="m2664.4 1267.31 19.83 20.38c37.63 37.12 37.62 98.28-.02 135.4v.01l-19.85 19.29-19.81-19.81s0 0-.01 0c-37.64-37.13-37.64-98.29 0-135.41.01 0 .01-.01.01-.01zm-.04 5.7-17 17c-36.06 35.56-36.06 94.16 0 129.72l.01.01 17.03 17.04 17-16.53c0-.01.01-.01.01-.01 36.05-35.56 36.05-94.16-.01-129.72l-.01-.01z" fill="#372fff" fill-rule="evenodd"/><path clip-rule="evenodd" d="m2618.88 1175.15 4 .74c0-27.85-22.28-50.4-50.13-50.4-25.32 0-36.83 14.47-47.48 27.86-1.07 1.34-2.12 2.67-3.19 3.97l4.48.83c.61-.76 1.22-1.52 1.82-2.28 10.7-13.4 21.05-26.38 44.37-26.38 25.37 0 45.74 20.33 46.13 45.66z" fill="#372fff" fill-rule="evenodd"/><path clip-rule="evenodd" d="m2522.08 1132.63c1.11 0 2 .89 2 2v24.52h24.53c1.11 0 2 .9 2 2 0 1.11-.89 2-2 2h-28.53v-28.52c0-1.11.9-2 2-2z" fill="#372fff" fill-rule="evenodd"/><path clip-rule="evenodd" d="m2622.88 1194.46c-1.31 1.55-2.62 3.16-3.94 4.79-10.45 12.84-22.01 27.04-46.72 27.04-27.85 0-50.14-22.55-50.14-50.4l4.01.74c.39 25.33 20.76 45.66 46.13 45.66 22.72 0 33.09-12.69 43.56-25.51.86-1.05 1.72-2.11 2.59-3.15z" fill="#372fff" fill-rule="evenodd"/><path clip-rule="evenodd" d="m2594.36 1190.97c0-1.11.89-2 2-2h28.52v28.52c0 1.11-.89 2-2 2-1.1 0-2-.89-2-2v-24.52h-24.52c-1.11 0-2-.9-2-2z" fill="#372fff" fill-rule="evenodd"/><path clip-rule="evenodd" d="m2778.61 1480.53v-291.3h4v291.3z" fill="#372fff" fill-rule="evenodd"/><path clip-rule="evenodd" d="m2497.38 1480.53h319.21v4h-319.21z" fill="#372fff" fill-rule="evenodd"/><path clip-rule="evenodd" d="m2741.99 1258.23v-154.67h4v154.67z" fill="#372fff" fill-rule="evenodd"/><path d="m2759.42 1174.45c0 8.16-6.62 14.78-14.79 14.78-8.16 0-14.78-6.62-14.78-14.78 0-8.17 6.62-14.79 14.78-14.79 8.17 0 14.79 6.62 14.79 14.79z" fill="#e0dfff"/><path clip-rule="evenodd" d="m2744.63 1185.23c5.96 0 10.79-4.83 10.79-10.78 0-5.96-4.83-10.79-10.79-10.79s-10.78 4.83-10.78 10.79c0 5.95 4.82 10.78 10.78 10.78zm0 4c8.17 0 14.79-6.62 14.79-14.78 0-8.17-6.62-14.79-14.79-14.79-8.16 0-14.78 6.62-14.78 14.79 0 8.16 6.62 14.78 14.78 14.78z" fill="#372fff" fill-rule="evenodd"/><path d="m2761.55 1174.45c0-8.17 6.62-14.79 14.78-14.79h47.84c8.16 0 14.78 6.62 14.78 14.79 0 8.16-6.62 14.78-14.78 14.78h-47.84c-8.16 0-14.78-6.62-14.78-14.78z" fill="#e0dfff"/><path clip-rule="evenodd" d="m2824.17 1163.66h-47.84c-5.95 0-10.78 4.83-10.78 10.79 0 5.95 4.83 10.78 10.78 10.78h47.84c5.95 0 10.78-4.83 10.78-10.78 0-5.96-4.83-10.79-10.78-10.79zm-47.84-4c-8.16 0-14.78 6.62-14.78 14.79 0 8.16 6.62 14.78 14.78 14.78h47.84c8.16 0 14.78-6.62 14.78-14.78 0-8.17-6.62-14.79-14.78-14.79z" fill="#372fff" fill-rule="evenodd"/><rect fill="#f9f9fc" height="872" rx="40.3535" width="726" x="-176" y="960"/><path d="m-9.94263 1711v-46.96h17.60883c3.6074 0 6.6339.68 9.0795 2.02 2.461 1.35 4.3182 3.2 5.5716 5.55 1.2687 2.34 1.903 5 1.903 7.98 0 3.01-.6343 5.68-1.903 8.02s-3.1412 4.18-5.6174 5.53c-2.4763 1.33-5.5257 1.99-9.14834 1.99h-11.67043v-6.99h10.52402c2.10939 0 3.83665-.37 5.18175-1.1s2.3387-1.74 2.9807-3.03c.6572-1.28.9859-2.76.9859-4.42 0-1.67-.3287-3.14-.9859-4.4-.642-1.27-1.6432-2.26-3.0036-2.96-1.3451-.72-3.08004-1.08-5.20472-1.08h-7.79556v39.85z" fill="#000"/><path d="m39.5421 1690.36v20.64h-8.3v-46.96h8.1165v17.73h.4127c.8255-1.99 2.1018-3.56 3.829-4.7 1.7426-1.17 3.959-1.75 6.6492-1.75 2.4457 0 4.578.52 6.397 1.54 1.8189 1.02 3.2252 2.52 4.2187 4.49 1.0089 1.98 1.5133 4.38 1.5133 7.23v22.42h-8.3v-21.14c0-2.37-.6114-4.21-1.8342-5.53-1.2076-1.33-2.9043-1.99-5.0901-1.99-1.4674 0-2.7819.32-3.9436.96-1.1464.63-2.0483 1.54-2.7056 2.73-.642 1.19-.9629 2.64-.9629 4.33z" fill="#000"/><path d="m86.2008 1711.69c-3.4392 0-6.4198-.76-8.9419-2.27-2.5221-1.52-4.4787-3.63-5.8696-6.35-1.3757-2.72-2.0636-5.9-2.0636-9.54s.6879-6.83 2.0636-9.56c1.3909-2.74 3.3475-4.86 5.8696-6.38 2.5221-1.51 5.5027-2.27 8.9419-2.27 3.4393 0 6.4199.76 8.942 2.27 2.5221 1.52 4.471 3.64 5.8472 6.38 1.39 2.73 2.086 5.92 2.086 9.56s-.696 6.82-2.086 9.54c-1.3762 2.72-3.3251 4.83-5.8472 6.35-2.5221 1.51-5.5027 2.27-8.942 2.27zm.0459-6.65c1.8648 0 3.4239-.51 4.6773-1.54 1.2534-1.04 2.1858-2.43 2.7973-4.17.6267-1.74.94-3.68.94-5.82 0-2.16-.3133-4.11-.94-5.85-.6115-1.76-1.5439-3.16-2.7973-4.2s-2.8125-1.56-4.6773-1.56c-1.9107 0-3.5004.52-4.7691 1.56-1.2534 1.04-2.1934 2.44-2.8201 4.2-.6114 1.74-.9171 3.69-.9171 5.85 0 2.14.3057 4.08.9171 5.82.6267 1.74 1.5667 3.13 2.8201 4.17 1.2687 1.03 2.8584 1.54 4.7691 1.54z" fill="#000"/><path d="m127.707 1675.78v6.42h-20.246v-6.42zm-15.248-8.44h8.3v33.07c0 1.11.168 1.97.505 2.56.351.59.81.98 1.375 1.2.566.21 1.193.32 1.881.32.519 0 .993-.04 1.421-.12.443-.07.78-.14 1.009-.2l1.399 6.49c-.444.15-1.078.32-1.904.5-.81.18-1.803.29-2.98.32-2.079.06-3.951-.25-5.618-.94-1.666-.7-2.988-1.79-3.966-3.25-.963-1.47-1.437-3.31-1.422-5.51z" fill="#000"/><path d="m149.632 1711.69c-3.44 0-6.42-.76-8.942-2.27-2.523-1.52-4.479-3.63-5.87-6.35-1.376-2.72-2.064-5.9-2.064-9.54s.688-6.83 2.064-9.56c1.391-2.74 3.347-4.86 5.87-6.38 2.522-1.51 5.502-2.27 8.942-2.27 3.439 0 6.419.76 8.942 2.27 2.522 1.52 4.471 3.64 5.846 6.38 1.391 2.73 2.087 5.92 2.087 9.56s-.696 6.82-2.087 9.54c-1.375 2.72-3.324 4.83-5.846 6.35-2.523 1.51-5.503 2.27-8.942 2.27zm.045-6.65c1.865 0 3.424-.51 4.678-1.54 1.253-1.04 2.186-2.43 2.797-4.17.627-1.74.94-3.68.94-5.82 0-2.16-.313-4.11-.94-5.85-.611-1.76-1.544-3.16-2.797-4.2-1.254-1.04-2.813-1.56-4.678-1.56-1.91 0-3.5.52-4.769 1.56-1.253 1.04-2.193 2.44-2.82 4.2-.611 1.74-.917 3.69-.917 5.85 0 2.14.306 4.08.917 5.82.627 1.74 1.567 3.13 2.82 4.17 1.269 1.03 2.859 1.54 4.769 1.54z" fill="#000"/><path d="m188.867 1724.94c-2.98 0-5.541-.4-7.681-1.22-2.14-.79-3.859-1.86-5.158-3.2-1.3-1.35-2.202-2.84-2.706-4.48l7.475-1.81c.336.69.825 1.37 1.467 2.04.642.69 1.506 1.26 2.591 1.7 1.1.46 2.484.69 4.15.69 2.354 0 4.303-.58 5.847-1.72 1.543-1.13 2.315-3 2.315-5.6v-6.67h-.412c-.428.86-1.055 1.74-1.88 2.64-.811.9-1.888 1.66-3.233 2.27-1.33.61-3.004.92-5.022.92-2.705 0-5.158-.64-7.36-1.91-2.185-1.28-3.928-3.19-5.227-5.73-1.284-2.55-1.926-5.75-1.926-9.58 0-3.87.642-7.13 1.926-9.79 1.299-2.68 3.049-4.7 5.25-6.08 2.202-1.39 4.655-2.09 7.36-2.09 2.064 0 3.761.36 5.09 1.06 1.346.69 2.416 1.52 3.21 2.5.795.96 1.399 1.87 1.812 2.73h.458v-5.83h8.186v35.79c0 3.01-.719 5.51-2.156 7.48-1.436 1.97-3.401 3.44-5.892 4.42-2.492.98-5.32 1.47-8.484 1.47zm.069-20.96c1.758 0 3.256-.42 4.494-1.28s2.178-2.09 2.82-3.69c.642-1.61.963-3.53.963-5.78 0-2.22-.321-4.16-.963-5.82-.626-1.67-1.559-2.96-2.797-3.88-1.223-.93-2.728-1.4-4.517-1.4-1.849 0-3.393.48-4.631 1.45-1.238.96-2.171 2.28-2.798 3.96-.626 1.67-.94 3.57-.94 5.69 0 2.16.314 4.04.94 5.66.642 1.61 1.582 2.86 2.821 3.76 1.253.89 2.789 1.33 4.608 1.33z" fill="#000"/><path d="m213.905 1711v-35.22h8.048v5.87h.367c.642-2.03 1.742-3.6 3.301-4.7 1.575-1.11 3.371-1.67 5.388-1.67.459 0 .971.02 1.536.07.581.03 1.063.08 1.445.16v7.63c-.352-.12-.91-.23-1.674-.32-.749-.11-1.475-.16-2.178-.16-1.513 0-2.874.33-4.081.99-1.192.64-2.132 1.53-2.82 2.68s-1.032 2.47-1.032 3.97v20.7z" fill="#000"/><path d="m249.008 1711.71c-2.232 0-4.242-.4-6.03-1.19-1.773-.81-3.18-2-4.219-3.58-1.024-1.57-1.536-3.51-1.536-5.82 0-1.99.367-3.63 1.1-4.93.734-1.3 1.735-2.34 3.004-3.12s2.698-1.37 4.288-1.77c1.605-.41 3.263-.71 4.975-.89 2.063-.21 3.737-.4 5.021-.57 1.284-.19 2.217-.46 2.797-.83.597-.38.895-.97.895-1.76v-.14c0-1.73-.512-3.07-1.537-4.01-1.024-.95-2.499-1.43-4.425-1.43-2.033 0-3.645.45-4.838 1.33-1.176.89-1.971 1.94-2.384 3.15l-7.75-1.1c.612-2.14 1.621-3.93 3.027-5.37 1.406-1.45 3.126-2.54 5.159-3.26 2.033-.73 4.28-1.1 6.74-1.1 1.697 0 3.386.2 5.068.6 1.681.4 3.217 1.05 4.608 1.97 1.391.9 2.507 2.13 3.348 3.69.856 1.56 1.284 3.51 1.284 5.85v23.57h-7.979v-4.84h-.275c-.505.98-1.216 1.9-2.133 2.75-.902.84-2.04 1.52-3.416 2.04-1.361.51-2.958.76-4.792.76zm2.155-6.1c1.666 0 3.111-.33 4.334-.98 1.222-.68 2.162-1.56 2.82-2.66.672-1.1 1.009-2.3 1.009-3.6v-4.15c-.26.21-.704.41-1.33.59-.612.19-1.3.35-2.064.48-.764.14-1.521.26-2.27.37s-1.398.2-1.949.28c-1.238.16-2.346.44-3.324.82s-1.75.92-2.316 1.61c-.565.67-.848 1.54-.848 2.61 0 1.53.558 2.68 1.673 3.46 1.116.78 2.538 1.17 4.265 1.17z" fill="#000"/><path d="m275.948 1724.21v-48.43h8.163v5.83h.481c.428-.86 1.032-1.77 1.812-2.73.779-.98 1.834-1.81 3.164-2.5 1.33-.7 3.026-1.06 5.09-1.06 2.721 0 5.174.7 7.36 2.09 2.201 1.38 3.943 3.42 5.227 6.12 1.3 2.69 1.949 5.99 1.949 9.91 0 3.86-.634 7.15-1.903 9.86-1.268 2.7-2.996 4.77-5.182 6.19-2.185 1.42-4.662 2.13-7.428 2.13-2.018 0-3.692-.34-5.021-1.01-1.33-.67-2.4-1.48-3.21-2.43-.795-.96-1.414-1.87-1.858-2.73h-.344v18.76zm8.14-30.82c0 2.28.321 4.27.963 5.99.657 1.71 1.597 3.04 2.82 4.01 1.238.95 2.736 1.42 4.494 1.42 1.834 0 3.371-.49 4.609-1.47 1.238-.99 2.17-2.34 2.797-4.06.642-1.72.963-3.69.963-5.89 0-2.18-.314-4.13-.94-5.82-.627-1.7-1.559-3.03-2.797-3.99-1.239-.97-2.782-1.45-4.632-1.45-1.773 0-3.279.47-4.517 1.4s-2.178 2.24-2.82 3.92c-.627 1.68-.94 3.66-.94 5.94z" fill="#000"/><path d="m324.602 1690.36v20.64h-8.3v-46.96h8.117v17.73h.412c.826-1.99 2.102-3.56 3.829-4.7 1.743-1.17 3.959-1.75 6.649-1.75 2.446 0 4.578.52 6.397 1.54s3.226 2.52 4.219 4.49c1.009 1.98 1.513 4.38 1.513 7.23v22.42h-8.3v-21.14c0-2.37-.611-4.21-1.834-5.53-1.207-1.33-2.904-1.99-5.09-1.99-1.467 0-2.782.32-3.943.96-1.147.63-2.049 1.54-2.706 2.73-.642 1.19-.963 2.64-.963 4.33z" fill="#000"/><path d="m359.797 1724.21c-1.131 0-2.178-.1-3.141-.28-.948-.17-1.705-.37-2.27-.59l1.926-6.47c1.207.35 2.285.52 3.233.5.947-.01 1.78-.31 2.499-.89.733-.57 1.352-1.51 1.857-2.84l.711-1.91-12.771-35.95h8.804l8.117 26.6h.366l8.14-26.6h8.827l-14.1 39.48c-.658 1.87-1.529 3.47-2.614 4.8-1.086 1.34-2.415 2.37-3.99 3.07-1.559.72-3.424 1.08-5.594 1.08z" fill="#000"/><path clip-rule="evenodd" d="m131.695 1375.36c.374-.54.987-.86 1.642-.86h28.877c.654 0 1.267.32 1.641.86l9.579 13.75h7.481c8.295 0 14.926 6.84 14.926 15.21v61.82c0 8.37-6.631 15.2-14.926 15.2h-100.6569c-8.2953 0-14.9258-6.83-14.9258-15.2v-61.82c0-8.37 6.6305-15.21 14.9258-15.21h41.8589zm2.686 3.14-9.579 13.76c-.374.53-.987.85-1.641.85h-42.9029c-6.0056 0-10.9258 4.97-10.9258 11.21v61.82c0 6.24 4.9202 11.2 10.9258 11.2h100.6569c6.005 0 10.926-4.96 10.926-11.2v-61.82c0-6.24-4.921-11.21-10.926-11.21h-8.526c-.654 0-1.267-.32-1.641-.85l-9.579-13.76z" fill="#372fff" fill-rule="evenodd"/><path d="m109.486 1418.81c0 7.55-6.122 13.67-13.6737 13.67s-13.6736-6.12-13.6736-13.67 6.1219-13.67 13.6736-13.67 13.6737 6.12 13.6737 13.67z" fill="#e0dfff"/><path clip-rule="evenodd" d="m95.8123 1428.48c5.3427 0 9.6737-4.33 9.6737-9.67s-4.331-9.67-9.6737-9.67c-5.3426 0-9.6736 4.33-9.6736 9.67s4.331 9.67 9.6736 9.67zm0 4c7.5517 0 13.6737-6.12 13.6737-13.67s-6.122-13.67-13.6737-13.67-13.6736 6.12-13.6736 13.67 6.1219 13.67 13.6736 13.67z" fill="#372fff" fill-rule="evenodd"/><path d="m146.537 1458.55c14.126 0 25.577-11.7 25.577-26.13s-11.451-26.13-25.577-26.13-25.577 11.7-25.577 26.13 11.451 26.13 25.577 26.13z" fill="#e0dfff"/><path clip-rule="evenodd" d="m146.537 1408.29c-12.981 0-23.577 10.76-23.577 24.13s10.596 24.13 23.577 24.13 23.577-10.76 23.577-24.13-10.596-24.13-23.577-24.13zm-27.577 24.13c0-15.5 12.306-28.13 27.577-28.13 15.27 0 27.577 12.63 27.577 28.13s-12.307 28.13-27.577 28.13c-15.271 0-27.577-12.63-27.577-28.13z" fill="#372fff" fill-rule="evenodd"/><path d="m97.6521 1284.66c0 .89-.7433 1.7-1.7653 1.7h-56.3945c-.9291 0-1.7652-.72-1.7652-1.7v-43.2c0-.9.7432-1.71 1.7652-1.71h56.3945c.9291 0 1.7653.72 1.7653 1.71z" fill="#e0dfff"/><path clip-rule="evenodd" d="m93.6521 1282.36v-38.61h-51.925v38.61zm2.2347 4c1.022 0 1.7653-.81 1.7653-1.7v-43.2c0-.99-.8362-1.71-1.7653-1.71h-56.3945c-1.022 0-1.7652.81-1.7652 1.71v43.2c0 .98.8361 1.7 1.7652 1.7z" fill="#372fff" fill-rule="evenodd"/><path clip-rule="evenodd" d="m25.3816 1229.97c0-1.11.8954-2 2-2h79.9004c1.104 0 2 .89 2 2v79.9c0 1.1-.896 2-2 2h-79.9004c-1.1046 0-2-.9-2-2zm4 2v75.9h75.9004v-75.9z" fill="#372fff" fill-rule="evenodd"/><path clip-rule="evenodd" d="m120.599 1241.28c1.104 0 2 .9 2 2v79.9c0 1.11-.896 2-2 2h-79.9005c-1.1046 0-2-.89-2-2 0-1.1.8954-2 2-2h77.9005v-77.9c0-1.1.895-2 2-2z" fill="#372fff" fill-rule="evenodd"/><path clip-rule="evenodd" d="m305.959 1482.98v-233.55h-4v233.55z" fill="#372fff" fill-rule="evenodd"/><path clip-rule="evenodd" d="m348.982 1482.98c0-1.1-.895-2-2-2h-92.192c-1.104 0-2 .9-2 2 0 1.11.896 2 2 2h92.192c1.105 0 2-.89 2-2z" fill="#372fff" fill-rule="evenodd"/><path clip-rule="evenodd" d="m309.356 1245.43h-11.543v4h11.543c3.747 0 6.895-3.52 6.895-7.71v-21.46c0-4.19-3.148-7.71-6.895-7.71h-11.543v4h11.543c1.13 0 2.895 1.3 2.895 3.71v21.46c0 2.41-1.765 3.71-2.895 3.71z" fill="#372fff" fill-rule="evenodd"/><path d="m230.205 1298.6 67.607-29.91v-73.3l-67.607-32.01z" fill="#e0dfff"/><path clip-rule="evenodd" d="m230.205 1298.6v-135.22l67.607 32.01v73.3zm4-6.15v-122.75l59.607 28.22v68.16z" fill="#372fff" fill-rule="evenodd"/><path clip-rule="evenodd" d="m232.206 1212.55c0-1.1-.896-2-2-2-11.418 0-20.439 9.02-20.439 20.44s9.021 20.44 20.439 20.44c1.104 0 2-.9 2-2 0-1.11-.896-2-2-2-9.209 0-16.439-7.23-16.439-16.44s7.23-16.44 16.439-16.44c1.104 0 2-.89 2-2z" fill="#372fff" fill-rule="evenodd"/><path clip-rule="evenodd" d="m178.524 1228.18c0-1.1.895-2 2-2h7.821c1.105 0 2 .9 2 2 0 1.11-.895 2-2 2h-7.821c-1.105 0-2-.89-2-2z" fill="#372fff" fill-rule="evenodd"/><path clip-rule="evenodd" d="m189.416 1201.92c.781-.78 2.047-.78 2.828 0l5.482 5.48c.782.78.782 2.05 0 2.83-.781.78-2.047.78-2.828 0l-5.482-5.48c-.781-.79-.781-2.05 0-2.83z" fill="#372fff" fill-rule="evenodd"/><path clip-rule="evenodd" d="m197.717 1246.06c.786.77.795 2.04.019 2.83l-5.482 5.55c-.776.79-2.043.8-2.829.02-.786-.77-.794-2.04-.018-2.83l5.482-5.55c.776-.79 2.042-.8 2.828-.02z" fill="#372fff" fill-rule="evenodd"/><rect fill="#f9f9fc" height="872" rx="40.3535" width="726" x="648" y="960"/><path d="m857.217 1664.04h10.409l13.94 34.03h.551l13.94-34.03h10.409v46.96h-8.162v-32.26h-.436l-12.977 32.12h-6.099l-12.977-32.19h-.436v32.33h-8.162z" fill="#000"/><path d="m925.497 1711.71c-2.232 0-4.242-.4-6.03-1.19-1.773-.81-3.18-2-4.219-3.58-1.024-1.57-1.536-3.51-1.536-5.82 0-1.99.367-3.63 1.1-4.93.734-1.3 1.735-2.34 3.004-3.12s2.698-1.37 4.287-1.77c1.605-.41 3.264-.71 4.976-.89 2.063-.21 3.737-.4 5.021-.57 1.284-.19 2.217-.46 2.797-.83.597-.38.895-.97.895-1.76v-.14c0-1.73-.512-3.07-1.537-4.01-1.024-.95-2.499-1.42-4.425-1.42-2.033 0-3.645.44-4.838 1.32-1.177.89-1.971 1.94-2.384 3.15l-7.75-1.1c.612-2.14 1.62-3.93 3.027-5.37 1.406-1.45 3.126-2.54 5.159-3.26 2.032-.73 4.279-1.1 6.74-1.1 1.697 0 3.386.2 5.068.6 1.681.4 3.217 1.05 4.608 1.97 1.391.9 2.507 2.13 3.348 3.69.856 1.56 1.284 3.51 1.284 5.85v23.57h-7.979v-4.84h-.276c-.504.98-1.215 1.9-2.132 2.75-.902.84-2.04 1.52-3.416 2.04-1.361.51-2.958.76-4.792.76zm2.155-6.1c1.666 0 3.111-.33 4.334-.98 1.222-.68 2.162-1.56 2.82-2.66.672-1.1 1.009-2.3 1.009-3.6v-4.15c-.26.21-.704.41-1.33.59-.612.19-1.3.35-2.064.48-.764.14-1.521.26-2.27.37s-1.398.2-1.949.28c-1.238.16-2.346.44-3.324.82s-1.75.92-2.316 1.61c-.566.67-.848 1.54-.848 2.61 0 1.53.558 2.68 1.673 3.46 1.116.78 2.538 1.17 4.265 1.17z" fill="#000"/><path d="m952.437 1711v-35.22h8.048v5.87h.367c.642-2.03 1.743-3.6 3.302-4.7 1.574-1.11 3.37-1.67 5.388-1.67.458 0 .97.02 1.536.07.581.03 1.062.08 1.444.16v7.63c-.351-.12-.909-.23-1.673-.32-.749-.11-1.475-.16-2.178-.16-1.514 0-2.874.33-4.082.99-1.192.64-2.132 1.53-2.82 2.68s-1.032 2.47-1.032 3.97v20.7z" fill="#000"/><path d="m985.603 1699.95-.023-10.02h1.33l12.656-14.15h9.694l-15.563 17.34h-1.72zm-7.566 11.05v-46.96h8.3v46.96zm22.103 0-11.465-16.03 5.595-5.84 15.8 21.87z" fill="#000"/><path d="m1028.94 1711.69c-3.53 0-6.58-.74-9.15-2.2-2.55-1.49-4.52-3.58-5.89-6.29-1.38-2.72-2.07-5.92-2.07-9.6 0-3.62.69-6.8 2.07-9.54 1.39-2.75 3.33-4.89 5.82-6.42 2.49-1.54 5.42-2.32 8.78-2.32 2.17 0 4.22.36 6.15 1.06 1.94.69 3.65 1.76 5.13 3.21 1.5 1.45 2.68 3.3 3.53 5.55.86 2.23 1.29 4.89 1.29 7.98v2.54h-28.87v-5.59h20.91c-.01-1.59-.36-3.01-1.03-4.24-.67-1.26-1.61-2.24-2.82-2.96-1.19-.72-2.58-1.08-4.17-1.08-1.7 0-3.19.41-4.47 1.24-1.29.81-2.29 1.88-3.01 3.21-.7 1.31-1.06 2.76-1.08 4.33v4.88c0 2.05.38 3.81 1.13 5.28.75 1.45 1.79 2.57 3.14 3.35 1.34.76 2.92 1.14 4.72 1.14 1.21 0 2.3-.17 3.28-.5.98-.35 1.83-.87 2.55-1.54.71-.67 1.26-1.5 1.62-2.5l7.75.87c-.49 2.05-1.42 3.84-2.79 5.37-1.36 1.51-3.11 2.69-5.23 3.53-2.13.83-4.56 1.24-7.29 1.24z" fill="#000"/><path d="m1069.2 1675.78v6.42h-20.24v-6.42zm-15.24-8.44h8.3v33.07c0 1.11.17 1.97.5 2.57.35.58.81.97 1.38 1.19.56.21 1.19.32 1.88.32.52 0 .99-.04 1.42-.12.44-.07.78-.14 1.01-.2l1.4 6.49c-.45.15-1.08.32-1.91.5-.81.18-1.8.29-2.98.32-2.08.06-3.95-.25-5.61-.94-1.67-.7-2.99-1.79-3.97-3.25-.96-1.47-1.44-3.31-1.42-5.51z" fill="#000"/><path d="m1076.15 1711v-35.22h8.3v35.22zm4.17-40.22c-1.32 0-2.45-.43-3.39-1.3-.95-.89-1.43-1.95-1.43-3.19 0-1.25.48-2.32 1.43-3.19.94-.88 2.07-1.33 3.39-1.33 1.33 0 2.46.45 3.39 1.33.95.87 1.42 1.94 1.42 3.19 0 1.24-.47 2.3-1.42 3.19-.93.87-2.06 1.3-3.39 1.3z" fill="#000"/><path d="m1101.28 1690.36v20.64h-8.3v-35.22h7.93v5.99h.42c.81-1.98 2.1-3.54 3.87-4.7 1.79-1.17 4-1.75 6.63-1.75 2.43 0 4.55.52 6.35 1.56 1.82 1.04 3.22 2.55 4.22 4.52 1.01 1.97 1.5 4.36 1.49 7.18v22.42h-8.3v-21.14c0-2.35-.61-4.2-1.84-5.53-1.2-1.33-2.88-1.99-5.02-1.99-1.45 0-2.74.32-3.87.96-1.12.63-2 1.54-2.64 2.73-.63 1.19-.94 2.64-.94 4.33z" fill="#000"/><path d="m1147.64 1724.94c-2.98 0-5.54-.4-7.68-1.21-2.14-.8-3.86-1.87-5.16-3.21-1.3-1.35-2.2-2.84-2.7-4.48l7.47-1.81c.34.69.83 1.37 1.47 2.04.64.69 1.5 1.26 2.59 1.7 1.1.46 2.48.69 4.15.69 2.35 0 4.3-.58 5.85-1.72 1.54-1.13 2.31-3 2.31-5.6v-6.67h-.41c-.43.86-1.06 1.74-1.88 2.64-.81.9-1.89 1.66-3.23 2.27-1.33.61-3.01.92-5.03.92-2.7 0-5.15-.64-7.35-1.91-2.19-1.28-3.93-3.19-5.23-5.73-1.29-2.55-1.93-5.75-1.93-9.58 0-3.87.64-7.13 1.93-9.79 1.3-2.68 3.05-4.7 5.25-6.08 2.2-1.39 4.65-2.09 7.36-2.09 2.06 0 3.76.36 5.09 1.06 1.34.69 2.41 1.52 3.21 2.5.79.96 1.4 1.87 1.81 2.73h.46v-5.83h8.18v35.79c0 3.01-.72 5.51-2.15 7.48-1.44 1.97-3.4 3.44-5.89 4.42-2.5.98-5.32 1.47-8.49 1.47zm.07-20.96c1.76 0 3.26-.42 4.49-1.28 1.24-.86 2.18-2.09 2.82-3.69.65-1.61.97-3.53.97-5.78 0-2.22-.32-4.16-.97-5.82-.62-1.67-1.55-2.96-2.79-3.88-1.23-.93-2.73-1.4-4.52-1.4-1.85 0-3.39.49-4.63 1.45s-2.17 2.28-2.8 3.96c-.62 1.67-.94 3.57-.94 5.69 0 2.16.32 4.04.94 5.66.64 1.61 1.58 2.86 2.82 3.76 1.26.89 2.79 1.33 4.61 1.33z" fill="#000"/><path d="m909.641 1186.68h215.559v195.41h-215.559z" fill="#f9f9fc"/><path clip-rule="evenodd" d="m907.641 1186.68c0-1.11.896-2 2-2h215.559c1.11 0 2 .89 2 2v195.41c0 1.1-.89 2-2 2h-215.559c-1.104 0-2-.9-2-2zm4 2v191.41h211.559v-191.41z" fill="#372fff" fill-rule="evenodd"/><path d="m872.497 1314.26c0-6.98-5.658-12.64-12.638-12.64" fill="url(#a)"/><path clip-rule="evenodd" d="m874.497 1314.26c0-8.09-6.554-14.64-14.638-14.64-8.085 0-14.639 6.55-14.639 14.64v128.56l14.639 26.22 14.638-26.22zm-14.638-10.64c5.875 0 10.638 4.76 10.638 10.64v127.52l-10.638 19.06-10.639-19.06v-127.52c0-5.88 4.763-10.64 10.639-10.64z" fill="#372fff" fill-rule="evenodd"/><path clip-rule="evenodd" d="m847.795 1434.85h24.703v-4h-24.703z" fill="#372fff" fill-rule="evenodd"/><path clip-rule="evenodd" d="m847.795 1326.92h24.703v-4h-24.703z" fill="#372fff" fill-rule="evenodd"/><path d="m978.683 1319.19c0 8.05-6.521 14.57-14.566 14.57-8.044 0-14.566-6.52-14.566-14.57 0-8.04 6.522-14.56 14.566-14.56 8.045 0 14.566 6.52 14.566 14.56z" fill="#e0dfff"/><path clip-rule="evenodd" d="m964.117 1329.76c5.836 0 10.566-4.73 10.566-10.57 0-5.83-4.73-10.56-10.566-10.56-5.835 0-10.566 4.73-10.566 10.56 0 5.84 4.731 10.57 10.566 10.57zm0 4c8.045 0 14.566-6.52 14.566-14.57 0-8.04-6.521-14.56-14.566-14.56-8.044 0-14.566 6.52-14.566 14.56 0 8.05 6.522 14.57 14.566 14.57z" fill="#372fff" fill-rule="evenodd"/><path d="m1065.63 1249c0 7.72-6.26 13.99-13.99 13.99-7.72 0-13.99-6.27-13.99-13.99 0-7.73 6.27-13.99 13.99-13.99 7.73 0 13.99 6.26 13.99 13.99z" fill="#e0dfff"/><path clip-rule="evenodd" d="m1051.64 1258.99c5.52 0 9.99-4.48 9.99-9.99 0-5.52-4.47-9.99-9.99-9.99-5.51 0-9.99 4.47-9.99 9.99 0 5.51 4.48 9.99 9.99 9.99zm0 4c7.73 0 13.99-6.27 13.99-13.99 0-7.73-6.26-13.99-13.99-13.99-7.72 0-13.99 6.26-13.99 13.99 0 7.72 6.27 13.99 13.99 13.99z" fill="#372fff" fill-rule="evenodd"/><path clip-rule="evenodd" d="m1071.26 1320.59-7.3-7.29 2.82-2.83 7.3 7.3 7.3-7.3 2.83 2.83-7.3 7.29 7.3 7.3-2.83 2.83-7.3-7.3-7.3 7.3-2.82-2.83z" fill="#372fff" fill-rule="evenodd"/><path clip-rule="evenodd" d="m998.961 1319.53s-.001 0-.044-2-.043-2-.043-2h.008.035c.032 0 .082 0 .149-.01.134 0 .335-.01.596-.02.518-.03 1.288-.07 2.228-.15 1.88-.16 4.47-.46 7.3-1 5.78-1.09 12.07-3.12 15.63-6.68 3.74-3.74 6.62-9.14 8.58-13.74.97-2.28 1.7-4.31 2.19-5.77.24-.73.42-1.32.54-1.72.06-.2.1-.35.13-.45.02-.06.03-.09.03-.12l.01-.02v-.01s0 0 1.93.52c1.93.53 1.93.53 1.93.53v.01l-.01.04c-.01.03-.02.08-.04.14-.03.11-.08.28-.15.5-.13.44-.32 1.06-.58 1.83-.51 1.55-1.27 3.69-2.3 6.09-2.03 4.76-5.15 10.72-9.43 15-4.48 4.48-11.84 6.67-17.71 7.78-3 .57-5.73.88-7.71 1.05-1 .09-1.81.14-2.369.16-.282.02-.503.03-.655.03-.077 0-.136.01-.177.01h-.048-.014z" fill="#372fff" fill-rule="evenodd"/><path clip-rule="evenodd" d="m1040 1285.31-20.49 5.49-1.04-3.87 22.43-6.01c1.06-.28 2.16.35 2.44 1.42l5.36 19.97-3.87 1.03z" fill="#372fff" fill-rule="evenodd"/><path clip-rule="evenodd" d="m1014.18 1460.63v-77.35h4v77.35z" fill="#372fff" fill-rule="evenodd"/><path clip-rule="evenodd" d="m972.896 1458.63h86.554v4h-86.554z" fill="#372fff" fill-rule="evenodd"/><path clip-rule="evenodd" d="m896.326 1380.09h242.194v4h-242.194z" fill="#372fff" fill-rule="evenodd"/><path clip-rule="evenodd" d="m896.326 1184.68h242.194v4h-242.194z" fill="#372fff" fill-rule="evenodd"/><path d="m1115.9 1197.01v15.68c0 11.5 9.17 20.91 20.37 20.91h35.64l25.45 20.9v-83.62h-35.64" fill="#f9f9fc"/><path clip-rule="evenodd" d="m1161.72 1168.88h35.64c1.11 0 2 .9 2 2v83.62c0 .77-.44 1.48-1.14 1.81s-1.53.23-2.13-.26l-24.9-20.45h-34.92c-12.36 0-22.37-10.36-22.37-22.91v-15.68h4v15.68c0 10.44 8.32 18.91 18.37 18.91h35.64c.46 0 .91.16 1.27.45l22.18 18.22v-77.39h-33.64z" fill="#372fff" fill-rule="evenodd"/><path d="m1161.72 1134.3h-81.46v83.62l25.46-20.91h35.64c11.2 0 20.36-9.4 20.36-20.9z" fill="#e0dfff"/><path clip-rule="evenodd" d="m1078.26 1134.3c0-1.1.9-2 2-2h81.46c1.11 0 2 .9 2 2v41.81c0 12.55-10.01 22.9-22.36 22.9h-34.93l-24.9 20.45c-.6.49-1.42.6-2.12.27s-1.15-1.04-1.15-1.81zm4 2v77.39l22.19-18.22c.36-.3.81-.46 1.27-.46h35.64c10.05 0 18.36-8.46 18.36-18.9v-39.81z" fill="#372fff" fill-rule="evenodd"/><rect fill="#372fff" height="872" rx="40.3535" width="726" x="1069"/><path d="m1268.07 751v-46.957h30.54v7.131h-22.04v12.748h20.45v7.131h-20.45v12.817h22.22v7.13z" fill="#fff"/><path d="m1330.42 764.207v-18.755h-.35c-.42.856-1.04 1.765-1.85 2.728-.81.948-1.88 1.758-3.21 2.43-1.33.673-3.01 1.009-5.02 1.009-2.77 0-5.25-.711-7.43-2.132-2.19-1.422-3.92-3.485-5.18-6.191-1.27-2.705-1.91-5.992-1.91-9.859 0-3.913.64-7.215 1.93-9.905 1.3-2.705 3.05-4.746 5.25-6.122 2.2-1.391 4.65-2.086 7.36-2.086 2.06 0 3.76.352 5.09 1.055 1.33.688 2.38 1.521 3.16 2.499.78.963 1.39 1.872 1.81 2.728h.51v-5.823h8.16v48.424zm-8.12-19.397c1.76 0 3.26-.474 4.5-1.422 1.23-.963 2.17-2.3 2.82-4.012.64-1.712.96-3.707.96-5.985 0-2.277-.32-4.257-.96-5.938-.63-1.681-1.56-2.988-2.8-3.921-1.22-.932-2.73-1.398-4.52-1.398-1.85 0-3.39.481-4.63 1.444s-2.17 2.293-2.8 3.99c-.62 1.696-.94 3.638-.94 5.823 0 2.201.32 4.166.94 5.893.64 1.712 1.59 3.065 2.82 4.058 1.26.978 2.79 1.468 4.61 1.468z" fill="#fff"/><path d="m1369.72 736.189v-20.406h8.3v35.217h-8.05v-6.259h-.37c-.79 1.972-2.1 3.584-3.92 4.838-1.8 1.253-4.03 1.88-6.67 1.88-2.31 0-4.35-.512-6.12-1.536-1.76-1.04-3.14-2.545-4.13-4.517-.99-1.987-1.49-4.387-1.49-7.2v-22.423h8.3v21.139c0 2.232.61 4.005 1.83 5.32 1.23 1.314 2.83 1.971 4.82 1.971 1.22 0 2.41-.298 3.55-.894 1.15-.596 2.09-1.482 2.82-2.659.75-1.193 1.13-2.683 1.13-4.471z" fill="#fff"/><path d="m1386.55 751v-35.217h8.3v35.217zm4.18-40.216c-1.32 0-2.45-.435-3.4-1.307-.95-.886-1.42-1.949-1.42-3.187 0-1.253.47-2.315 1.42-3.187.95-.886 2.08-1.33 3.4-1.33s2.46.444 3.39 1.33c.95.872 1.42 1.934 1.42 3.187 0 1.238-.47 2.301-1.42 3.187-.93.872-2.07 1.307-3.39 1.307z" fill="#fff"/><path d="m1403.39 764.207v-48.424h8.16v5.823h.48c.43-.856 1.03-1.765 1.81-2.728.78-.978 1.84-1.811 3.17-2.499 1.33-.703 3.02-1.055 5.09-1.055 2.72 0 5.17.695 7.36 2.086 2.2 1.376 3.94 3.417 5.22 6.122 1.3 2.69 1.95 5.992 1.95 9.905 0 3.867-.63 7.154-1.9 9.859-1.27 2.706-3 4.769-5.18 6.191-2.19 1.421-4.66 2.132-7.43 2.132-2.02 0-3.69-.336-5.02-1.009-1.33-.672-2.4-1.482-3.21-2.43-.8-.963-1.42-1.872-1.86-2.728h-.34v18.755zm8.14-30.816c0 2.278.32 4.273.96 5.985.66 1.712 1.6 3.049 2.82 4.012 1.24.948 2.74 1.422 4.49 1.422 1.84 0 3.37-.49 4.61-1.468 1.24-.993 2.17-2.346 2.8-4.058.64-1.727.96-3.692.96-5.893 0-2.185-.31-4.127-.94-5.823-.62-1.697-1.56-3.027-2.79-3.99-1.24-.963-2.79-1.444-4.64-1.444-1.77 0-3.28.466-4.51 1.398-1.24.933-2.18 2.24-2.82 3.921-.63 1.681-.94 3.661-.94 5.938z" fill="#fff"/><path d="m1443.74 751v-35.217h7.93v5.984h.42c.73-2.018 1.95-3.592 3.64-4.723 1.7-1.147 3.72-1.72 6.08-1.72 2.38 0 4.39.581 6.03 1.743 1.65 1.146 2.81 2.713 3.48 4.7h.37c.78-1.957 2.09-3.516 3.94-4.678 1.87-1.177 4.08-1.765 6.63-1.765 3.24 0 5.88 1.024 7.93 3.072 2.05 2.049 3.08 5.037 3.08 8.965v23.639h-8.33v-22.355c0-2.186-.58-3.783-1.74-4.792-1.16-1.024-2.58-1.536-4.26-1.536-2.01 0-3.57.627-4.7 1.88-1.12 1.238-1.68 2.851-1.68 4.838v21.965h-8.14v-22.699c0-1.819-.55-3.271-1.65-4.356-1.08-1.085-2.51-1.628-4.26-1.628-1.2 0-2.28.306-3.26.917-.98.596-1.76 1.445-2.34 2.545-.58 1.085-.87 2.354-.87 3.806v21.415z" fill="#fff"/><path d="m1517.28 751.688c-3.53 0-6.58-.734-9.15-2.201-2.55-1.483-4.52-3.577-5.89-6.282-1.38-2.721-2.07-5.923-2.07-9.607 0-3.623.69-6.802 2.07-9.538 1.39-2.752 3.33-4.892 5.82-6.42 2.49-1.544 5.42-2.316 8.78-2.316 2.17 0 4.22.352 6.15 1.055 1.94.688 3.65 1.757 5.13 3.21 1.5 1.452 2.68 3.301 3.53 5.548.86 2.232 1.29 4.892 1.29 7.979v2.545h-28.87v-5.594h20.91c-.01-1.59-.36-3.004-1.03-4.242-.67-1.253-1.61-2.239-2.82-2.958-1.19-.718-2.58-1.077-4.17-1.077-1.7 0-3.19.412-4.47 1.238-1.29.81-2.29 1.88-3.01 3.21-.7 1.314-1.06 2.759-1.08 4.333v4.884c0 2.048.38 3.806 1.13 5.273.75 1.452 1.79 2.568 3.14 3.348 1.34.764 2.92 1.146 4.72 1.146 1.21 0 2.3-.168 3.28-.504.98-.352 1.83-.864 2.55-1.536.71-.673 1.26-1.506 1.62-2.499l7.75.871c-.49 2.048-1.42 3.836-2.79 5.365-1.36 1.513-3.11 2.69-5.23 3.531-2.13.825-4.56 1.238-7.29 1.238z" fill="#fff"/><path d="m1548.26 730.365v20.635h-8.3v-35.217h7.93v5.984h.41c.81-1.972 2.11-3.539 3.88-4.7 1.79-1.162 4-1.743 6.63-1.743 2.43 0 4.54.52 6.35 1.559 1.82 1.039 3.22 2.545 4.22 4.517s1.5 4.364 1.49 7.176v22.424h-8.3v-21.14c0-2.354-.62-4.195-1.84-5.525-1.21-1.33-2.88-1.995-5.02-1.995-1.45 0-2.74.321-3.87.963-1.12.627-2 1.536-2.64 2.728-.63 1.193-.94 2.637-.94 4.334z" fill="#fff"/><path d="m1596.89 715.783v6.419h-20.25v-6.419zm-15.25-8.438h8.3v33.062c0 1.116.17 1.972.51 2.568.35.581.81.979 1.37 1.193.57.214 1.19.321 1.88.321.52 0 1-.039 1.42-.115.45-.076.78-.145 1.01-.206l1.4 6.488c-.44.153-1.08.321-1.9.505-.81.183-1.81.29-2.98.321-2.08.061-3.95-.253-5.62-.94-1.67-.704-2.99-1.789-3.97-3.256-.96-1.468-1.43-3.302-1.42-5.503z" fill="#fff"/><path d="m1435.68 418.671s-35.21-93.748-35.21-123.38c0-14.195 12.83-43.726 19.77-55.493 7.55-12.797 8.44-21.781 8.44-21.781s-16.2-18.424-59.97-22.002c-.87-.071-1.24-13.416-2.13-13.476-4.41-.3-8.16-5.13-13.03-5.13v257.156c55.88 0 82.13-15.894 82.13-15.894z" fill="#fff"/><path clip-rule="evenodd" d="m1318.12 294.325c.53-.967 1.75-1.318 2.71-.784.75.414 1.93.855 3.54 1.283 1.07.282 1.71 1.376 1.43 2.444s-1.38 1.705-2.45 1.423c-1.75-.464-3.29-1.006-4.45-1.649-.97-.534-1.32-1.751-.78-2.717zm12.17 3.706c.14-1.096 1.14-1.875 2.23-1.74 2.55.315 5.37.567 8.39.741 1.1.064 1.94 1.009 1.88 2.112-.07 1.103-1.01 1.945-2.11 1.881-3.1-.178-6-.437-8.65-.764-1.09-.135-1.87-1.134-1.74-2.23zm17.04 1.258c.01-1.104.92-1.992 2.02-1.982 2.75.023 5.59-.014 8.46-.12 1.11-.04 2.03.822 2.07 1.925.04 1.104-.82 2.032-1.92 2.072-2.93.108-5.83.147-8.64.123-1.11-.01-2-.913-1.99-2.018zm17.1-.448c-.1-1.101.72-2.068 1.82-2.161 2.83-.238 5.64-.547 8.39-.932 1.1-.153 2.11.61 2.26 1.704.15 1.093-.61 2.104-1.7 2.257-2.84.396-5.72.713-8.61.957-1.1.092-2.07-.725-2.16-1.825zm16.96-2.162c-.23-1.081.46-2.142 1.54-2.371 1.39-.294 2.75-.611 4.07-.953 1.07-.276 2.16.368 2.44 1.437.27 1.07-.37 2.16-1.44 2.436-1.38.358-2.8.688-4.24.994-1.08.228-2.15-.462-2.37-1.543z" fill="#a5a1ff" fill-rule="evenodd"/><path clip-rule="evenodd" d="m1353.68 549.218v-114.653h4v114.653z" fill="#fff" fill-rule="evenodd"/><path clip-rule="evenodd" d="m1400.58 549.218h-93.8v-4h93.8z" fill="#fff" fill-rule="evenodd"/><path clip-rule="evenodd" d="m1338.97 183.031v14.556c0 1.04-.79 1.906-1.83 1.993-21.23 1.782-36.05 6.825-45.53 11.377-4.73 2.276-8.14 4.433-10.34 6.003-1.09.774-1.88 1.406-2.4 1.84.02.138.05.29.08.455.19.983.52 2.444 1.08 4.301 1.13 3.712 3.18 9.005 6.89 15.216 3.59 6 9.41 16.458 14.34 27.184 2.46 5.362 4.72 10.822 6.37 15.844 1.63 4.986 2.71 9.69 2.71 13.49 0 7.509-2.54 19.065-6.24 31.973-3.72 12.978-8.66 27.549-13.6 41.193-4.94 13.648-9.88 26.392-13.59 35.722-1.85 4.666-3.39 8.479-4.47 11.127-.4.963-.73 1.772-.99 2.412.85.406 2.05.951 3.58 1.591 3.5 1.46 8.77 3.42 15.78 5.383 14.01 3.927 35 7.873 62.74 7.873 27.75 0 48.09-3.946 61.46-7.866 6.68-1.961 11.62-3.916 14.88-5.37 1.39-.624 2.48-1.156 3.26-1.557-.26-.641-.6-1.459-.99-2.438-1.06-2.626-2.58-6.41-4.4-11.043-3.63-9.265-8.48-21.93-13.34-35.526-4.85-13.591-9.7-28.136-13.35-41.155-3.63-12.953-6.13-24.607-6.13-32.319 0-3.872 1.1-8.622 2.77-13.634 1.67-5.048 3.97-10.514 6.47-15.868 4.99-10.709 10.85-21.095 14.34-27.006 3.69-6.251 5.74-11.548 6.86-15.254.56-1.853.89-3.309 1.08-4.287.03-.179.06-.342.09-.489 0-.001 0-.002 0-.004-.5-.446-1.28-1.105-2.36-1.913-2.15-1.616-5.51-3.833-10.25-6.158-9.47-4.646-24.49-9.738-46.52-11.29-1.05-.074-1.86-.945-1.86-1.995v-14.361c-.06-.037-.12-.075-.19-.115-.69-.414-1.71-.975-2.98-1.537-2.57-1.128-6.11-2.233-10.12-2.233s-7.56 1.105-10.12 2.233c-1.28.562-2.3 1.122-2.99 1.537-.06.04-.13.078-.19.115zm28.59-1.079 1.18-1.613c.52.377.82.976.82 1.613v13.586c21.52 1.736 36.47 6.803 46.15 11.548 4.97 2.439 8.54 4.789 10.89 6.55 1.17.88 2.03 1.612 2.62 2.134.29.261.51.469.66.617.07.074.13.132.18.175.02.021.03.039.05.052l.01.017.01.005v.003c0 .001 0 .002-1.45 1.378 1.99.196 1.99.197 1.99.198v.005.011.03c-.01.01-.01.021-.01.034 0 .019 0 .041-.01.066-.01.084-.02.202-.04.352-.05.301-.12.733-.22 1.287-.22 1.106-.58 2.696-1.18 4.688-1.21 3.986-3.38 9.58-7.24 16.126-3.46 5.855-9.25 16.118-14.17 26.665-2.46 5.274-4.69 10.588-6.3 15.437-1.62 4.884-2.56 9.149-2.56 12.374 0 7.104 2.35 18.281 5.98 31.24 3.61 12.893 8.44 27.341 13.27 40.89 4.84 13.545 9.67 26.169 13.3 35.408 1.81 4.619 3.32 8.391 4.38 11.007.53 1.308.94 2.327 1.22 3.018.14.346.25.61.33.787l.1.25v.012l.01.003c0 .001 0 .001-.31.128l.31-.128c.37.913.03 1.965-.82 2.476l-1.03-1.711c1.03 1.711 1.03 1.711 1.03 1.712l-.01.006-.02.012c-.02.01-.04.024-.07.042-.06.035-.15.084-.26.148-.22.126-.55.306-.98.533-.86.454-2.14 1.094-3.85 1.856-3.41 1.526-8.52 3.544-15.39 5.557-13.72 4.027-34.44 8.028-62.58 8.028-28.13 0-49.48-4.001-63.82-8.021-7.18-2.01-12.6-4.024-16.24-5.544-1.82-.76-3.2-1.396-4.13-1.846-.46-.226-.81-.404-1.05-.529-.12-.062-.22-.111-.28-.145-.03-.017-.06-.031-.08-.04l-.02-.012v-.004l-.01-.001c0-.001 0-.001.97-1.752-1.85-.77-1.85-.77-1.85-.771l.11-.268c.08-.179.19-.445.33-.794.29-.697.71-1.725 1.25-3.044 1.08-2.637 2.62-6.439 4.46-11.091 3.7-9.306 8.62-22.009 13.55-35.608 4.92-13.603 9.83-28.078 13.52-40.932 3.7-12.925 6.08-23.988 6.08-30.872 0-3.159-.92-7.381-2.51-12.244-1.58-4.827-3.78-10.137-6.21-15.419-4.85-10.564-10.6-20.893-14.13-26.804-3.89-6.513-6.08-12.11-7.29-16.107-.6-1.999-.97-3.597-1.18-4.71-.1-.556-.17-.991-.22-1.294-.02-.152-.03-.271-.04-.355-.01-.042-.01-.076-.01-.101l-.01-.03v-.011-.005c0-.001 0-.002 1.99-.193-1.39-1.434-1.39-1.435-1.39-1.436v-.002l.01-.005.01-.015c.02-.013.03-.029.05-.049.05-.04.11-.096.18-.166.16-.141.39-.34.68-.59.6-.499 1.48-1.203 2.68-2.051 2.38-1.697 5.98-3.972 10.93-6.352 9.63-4.627 24.35-9.641 45.09-11.594v-13.805c0-.637.31-1.236.82-1.613l1.18 1.613c-1.18-1.613-1.18-1.613-1.18-1.613v-.001l.01-.002v-.006l.03-.016c.01-.013.04-.031.07-.053.06-.043.15-.103.26-.177.22-.149.54-.354.95-.598.81-.486 1.97-1.128 3.43-1.768 2.9-1.275 7-2.572 11.73-2.572s8.83 1.297 11.73 2.572c1.45.64 2.62 1.282 3.43 1.768.41.244.72.449.95.598.11.074.19.134.26.177.03.022.05.04.07.053l.02.016.01.008v.001s0 0-1.18 1.613zm-90.83 36.065-1.39-1.434c-.44.423-.66 1.021-.6 1.625zm-7.84 200.653-1.85-.771c-.39.942-.01 2.029.88 2.522zm159.79-200.653 1.99.196c.06-.577-.14-1.151-.54-1.572z" fill="#fff" fill-rule="evenodd"/><path clip-rule="evenodd" d="m1482.98 548.419 14.35-33.04 3.67 1.594-14.35 33.04z" fill="#fff" fill-rule="evenodd"/><path clip-rule="evenodd" d="m1568.51 550.041-14.97-33.04 3.64-1.65 14.97 33.04z" fill="#fff" fill-rule="evenodd"/><path clip-rule="evenodd" d="m1479.72 440.01c10.19-17.603 25.98-33.963 47.85-33.963 20.5 0 36.29 15.991 46.8 33.367 5.29 8.756 9.35 18.025 12.09 26.157 2.72 8.082 4.19 15.215 4.19 19.669 0 15.221-11.5 27.571-26.79 31.958l-.1.027-.09.018-.37-1.967c.37 1.967.37 1.967.37 1.967l-.01.001-.02.003-.05.009c-.04.008-.1.018-.18.031-.16.027-.39.063-.68.105-.58.084-1.42.191-2.44.288-2.05.193-4.88.349-8.03.197h-49.43c-3.15 0-5.97-.232-8.01-.464-1.02-.115-1.85-.232-2.42-.319-.29-.044-.52-.081-.67-.108-.08-.013-.14-.023-.18-.031l-.05-.009-.02-.003s0-.001.36-1.967l-.36 1.966-.08-.014-.08-.02c-15.33-4.083-26.83-16.45-26.83-31.668 0-4.055 1.29-10.984 3.79-18.994 2.52-8.058 6.32-17.377 11.44-26.236zm12.55 73.012c.03.005.07.012.12.02.14.023.34.057.61.097.53.081 1.31.191 2.27.3 1.93.219 4.6.438 7.56.438h49.53l.05.002c2.93.144 5.58 0 7.5-.181.96-.091 1.72-.19 2.25-.265.26-.038.46-.07.6-.092.03-.006.07-.012.09-.016 13.97-4.047 23.8-15.103 23.8-28.085 0-3.806-1.31-10.452-3.98-18.393-2.66-7.889-6.6-16.887-11.72-25.363-10.34-17.091-25.09-31.437-43.38-31.437-19.66 0-34.41 14.728-44.38 31.966-4.96 8.563-8.64 17.603-11.09 25.426-2.46 7.872-3.61 14.347-3.61 17.801 0 12.991 9.84 24.035 23.78 27.782z" fill="#fff" fill-rule="evenodd"/><path clip-rule="evenodd" d="m1497.91 487.936s0 0-.88-1.795-.88-1.795-.88-1.795v-.003l.01-.005.04-.017c.03-.014.07-.034.12-.059.11-.049.26-.119.46-.207.39-.175.97-.421 1.71-.714 1.49-.585 3.65-1.358 6.4-2.129 5.48-1.541 13.3-3.078 22.68-3.078s17.2 1.537 22.68 3.078c2.75.771 4.91 1.544 6.4 2.129.74.293 1.32.539 1.71.714.2.088.35.158.46.207.05.025.09.045.12.059l.04.017.01.005v.003s0 0-.88 1.795-.88 1.795-.88 1.795v-.001l-.02-.008c-.02-.009-.05-.023-.09-.042-.08-.039-.21-.098-.38-.174-.35-.153-.87-.377-1.56-.647-1.37-.542-3.41-1.27-6.01-2.001-5.2-1.463-12.65-2.929-21.6-2.929s-16.4 1.466-21.6 2.929c-2.6.731-4.64 1.459-6.01 2.001-.69.27-1.21.494-1.56.647-.17.076-.3.135-.38.174-.04.019-.07.033-.09.042l-.02.008z" fill="#fff" fill-rule="evenodd"/></g></svg>