<svg fill="none" height="1677" viewBox="0 0 3060 1677" width="3060" xmlns="http://www.w3.org/2000/svg" xmlns:xlink="http://www.w3.org/1999/xlink"><clipPath id="a"><path d="m0 0h3060v1677h-3060z"/></clipPath><g clip-path="url(#a)"><path d="m0 0h3060v1677h-3060z" fill="#120d45"/><g fill="#310ad0"><path d="m35.6564 527.357h-51.4731v-166.799h53.7535c16.1803 0 30.0259 3.339 41.5367 10.018 11.5109 6.624 20.334 16.153 26.4695 28.587 6.135 12.379 9.203 27.202 9.203 44.469 0 17.374-3.095 32.333-9.284 44.876-6.1902 12.488-15.2034 22.098-27.04 28.831-11.8366 6.678-26.2251 10.018-43.1656 10.018zm-31.27481-17.918h29.97171c13.7912 0 25.2206-2.661 34.2881-7.982s15.8274-12.895 20.2797-22.723c4.4524-9.827 6.6785-21.528 6.6785-35.102 0-13.466-2.199-25.058-6.597-34.777-4.398-9.774-10.9679-17.266-19.7096-22.479-8.7417-5.267-19.6282-7.9-32.6593-7.9h-32.25211z"/><path d="m188.551 529.963c-12.054 0-22.452-2.661-31.194-7.982-8.687-5.375-15.393-12.868-20.116-22.478-4.67-9.665-7.005-20.904-7.005-33.718s2.335-24.108 7.005-33.881c4.723-9.828 11.293-17.484 19.709-22.968 8.47-5.538 18.352-8.307 29.646-8.307 6.516 0 12.95 1.086 19.302 3.258 6.353 2.172 12.136 5.701 17.348 10.587 5.213 4.833 9.366 11.24 12.461 19.221 3.095 7.982 4.642 17.81 4.642 29.483v8.145h-96.43v-16.615h76.884c0-7.058-1.412-13.357-4.235-18.895-2.769-5.538-6.733-9.909-11.891-13.113-5.104-3.203-11.131-4.805-18.081-4.805-7.656 0-14.28 1.901-19.872 5.701-5.539 3.747-9.801 8.633-12.787 14.66-2.987 6.027-4.48 12.488-4.48 19.384v11.077c0 9.447 1.629 17.456 4.887 24.026 3.312 6.515 7.9 11.483 13.764 14.904 5.864 3.366 12.678 5.05 20.443 5.05 5.049 0 9.61-.706 13.682-2.118 4.127-1.466 7.683-3.638 10.67-6.515 2.986-2.932 5.293-6.57 6.922-10.914l18.57 5.212c-1.955 6.299-5.24 11.837-9.855 16.615-4.615 4.724-10.316 8.416-17.103 11.077-6.788 2.606-14.416 3.909-22.886 3.909z"/><path d="m347.879 430.275-17.266 4.886c-1.086-2.877-2.688-5.674-4.806-8.388-2.063-2.77-4.886-5.05-8.47-6.842-3.583-1.792-8.171-2.687-13.764-2.687-7.656 0-14.035 1.764-19.139 5.293-5.05 3.475-7.575 7.901-7.575 13.276 0 4.778 1.738 8.552 5.213 11.321s8.904 5.076 16.289 6.923l18.569 4.56c11.185 2.715 19.52 6.869 25.003 12.461 5.484 5.539 8.227 12.679 8.227 21.42 0 7.168-2.064 13.574-6.19 19.221-4.073 5.647-9.774 10.099-17.104 13.357s-15.854 4.887-25.573 4.887c-12.76 0-23.321-2.769-31.682-8.307-8.362-5.539-13.656-13.629-15.882-24.271l18.244-4.561c1.737 6.733 5.022 11.782 9.855 15.149 4.886 3.366 11.266 5.049 19.139 5.049 8.959 0 16.072-1.9 21.339-5.701 5.321-3.855 7.981-8.47 7.981-13.845 0-4.344-1.52-7.982-4.561-10.914-3.04-2.986-7.71-5.212-14.008-6.678l-20.85-4.887c-11.457-2.715-19.873-6.923-25.248-12.624-5.321-5.755-7.982-12.95-7.982-21.583 0-7.058 1.982-13.302 5.946-18.732 4.018-5.43 9.475-9.692 16.37-12.787 6.95-3.095 14.823-4.642 23.619-4.642 12.38 0 22.099 2.715 29.157 8.144 7.113 5.43 12.163 12.597 15.149 21.502z"/><path d="m368.772 527.357v-125.099h19.221v125.099zm9.774-145.949c-3.747 0-6.978-1.276-9.692-3.828-2.661-2.552-3.991-5.62-3.991-9.203 0-3.584 1.33-6.651 3.991-9.203 2.714-2.552 5.945-3.828 9.692-3.828 3.746 0 6.949 1.276 9.61 3.828 2.715 2.552 4.072 5.619 4.072 9.203 0 3.583-1.357 6.651-4.072 9.203-2.661 2.552-5.864 3.828-9.61 3.828z"/><path d="m463.372 576.875c-9.284 0-17.266-1.195-23.944-3.584-6.679-2.334-12.244-5.429-16.696-9.284-4.398-3.801-7.901-7.873-10.507-12.217l15.312-10.751c1.737 2.281 3.936 4.887 6.597 7.819 2.66 2.986 6.298 5.565 10.913 7.737 4.67 2.226 10.778 3.339 18.325 3.339 10.1 0 18.434-2.443 25.004-7.33 6.57-4.886 9.855-12.542 9.855-22.967v-25.411h-1.629c-1.412 2.281-3.421 5.104-6.027 8.471-2.552 3.312-6.244 6.271-11.077 8.877-4.778 2.552-11.239 3.828-19.383 3.828-10.099 0-19.167-2.389-27.203-7.167-7.981-4.778-14.307-11.728-18.976-20.85-4.616-9.122-6.923-20.198-6.923-33.229 0-12.814 2.253-23.972 6.76-33.474 4.506-9.556 10.777-16.941 18.813-22.153 8.036-5.267 17.321-7.9 27.855-7.9 8.144 0 14.605 1.357 19.383 4.072 4.833 2.661 8.525 5.701 11.077 9.122 2.606 3.366 4.615 6.135 6.027 8.307h1.954v-19.872h18.57v128.682c0 10.751-2.444 19.493-7.33 26.225-4.833 6.787-11.348 11.756-19.547 14.905-8.144 3.203-17.212 4.805-27.203 4.805zm-.651-68.739c7.71 0 14.226-1.765 19.547-5.294s9.366-8.606 12.135-15.23 4.154-14.552 4.154-23.782c0-9.013-1.358-16.968-4.073-23.863-2.715-6.896-6.732-12.299-12.053-16.208-5.322-3.909-11.891-5.864-19.71-5.864-8.145 0-14.932 2.063-20.361 6.19-5.376 4.126-9.421 9.665-12.136 16.615-2.66 6.95-3.99 14.66-3.99 23.13 0 8.687 1.357 16.37 4.072 23.049 2.769 6.624 6.841 11.836 12.217 15.637 5.429 3.747 12.162 5.62 20.198 5.62z"/><path d="m561.536 452.102v75.255h-19.221v-125.099h18.569v19.546h1.629c2.932-6.352 7.384-11.456 13.357-15.311 5.973-3.909 13.682-5.864 23.13-5.864 8.47 0 15.882 1.737 22.234 5.212 6.353 3.421 11.294 8.633 14.823 15.638 3.53 6.95 5.294 15.746 5.294 26.388v79.49h-19.221v-78.187c0-9.828-2.551-17.484-7.655-22.968-5.104-5.538-12.108-8.307-21.013-8.307-6.135 0-11.619 1.33-16.452 3.991-4.778 2.66-8.552 6.543-11.321 11.647-2.769 5.103-4.153 11.293-4.153 18.569z"/><path d="m718.604 529.963c-12.054 0-22.451-2.661-31.193-7.982-8.687-5.375-15.393-12.868-20.117-22.478-4.669-9.665-7.004-20.904-7.004-33.718s2.335-24.108 7.004-33.881c4.724-9.828 11.294-17.484 19.71-22.968 8.47-5.538 18.352-8.307 29.646-8.307 6.515 0 12.949 1.086 19.302 3.258s12.135 5.701 17.348 10.587c5.212 4.833 9.366 11.24 12.461 19.221 3.094 7.982 4.642 17.81 4.642 29.483v8.145h-96.43v-16.615h76.883c0-7.058-1.411-13.357-4.235-18.895-2.769-5.538-6.732-9.909-11.891-13.113-5.104-3.203-11.131-4.805-18.08-4.805-7.656 0-14.28 1.901-19.873 5.701-5.538 3.747-9.8 8.633-12.787 14.66-2.986 6.027-4.479 12.488-4.479 19.384v11.077c0 9.447 1.629 17.456 4.887 24.026 3.312 6.515 7.9 11.483 13.764 14.904 5.864 3.366 12.678 5.05 20.442 5.05 5.05 0 9.611-.706 13.683-2.118 4.126-1.466 7.683-3.638 10.669-6.515 2.987-2.932 5.294-6.57 6.923-10.914l18.569 5.212c-1.954 6.299-5.239 11.837-9.854 16.615-4.616 4.724-10.317 8.416-17.104 11.077-6.787 2.606-14.416 3.909-22.886 3.909z"/><path d="m789.321 527.357v-125.099h18.569v18.895h1.303c2.281-6.19 6.407-11.212 12.38-15.067s12.705-5.783 20.198-5.783c1.412 0 3.177.027 5.294.082 2.118.054 3.719.135 4.805.244v19.547c-.651-.163-2.144-.408-4.479-.733-2.28-.381-4.697-.571-7.249-.571-6.081 0-11.511 1.276-16.289 3.828-4.723 2.498-8.47 5.973-11.239 10.425-2.715 4.398-4.072 9.421-4.072 15.068v79.164z"/><path d="m952.946 430.275-17.267 4.886c-1.086-2.877-2.687-5.674-4.805-8.388-2.063-2.77-4.886-5.05-8.47-6.842s-8.172-2.687-13.764-2.687c-7.656 0-14.036 1.764-19.14 5.293-5.049 3.475-7.574 7.901-7.574 13.276 0 4.778 1.737 8.552 5.212 11.321s8.905 5.076 16.289 6.923l18.57 4.56c11.185 2.715 19.519 6.869 25.003 12.461 5.484 5.539 8.226 12.679 8.226 21.42 0 7.168-2.063 13.574-6.19 19.221-4.072 5.647-9.773 10.099-17.103 13.357s-15.855 4.887-25.574 4.887c-12.759 0-23.32-2.769-31.682-8.307-8.361-5.539-13.655-13.629-15.881-24.271l18.243-4.561c1.738 6.733 5.023 11.782 9.855 15.149 4.887 3.366 11.267 5.049 19.14 5.049 8.958 0 16.071-1.9 21.338-5.701 5.321-3.855 7.982-8.47 7.982-13.845 0-4.344-1.521-7.982-4.561-10.914-3.041-2.986-7.711-5.212-14.009-6.678l-20.85-4.887c-11.456-2.715-19.872-6.923-25.247-12.624-5.321-5.755-7.982-12.95-7.982-21.583 0-7.058 1.982-13.302 5.946-18.732 4.017-5.43 9.474-9.692 16.37-12.787 6.95-3.095 14.823-4.642 23.619-4.642 12.379 0 22.098 2.715 29.157 8.144 7.113 5.43 12.162 12.597 15.149 21.502z"/><path d="m1125.1 434.999v17.917h-114.67v-17.917z"/><path d="m1189.16 527.357v-166.799h56.36c13.04 0 23.73 2.226 32.09 6.679 8.37 4.398 14.56 10.452 18.57 18.162 4.02 7.71 6.03 16.479 6.03 26.306 0 9.828-2.01 18.543-6.03 26.144-4.01 7.602-10.18 13.574-18.48 17.918-8.31 4.289-18.93 6.434-31.85 6.434h-45.61v-18.244h44.96c8.9 0 16.07-1.303 21.5-3.909 5.48-2.606 9.45-6.298 11.89-11.076 2.5-4.833 3.75-10.588 3.75-17.267 0-6.678-1.25-12.515-3.75-17.51-2.5-4.996-6.49-8.851-11.97-11.565-5.49-2.769-12.73-4.154-21.75-4.154h-35.51v148.881zm78.52-74.929 41.05 74.929h-23.46l-40.4-74.929z"/><path d="m1374.05 529.963c-12.06 0-22.45-2.661-31.2-7.982-8.68-5.375-15.39-12.868-20.11-22.478-4.67-9.665-7.01-20.904-7.01-33.718s2.34-24.108 7.01-33.881c4.72-9.828 11.29-17.484 19.71-22.968 8.47-5.538 18.35-8.307 29.64-8.307 6.52 0 12.95 1.086 19.3 3.258 6.36 2.172 12.14 5.701 17.35 10.587 5.21 4.833 9.37 11.24 12.46 19.221 3.1 7.982 4.65 17.81 4.65 29.483v8.145h-96.44v-16.615h76.89c0-7.058-1.41-13.357-4.24-18.895-2.77-5.538-6.73-9.909-11.89-13.113-5.1-3.203-11.13-4.805-18.08-4.805-7.65 0-14.28 1.901-19.87 5.701-5.54 3.747-9.8 8.633-12.79 14.66-2.98 6.027-4.48 12.488-4.48 19.384v11.077c0 9.447 1.63 17.456 4.89 24.026 3.31 6.515 7.9 11.483 13.76 14.904 5.87 3.366 12.68 5.05 20.45 5.05 5.05 0 9.61-.706 13.68-2.118 4.13-1.466 7.68-3.638 10.67-6.515 2.98-2.932 5.29-6.57 6.92-10.914l18.57 5.212c-1.95 6.299-5.24 11.837-9.85 16.615-4.62 4.724-10.32 8.416-17.11 11.077-6.78 2.606-14.41 3.909-22.88 3.909z"/><path d="m1499.17 402.258v16.289h-64.83v-16.289zm-45.94-29.972h19.22v119.235c0 5.43.79 9.502 2.37 12.217 1.63 2.66 3.69 4.452 6.19 5.375 2.55.869 5.24 1.303 8.06 1.303 2.12 0 3.85-.108 5.21-.326 1.36-.271 2.44-.488 3.26-.651l3.91 17.266c-1.3.489-3.12.977-5.46 1.466-2.33.543-5.29.815-8.88.815-5.43 0-10.75-1.168-15.96-3.503-5.16-2.334-9.45-5.891-12.87-10.669-3.36-4.778-5.05-10.805-5.05-18.081z"/><path d="m1554.57 530.289c-7.92 0-15.12-1.493-21.58-4.48-6.46-3.04-11.59-7.411-15.39-13.112-3.8-5.756-5.7-12.706-5.7-20.85 0-7.167 1.41-12.977 4.23-17.429 2.83-4.507 6.6-8.036 11.32-10.588 4.73-2.552 9.94-4.452 15.64-5.701 5.76-1.303 11.54-2.335 17.35-3.095 7.6-.977 13.76-1.71 18.49-2.199 4.77-.543 8.25-1.439 10.42-2.688 2.23-1.249 3.34-3.42 3.34-6.515v-.652c0-8.036-2.2-14.28-6.6-18.732-4.34-4.452-10.94-6.679-19.79-6.679-9.17 0-16.37 2.009-21.58 6.027s-8.88 8.308-11 12.869l-18.24-6.516c3.26-7.602 7.6-13.52 13.03-17.755 5.49-4.289 11.46-7.276 17.92-8.959 6.51-1.737 12.92-2.606 19.22-2.606 4.02 0 8.63.489 13.85 1.466 5.26.923 10.34 2.85 15.23 5.782 4.94 2.932 9.04 7.358 12.29 13.276 3.26 5.918 4.89 13.846 4.89 23.782v82.422h-19.22v-16.941h-.98c-1.3 2.715-3.47 5.62-6.51 8.715s-7.09 5.728-12.14 7.9-11.21 3.258-18.49 3.258zm2.94-17.267c7.6 0 14-1.493 19.22-4.479 5.26-2.986 9.23-6.841 11.89-11.565 2.71-4.724 4.07-9.692 4.07-14.905v-17.592c-.81.978-2.61 1.874-5.38 2.688-2.71.76-5.86 1.439-9.44 2.036-3.53.543-6.98 1.032-10.35 1.466-3.31.38-6 .706-8.06.978-5 .651-9.66 1.71-14.01 3.176-4.29 1.412-7.76 3.556-10.42 6.434-2.61 2.823-3.91 6.678-3.91 11.565 0 6.679 2.47 11.728 7.41 15.149 4.99 3.366 11.32 5.049 18.98 5.049z"/><path d="m1636.67 527.357v-125.099h19.22v125.099zm9.78-145.949c-3.75 0-6.98-1.276-9.7-3.828-2.66-2.552-3.99-5.62-3.99-9.203 0-3.584 1.33-6.651 3.99-9.203 2.72-2.552 5.95-3.828 9.7-3.828 3.74 0 6.95 1.276 9.61 3.828 2.71 2.552 4.07 5.619 4.07 9.203 0 3.583-1.36 6.651-4.07 9.203-2.66 2.552-5.87 3.828-9.61 3.828z"/><path d="m1700 360.558v166.799h-19.22v-166.799z"/><path d="m1876.15 434.999v17.917h-114.68v-17.917z"/><path d="m1940.21 527.357v-166.799h100.66v17.918h-80.46v56.36h75.25v17.917h-75.25v56.686h81.77v17.918z"/><path d="m2078.69 402.258 29.97 51.147 29.97-51.147h22.15l-40.39 62.549 40.39 62.55h-22.15l-29.97-48.541-29.97 48.541h-22.16l39.75-62.55-39.75-62.549z"/><path d="m2177.89 574.269v-172.011h18.57v19.872h2.28c1.41-2.172 3.36-4.941 5.86-8.307 2.55-3.421 6.19-6.461 10.92-9.122 4.77-2.715 11.24-4.072 19.38-4.072 10.53 0 19.82 2.633 27.85 7.9 8.04 5.267 14.31 12.733 18.82 22.397 4.5 9.665 6.76 21.067 6.76 34.207 0 13.248-2.26 24.732-6.76 34.451-4.51 9.665-10.75 17.158-18.73 22.479-7.99 5.267-17.19 7.9-27.61 7.9-8.04 0-14.47-1.33-19.31-3.991-4.83-2.715-8.55-5.782-11.15-9.203-2.61-3.475-4.62-6.353-6.03-8.633h-1.63v66.133zm18.89-109.462c0 9.448 1.39 17.782 4.16 25.004 2.77 7.167 6.81 12.786 12.13 16.859 5.32 4.018 11.84 6.027 19.55 6.027 8.04 0 14.74-2.118 20.12-6.353 5.43-4.289 9.5-10.045 12.21-17.266 2.77-7.276 4.16-15.366 4.16-24.271 0-8.796-1.36-16.723-4.08-23.782-2.66-7.112-6.7-12.732-12.13-16.859-5.38-4.18-12.14-6.271-20.28-6.271-7.82 0-14.39 1.982-19.71 5.946-5.32 3.909-9.34 9.393-12.05 16.451-2.72 7.005-4.08 15.176-4.08 24.515z"/><path d="m2359.78 529.963c-12.06 0-22.45-2.661-31.2-7.982-8.68-5.375-15.39-12.868-20.11-22.478-4.67-9.665-7.01-20.904-7.01-33.718s2.34-24.108 7.01-33.881c4.72-9.828 11.29-17.484 19.71-22.968 8.47-5.538 18.35-8.307 29.64-8.307 6.52 0 12.95 1.086 19.3 3.258 6.36 2.172 12.14 5.701 17.35 10.587 5.21 4.833 9.37 11.24 12.46 19.221 3.1 7.982 4.65 17.81 4.65 29.483v8.145h-96.43v-16.615h76.88c0-7.058-1.41-13.357-4.24-18.895-2.77-5.538-6.73-9.909-11.89-13.113-5.1-3.203-11.13-4.805-18.08-4.805-7.65 0-14.28 1.901-19.87 5.701-5.54 3.747-9.8 8.633-12.79 14.66-2.98 6.027-4.48 12.488-4.48 19.384v11.077c0 9.447 1.63 17.456 4.89 24.026 3.31 6.515 7.9 11.483 13.76 14.904 5.87 3.366 12.68 5.05 20.45 5.05 5.05 0 9.61-.706 13.68-2.118 4.13-1.466 7.68-3.638 10.67-6.515 2.98-2.932 5.29-6.57 6.92-10.914l18.57 5.212c-1.95 6.299-5.24 11.837-9.85 16.615-4.62 4.724-10.32 8.416-17.11 11.077-6.78 2.606-14.41 3.909-22.88 3.909z"/><path d="m2430.49 527.357v-125.099h18.57v18.895h1.31c2.28-6.19 6.4-11.212 12.38-15.067 5.97-3.855 12.7-5.783 20.19-5.783 1.42 0 3.18.027 5.3.082 2.12.054 3.72.135 4.8.244v19.547c-.65-.163-2.14-.408-4.48-.733-2.28-.381-4.69-.571-7.24-.571-6.09 0-11.52 1.276-16.29 3.828-4.73 2.498-8.47 5.973-11.24 10.425-2.72 4.398-4.08 9.421-4.08 15.068v79.164z"/><path d="m2505.51 527.357v-125.099h19.22v125.099zm9.77-145.949c-3.75 0-6.98-1.276-9.69-3.828-2.66-2.552-3.99-5.62-3.99-9.203 0-3.584 1.33-6.651 3.99-9.203 2.71-2.552 5.94-3.828 9.69-3.828s6.95 1.276 9.61 3.828c2.72 2.552 4.07 5.619 4.07 9.203 0 3.583-1.35 6.651-4.07 9.203-2.66 2.552-5.86 3.828-9.61 3.828z"/><path d="m2602.06 529.963c-12.05 0-22.45-2.661-31.19-7.982-8.69-5.375-15.39-12.868-20.12-22.478-4.67-9.665-7-20.904-7-33.718s2.33-24.108 7-33.881c4.73-9.828 11.3-17.484 19.71-22.968 8.47-5.538 18.35-8.307 29.65-8.307 6.51 0 12.95 1.086 19.3 3.258s12.13 5.701 17.35 10.587c5.21 4.833 9.36 11.24 12.46 19.221 3.09 7.982 4.64 17.81 4.64 29.483v8.145h-96.43v-16.615h76.88c0-7.058-1.41-13.357-4.23-18.895-2.77-5.538-6.73-9.909-11.89-13.113-5.11-3.203-11.13-4.805-18.08-4.805-7.66 0-14.28 1.901-19.88 5.701-5.53 3.747-9.8 8.633-12.78 14.66-2.99 6.027-4.48 12.488-4.48 19.384v11.077c0 9.447 1.63 17.456 4.88 24.026 3.32 6.515 7.9 11.483 13.77 14.904 5.86 3.366 12.68 5.05 20.44 5.05 5.05 0 9.61-.706 13.68-2.118 4.13-1.466 7.69-3.638 10.67-6.515 2.99-2.932 5.3-6.57 6.93-10.914l18.57 5.212c-1.96 6.299-5.24 11.837-9.86 16.615-4.61 4.724-10.32 8.416-17.1 11.077-6.79 2.606-14.42 3.909-22.89 3.909z"/><path d="m2692 452.102v75.255h-19.22v-125.099h18.57v19.546h1.63c2.93-6.352 7.38-11.456 13.35-15.311 5.98-3.909 13.69-5.864 23.13-5.864 8.47 0 15.89 1.737 22.24 5.212 6.35 3.421 11.29 8.633 14.82 15.638 3.53 6.95 5.29 15.746 5.29 26.388v79.49h-19.22v-78.187c0-9.828-2.55-17.484-7.65-22.968-5.11-5.538-12.11-8.307-21.01-8.307-6.14 0-11.62 1.33-16.46 3.991-4.77 2.66-8.55 6.543-11.32 11.647-2.77 5.103-4.15 11.293-4.15 18.569z"/><path d="m2847.44 529.963c-11.73 0-21.83-2.769-30.3-8.307-8.47-5.539-14.98-13.167-19.55-22.886-4.56-9.719-6.84-20.823-6.84-33.311 0-12.706 2.34-23.918 7.01-33.637 4.72-9.773 11.29-17.402 19.71-22.886 8.47-5.538 18.35-8.307 29.64-8.307 8.8 0 16.73 1.629 23.78 4.887 7.06 3.257 12.85 7.818 17.35 13.682 4.51 5.864 7.31 12.706 8.39 20.524h-19.22c-1.47-5.701-4.72-10.75-9.77-15.148-5-4.453-11.73-6.679-20.2-6.679-7.49 0-14.06 1.955-19.71 5.864-5.59 3.855-9.96 9.312-13.11 16.371-3.1 7.004-4.65 15.23-4.65 24.677 0 9.665 1.52 18.081 4.56 25.248 3.1 7.167 7.44 12.733 13.04 16.696 5.64 3.964 12.27 5.946 19.87 5.946 4.99 0 9.53-.869 13.6-2.607 4.07-1.737 7.52-4.235 10.34-7.492 2.83-3.258 4.84-7.168 6.03-11.729h19.22c-1.08 7.385-3.77 14.036-8.06 19.954-4.24 5.864-9.86 10.534-16.86 14.009-6.95 3.421-15.04 5.131-24.27 5.131z"/><path d="m2966.86 529.963c-12.05 0-22.45-2.661-31.19-7.982-8.69-5.375-15.4-12.868-20.12-22.478-4.67-9.665-7-20.904-7-33.718s2.33-24.108 7-33.881c4.72-9.828 11.29-17.484 19.71-22.968 8.47-5.538 18.35-8.307 29.64-8.307 6.52 0 12.95 1.086 19.31 3.258 6.35 2.172 12.13 5.701 17.34 10.587 5.22 4.833 9.37 11.24 12.47 19.221 3.09 7.982 4.64 17.81 4.64 29.483v8.145h-96.43v-16.615h76.88c0-7.058-1.41-13.357-4.23-18.895-2.77-5.538-6.74-9.909-11.89-13.113-5.11-3.203-11.14-4.805-18.09-4.805-7.65 0-14.28 1.901-19.87 5.701-5.54 3.747-9.8 8.633-12.78 14.66-2.99 6.027-4.48 12.488-4.48 19.384v11.077c0 9.447 1.62 17.456 4.88 24.026 3.31 6.515 7.9 11.483 13.77 14.904 5.86 3.366 12.68 5.05 20.44 5.05 5.05 0 9.61-.706 13.68-2.118 4.13-1.466 7.68-3.638 10.67-6.515 2.99-2.932 5.3-6.57 6.92-10.914l18.57 5.212c-1.95 6.299-5.24 11.837-9.85 16.615-4.62 4.724-10.32 8.416-17.1 11.077-6.79 2.606-14.42 3.909-22.89 3.909z"/><path d="m-523.109 856.637c-10.751 0-20.334-1.846-28.75-5.538-8.361-3.692-15.013-8.823-19.954-15.393-4.886-6.624-7.547-14.307-7.981-23.049h20.524c.434 5.375 2.28 10.018 5.538 13.927 3.258 3.855 7.52 6.841 12.787 8.959 5.267 2.117 11.103 3.176 17.51 3.176 7.168 0 13.52-1.249 19.058-3.746 5.539-2.498 9.882-5.973 13.032-10.425 3.149-4.452 4.723-9.611 4.723-15.475 0-6.135-1.52-11.538-4.561-16.207-3.04-4.724-7.492-8.416-13.356-11.076-5.864-2.661-13.032-3.991-21.502-3.991h-13.357v-17.918h13.357c6.624 0 12.434-1.195 17.429-3.584 5.05-2.389 8.986-5.755 11.81-10.099 2.877-4.343 4.316-9.447 4.316-15.311 0-5.647-1.249-10.561-3.746-14.742-2.498-4.181-6.027-7.438-10.588-9.773-4.507-2.335-9.828-3.502-15.963-3.502-5.755 0-11.185 1.058-16.289 3.176-5.05 2.063-9.176 5.077-12.38 9.04-3.203 3.91-4.941 8.634-5.212 14.172h-19.547c.326-8.742 2.959-16.398 7.9-22.968 4.941-6.624 11.403-11.782 19.384-15.474 8.036-3.692 16.859-5.538 26.47-5.538 10.316 0 19.166 2.09 26.551 6.271 7.384 4.126 13.058 9.583 17.022 16.37 3.963 6.787 5.945 14.117 5.945 21.99 0 9.394-2.47 17.402-7.411 24.026-4.887 6.625-11.538 11.213-19.954 13.765v1.303c10.533 1.737 18.759 6.217 24.677 13.438 5.919 7.167 8.878 16.045 8.878 26.632 0 9.068-2.471 17.212-7.412 24.434-4.886 7.167-11.565 12.814-20.035 16.94-8.47 4.127-18.108 6.19-28.913 6.19z"/><path d="m-389.354 854.357h-51.473v-166.799h53.753c16.181 0 30.026 3.339 41.537 10.018 11.511 6.624 20.334 16.153 26.47 28.587 6.135 12.379 9.203 27.202 9.203 44.469 0 17.374-3.095 32.333-9.285 44.876-6.19 12.488-15.203 22.098-27.039 28.831-11.837 6.678-26.226 10.018-43.166 10.018zm-31.275-17.918h29.972c13.791 0 25.22-2.661 34.288-7.982 9.067-5.321 15.827-12.895 20.28-22.723 4.452-9.827 6.678-21.528 6.678-35.102 0-13.466-2.199-25.058-6.597-34.777-4.398-9.774-10.968-17.266-19.709-22.479-8.742-5.267-19.629-7.9-32.66-7.9h-32.252z"/><path d="m-171.096 854.357h-21.175l61.246-166.799h20.85l61.2463 166.799h-21.1755l-49.8438-140.411h-1.303zm7.819-65.156h85.354v17.918h-85.354z"/><path d="m-35.8748 854.357v-125.099h18.5694v18.895h1.3031c2.2804-6.19 6.40702-11.212 12.37962-15.067 5.97259-3.855 12.70532-5.783 20.19828-5.783 1.4116 0 3.1762.027 5.2938.082 2.1175.054 3.7193.135 4.8053.244v19.547c-.6516-.163-2.1448-.408-4.4795-.733-2.2805-.38-4.6966-.571-7.2485-.571-6.08122 0-11.51091 1.276-16.28899 3.828-4.72381 2.498-8.47027 5.973-11.23941 10.425-2.7148 4.398-4.0721 9.421-4.0721 15.068v79.164z"/><path d="m101.382 729.258v16.289h-64.8298v-16.289zm-45.9346-29.972h19.2209v119.235c0 5.43.7874 9.502 2.362 12.217 1.6289 2.66 3.6921 4.452 6.1897 5.375 2.5519.869 5.2395 1.303 8.063 1.303 2.1175 0 3.8551-.108 5.2125-.326 1.3574-.271 2.4433-.488 3.2578-.651l3.9097 17.266c-1.304.489-3.122.977-5.4572 1.466-2.3347.543-5.2939.815-8.8774.815-5.4297 0-10.7507-1.168-15.9632-3.503-5.1581-2.334-9.4476-5.891-12.8683-10.669-3.3663-4.778-5.0495-10.805-5.0495-18.081z"/><path d="m119.974 854.357v-125.099h19.221v125.099zm9.774-145.949c-3.747 0-6.977-1.276-9.692-3.828-2.661-2.552-3.991-5.62-3.991-9.203 0-3.584 1.33-6.651 3.991-9.203 2.715-2.552 5.945-3.828 9.692-3.828 3.746 0 6.95 1.276 9.61 3.828 2.715 2.552 4.072 5.619 4.072 9.203 0 3.583-1.357 6.651-4.072 9.203-2.66 2.552-5.864 3.828-9.61 3.828z"/><path d="m252.691 757.275-17.267 4.886c-1.085-2.877-2.687-5.674-4.805-8.388-2.063-2.769-4.887-5.05-8.47-6.842-3.584-1.792-8.172-2.687-13.764-2.687-7.656 0-14.036 1.764-19.14 5.294-5.049 3.474-7.574 7.9-7.574 13.275 0 4.778 1.737 8.552 5.212 11.321s8.905 5.076 16.289 6.923l18.57 4.56c11.185 2.715 19.519 6.869 25.003 12.461 5.484 5.539 8.226 12.679 8.226 21.42 0 7.167-2.063 13.574-6.19 19.221-4.072 5.647-9.773 10.099-17.103 13.357s-15.855 4.887-25.574 4.887c-12.759 0-23.32-2.769-31.682-8.307-8.361-5.539-13.655-13.629-15.881-24.271l18.243-4.561c1.738 6.733 5.023 11.783 9.855 15.149 4.887 3.366 11.267 5.049 19.14 5.049 8.958 0 16.071-1.9 21.338-5.701 5.321-3.855 7.982-8.47 7.982-13.845 0-4.344-1.521-7.982-4.561-10.914-3.041-2.986-7.71-5.212-14.009-6.678l-20.85-4.887c-11.456-2.715-19.872-6.923-25.247-12.624-5.321-5.755-7.982-12.95-7.982-21.583 0-7.058 1.982-13.302 5.946-18.732 4.017-5.43 9.474-9.692 16.37-12.787 6.95-3.095 14.823-4.642 23.619-4.642 12.379 0 22.098 2.715 29.157 8.144 7.113 5.43 12.162 12.597 15.149 21.502z"/><path d="m327.989 729.258v16.289h-64.83v-16.289zm-45.935-29.972h19.221v119.235c0 5.43.787 9.502 2.362 12.217 1.629 2.66 3.692 4.452 6.19 5.375 2.551.869 5.239 1.303 8.063 1.303 2.117 0 3.855-.108 5.212-.326 1.357-.271 2.443-.488 3.258-.651l3.909 17.266c-1.303.489-3.122.977-5.457 1.466-2.334.543-5.294.815-8.877.815-5.43 0-10.751-1.168-15.963-3.503-5.158-2.334-9.448-5.891-12.868-10.669-3.367-4.778-5.05-10.805-5.05-18.081z"/><path d="m432.953 757.275-17.266 4.886c-1.086-2.877-2.688-5.674-4.806-8.388-2.063-2.769-4.886-5.05-8.47-6.842-3.583-1.792-8.171-2.687-13.764-2.687-7.656 0-14.036 1.764-19.14 5.294-5.049 3.474-7.574 7.9-7.574 13.275 0 4.778 1.738 8.552 5.213 11.321s8.904 5.076 16.289 6.923l18.569 4.56c11.185 2.715 19.519 6.869 25.003 12.461 5.484 5.539 8.226 12.679 8.226 21.42 0 7.167-2.063 13.574-6.189 19.221-4.073 5.647-9.774 10.099-17.104 13.357s-15.854 4.887-25.573 4.887c-12.76 0-23.321-2.769-31.682-8.307-8.362-5.539-13.656-13.629-15.882-24.271l18.244-4.561c1.737 6.733 5.022 11.783 9.854 15.149 4.887 3.366 11.267 5.049 19.14 5.049 8.959 0 16.072-1.9 21.338-5.701 5.321-3.855 7.982-8.47 7.982-13.845 0-4.344-1.52-7.982-4.561-10.914-3.041-2.986-7.71-5.212-14.009-6.678l-20.849-4.887c-11.457-2.715-19.873-6.923-25.248-12.624-5.321-5.755-7.982-12.95-7.982-21.583 0-7.058 1.982-13.302 5.946-18.732 4.018-5.43 9.475-9.692 16.37-12.787 6.95-3.095 14.823-4.642 23.619-4.642 12.38 0 22.099 2.715 29.157 8.144 7.113 5.43 12.163 12.597 15.149 21.502z"/><path d="m605.111 761.999v17.917h-114.674v-17.917z"/><path d="m669.172 854.357v-166.799h56.36c13.085 0 23.782 2.362 32.089 7.086 8.362 4.669 14.552 10.995 18.57 18.976 4.017 7.982 6.026 16.887 6.026 26.714 0 9.828-2.009 18.76-6.026 26.795-3.964 8.036-10.1 14.443-18.407 19.221-8.307 4.724-18.949 7.086-31.926 7.086h-40.397v-17.918h39.745c8.959 0 16.153-1.547 21.583-4.642s9.366-7.276 11.81-12.543c2.497-5.321 3.746-11.32 3.746-17.999 0-6.678-1.249-12.651-3.746-17.918-2.444-5.266-6.408-9.393-11.892-12.379-5.483-3.041-12.759-4.561-21.827-4.561h-35.51v148.881z"/><path d="m821.048 779.102v75.255h-19.22v-166.799h19.22v61.246h1.629c2.932-6.461 7.33-11.592 13.194-15.393 5.919-3.855 13.792-5.782 23.619-5.782 8.525 0 15.991 1.71 22.398 5.131 6.407 3.366 11.375 8.552 14.904 15.556 3.583 6.95 5.375 15.8 5.375 26.551v79.49h-19.221v-78.187c0-9.936-2.579-17.619-7.737-23.049-5.104-5.484-12.189-8.226-21.257-8.226-6.298 0-11.945 1.33-16.94 3.991-4.941 2.66-8.851 6.543-11.728 11.647-2.824 5.103-4.236 11.293-4.236 18.569z"/><path d="m977.832 856.963c-11.294 0-21.203-2.688-29.727-8.063-8.471-5.375-15.095-12.895-19.873-22.56-4.724-9.665-7.086-20.959-7.086-33.881 0-13.031 2.362-24.406 7.086-34.126 4.778-9.719 11.402-17.266 19.873-22.641 8.524-5.375 18.433-8.063 29.727-8.063s21.175 2.688 29.648 8.063c8.52 5.375 15.15 12.922 19.87 22.641 4.78 9.72 7.17 21.095 7.17 34.126 0 12.922-2.39 24.216-7.17 33.881-4.72 9.665-11.35 17.185-19.87 22.56-8.473 5.375-18.354 8.063-29.648 8.063zm0-17.266c8.579 0 15.637-2.199 21.175-6.597 5.543-4.398 9.643-10.181 12.303-17.348s3.99-14.932 3.99-23.293c0-8.362-1.33-16.153-3.99-23.375-2.66-7.221-6.76-13.058-12.303-17.51-5.538-4.453-12.596-6.679-21.175-6.679s-15.638 2.226-21.176 6.679c-5.538 4.452-9.637 10.289-12.298 17.51-2.66 7.222-3.991 15.013-3.991 23.375 0 8.361 1.331 16.126 3.991 23.293 2.661 7.167 6.76 12.95 12.298 17.348s12.597 6.597 21.176 6.597z"/><path d="m1107.94 729.258v16.289h-64.83v-16.289zm-45.93-29.972h19.22v119.235c0 5.43.79 9.502 2.36 12.217 1.63 2.66 3.69 4.452 6.19 5.375 2.55.869 5.24 1.303 8.06 1.303 2.12 0 3.86-.108 5.22-.326 1.35-.271 2.44-.488 3.25-.651l3.91 17.266c-1.3.489-3.12.977-5.45 1.466-2.34.543-5.3.815-8.88.815-5.43 0-10.75-1.168-15.97-3.503-5.15-2.334-9.44-5.891-12.86-10.669-3.37-4.778-5.05-10.805-5.05-18.081z"/><path d="m1176.01 856.963c-11.29 0-21.2-2.688-29.73-8.063-8.47-5.375-15.09-12.895-19.87-22.56-4.72-9.665-7.08-20.959-7.08-33.881 0-13.031 2.36-24.406 7.08-34.126 4.78-9.719 11.4-17.266 19.87-22.641 8.53-5.375 18.44-8.063 29.73-8.063 11.3 0 21.18 2.688 29.65 8.063 8.52 5.375 15.15 12.922 19.87 22.641 4.78 9.72 7.17 21.095 7.17 34.126 0 12.922-2.39 24.216-7.17 33.881-4.72 9.665-11.35 17.185-19.87 22.56-8.47 5.375-18.35 8.063-29.65 8.063zm0-17.266c8.58 0 15.64-2.199 21.18-6.597s9.63-10.181 12.3-17.348c2.66-7.167 3.99-14.932 3.99-23.293 0-8.362-1.33-16.153-3.99-23.375-2.67-7.221-6.76-13.058-12.3-17.51-5.54-4.453-12.6-6.679-21.18-6.679s-15.64 2.226-21.17 6.679c-5.54 4.452-9.64 10.289-12.3 17.51-2.66 7.222-3.99 15.013-3.99 23.375 0 8.361 1.33 16.126 3.99 23.293s6.76 12.95 12.3 17.348c5.53 4.398 12.59 6.597 21.17 6.597z"/><path d="m1302.21 903.875c-9.28 0-17.26-1.195-23.94-3.584-6.68-2.334-12.25-5.429-16.7-9.284-4.4-3.801-7.9-7.873-10.5-12.217l15.31-10.751c1.73 2.281 3.93 4.887 6.59 7.819 2.66 2.986 6.3 5.565 10.92 7.737 4.67 2.226 10.78 3.339 18.32 3.339 10.1 0 18.44-2.443 25.01-7.33 6.57-4.886 9.85-12.542 9.85-22.967v-25.411h-1.63c-1.41 2.281-3.42 5.104-6.02 8.471-2.56 3.312-6.25 6.271-11.08 8.877-4.78 2.552-11.24 3.828-19.39 3.828-10.09 0-19.16-2.389-27.2-7.167-7.98-4.778-14.3-11.728-18.97-20.85-4.62-9.122-6.93-20.198-6.93-33.229 0-12.814 2.26-23.972 6.76-33.474 4.51-9.556 10.78-16.941 18.82-22.153 8.03-5.267 17.32-7.9 27.85-7.9 8.15 0 14.61 1.357 19.38 4.072 4.84 2.661 8.53 5.701 11.08 9.122 2.61 3.366 4.62 6.135 6.03 8.307h1.95v-19.872h18.57v128.682c0 10.751-2.44 19.493-7.33 26.225-4.83 6.787-11.35 11.756-19.54 14.905-8.15 3.203-17.22 4.805-27.21 4.805zm-.65-68.739c7.71 0 14.23-1.765 19.55-5.294s9.36-8.606 12.13-15.23 4.16-14.552 4.16-23.782c0-9.013-1.36-16.968-4.08-23.863-2.71-6.896-6.73-12.299-12.05-16.208s-11.89-5.864-19.71-5.864c-8.14 0-14.93 2.063-20.36 6.19-5.38 4.126-9.42 9.665-12.14 16.615-2.66 6.95-3.99 14.66-3.99 23.13 0 8.687 1.36 16.37 4.08 23.049 2.77 6.624 6.84 11.836 12.21 15.637 5.43 3.747 12.17 5.62 20.2 5.62z"/><path d="m1381.16 854.357v-125.099h18.56v18.895h1.31c2.28-6.19 6.4-11.212 12.38-15.067 5.97-3.855 12.7-5.783 20.2-5.783 1.41 0 3.17.027 5.29.082 2.12.054 3.72.135 4.8.244v19.547c-.65-.163-2.14-.408-4.47-.733-2.29-.38-4.7-.571-7.25-.571-6.08 0-11.51 1.276-16.29 3.828-4.73 2.498-8.47 5.973-11.24 10.425-2.72 4.398-4.07 9.421-4.07 15.068v79.164z"/><path d="m1492.98 857.289c-7.93 0-15.12-1.493-21.58-4.48-6.46-3.04-11.59-7.411-15.39-13.112-3.81-5.756-5.71-12.706-5.71-20.85 0-7.167 1.42-12.977 4.24-17.429 2.82-4.507 6.6-8.036 11.32-10.588s9.94-4.452 15.64-5.701c5.75-1.303 11.54-2.335 17.35-3.095 7.6-.977 13.76-1.71 18.48-2.199 4.78-.543 8.26-1.439 10.43-2.688 2.22-1.249 3.34-3.42 3.34-6.515v-.652c0-8.036-2.2-14.28-6.6-18.732-4.34-4.452-10.94-6.679-19.79-6.679-9.18 0-16.37 2.009-21.58 6.027-5.22 4.018-8.88 8.308-11 12.869l-18.24-6.516c3.26-7.602 7.6-13.52 13.03-17.755 5.48-4.289 11.46-7.276 17.92-8.959 6.51-1.737 12.92-2.606 19.22-2.606 4.02 0 8.63.489 13.84 1.466 5.27.923 10.35 2.85 15.23 5.782 4.94 2.932 9.04 7.358 12.3 13.276s4.89 13.845 4.89 23.782v82.422h-19.22v-16.941h-.98c-1.3 2.715-3.48 5.62-6.52 8.715s-7.08 5.728-12.13 7.9-11.21 3.258-18.49 3.258zm2.93-17.267c7.6 0 14.01-1.493 19.22-4.479 5.27-2.986 9.23-6.841 11.89-11.565 2.72-4.724 4.08-9.692 4.08-14.905v-17.592c-.82.978-2.61 1.874-5.38 2.688-2.71.76-5.86 1.439-9.45 2.036-3.53.543-6.97 1.032-10.34 1.466-3.31.38-6 .706-8.06.978-5 .651-9.67 1.71-14.01 3.176-4.29 1.412-7.77 3.556-10.43 6.434-2.6 2.823-3.9 6.678-3.9 11.565 0 6.679 2.47 11.728 7.41 15.149 4.99 3.366 11.32 5.049 18.97 5.049z"/><path d="m1575.08 901.269v-172.011h18.57v19.872h2.28c1.41-2.172 3.37-4.941 5.86-8.307 2.56-3.421 6.19-6.461 10.92-9.122 4.77-2.715 11.24-4.072 19.38-4.072 10.53 0 19.82 2.633 27.85 7.9 8.04 5.267 14.31 12.732 18.82 22.397s6.76 21.067 6.76 34.207c0 13.248-2.25 24.732-6.76 34.451-4.51 9.665-10.75 17.158-18.73 22.479-7.99 5.267-17.19 7.9-27.61 7.9-8.04 0-14.47-1.33-19.31-3.991-4.83-2.715-8.55-5.782-11.15-9.203-2.61-3.475-4.62-6.353-6.03-8.633h-1.63v66.133zm18.89-109.462c0 9.448 1.39 17.782 4.16 25.004 2.77 7.167 6.81 12.786 12.13 16.859 5.32 4.018 11.84 6.027 19.55 6.027 8.04 0 14.74-2.118 20.12-6.353 5.43-4.289 9.5-10.045 12.21-17.266 2.77-7.276 4.16-15.366 4.16-24.271 0-8.796-1.36-16.723-4.07-23.782-2.67-7.112-6.71-12.732-12.14-16.859-5.38-4.18-12.14-6.271-20.28-6.271-7.82 0-14.39 1.982-19.71 5.946-5.32 3.909-9.34 9.393-12.05 16.451-2.72 7.005-4.08 15.176-4.08 24.515z"/><path d="m1723.74 779.102v75.255h-19.22v-166.799h19.22v61.246h1.63c2.93-6.461 7.33-11.592 13.19-15.393 5.92-3.855 13.79-5.782 23.62-5.782 8.52 0 15.99 1.71 22.4 5.131 6.4 3.366 11.37 8.552 14.9 15.556 3.59 6.95 5.38 15.8 5.38 26.551v79.49h-19.22v-78.187c0-9.936-2.58-17.619-7.74-23.049-5.1-5.484-12.19-8.226-21.26-8.226-6.3 0-11.94 1.33-16.94 3.991-4.94 2.66-8.85 6.543-11.73 11.647-2.82 5.103-4.23 11.293-4.23 18.569z"/><path d="m1882.15 856.963c-12.05 0-22.45-2.661-31.19-7.982-8.69-5.375-15.4-12.868-20.12-22.478-4.67-9.665-7-20.904-7-33.718s2.33-24.108 7-33.881c4.72-9.828 11.29-17.484 19.71-22.968 8.47-5.538 18.35-8.307 29.65-8.307 6.51 0 12.95 1.086 19.3 3.258s12.13 5.701 17.35 10.587c5.21 4.833 9.36 11.24 12.46 19.221 3.09 7.982 4.64 17.81 4.64 29.483v8.145h-96.43v-16.615h76.88c0-7.058-1.41-13.357-4.23-18.895-2.77-5.538-6.73-9.909-11.89-13.113-5.11-3.203-11.13-4.805-18.08-4.805-7.66 0-14.28 1.901-19.88 5.701-5.53 3.747-9.8 8.633-12.78 14.66-2.99 6.027-4.48 12.488-4.48 19.384v11.077c0 9.447 1.63 17.456 4.88 24.026 3.32 6.515 7.9 11.483 13.77 14.904 5.86 3.366 12.68 5.05 20.44 5.05 5.05 0 9.61-.706 13.68-2.118 4.13-1.466 7.69-3.638 10.67-6.515 2.99-2.932 5.3-6.57 6.93-10.914l18.56 5.212c-1.95 6.299-5.23 11.837-9.85 16.615-4.61 4.724-10.32 8.416-17.1 11.077-6.79 2.606-14.42 3.909-22.89 3.909z"/><path d="m1952.87 854.357v-125.099h18.57v18.895h1.3c2.28-6.19 6.41-11.212 12.38-15.067s12.7-5.783 20.2-5.783c1.41 0 3.17.027 5.29.082 2.12.054 3.72.135 4.81.244v19.547c-.65-.163-2.15-.408-4.48-.733-2.28-.38-4.7-.571-7.25-.571-6.08 0-11.51 1.276-16.29 3.828-4.72 2.498-8.47 5.973-11.24 10.425-2.71 4.398-4.07 9.421-4.07 15.068v79.164z"/><path d="m2116.49 757.275-17.26 4.886c-1.09-2.877-2.69-5.674-4.81-8.388-2.06-2.769-4.89-5.05-8.47-6.842s-8.17-2.687-13.76-2.687c-7.66 0-14.04 1.764-19.14 5.294-5.05 3.474-7.58 7.9-7.58 13.275 0 4.778 1.74 8.552 5.21 11.321 3.48 2.769 8.91 5.076 16.29 6.923l18.57 4.56c11.19 2.715 19.52 6.869 25.01 12.461 5.48 5.539 8.22 12.679 8.22 21.42 0 7.167-2.06 13.574-6.19 19.221-4.07 5.647-9.77 10.099-17.1 13.357s-15.86 4.887-25.57 4.887c-12.76 0-23.32-2.769-31.69-8.307-8.36-5.539-13.65-13.629-15.88-24.271l18.25-4.561c1.73 6.733 5.02 11.783 9.85 15.149 4.89 3.366 11.27 5.049 19.14 5.049 8.96 0 16.07-1.9 21.34-5.701 5.32-3.855 7.98-8.47 7.98-13.845 0-4.344-1.52-7.982-4.56-10.914-3.04-2.986-7.71-5.212-14.01-6.678l-20.85-4.887c-11.46-2.715-19.87-6.923-25.25-12.624-5.32-5.755-7.98-12.95-7.98-21.583 0-7.058 1.98-13.302 5.95-18.732 4.01-5.43 9.47-9.692 16.37-12.787 6.95-3.095 14.82-4.642 23.62-4.642 12.38 0 22.09 2.715 29.15 8.144 7.12 5.43 12.17 12.597 15.15 21.502z"/><path d="m2288.65 761.999v17.917h-114.67v-17.917z"/><path d="m2359.55 854.357h-21.17l61.24-166.799h20.85l61.25 166.799h-21.18l-49.84-140.411h-1.3zm7.82-65.156h85.36v17.918h-85.36z"/><path d="m2494.77 854.357v-125.099h18.57v18.895h1.31c2.28-6.19 6.4-11.212 12.38-15.067 5.97-3.855 12.7-5.783 20.19-5.783 1.42 0 3.18.027 5.3.082 2.12.054 3.72.135 4.8.244v19.547c-.65-.163-2.14-.408-4.48-.733-2.28-.38-4.69-.571-7.24-.571-6.09 0-11.52 1.276-16.29 3.828-4.73 2.498-8.47 5.973-11.24 10.425-2.72 4.398-4.08 9.421-4.08 15.068v79.164z"/><path d="m2632.03 729.258v16.289h-64.83v-16.289zm-45.93-29.972h19.22v119.235c0 5.43.78 9.502 2.36 12.217 1.63 2.66 3.69 4.452 6.19 5.375 2.55.869 5.24 1.303 8.06 1.303 2.12 0 3.86-.108 5.21-.326 1.36-.271 2.45-.488 3.26-.651l3.91 17.266c-1.3.489-3.12.977-5.46 1.466-2.33.543-5.29.815-8.87.815-5.43 0-10.75-1.168-15.97-3.503-5.15-2.334-9.44-5.891-12.86-10.669-3.37-4.778-5.05-10.805-5.05-18.081z"/><path d="m2758.89 854.357h-51.48v-166.799h53.76c16.18 0 30.02 3.339 41.53 10.018 11.51 6.624 20.34 16.153 26.47 28.587 6.14 12.379 9.21 27.202 9.21 44.469 0 17.374-3.1 32.333-9.29 44.876-6.19 12.488-15.2 22.098-27.04 28.831-11.84 6.678-26.22 10.018-43.16 10.018zm-31.28-17.918h29.97c13.79 0 25.22-2.661 34.29-7.982s15.83-12.895 20.28-22.723c4.45-9.827 6.68-21.528 6.68-35.102 0-13.466-2.2-25.058-6.6-34.777-4.4-9.774-10.97-17.266-19.71-22.479-8.74-5.267-19.63-7.9-32.66-7.9h-32.25z"/><path d="m2859.33 854.357v-125.099h19.22v125.099zm9.77-145.949c-3.74 0-6.97-1.276-9.69-3.828-2.66-2.552-3.99-5.62-3.99-9.203 0-3.584 1.33-6.651 3.99-9.203 2.72-2.552 5.95-3.828 9.69-3.828 3.75 0 6.95 1.276 9.61 3.828 2.72 2.552 4.08 5.619 4.08 9.203 0 3.583-1.36 6.651-4.08 9.203-2.66 2.552-5.86 3.828-9.61 3.828z"/><path d="m2903.43 854.357v-125.099h18.57v18.895h1.31c2.28-6.19 6.4-11.212 12.38-15.067 5.97-3.855 12.7-5.783 20.19-5.783 1.42 0 3.18.027 5.3.082 2.12.054 3.72.135 4.8.244v19.547c-.65-.163-2.14-.408-4.48-.733-2.28-.38-4.69-.571-7.24-.571-6.09 0-11.52 1.276-16.29 3.828-4.73 2.498-8.47 5.973-11.24 10.425-2.72 4.398-4.07 9.421-4.07 15.068v79.164z"/><path d="m3027.09 856.963c-12.05 0-22.45-2.661-31.19-7.982-8.69-5.375-15.4-12.868-20.12-22.478-4.67-9.665-7-20.904-7-33.718s2.33-24.108 7-33.881c4.72-9.828 11.29-17.484 19.71-22.968 8.47-5.538 18.35-8.307 29.65-8.307 6.51 0 12.94 1.086 19.3 3.258 6.35 2.172 12.13 5.701 17.35 10.587 5.21 4.833 9.36 11.24 12.46 19.221 3.09 7.982 4.64 17.81 4.64 29.483v8.145h-96.43v-16.615h76.88c0-7.058-1.41-13.357-4.23-18.895-2.77-5.538-6.74-9.909-11.89-13.113-5.11-3.203-11.13-4.805-18.08-4.805-7.66 0-14.28 1.901-19.88 5.701-5.54 3.747-9.8 8.633-12.78 14.66-2.99 6.027-4.48 12.488-4.48 19.384v11.077c0 9.447 1.63 17.456 4.88 24.026 3.31 6.515 7.9 11.483 13.77 14.904 5.86 3.366 12.68 5.05 20.44 5.05 5.05 0 9.61-.706 13.68-2.118 4.13-1.466 7.69-3.638 10.67-6.515 2.99-2.932 5.3-6.57 6.92-10.914l18.57 5.212c-1.95 6.299-5.24 11.837-9.85 16.615-4.62 4.724-10.32 8.416-17.1 11.077-6.79 2.606-14.42 3.909-22.89 3.909z"/><path d="m3148.63 856.963c-11.73 0-21.83-2.769-30.3-8.307-8.47-5.539-14.99-13.167-19.55-22.886s-6.84-20.823-6.84-33.311c0-12.706 2.34-23.918 7.01-33.637 4.72-9.773 11.29-17.402 19.71-22.886 8.47-5.538 18.35-8.307 29.64-8.307 8.8 0 16.73 1.629 23.78 4.887 7.06 3.257 12.85 7.818 17.35 13.682 4.51 5.864 7.3 12.706 8.39 20.524h-19.22c-1.47-5.701-4.72-10.75-9.77-15.148-5-4.453-11.73-6.679-20.2-6.679-7.49 0-14.06 1.955-19.71 5.864-5.59 3.855-9.97 9.312-13.11 16.37-3.1 7.005-4.65 15.231-4.65 24.678 0 9.665 1.52 18.081 4.56 25.248 3.1 7.167 7.44 12.733 13.04 16.696 5.64 3.964 12.27 5.946 19.87 5.946 4.99 0 9.53-.869 13.6-2.607 4.07-1.737 7.52-4.235 10.34-7.492 2.83-3.258 4.84-7.168 6.03-11.729h19.22c-1.09 7.385-3.77 14.036-8.06 19.954-4.24 5.864-9.86 10.534-16.86 14.009-6.95 3.421-15.04 5.131-24.27 5.131z"/><path d="m3270 729.258v16.289h-64.83v-16.289zm-45.93-29.972h19.22v119.235c0 5.43.79 9.502 2.36 12.217 1.63 2.66 3.69 4.452 6.19 5.375 2.55.869 5.24 1.303 8.06 1.303 2.12 0 3.86-.108 5.22-.326 1.35-.271 2.44-.488 3.25-.651l3.91 17.266c-1.3.489-3.12.977-5.45 1.466-2.34.543-5.3.815-8.88.815-5.43 0-10.75-1.168-15.96-3.503-5.16-2.334-9.45-5.891-12.87-10.669-3.37-4.778-5.05-10.805-5.05-18.081z"/><path d="m3338.07 856.963c-11.29 0-21.2-2.688-29.72-8.063-8.47-5.375-15.1-12.895-19.88-22.56-4.72-9.665-7.08-20.959-7.08-33.881 0-13.031 2.36-24.406 7.08-34.126 4.78-9.719 11.41-17.266 19.88-22.641 8.52-5.375 18.43-8.063 29.72-8.063 11.3 0 21.18 2.688 29.65 8.063 8.52 5.375 15.15 12.922 19.87 22.641 4.78 9.72 7.17 21.095 7.17 34.126 0 12.922-2.39 24.216-7.17 33.881-4.72 9.665-11.35 17.185-19.87 22.56-8.47 5.375-18.35 8.063-29.65 8.063zm0-17.266c8.58 0 15.64-2.199 21.18-6.597s9.64-10.181 12.3-17.348 3.99-14.932 3.99-23.293c0-8.362-1.33-16.153-3.99-23.375-2.66-7.221-6.76-13.058-12.3-17.51-5.54-4.453-12.6-6.679-21.18-6.679s-15.63 2.226-21.17 6.679c-5.54 4.452-9.64 10.289-12.3 17.51-2.66 7.222-3.99 15.013-3.99 23.375 0 8.361 1.33 16.126 3.99 23.293s6.76 12.95 12.3 17.348 12.59 6.597 21.17 6.597z"/><path d="m3413.78 854.357v-125.099h18.57v18.895h1.3c2.28-6.19 6.41-11.212 12.38-15.067s12.71-5.783 20.2-5.783c1.41 0 3.17.027 5.29.082 2.12.054 3.72.135 4.81.244v19.547c-.65-.163-2.15-.408-4.48-.733-2.28-.38-4.7-.571-7.25-.571-6.08 0-11.51 1.276-16.29 3.828-4.72 2.498-8.47 5.973-11.24 10.425-2.71 4.398-4.07 9.421-4.07 15.068v79.164z"/><path d="m3577.4 757.275-17.26 4.886c-1.09-2.877-2.69-5.674-4.81-8.388-2.06-2.769-4.89-5.05-8.47-6.842s-8.17-2.687-13.76-2.687c-7.66 0-14.04 1.764-19.14 5.294-5.05 3.474-7.58 7.9-7.58 13.275 0 4.778 1.74 8.552 5.22 11.321 3.47 2.769 8.9 5.076 16.28 6.923l18.57 4.56c11.19 2.715 19.52 6.869 25.01 12.461 5.48 5.539 8.22 12.679 8.22 21.42 0 7.167-2.06 13.574-6.19 19.221-4.07 5.647-9.77 10.099-17.1 13.357s-15.85 4.887-25.57 4.887c-12.76 0-23.32-2.769-31.69-8.307-8.36-5.539-13.65-13.629-15.88-24.271l18.25-4.561c1.73 6.733 5.02 11.783 9.85 15.149 4.89 3.366 11.27 5.049 19.14 5.049 8.96 0 16.07-1.9 21.34-5.701 5.32-3.855 7.98-8.47 7.98-13.845 0-4.344-1.52-7.982-4.56-10.914-3.04-2.986-7.71-5.212-14.01-6.678l-20.85-4.887c-11.46-2.715-19.87-6.923-25.25-12.624-5.32-5.755-7.98-12.95-7.98-21.583 0-7.058 1.98-13.302 5.95-18.732 4.02-5.43 9.47-9.692 16.37-12.787 6.95-3.095 14.82-4.642 23.62-4.642 12.38 0 22.1 2.715 29.15 8.144 7.12 5.43 12.17 12.597 15.15 21.502z"/><path d="m115.615 1089v17.92h-114.674448v-17.92z"/><path d="m293.698 1066.68c-1.792-5.48-4.154-10.4-7.086-14.74-2.877-4.4-6.325-8.14-10.343-11.24-3.964-3.09-8.47-5.45-13.52-7.08s-10.588-2.45-16.615-2.45c-9.882 0-18.868 2.55-26.958 7.66-8.09 5.1-14.524 12.62-19.302 22.56s-7.167 22.12-7.167 36.57c0 14.44 2.416 26.63 7.248 36.57 4.833 9.93 11.375 17.45 19.628 22.56 8.253 5.1 17.538 7.65 27.855 7.65 9.556 0 17.972-2.03 25.247-6.11 7.33-4.12 13.031-9.93 17.104-17.43 4.126-7.54 6.189-16.42 6.189-26.63l6.19 1.31h-50.17v-17.92h63.527v17.92c0 13.73-2.932 25.68-8.796 35.83-5.81 10.15-13.846 18.03-24.108 23.62-10.207 5.54-21.935 8.31-35.183 8.31-14.769 0-27.746-3.48-38.931-10.43-11.131-6.95-19.818-16.83-26.062-29.64-6.19-12.82-9.285-28.02-9.285-45.61 0-13.2 1.765-25.06 5.294-35.59 3.583-10.59 8.633-19.6 15.149-27.04 6.515-7.44 14.225-13.14 23.13-17.11 8.904-3.96 18.705-5.94 29.401-5.94 8.796 0 16.995 1.33 24.597 3.99 7.655 2.6 14.47 6.32 20.442 11.16 6.027 4.77 11.049 10.5 15.067 17.18 4.018 6.63 6.787 13.98 8.308 22.07z"/><path d="m337.192 1181.36v-125.1h18.569v18.89h1.303c2.281-6.19 6.407-11.21 12.38-15.06 5.972-3.86 12.705-5.79 20.198-5.79 1.412 0 3.176.03 5.294.08 2.117.06 3.719.14 4.805.25v19.55c-.651-.17-2.144-.41-4.479-.74-2.281-.38-4.697-.57-7.249-.57-6.081 0-11.511 1.28-16.289 3.83-4.724 2.5-8.47 5.97-11.239 10.43-2.715 4.39-4.072 9.42-4.072 15.06v79.17z"/><path d="m449.018 1184.29c-7.928 0-15.122-1.49-21.583-4.48-6.461-3.04-11.592-7.41-15.393-13.11-3.801-5.76-5.701-12.71-5.701-20.85 0-7.17 1.411-12.98 4.235-17.43 2.823-4.51 6.597-8.04 11.321-10.59 4.723-2.55 9.936-4.45 15.637-5.7 5.755-1.3 11.538-2.34 17.348-3.1 7.601-.97 13.764-1.71 18.488-2.2 4.778-.54 8.253-1.43 10.425-2.68 2.226-1.25 3.339-3.42 3.339-6.52v-.65c0-8.04-2.199-14.28-6.597-18.73-4.344-4.45-10.941-6.68-19.791-6.68-9.176 0-16.371 2.01-21.583 6.03-5.212 4.01-8.878 8.3-10.995 12.86l-18.244-6.51c3.258-7.6 7.602-13.52 13.031-17.76 5.484-4.29 11.457-7.27 17.918-8.95 6.516-1.74 12.923-2.61 19.221-2.61 4.018 0 8.633.49 13.846 1.46 5.266.93 10.343 2.86 15.23 5.79 4.941 2.93 9.04 7.35 12.298 13.27s4.887 13.85 4.887 23.78v82.43h-19.221v-16.94h-.978c-1.303 2.71-3.475 5.62-6.515 8.71-3.041 3.1-7.086 5.73-12.136 7.9-5.049 2.17-11.212 3.26-18.487 3.26zm2.932-17.27c7.601 0 14.008-1.49 19.221-4.48 5.266-2.98 9.23-6.84 11.89-11.56 2.715-4.73 4.073-9.69 4.073-14.91v-17.59c-.815.98-2.606 1.87-5.376 2.69-2.714.76-5.863 1.44-9.447 2.04-3.529.54-6.977 1.03-10.344 1.46-3.312.38-5.999.71-8.063.98-4.995.65-9.664 1.71-14.008 3.17-4.29 1.42-7.764 3.56-10.425 6.44-2.606 2.82-3.909 6.68-3.909 11.56 0 6.68 2.47 11.73 7.411 15.15 4.995 3.37 11.321 5.05 18.977 5.05z"/><path d="m531.116 1228.27v-172.01h18.57v19.87h2.28c1.412-2.17 3.367-4.94 5.864-8.31 2.552-3.42 6.19-6.46 10.914-9.12 4.778-2.71 11.239-4.07 19.384-4.07 10.533 0 19.818 2.63 27.854 7.9 8.035 5.27 14.307 12.73 18.813 22.4 4.507 9.66 6.76 21.06 6.76 34.2 0 13.25-2.253 24.74-6.76 34.45-4.506 9.67-10.75 17.16-18.732 22.48-7.981 5.27-17.185 7.9-27.61 7.9-8.036 0-14.47-1.33-19.302-3.99-4.832-2.71-8.552-5.78-11.158-9.2-2.606-3.48-4.615-6.35-6.027-8.63h-1.629v66.13zm18.895-109.46c0 9.44 1.385 17.78 4.154 25 2.769 7.17 6.814 12.79 12.135 16.86 5.321 4.02 11.837 6.03 19.547 6.03 8.036 0 14.742-2.12 20.117-6.36 5.43-4.29 9.502-10.04 12.217-17.26 2.769-7.28 4.153-15.37 4.153-24.27 0-8.8-1.357-16.73-4.072-23.78-2.66-7.12-6.705-12.74-12.135-16.86-5.376-4.18-12.136-6.27-20.28-6.27-7.819 0-14.388 1.98-19.709 5.94-5.321 3.91-9.34 9.39-12.054 16.45-2.715 7.01-4.073 15.18-4.073 24.52z"/><path d="m679.776 1106.1v75.26h-19.221v-166.8h19.221v61.24h1.628c2.932-6.46 7.33-11.59 13.195-15.39 5.918-3.85 13.791-5.78 23.618-5.78 8.525 0 15.991 1.71 22.398 5.13 6.407 3.37 11.375 8.55 14.904 15.56 3.584 6.95 5.375 15.8 5.375 26.55v79.49h-19.221v-78.19c0-9.94-2.579-17.62-7.737-23.05-5.104-5.48-12.189-8.22-21.257-8.22-6.298 0-11.945 1.33-16.94 3.99-4.941 2.66-8.851 6.54-11.728 11.64-2.824 5.11-4.235 11.3-4.235 18.57z"/><path d="m785.737 1181.36v-125.1h19.221v125.1zm9.774-145.95c-3.747 0-6.977-1.28-9.692-3.83-2.661-2.55-3.991-5.62-3.991-9.2 0-3.59 1.33-6.65 3.991-9.21 2.715-2.55 5.945-3.82 9.692-3.82 3.746 0 6.949 1.27 9.61 3.82 2.715 2.56 4.072 5.62 4.072 9.21 0 3.58-1.357 6.65-4.072 9.2-2.661 2.55-5.864 3.83-9.61 3.83z"/><path d="m880.663 1183.96c-11.728 0-21.827-2.77-30.297-8.3-8.47-5.54-14.986-13.17-19.547-22.89s-6.841-20.82-6.841-33.31c0-12.71 2.335-23.92 7.004-33.64 4.724-9.77 11.294-17.4 19.71-22.88 8.47-5.54 18.352-8.31 29.646-8.31 8.796 0 16.723 1.63 23.781 4.89 7.059 3.25 12.842 7.81 17.348 13.68 4.507 5.86 7.303 12.7 8.389 20.52h-19.221c-1.466-5.7-4.724-10.75-9.773-15.15-4.996-4.45-11.728-6.67-20.199-6.67-7.492 0-14.062 1.95-19.709 5.86-5.593 3.85-9.964 9.31-13.113 16.37-3.095 7-4.642 15.23-4.642 24.68 0 9.66 1.52 18.08 4.561 25.25 3.094 7.16 7.438 12.73 13.031 16.69 5.647 3.96 12.271 5.95 19.872 5.95 4.996 0 9.529-.87 13.602-2.61 4.072-1.74 7.52-4.23 10.343-7.49s4.832-7.17 6.027-11.73h19.221c-1.086 7.38-3.774 14.04-8.063 19.95-4.235 5.87-9.855 10.54-16.859 14.01-6.95 3.42-15.04 5.13-24.271 5.13z"/><path d="m1004.42 1181.36v-166.8h20.2v148.88h77.54v17.92z"/><path d="m1172.95 1183.96c-12.05 0-22.45-2.66-31.19-7.98-8.69-5.37-15.39-12.87-20.12-22.48-4.66-9.66-7-20.9-7-33.72 0-12.81 2.34-24.1 7-33.88 4.73-9.82 11.3-17.48 19.71-22.96 8.47-5.54 18.36-8.31 29.65-8.31 6.52 0 12.95 1.08 19.3 3.26 6.36 2.17 12.14 5.7 17.35 10.58 5.21 4.84 9.37 11.24 12.46 19.23 3.1 7.98 4.64 17.8 4.64 29.48v8.14h-96.43v-16.61h76.89c0-7.06-1.41-13.36-4.24-18.9-2.77-5.54-6.73-9.91-11.89-13.11-5.1-3.2-11.13-4.8-18.08-4.8-7.66 0-14.28 1.9-19.87 5.7-5.54 3.74-9.8 8.63-12.79 14.66-2.99 6.02-4.48 12.48-4.48 19.38v11.08c0 9.44 1.63 17.45 4.89 24.02 3.31 6.52 7.9 11.49 13.76 14.91 5.87 3.36 12.68 5.05 20.44 5.05 5.05 0 9.62-.71 13.69-2.12 4.12-1.47 7.68-3.64 10.67-6.52 2.98-2.93 5.29-6.57 6.92-10.91l18.57 5.21c-1.96 6.3-5.24 11.84-9.86 16.62-4.61 4.72-10.31 8.41-17.1 11.07-6.79 2.61-14.41 3.91-22.89 3.91z"/><path d="m1280.48 1184.29c-7.92 0-15.12-1.49-21.58-4.48-6.46-3.04-11.59-7.41-15.39-13.11-3.8-5.76-5.7-12.71-5.7-20.85 0-7.17 1.41-12.98 4.23-17.43 2.83-4.51 6.6-8.04 11.32-10.59 4.73-2.55 9.94-4.45 15.64-5.7 5.76-1.3 11.54-2.34 17.35-3.1 7.6-.97 13.76-1.71 18.49-2.2 4.77-.54 8.25-1.43 10.42-2.68 2.23-1.25 3.34-3.42 3.34-6.52v-.65c0-8.04-2.2-14.28-6.6-18.73-4.34-4.45-10.94-6.68-19.79-6.68-9.17 0-16.37 2.01-21.58 6.03-5.21 4.01-8.88 8.3-11 12.86l-18.24-6.51c3.26-7.6 7.6-13.52 13.03-17.76 5.49-4.29 11.46-7.27 17.92-8.95 6.52-1.74 12.92-2.61 19.22-2.61 4.02 0 8.63.49 13.85 1.46 5.26.93 10.34 2.86 15.23 5.79 4.94 2.93 9.04 7.35 12.29 13.27 3.26 5.92 4.89 13.85 4.89 23.78v82.43h-19.22v-16.94h-.98c-1.3 2.71-3.47 5.62-6.51 8.71-3.04 3.1-7.09 5.73-12.14 7.9s-11.21 3.26-18.49 3.26zm2.94-17.27c7.6 0 14.01-1.49 19.22-4.48 5.26-2.98 9.23-6.84 11.89-11.56 2.71-4.73 4.07-9.69 4.07-14.91v-17.59c-.81.98-2.61 1.87-5.37 2.69-2.72.76-5.87 1.44-9.45 2.04-3.53.54-6.98 1.03-10.35 1.46-3.31.38-6 .71-8.06.98-4.99.65-9.66 1.71-14.01 3.17-4.29 1.42-7.76 3.56-10.42 6.44-2.61 2.82-3.91 6.68-3.91 11.56 0 6.68 2.47 11.73 7.41 15.15 5 3.37 11.32 5.05 18.98 5.05z"/><path d="m1409.82 1183.96c-10.42 0-19.63-2.63-27.61-7.9-7.98-5.32-14.22-12.81-18.73-22.48-4.51-9.71-6.76-21.2-6.76-34.45 0-13.14 2.25-24.54 6.76-34.2 4.51-9.67 10.78-17.13 18.81-22.4 8.04-5.27 17.32-7.9 27.86-7.9 8.14 0 14.58 1.36 19.3 4.07 4.78 2.66 8.42 5.7 10.91 9.12 2.55 3.37 4.54 6.14 5.95 8.31h1.63v-61.57h19.22v166.8h-18.57v-19.22h-2.28c-1.41 2.28-3.42 5.15-6.03 8.63-2.6 3.42-6.32 6.49-11.16 9.2-4.83 2.66-11.26 3.99-19.3 3.99zm2.61-17.26c7.71 0 14.22-2.01 19.54-6.03 5.33-4.07 9.37-9.69 12.14-16.86 2.77-7.22 4.15-15.56 4.15-25 0-9.34-1.35-17.51-4.07-24.52-2.71-7.06-6.73-12.54-12.05-16.45-5.32-3.96-11.89-5.94-19.71-5.94-8.15 0-14.93 2.09-20.36 6.27-5.38 4.12-9.42 9.74-12.14 16.86-2.66 7.05-3.99 14.98-3.99 23.78 0 8.9 1.36 16.99 4.07 24.27 2.77 7.22 6.84 12.97 12.22 17.26 5.43 4.24 12.16 6.36 20.2 6.36z"/><path d="m1583.32 1084.27-17.27 4.89c-1.08-2.88-2.68-5.67-4.8-8.39-2.06-2.77-4.89-5.05-8.47-6.84s-8.17-2.69-13.76-2.69c-7.66 0-14.04 1.77-19.14 5.3-5.05 3.47-7.58 7.9-7.58 13.27 0 4.78 1.74 8.55 5.21 11.32 3.48 2.77 8.91 5.08 16.29 6.93l18.57 4.56c11.19 2.71 19.52 6.87 25.01 12.46 5.48 5.54 8.22 12.68 8.22 21.42 0 7.17-2.06 13.57-6.19 19.22-4.07 5.65-9.77 10.1-17.1 13.36-7.33 3.25-15.86 4.88-25.58 4.88-12.76 0-23.32-2.77-31.68-8.3-8.36-5.54-13.65-13.63-15.88-24.27l18.24-4.57c1.74 6.74 5.03 11.79 9.86 15.15 4.89 3.37 11.27 5.05 19.14 5.05 8.96 0 16.07-1.9 21.34-5.7 5.32-3.85 7.98-8.47 7.98-13.84 0-4.35-1.52-7.99-4.56-10.92-3.04-2.98-7.71-5.21-14.01-6.68l-20.85-4.88c-11.46-2.72-19.87-6.93-25.25-12.63-5.32-5.75-7.98-12.95-7.98-21.58 0-7.06 1.98-13.3 5.95-18.73 4.01-5.43 9.47-9.69 16.37-12.79 6.95-3.09 14.82-4.64 23.62-4.64 12.37 0 22.09 2.71 29.15 8.14 7.11 5.43 12.16 12.6 15.15 21.5z"/><path d="m1755.48 1089v17.92h-114.67v-17.92z"/><path d="m1826.38 1181.36h-21.17l61.24-166.8h20.85l61.25 166.8h-21.18l-49.84-140.41h-1.3zm7.82-65.16h85.35v17.92h-85.35z"/><path d="m1961.6 1181.36v-125.1h18.57v18.89h1.3c2.29-6.19 6.41-11.21 12.38-15.06 5.98-3.86 12.71-5.79 20.2-5.79 1.41 0 3.18.03 5.3.08 2.11.06 3.72.14 4.8.25v19.55c-.65-.17-2.14-.41-4.48-.74-2.28-.38-4.69-.57-7.25-.57-6.08 0-11.51 1.28-16.29 3.83-4.72 2.5-8.47 5.97-11.23 10.43-2.72 4.39-4.08 9.42-4.08 15.06v79.17z"/><path d="m2098.86 1056.26v16.29h-64.83v-16.29zm-45.94-29.97h19.23v119.23c0 5.43.78 9.5 2.36 12.22 1.63 2.66 3.69 4.45 6.19 5.37 2.55.87 5.24 1.31 8.06 1.31 2.12 0 3.86-.11 5.21-.33 1.36-.27 2.45-.49 3.26-.65l3.91 17.27c-1.3.48-3.12.97-5.46 1.46-2.33.54-5.29.82-8.87.82-5.43 0-10.76-1.17-15.97-3.51-5.16-2.33-9.45-5.89-12.87-10.67-3.36-4.77-5.05-10.8-5.05-18.08z"/><path d="m2225.71 1181.36h-51.47v-166.8h53.75c16.18 0 30.03 3.34 41.54 10.02 11.51 6.62 20.34 16.15 26.47 28.58 6.14 12.38 9.2 27.21 9.2 44.47 0 17.38-3.09 32.34-9.28 44.88-6.19 12.49-15.2 22.1-27.04 28.83-11.84 6.68-26.23 10.02-43.17 10.02zm-31.27-17.92h29.97c13.79 0 25.22-2.66 34.29-7.98s15.83-12.9 20.28-22.73c4.45-9.82 6.68-21.52 6.68-35.1 0-13.46-2.2-25.06-6.6-34.78-4.4-9.77-10.97-17.26-19.71-22.47-8.74-5.27-19.63-7.9-32.66-7.9h-32.25z"/><path d="m2326.16 1181.36v-125.1h19.22v125.1zm9.77-145.95c-3.75 0-6.98-1.28-9.69-3.83-2.66-2.55-3.99-5.62-3.99-9.2 0-3.59 1.33-6.65 3.99-9.21 2.71-2.55 5.94-3.82 9.69-3.82s6.95 1.27 9.61 3.82c2.72 2.56 4.07 5.62 4.07 9.21 0 3.58-1.35 6.65-4.07 9.2-2.66 2.55-5.86 3.83-9.61 3.83z"/><path d="m2370.26 1181.36v-125.1h18.57v18.89h1.3c2.29-6.19 6.41-11.21 12.38-15.06 5.98-3.86 12.71-5.79 20.2-5.79 1.41 0 3.18.03 5.3.08 2.11.06 3.72.14 4.8.25v19.55c-.65-.17-2.14-.41-4.48-.74-2.28-.38-4.69-.57-7.25-.57-6.08 0-11.51 1.28-16.28 3.83-4.73 2.5-8.48 5.97-11.24 10.43-2.72 4.39-4.08 9.42-4.08 15.06v79.17z"/><path d="m2493.92 1183.96c-12.06 0-22.45-2.66-31.19-7.98-8.69-5.37-15.4-12.87-20.12-22.48-4.67-9.66-7.01-20.9-7.01-33.72 0-12.81 2.34-24.1 7.01-33.88 4.72-9.82 11.29-17.48 19.71-22.96 8.47-5.54 18.35-8.31 29.64-8.31 6.52 0 12.95 1.08 19.31 3.26 6.35 2.17 12.13 5.7 17.34 10.58 5.22 4.84 9.37 11.24 12.46 19.23 3.1 7.98 4.65 17.8 4.65 29.48v8.14h-96.43v-16.61h76.88c0-7.06-1.41-13.36-4.23-18.9-2.77-5.54-6.74-9.91-11.9-13.11-5.1-3.2-11.13-4.8-18.08-4.8-7.65 0-14.28 1.9-19.87 5.7-5.54 3.74-9.8 8.63-12.79 14.66-2.98 6.02-4.48 12.48-4.48 19.38v11.08c0 9.44 1.63 17.45 4.89 24.02 3.31 6.52 7.9 11.49 13.77 14.91 5.86 3.36 12.67 5.05 20.44 5.05 5.05 0 9.61-.71 13.68-2.12 4.13-1.47 7.68-3.64 10.67-6.52 2.99-2.93 5.29-6.57 6.92-10.91l18.57 5.21c-1.95 6.3-5.24 11.84-9.85 16.62-4.62 4.72-10.32 8.41-17.11 11.07-6.78 2.61-14.41 3.91-22.88 3.91z"/><path d="m2615.46 1183.96c-11.73 0-21.83-2.77-30.3-8.3-8.47-5.54-14.99-13.17-19.55-22.89s-6.84-20.82-6.84-33.31c0-12.71 2.34-23.92 7.01-33.64 4.72-9.77 11.29-17.4 19.71-22.88 8.47-5.54 18.35-8.31 29.64-8.31 8.8 0 16.72 1.63 23.78 4.89 7.06 3.25 12.84 7.81 17.35 13.68 4.51 5.86 7.3 12.7 8.39 20.52h-19.22c-1.47-5.7-4.73-10.75-9.77-15.15-5-4.45-11.73-6.67-20.2-6.67-7.5 0-14.07 1.95-19.71 5.86-5.59 3.85-9.97 9.31-13.12 16.37-3.09 7-4.64 15.23-4.64 24.68 0 9.66 1.52 18.08 4.56 25.25 3.1 7.16 7.44 12.73 13.03 16.69 5.65 3.96 12.28 5.95 19.88 5.95 4.99 0 9.53-.87 13.6-2.61s7.52-4.23 10.34-7.49c2.83-3.26 4.83-7.17 6.03-11.73h19.22c-1.09 7.38-3.77 14.04-8.06 19.95-4.24 5.87-9.86 10.54-16.86 14.01-6.95 3.42-15.04 5.13-24.27 5.13z"/><path d="m2736.83 1056.26v16.29h-64.83v-16.29zm-45.93-29.97h19.22v119.23c0 5.43.78 9.5 2.36 12.22 1.63 2.66 3.69 4.45 6.19 5.37 2.55.87 5.24 1.31 8.06 1.31 2.12 0 3.86-.11 5.21-.33 1.36-.27 2.45-.49 3.26-.65l3.91 17.27c-1.3.48-3.12.97-5.45 1.46-2.34.54-5.3.82-8.88.82-5.43 0-10.75-1.17-15.97-3.51-5.15-2.33-9.44-5.89-12.86-10.67-3.37-4.77-5.05-10.8-5.05-18.08z"/><path d="m2804.9 1183.96c-11.29 0-21.2-2.68-29.73-8.06-8.47-5.38-15.09-12.9-19.87-22.56-4.72-9.67-7.08-20.96-7.08-33.88 0-13.03 2.36-24.41 7.08-34.13 4.78-9.72 11.4-17.26 19.87-22.64 8.53-5.37 18.44-8.06 29.73-8.06 11.3 0 21.18 2.69 29.65 8.06 8.52 5.38 15.15 12.92 19.87 22.64 4.78 9.72 7.17 21.1 7.17 34.13 0 12.92-2.39 24.21-7.17 33.88-4.72 9.66-11.35 17.18-19.87 22.56-8.47 5.38-18.35 8.06-29.65 8.06zm0-17.26c8.58 0 15.64-2.2 21.18-6.6s9.63-10.18 12.3-17.35c2.66-7.17 3.99-14.93 3.99-23.29s-1.33-16.15-3.99-23.38c-2.67-7.22-6.76-13.05-12.3-17.51-5.54-4.45-12.6-6.67-21.18-6.67s-15.64 2.22-21.17 6.67c-5.54 4.46-9.64 10.29-12.3 17.51-2.66 7.23-3.99 15.02-3.99 23.38s1.33 16.12 3.99 23.29 6.76 12.95 12.3 17.35c5.53 4.4 12.59 6.6 21.17 6.6z"/><path d="m2880.61 1181.36v-125.1h18.57v18.89h1.3c2.28-6.19 6.41-11.21 12.38-15.06 5.97-3.86 12.7-5.79 20.2-5.79 1.41 0 3.17.03 5.29.08 2.12.06 3.72.14 4.81.25v19.55c-.66-.17-2.15-.41-4.48-.74-2.28-.38-4.7-.57-7.25-.57-6.08 0-11.51 1.28-16.29 3.83-4.72 2.5-8.47 5.97-11.24 10.43-2.71 4.39-4.07 9.42-4.07 15.06v79.17z"/><path d="m3044.23 1084.27-17.26 4.89c-1.09-2.88-2.69-5.67-4.81-8.39-2.06-2.77-4.89-5.05-8.47-6.84s-8.17-2.69-13.76-2.69c-7.66 0-14.04 1.77-19.14 5.3-5.05 3.47-7.58 7.9-7.58 13.27 0 4.78 1.74 8.55 5.21 11.32 3.48 2.77 8.91 5.08 16.29 6.93l18.57 4.56c11.19 2.71 19.52 6.87 25.01 12.46 5.48 5.54 8.22 12.68 8.22 21.42 0 7.17-2.06 13.57-6.19 19.22-4.07 5.65-9.77 10.1-17.1 13.36-7.33 3.25-15.86 4.88-25.57 4.88-12.76 0-23.32-2.77-31.69-8.3-8.36-5.54-13.65-13.63-15.88-24.27l18.25-4.57c1.73 6.74 5.02 11.79 9.85 15.15 4.89 3.37 11.27 5.05 19.14 5.05 8.96 0 16.07-1.9 21.34-5.7 5.32-3.85 7.98-8.47 7.98-13.84 0-4.35-1.52-7.99-4.56-10.92-3.04-2.98-7.71-5.21-14.01-6.68l-20.85-4.88c-11.46-2.72-19.87-6.93-25.25-12.63-5.32-5.75-7.98-12.95-7.98-21.58 0-7.06 1.98-13.3 5.95-18.73 4.01-5.43 9.47-9.69 16.37-12.79 6.95-3.09 14.82-4.64 23.62-4.64 12.38 0 22.09 2.71 29.15 8.14 7.12 5.43 12.17 12.6 15.15 21.5z"/></g></g></svg>