<svg fill="none" height="926" viewBox="0 0 632 926" width="632" xmlns="http://www.w3.org/2000/svg"><path d="m0 0h632v926h-632z" fill="#372fff"/><g fill="#a5a1ff"><circle cx="213.433" cy="297.763" r="8.58357"/><circle cx="249.483" cy="297.763" r="8.58357"/><circle cx="285.534" cy="297.763" r="8.58357"/><circle cx="321.585" cy="297.763" r="8.58357"/><circle cx="357.635" cy="297.763" r="8.58357"/><circle cx="393.687" cy="297.763" r="8.58357"/><circle cx="429.738" cy="297.763" r="8.58357"/><circle cx="213.431" cy="332.095" r="8.58357"/><circle cx="249.482" cy="332.095" r="8.58357"/><circle cx="285.534" cy="332.095" r="8.58357"/><circle cx="321.585" cy="332.095" r="8.58357"/><circle cx="357.635" cy="332.095" r="8.58357"/></g><circle cx="393.685" cy="332.095" fill="#ffb8a9" r="8.58357"/><circle cx="429.738" cy="332.095" fill="#a5a1ff" r="8.58357"/><circle cx="213.431" cy="366.435" fill="#a5a1ff" r="8.58357"/><circle cx="249.482" cy="366.435" fill="#a5a1ff" r="8.58357"/><circle cx="285.534" cy="366.435" fill="#a5a1ff" r="8.58357"/><circle cx="321.585" cy="366.435" fill="#a5a1ff" r="8.58357"/><circle cx="357.635" cy="366.435" fill="#ffb8a9" r="8.58357"/><circle cx="393.685" cy="366.435" fill="#ffb8a9" r="8.58357"/><circle cx="429.738" cy="366.435" fill="#a5a1ff" r="8.58357"/><circle cx="213.431" cy="400.771" fill="#a5a1ff" r="8.58357"/><circle cx="249.482" cy="400.771" fill="#a5a1ff" r="8.58357"/><circle cx="285.534" cy="400.771" fill="#a5a1ff" r="8.58357"/><circle cx="321.585" cy="400.771" fill="#ffb8a9" r="8.58357"/><circle cx="357.635" cy="400.771" fill="#ffb8a9" r="8.58357"/><circle cx="393.685" cy="400.771" fill="#a5a1ff" r="8.58357"/><circle cx="429.738" cy="400.771" fill="#a5a1ff" r="8.58357"/><circle cx="213.431" cy="435.103" fill="#a5a1ff" r="8.58357"/><circle cx="249.482" cy="435.103" fill="#a5a1ff" r="8.58357"/><circle cx="285.534" cy="435.103" fill="#ffb8a9" r="8.58357"/><circle cx="321.585" cy="435.103" fill="#ffb8a9" r="8.58357"/><circle cx="357.635" cy="435.103" fill="#a5a1ff" r="8.58357"/><circle cx="393.686" cy="435.103" fill="#a5a1ff" r="8.58357"/><circle cx="429.738" cy="435.103" fill="#a5a1ff" r="8.58357"/><circle cx="213.431" cy="469.427" fill="#a5a1ff" r="8.58357"/><circle cx="249.482" cy="469.427" fill="#a5a1ff" r="8.58357"/><circle cx="285.534" cy="469.427" fill="#ffb8a9" r="8.58357"/><circle cx="321.585" cy="469.427" fill="#a5a1ff" r="8.58357"/><circle cx="357.635" cy="469.427" fill="#a5a1ff" r="8.58357"/><circle cx="393.685" cy="469.427" fill="#a5a1ff" r="8.58357"/><circle cx="429.738" cy="469.427" fill="#a5a1ff" r="8.58357"/><circle cx="213.431" cy="503.767" fill="#a5a1ff" r="8.58357"/><circle cx="249.482" cy="503.767" fill="#a5a1ff" r="8.58357"/><circle cx="285.534" cy="503.767" fill="#a5a1ff" r="8.58357"/><circle cx="321.585" cy="503.767" fill="#a5a1ff" r="8.58357"/><circle cx="357.635" cy="503.767" fill="#a5a1ff" r="8.58357"/><circle cx="393.685" cy="503.767" fill="#a5a1ff" r="8.58357"/><circle cx="429.738" cy="503.767" fill="#a5a1ff" r="8.58357"/><path d="m78.439 858.969h-10.8452v-32.005h11.064c3.1775 0 5.9071.641 8.1887 1.922 2.2919 1.271 4.0526 3.1 5.2819 5.486 1.2294 2.385 1.844 5.24 1.844 8.563 0 3.334-.6198 6.199-1.8596 8.595-1.2293 2.396-3.0056 4.235-5.3289 5.517-2.3128 1.281-5.0944 1.922-8.3449 1.922zm-5.0476-5.017h4.7663c2.2295 0 4.0891-.406 5.5789-1.218 1.4898-.824 2.6098-2.048 3.3599-3.673.7501-1.636 1.1251-3.677 1.1251-6.126 0-2.448-.375-4.48-1.1251-6.094-.7501-1.626-1.8597-2.839-3.3286-3.641-1.4585-.813-3.2713-1.219-5.4383-1.219h-4.9382zm23.8593 5.017v-24.004h5.6573v24.004zm2.8443-27.41c-.8961 0-1.667-.297-2.313-.891-.6459-.604-.9688-1.328-.9688-2.172 0-.855.3229-1.579.9688-2.172.646-.605 1.4169-.907 2.313-.907.906 0 1.677.302 2.313.907.646.593.969 1.317.969 2.172 0 .844-.323 1.568-.969 2.172-.636.594-1.407.891-2.313.891zm25.621 9.751-5.157.563c-.146-.521-.401-1.011-.766-1.469-.354-.459-.833-.829-1.437-1.11-.605-.281-1.344-.422-2.219-.422-1.178 0-2.167.255-2.97.766-.791.51-1.182 1.172-1.172 1.985-.01.698.245 1.265.766 1.703.531.438 1.407.797 2.626 1.078l4.094.875c2.271.49 3.959 1.266 5.063 2.329 1.115 1.062 1.677 2.453 1.688 4.172-.011 1.511-.453 2.844-1.329 4.001-.864 1.146-2.068 2.042-3.609 2.688-1.542.646-3.313.969-5.314.969-2.938 0-5.302-.615-7.094-1.844-1.792-1.24-2.86-2.964-3.204-5.173l5.516-.531c.25 1.083.782 1.901 1.594 2.453.813.552 1.87.828 3.173.828 1.344 0 2.422-.276 3.235-.828.823-.552 1.234-1.234 1.234-2.047 0-.688-.266-1.255-.797-1.703-.521-.448-1.333-.792-2.438-1.032l-4.094-.859c-2.302-.48-4.006-1.287-5.11-2.423-1.104-1.146-1.651-2.594-1.641-4.344-.01-1.479.391-2.761 1.203-3.844.823-1.094 1.964-1.938 3.423-2.532 1.469-.604 3.162-.906 5.078-.906 2.813 0 5.027.599 6.642 1.797 1.625 1.198 2.631 2.818 3.016 4.86zm13.67 18.128c-2.396 0-4.453-.527-6.172-1.579-1.709-1.052-3.027-2.505-3.954-4.36-.917-1.865-1.375-4.011-1.375-6.438 0-2.438.469-4.589 1.406-6.454.938-1.875 2.261-3.334 3.97-4.376 1.719-1.052 3.75-1.578 6.094-1.578 1.948 0 3.673.359 5.173 1.078 1.51.709 2.714 1.714 3.61 3.016.896 1.292 1.406 2.803 1.531 4.532h-5.407c-.219-1.156-.74-2.12-1.563-2.891-.812-.781-1.901-1.172-3.266-1.172-1.156 0-2.172.313-3.047.938-.875.614-1.557 1.5-2.047 2.656-.479 1.157-.719 2.542-.719 4.157 0 1.636.24 3.042.719 4.219.479 1.167 1.151 2.068 2.016 2.704.875.625 1.901.938 3.078.938.834 0 1.579-.157 2.235-.469.667-.323 1.224-.787 1.672-1.391s.755-1.339.922-2.204h5.407c-.135 1.699-.635 3.204-1.5 4.517-.865 1.302-2.042 2.323-3.532 3.063-1.49.729-3.24 1.094-5.251 1.094zm23.418 0c-2.344 0-4.375-.516-6.094-1.548-1.719-1.031-3.053-2.474-4.001-4.328-.938-1.855-1.406-4.022-1.406-6.501 0-2.48.468-4.652 1.406-6.517.948-1.865 2.282-3.313 4.001-4.344s3.75-1.547 6.094-1.547 4.376.516 6.095 1.547 3.047 2.479 3.985 4.344c.948 1.865 1.422 4.037 1.422 6.517 0 2.479-.474 4.646-1.422 6.501-.938 1.854-2.266 3.297-3.985 4.328-1.719 1.032-3.751 1.548-6.095 1.548zm.031-4.532c1.271 0 2.334-.349 3.188-1.047.855-.709 1.49-1.657 1.907-2.844.427-1.188.641-2.511.641-3.97 0-1.469-.214-2.797-.641-3.985-.417-1.198-1.052-2.151-1.907-2.859-.854-.709-1.917-1.063-3.188-1.063-1.302 0-2.385.354-3.25 1.063-.854.708-1.495 1.661-1.922 2.859-.417 1.188-.625 2.516-.625 3.985 0 1.459.208 2.782.625 3.97.427 1.187 1.068 2.135 1.922 2.844.865.698 1.948 1.047 3.25 1.047zm34.916-19.941-8.548 24.004h-6.251l-8.548-24.004h6.032l5.516 17.831h.25l5.533-17.831zm11.744 24.473c-2.406 0-4.485-.501-6.235-1.501-1.74-1.01-3.079-2.437-4.016-4.281-.938-1.855-1.407-4.038-1.407-6.548 0-2.469.469-4.636 1.407-6.501.948-1.875 2.271-3.334 3.969-4.376 1.698-1.052 3.693-1.578 5.985-1.578 1.48 0 2.876.239 4.188.719 1.324.469 2.49 1.198 3.501 2.188 1.021.989 1.823 2.25 2.407 3.781.583 1.521.875 3.334.875 5.439v1.734h-19.675v-3.813h14.252c-.01-1.083-.245-2.047-.703-2.891-.459-.854-1.099-1.526-1.922-2.016-.813-.489-1.761-.734-2.845-.734-1.156 0-2.172.281-3.047.844-.875.552-1.557 1.281-2.047 2.187-.479.896-.724 1.881-.734 2.954v3.329c0 1.396.255 2.594.765 3.594.511.989 1.224 1.75 2.141 2.281.917.521 1.99.782 3.219.782.823 0 1.568-.115 2.235-.344.667-.24 1.245-.589 1.735-1.047.489-.459.859-1.026 1.109-1.703l5.282.593c-.333 1.396-.969 2.615-1.906 3.657-.928 1.032-2.115 1.834-3.563 2.407-1.448.562-3.105.844-4.97.844zm13.479-.469v-24.004h5.485v4.001h.25c.438-1.386 1.188-2.454 2.251-3.204 1.073-.76 2.297-1.14 3.672-1.14.313 0 .662.015 1.047.046.396.021.724.058.985.11v5.204c-.24-.084-.62-.157-1.141-.219-.511-.073-1.006-.109-1.485-.109-1.031 0-1.958.224-2.781.672-.813.437-1.454 1.047-1.923 1.828-.468.781-.703 1.682-.703 2.703v14.112zm16.202.344c-.948 0-1.761-.334-2.438-1.001-.677-.666-1.01-1.479-1-2.437-.01-.938.323-1.74 1-2.407s1.49-1 2.438-1c.917 0 1.714.333 2.391 1 .688.667 1.037 1.469 1.047 2.407-.01.635-.177 1.213-.5 1.734-.312.521-.729.938-1.25 1.25-.511.302-1.073.454-1.688.454z" fill="#a5a1ff"/><ellipse cx="571.386" cy="49.2136" fill="#fff" rx="7.79842" ry="7.85813"/><ellipse cx="548.403" cy="49.2136" fill="#fff" rx="7.79841" ry="7.85813"/></svg>