<svg fill="none" height="1040" viewBox="0 0 1084 1040" width="1084" xmlns="http://www.w3.org/2000/svg"><g stroke="#372fff" stroke-width="1.47612"><path d="m533.932 80.5624h311.092l-155.546 269.4136z"/><path d="m73.8216 80.5624h311.0924l-155.546 269.4136z"/><path d="m303.848 351.349 155.546-269.4139 155.546 269.4139z"/><path d="m763.292 351.349 155.546-269.4139 155.542 269.4139z"/><path d="m533.931 761.933h311.092l-155.546 269.417z"/><path d="m73.8211 761.933h311.0919l-155.546 269.417z"/><path d="m303.847 1032.72 155.546-269.414 155.546 269.414z"/><path d="m763.3 1032.72 155.546-269.414 155.544 269.414z"/><path d="m533.931 693.056h311.092l-155.546-269.414z"/><path d="m73.8211 693.056h311.0919l-155.546-269.414z"/><path d="m303.847 422.27 155.546 269.413 155.546-269.413z"/><path d="m763.3 422.27 155.546 269.413 155.544-269.413z"/></g></svg>