<svg fill="none" height="1357" viewBox="0 0 2532 1357" width="2532" xmlns="http://www.w3.org/2000/svg" xmlns:xlink="http://www.w3.org/1999/xlink"><clipPath id="a"><path d="m0 0h2532v1357h-2532z"/></clipPath><clipPath id="b"><path d="m0 0h2532v1357h-2532z"/></clipPath><g clip-path="url(#a)"><path d="m0 0h2532v1357h-2532z" fill="#fff"/><g clip-path="url(#b)"><path d="m0-1h2532v1362h-2532z" fill="#372fff"/><path d="m1829.74-458.183c286.96-400.923 1811.42 361.6296 1666.86 1024.716-200.36 919.037-553.72 1027.067-911.57 1082.787-251.78 39.21-623.83-431.74-623.83-431.74s-44.17-313.116 0-525.927c31.84-153.431-35.99-394.021-35.99-394.021s-321.11-440.579-95.47-755.815z" fill="#0903b0"/><path d="m2358.67 670.365-.19-.008-.18.088c-74.37 37.036-150.02 29.043-214.89 2.075-64.9-26.975-118.95-72.912-150.02-111.635-12.46-15.516-29.06-32.587-47.05-51.077-4.55-4.679-9.19-9.448-13.87-14.306-23.21-24.077-47.51-50.36-67.56-78.665-40.09-56.606-63.05-121.143-26.26-192.18 57.62-111.265 111.25-159.6809 182.65-185.5154 35.74-12.9318 75.96-20.2167 123.44-26.856 16.05-2.2451 32.94-4.41671 50.76-6.70832 34.86-4.48149 73.28-9.42208 116.03-16.26978 63.39-10.1535 127.8 22.7391 175.24 88.1328 47.42 65.3867 77.8 163.2057 73.02 282.6407-4.79 119.479-33.22 197.934-71.36 246.063-38.12 48.111-85.97 65.968-129.76 64.221z" stroke="#000" stroke-width="1.54355"/><path d="m3291.87 753.237c-304.39 197.161-704.44 234.232-754.42-5.357-36.95-177.101-255.04-351.402-255.04-351.402s-154.11-97.972-268.83-170.211c-45.7-28.78-109.67-97.191-109.67-97.191s-264.25-726.425 502.55-1014.256c766.8-287.83 956.84-311.72 1193.9 167.976 237.07 479.697-4.09 1273.28-308.49 1470.441z" fill="#fa4b6a"/><path d="m-271.258 447.629c463.063-21.61 691.508 470.781 691.508 470.781s81.808 339.58 381.256 510.91c26.584 183.31-211.597 447.02-266.375 531.14-141.362 217.06-455.9896 404.7-956.45 78.78-500.461-325.92-313.003-1570.001 150.061-1591.611z" fill="#ffb8a9"/><path d="m90.7292-62.4184c48.2738 124.5851 204.6968 127.416 204.6968 127.416s99.05-18.013 179.115 40.9544c51.419-14.3567 93.176-107.87904 108.964-132.1223 40.744-62.5629 53.537-167.3707-90.707-261.3087s-450.3428 100.476-402.0688 225.0606z" fill="#ffb8a9"/><path d="m-14.3337 850.072c42.7135-14.052 65.2463-21.758 108.6783-26.082 55.8704-5.562 117.4234 34.326 117.4234 34.326s76.142 276.034 333.745 349.334c379.881 108.08 342.173 661.41 537.607 794.93 195.44 133.53-307.178 475.37-835.839 308.33s-670.399-1326.348-261.6147-1460.838z" fill="#000"/><path d="m671.239 212.207-.197-.008-.177.088c-74.364 37.035-150.014 29.043-214.893 2.074-64.892-26.974-118.947-72.911-150.02-111.634-12.451-15.5161-29.057-32.5877-47.043-51.0773-4.551-4.6786-9.19-9.448-13.873-14.306-23.209-24.077-47.514-50.3602-67.56-78.6652-40.089-56.6053-63.049-121.1425-26.262-192.1805 57.619-111.265 111.25-159.68 182.649-185.515 35.74-12.931 75.964-20.216 123.442-26.856 16.056-2.245 32.944-4.416 50.766-6.708 34.852-4.481 73.274-9.422 116.024-16.27 63.387-10.153 127.807 22.739 175.237 88.133 47.425 65.387 77.8 163.206 73.021 282.6411-4.782 119.4791-33.218 197.9339-71.356 246.0629-38.122 48.111-85.973 65.968-129.758 64.221z" stroke="#fff" stroke-width="1.54355"/><g fill="#fff"><path d="m453.221 543.647h-16.81c-.48-2.757-1.363-5.199-2.652-7.327-1.288-2.157-2.892-3.985-4.809-5.483-1.918-1.498-4.105-2.622-6.563-3.371-2.427-.779-5.049-1.169-7.865-1.169-5.004 0-9.439 1.259-13.305 3.776-3.865 2.487-6.891 6.143-9.079 10.967-2.187 4.794-3.281 10.652-3.281 17.574 0 7.042 1.094 12.975 3.281 17.799 2.218 4.794 5.244 8.42 9.079 10.877 3.866 2.427 8.286 3.641 13.26 3.641 2.757 0 5.334-.36 7.731-1.079 2.427-.749 4.599-1.843 6.517-3.281 1.948-1.438 3.581-3.206 4.899-5.304 1.349-2.097 2.278-4.494 2.787-7.191l16.81.09c-.629 4.375-1.993 8.48-4.09 12.315-2.068 3.836-4.779 7.222-8.135 10.158-3.357 2.907-7.282 5.184-11.777 6.832-4.494 1.618-9.483 2.427-14.967 2.427-8.09 0-15.312-1.872-21.664-5.618-6.353-3.746-11.357-9.154-15.013-16.226-3.655-7.072-5.483-15.552-5.483-25.44 0-9.918 1.843-18.398 5.528-25.44 3.686-7.072 8.705-12.48 15.058-16.226 6.352-3.745 13.544-5.618 21.574-5.618 5.124 0 9.888.719 14.293 2.157 4.405 1.439 8.33 3.551 11.776 6.338 3.446 2.757 6.278 6.143 8.495 10.158 2.248 3.985 3.716 8.54 4.405 13.664z"/><path d="m493.457 605.988c-6.742 0-12.585-1.483-17.529-4.449-4.944-2.967-8.78-7.117-11.507-12.451-2.696-5.334-4.045-11.566-4.045-18.698 0-7.131 1.349-13.379 4.045-18.743 2.727-5.363 6.563-9.528 11.507-12.495 4.944-2.966 10.787-4.45 17.529-4.45s12.585 1.484 17.53 4.45c4.944 2.967 8.764 7.132 11.461 12.495 2.727 5.364 4.09 11.612 4.09 18.743 0 7.132-1.363 13.364-4.09 18.698-2.697 5.334-6.517 9.484-11.461 12.451-4.945 2.966-10.788 4.449-17.53 4.449zm.09-13.034c3.656 0 6.712-1.004 9.169-3.012 2.457-2.037 4.285-4.764 5.484-8.18 1.228-3.416 1.843-7.222 1.843-11.417 0-4.225-.615-8.045-1.843-11.461-1.199-3.446-3.027-6.188-5.484-8.225-2.457-2.038-5.513-3.057-9.169-3.057-3.745 0-6.862 1.019-9.349 3.057-2.457 2.037-4.3 4.779-5.528 8.225-1.199 3.416-1.798 7.236-1.798 11.461 0 4.195.599 8.001 1.798 11.417 1.228 3.416 3.071 6.143 5.528 8.18 2.487 2.008 5.604 3.012 9.349 3.012z"/><path d="m552.189 564.188v40.452h-16.271v-69.039h15.552v11.731h.809c1.588-3.865 4.12-6.936 7.596-9.214 3.506-2.277 7.836-3.416 12.99-3.416 4.764 0 8.914 1.019 12.45 3.057 3.566 2.037 6.322 4.989 8.27 8.854 1.978 3.866 2.952 8.555 2.922 14.069v43.958h-16.271v-41.441c0-4.615-1.199-8.226-3.596-10.832-2.367-2.607-5.648-3.911-9.843-3.911-2.847 0-5.379.629-7.596 1.888-2.188 1.228-3.911 3.011-5.169 5.349-1.229 2.337-1.843 5.168-1.843 8.495z"/><path d="m624.888 564.188v40.452h-16.271v-69.039h15.552v11.731h.809c1.588-3.865 4.12-6.936 7.596-9.214 3.506-2.277 7.836-3.416 12.99-3.416 4.764 0 8.914 1.019 12.45 3.057 3.566 2.037 6.323 4.989 8.27 8.854 1.978 3.866 2.952 8.555 2.922 14.069v43.958h-16.271v-41.441c0-4.615-1.199-8.226-3.596-10.832-2.367-2.607-5.648-3.911-9.843-3.911-2.847 0-5.379.629-7.596 1.888-2.188 1.228-3.911 3.011-5.169 5.349-1.229 2.337-1.843 5.168-1.843 8.495z"/><path d="m711.88 605.988c-6.922 0-12.9-1.438-17.934-4.315-5.004-2.906-8.854-7.011-11.551-12.315-2.697-5.334-4.045-11.611-4.045-18.833 0-7.102 1.348-13.334 4.045-18.698 2.727-5.393 6.532-9.589 11.417-12.585 4.884-3.026 10.622-4.54 17.214-4.54 4.255 0 8.27.69 12.046 2.068 3.806 1.348 7.162 3.446 10.068 6.292 2.937 2.847 5.244 6.473 6.922 10.878 1.678 4.374 2.517 9.588 2.517 15.641v4.989h-56.588v-10.967h40.991c-.03-3.116-.704-5.888-2.022-8.315-1.319-2.457-3.161-4.39-5.529-5.798-2.337-1.408-5.064-2.113-8.18-2.113-3.326 0-6.248.809-8.765 2.428-2.517 1.588-4.479 3.685-5.888 6.292-1.378 2.577-2.082 5.409-2.112 8.495v9.574c0 4.015.734 7.461 2.202 10.338 1.468 2.846 3.521 5.034 6.158 6.562 2.637 1.498 5.723 2.247 9.259 2.247 2.367 0 4.51-.329 6.427-.989 1.918-.689 3.581-1.693 4.989-3.011 1.409-1.319 2.473-2.952 3.192-4.899l15.192 1.708c-.959 4.015-2.787 7.521-5.484 10.517-2.667 2.967-6.083 5.274-10.248 6.922-4.165 1.618-8.929 2.427-14.293 2.427z"/><path d="m782.029 605.988c-6.892 0-12.81-1.513-17.755-4.539-4.914-3.027-8.704-7.207-11.371-12.541-2.637-5.363-3.955-11.536-3.955-18.518 0-7.011 1.348-13.199 4.045-18.563 2.697-5.393 6.502-9.589 11.416-12.585 4.944-3.026 10.788-4.54 17.53-4.54 5.603 0 10.562 1.034 14.877 3.102 4.345 2.037 7.806 4.929 10.383 8.674 2.577 3.716 4.045 8.061 4.405 13.035h-15.552c-.629-3.326-2.127-6.098-4.495-8.315-2.337-2.247-5.468-3.371-9.394-3.371-3.326 0-6.247.899-8.764 2.697-2.517 1.768-4.48 4.315-5.888 7.641-1.379 3.326-2.068 7.311-2.068 11.956 0 4.704.689 8.749 2.068 12.135 1.378 3.356 3.311 5.948 5.798 7.776 2.517 1.798 5.468 2.697 8.854 2.697 2.398 0 4.54-.45 6.428-1.349 1.918-.928 3.521-2.262 4.809-4 1.289-1.738 2.173-3.85 2.652-6.337h15.552c-.39 4.884-1.828 9.214-4.315 12.989-2.487 3.746-5.873 6.682-10.158 8.81-4.285 2.097-9.319 3.146-15.102 3.146z"/><path d="m855.008 535.601v12.585h-39.688v-12.585zm-29.889-16.54h16.271v64.813c0 2.188.329 3.866.988 5.034.69 1.139 1.588 1.918 2.697 2.338 1.109.419 2.337.629 3.686.629 1.019 0 1.948-.075 2.787-.225.869-.15 1.528-.284 1.977-.404l2.742 12.72c-.869.299-2.112.629-3.731.988-1.588.36-3.535.57-5.843.63-4.075.12-7.746-.495-11.012-1.843-3.266-1.378-5.858-3.506-7.776-6.383-1.887-2.876-2.816-6.472-2.786-10.787z"/><path d="m864.186 604.64v-69.039h16.271v69.039zm8.181-78.837c-2.577 0-4.795-.854-6.653-2.562-1.857-1.738-2.786-3.821-2.786-6.248 0-2.457.929-4.539 2.786-6.247 1.858-1.738 4.076-2.607 6.653-2.607 2.607 0 4.824.869 6.652 2.607 1.858 1.708 2.786 3.79 2.786 6.247 0 2.427-.928 4.51-2.786 6.248-1.828 1.708-4.045 2.562-6.652 2.562z"/><path d="m909.029 564.188v40.452h-16.27v-69.039h15.551v11.731h.809c1.588-3.865 4.12-6.936 7.596-9.214 3.506-2.277 7.836-3.416 12.99-3.416 4.764 0 8.915 1.019 12.45 3.057 3.566 2.037 6.323 4.989 8.271 8.854 1.977 3.866 2.951 8.555 2.921 14.069v43.958h-16.271v-41.441c0-4.615-1.198-8.226-3.595-10.832-2.368-2.607-5.649-3.911-9.844-3.911-2.846 0-5.378.629-7.596 1.888-2.187 1.228-3.91 3.011-5.169 5.349-1.228 2.337-1.843 5.168-1.843 8.495z"/><path d="m995.482 631.968c-5.843 0-10.862-.794-15.057-2.383-4.195-1.558-7.566-3.655-10.113-6.292s-4.315-5.559-5.304-8.765l14.653-3.551c.659 1.349 1.618 2.682 2.876 4.001 1.259 1.348 2.952 2.457 5.079 3.326 2.158.899 4.87 1.348 8.136 1.348 4.618 0 8.438-1.124 11.458-3.371 3.03-2.217 4.54-5.873 4.54-10.967v-13.08h-.81c-.84 1.679-2.06 3.401-3.68 5.169-1.59 1.768-3.7 3.252-6.34 4.45-2.606 1.199-5.887 1.798-9.843 1.798-5.303 0-10.113-1.244-14.428-3.731-4.285-2.517-7.701-6.262-10.248-11.236-2.517-5.004-3.775-11.267-3.775-18.788 0-7.581 1.258-13.979 3.775-19.193 2.547-5.243 5.978-9.214 10.293-11.91 4.315-2.727 9.125-4.091 14.428-4.091 4.046 0 7.372.69 9.978 2.068 2.64 1.348 4.73 2.981 6.29 4.899 1.56 1.888 2.74 3.671 3.55 5.349h.9v-11.417h16.05v70.163c0 5.903-1.41 10.787-4.23 14.652-2.81 3.866-6.66 6.757-11.55 8.675-4.88 1.918-10.43 2.877-16.628 2.877zm.135-41.082c3.446 0 6.383-.839 8.813-2.517 2.42-1.678 4.27-4.09 5.53-7.236 1.25-3.147 1.88-6.922 1.88-11.327 0-4.345-.63-8.15-1.88-11.417-1.23-3.266-3.06-5.798-5.49-7.596-2.4-1.827-5.347-2.741-8.853-2.741-3.626 0-6.652.943-9.079 2.831s-4.255 4.48-5.484 7.776c-1.228 3.266-1.843 6.982-1.843 11.147 0 4.225.615 7.926 1.843 11.102 1.259 3.146 3.102 5.603 5.529 7.371 2.457 1.738 5.468 2.607 9.034 2.607z"/><path d="m1067.1 604.64v-69.039h15.78v11.507h.72c1.25-3.986 3.41-7.057 6.47-9.214 3.08-2.188 6.6-3.282 10.56-3.282.9 0 1.9.045 3.01.135 1.14.06 2.08.165 2.83.315v14.967c-.69-.239-1.78-.449-3.28-.629-1.47-.21-2.89-.315-4.27-.315-2.96 0-5.63.645-8 1.933-2.34 1.259-4.18 3.012-5.53 5.259s-2.02 4.839-2.02 7.776v40.587z"/><path d="m1140.57 605.988c-6.92 0-12.9-1.438-17.93-4.315-5-2.906-8.85-7.011-11.55-12.315-2.7-5.334-4.05-11.611-4.05-18.833 0-7.102 1.35-13.334 4.05-18.698 2.73-5.393 6.53-9.589 11.42-12.585 4.88-3.026 10.62-4.54 17.21-4.54 4.26 0 8.27.69 12.05 2.068 3.8 1.348 7.16 3.446 10.06 6.292 2.94 2.847 5.25 6.473 6.93 10.878 1.67 4.374 2.51 9.588 2.51 15.641v4.989h-56.59v-10.967h41c-.03-3.116-.71-5.888-2.03-8.315-1.31-2.457-3.16-4.39-5.52-5.798-2.34-1.408-5.07-2.113-8.18-2.113-3.33 0-6.25.809-8.77 2.428-2.52 1.588-4.48 3.685-5.89 6.292-1.38 2.577-2.08 5.409-2.11 8.495v9.574c0 4.015.73 7.461 2.2 10.338 1.47 2.846 3.52 5.034 6.16 6.562 2.64 1.498 5.72 2.247 9.26 2.247 2.37 0 4.51-.329 6.43-.989 1.91-.689 3.58-1.693 4.99-3.011 1.4-1.319 2.47-2.952 3.19-4.899l15.19 1.708c-.96 4.015-2.79 7.521-5.48 10.517-2.67 2.967-6.09 5.274-10.25 6.922-4.17 1.618-8.93 2.427-14.3 2.427z"/><path d="m1215.08 535.601v12.585h-39.69v-12.585zm-29.89-16.54h16.27v64.813c0 2.188.33 3.866.99 5.034.69 1.139 1.59 1.918 2.7 2.338 1.11.419 2.34.629 3.68.629 1.02 0 1.95-.075 2.79-.225.87-.15 1.53-.284 1.98-.404l2.74 12.72c-.87.299-2.11.629-3.73.988-1.59.36-3.54.57-5.84.63-4.08.12-7.75-.495-11.01-1.843-3.27-1.378-5.86-3.506-7.78-6.383-1.89-2.876-2.82-6.472-2.79-10.787z"/><path d="m1244.13 606.033c-4.38 0-8.32-.779-11.82-2.337-3.48-1.588-6.24-3.925-8.27-7.012-2.01-3.086-3.02-6.892-3.02-11.416 0-3.896.72-7.117 2.16-9.664s3.4-4.584 5.89-6.113c2.49-1.528 5.29-2.682 8.4-3.461 3.15-.809 6.4-1.393 9.76-1.753 4.04-.419 7.32-.794 9.84-1.123 2.52-.36 4.35-.899 5.48-1.618 1.17-.749 1.76-1.903 1.76-3.461v-.27c0-3.386-1.01-6.008-3.01-7.866-2.01-1.857-4.9-2.786-8.68-2.786-3.98 0-7.14.869-9.48 2.607-2.31 1.738-3.87 3.79-4.68 6.157l-15.19-2.157c1.2-4.195 3.18-7.701 5.93-10.518 2.76-2.846 6.13-4.974 10.12-6.382 3.98-1.439 8.39-2.158 13.21-2.158 3.33 0 6.64.39 9.94 1.169 3.29.779 6.3 2.068 9.03 3.865 2.73 1.768 4.91 4.18 6.56 7.237 1.68 3.056 2.52 6.877 2.52 11.461v46.206h-15.64v-9.484h-.54c-.99 1.918-2.38 3.716-4.18 5.394-1.77 1.648-4 2.981-6.7 4-2.67.989-5.8 1.483-9.39 1.483zm4.22-11.956c3.27 0 6.1-.644 8.5-1.932 2.39-1.319 4.24-3.057 5.53-5.214 1.31-2.158 1.97-4.51 1.97-7.057v-8.135c-.51.419-1.38.809-2.6 1.168-1.2.36-2.55.674-4.05.944s-2.98.51-4.45.719c-1.47.21-2.74.39-3.82.54-2.43.329-4.6.869-6.52 1.618-1.91.749-3.43 1.798-4.54 3.146-1.11 1.319-1.66 3.026-1.66 5.124 0 2.996 1.09 5.259 3.28 6.787s4.98 2.292 8.36 2.292z"/><path d="m1292.51 604.64v-69.039h16.27v69.039zm8.18-78.837c-2.58 0-4.79-.854-6.65-2.562-1.86-1.738-2.79-3.821-2.79-6.248 0-2.457.93-4.539 2.79-6.247 1.86-1.738 4.07-2.607 6.65-2.607 2.61 0 4.82.869 6.65 2.607 1.86 1.708 2.79 3.79 2.79 6.247 0 2.427-.93 4.51-2.79 6.248-1.83 1.708-4.04 2.562-6.65 2.562z"/><path d="m1337.35 512.588v92.052h-16.27v-92.052z"/><path d="m1376.62 630.529v-94.928h16v11.417h.94c.84-1.678 2.03-3.461 3.56-5.349 1.52-1.918 3.59-3.551 6.2-4.899 2.61-1.378 5.93-2.068 9.98-2.068 5.33 0 10.14 1.364 14.42 4.091 4.32 2.696 7.74 6.697 10.25 12 2.55 5.274 3.82 11.747 3.82 19.417 0 7.582-1.24 14.024-3.73 19.328-2.48 5.303-5.87 9.349-10.16 12.135-4.28 2.787-9.14 4.18-14.56 4.18-3.95 0-7.24-.659-9.84-1.977-2.61-1.319-4.71-2.907-6.29-4.765-1.56-1.887-2.78-3.67-3.65-5.348h-.67v36.766zm15.96-60.408c0 4.464.63 8.375 1.88 11.731 1.29 3.356 3.13 5.978 5.53 7.865 2.43 1.858 5.37 2.787 8.81 2.787 3.6 0 6.61-.959 9.04-2.876 2.42-1.948 4.25-4.6 5.48-7.956 1.26-3.386 1.89-7.237 1.89-11.551 0-4.285-.62-8.091-1.85-11.417-1.22-3.326-3.05-5.933-5.48-7.821s-5.45-2.831-9.08-2.831c-3.47 0-6.43.914-8.85 2.741-2.43 1.828-4.27 4.39-5.53 7.686-1.23 3.296-1.84 7.177-1.84 11.642z"/><path d="m1451.3 604.64v-69.039h15.77v11.507h.72c1.26-3.986 3.42-7.057 6.47-9.214 3.09-2.188 6.61-3.282 10.57-3.282.9 0 1.9.045 3.01.135 1.14.06 2.08.165 2.83.315v14.967c-.69-.239-1.78-.449-3.28-.629-1.47-.21-2.89-.315-4.27-.315-2.97 0-5.63.645-8 1.933-2.34 1.259-4.18 3.012-5.53 5.259s-2.02 4.839-2.02 7.776v40.587z"/><path d="m1524.32 605.988c-6.74 0-12.58-1.483-17.53-4.449-4.94-2.967-8.78-7.117-11.5-12.451-2.7-5.334-4.05-11.566-4.05-18.698 0-7.131 1.35-13.379 4.05-18.743 2.72-5.363 6.56-9.528 11.5-12.495 4.95-2.966 10.79-4.45 17.53-4.45s12.59 1.484 17.53 4.45c4.94 2.967 8.77 7.132 11.46 12.495 2.73 5.364 4.09 11.612 4.09 18.743 0 7.132-1.36 13.364-4.09 18.698-2.69 5.334-6.52 9.484-11.46 12.451-4.94 2.966-10.79 4.449-17.53 4.449zm.09-13.034c3.66 0 6.71-1.004 9.17-3.012 2.46-2.037 4.29-4.764 5.48-8.18 1.23-3.416 1.85-7.222 1.85-11.417 0-4.225-.62-8.045-1.85-11.461-1.19-3.446-3.02-6.188-5.48-8.225-2.46-2.038-5.51-3.057-9.17-3.057-3.74 0-6.86 1.019-9.35 3.057-2.45 2.037-4.3 4.779-5.53 8.225-1.19 3.416-1.79 7.236-1.79 11.461 0 4.195.6 8.001 1.79 11.417 1.23 3.416 3.08 6.143 5.53 8.18 2.49 2.008 5.61 3.012 9.35 3.012z"/><path d="m1601.75 535.601v12.585h-40.81v-12.585zm-30.61 69.039v-75.556c0-4.645.96-8.51 2.88-11.596 1.95-3.087 4.55-5.394 7.82-6.922s6.89-2.292 10.88-2.292c2.81 0 5.32.224 7.5.674 2.19.449 3.81.854 4.86 1.213l-3.24 12.585c-.69-.209-1.56-.419-2.61-.629-1.04-.24-2.21-.359-3.5-.359-3.03 0-5.17.734-6.43 2.202-1.23 1.438-1.84 3.506-1.84 6.203v74.477z"/><path d="m1638.03 605.988c-6.92 0-12.9-1.438-17.93-4.315-5.01-2.906-8.86-7.011-11.55-12.315-2.7-5.334-4.05-11.611-4.05-18.833 0-7.102 1.35-13.334 4.05-18.698 2.72-5.393 6.53-9.589 11.41-12.585 4.89-3.026 10.63-4.54 17.22-4.54 4.25 0 8.27.69 12.04 2.068 3.81 1.348 7.17 3.446 10.07 6.292 2.94 2.847 5.25 6.473 6.92 10.878 1.68 4.374 2.52 9.588 2.52 15.641v4.989h-56.59v-10.967h40.99c-.03-3.116-.7-5.888-2.02-8.315-1.32-2.457-3.16-4.39-5.53-5.798-2.33-1.408-5.06-2.113-8.18-2.113-3.32 0-6.25.809-8.76 2.428-2.52 1.588-4.48 3.685-5.89 6.292-1.38 2.577-2.08 5.409-2.11 8.495v9.574c0 4.015.73 7.461 2.2 10.338 1.47 2.846 3.52 5.034 6.16 6.562 2.63 1.498 5.72 2.247 9.26 2.247 2.36 0 4.51-.329 6.42-.989 1.92-.689 3.58-1.693 4.99-3.011 1.41-1.319 2.48-2.952 3.19-4.899l15.2 1.708c-.96 4.015-2.79 7.521-5.49 10.517-2.66 2.967-6.08 5.274-10.25 6.922-4.16 1.618-8.92 2.427-14.29 2.427z"/><path d="m1732.63 553.85-14.83 1.618c-.42-1.498-1.15-2.907-2.2-4.225-1.02-1.319-2.4-2.382-4.14-3.191s-3.86-1.214-6.38-1.214c-3.39 0-6.23.734-8.54 2.202-2.28 1.469-3.4 3.371-3.37 5.709-.03 2.007.7 3.64 2.2 4.899 1.53 1.258 4.05 2.292 7.55 3.101l11.78 2.517c6.53 1.409 11.38 3.641 14.56 6.697 3.21 3.057 4.82 7.057 4.85 12.001-.03 4.345-1.3 8.181-3.82 11.507-2.48 3.296-5.94 5.873-10.38 7.731-4.43 1.857-9.53 2.786-15.28 2.786-8.45 0-15.25-1.768-20.41-5.303-5.15-3.566-8.22-8.525-9.21-14.878l15.87-1.528c.71 3.116 2.24 5.468 4.58 7.057 2.34 1.588 5.38 2.382 9.12 2.382 3.87 0 6.97-.794 9.31-2.382 2.37-1.589 3.55-3.551 3.55-5.889 0-1.977-.76-3.61-2.29-4.899-1.5-1.288-3.84-2.277-7.01-2.966l-11.78-2.472c-6.62-1.379-11.52-3.701-14.7-6.967-3.17-3.296-4.75-7.461-4.72-12.495-.03-4.255 1.13-7.941 3.46-11.057 2.37-3.147 5.65-5.574 9.85-7.282 4.22-1.738 9.09-2.607 14.6-2.607 8.09 0 14.46 1.723 19.11 5.169 4.67 3.446 7.56 8.106 8.67 13.979z"/><path d="m1797.67 553.85-14.84 1.618c-.42-1.498-1.15-2.907-2.2-4.225-1.02-1.319-2.4-2.382-4.13-3.191-1.74-.809-3.87-1.214-6.39-1.214-3.38 0-6.23.734-8.54 2.202-2.27 1.469-3.4 3.371-3.37 5.709-.03 2.007.71 3.64 2.21 4.899 1.52 1.258 4.04 2.292 7.55 3.101l11.77 2.517c6.54 1.409 11.39 3.641 14.57 6.697 3.2 3.057 4.82 7.057 4.85 12.001-.03 4.345-1.3 8.181-3.82 11.507-2.49 3.296-5.95 5.873-10.38 7.731-4.44 1.857-9.53 2.786-15.28 2.786-8.46 0-15.26-1.768-20.41-5.303-5.15-3.566-8.23-8.525-9.22-14.878l15.87-1.528c.72 3.116 2.25 5.468 4.59 7.057 2.33 1.588 5.37 2.382 9.12 2.382 3.87 0 6.97-.794 9.3-2.382 2.37-1.589 3.55-3.551 3.55-5.889 0-1.977-.76-3.61-2.29-4.899-1.5-1.288-3.83-2.277-7.01-2.966l-11.78-2.472c-6.62-1.379-11.52-3.701-14.69-6.967-3.18-3.296-4.75-7.461-4.72-12.495-.03-4.255 1.12-7.941 3.46-11.057 2.37-3.147 5.65-5.574 9.84-7.282 4.23-1.738 9.1-2.607 14.61-2.607 8.09 0 14.46 1.723 19.1 5.169 4.68 3.446 7.57 8.106 8.68 13.979z"/><path d="m1808.14 604.64v-69.039h16.27v69.039zm8.18-78.837c-2.58 0-4.8-.854-6.66-2.562-1.85-1.738-2.78-3.821-2.78-6.248 0-2.457.93-4.539 2.78-6.247 1.86-1.738 4.08-2.607 6.66-2.607 2.6 0 4.82.869 6.65 2.607 1.86 1.708 2.79 3.79 2.79 6.247 0 2.427-.93 4.51-2.79 6.248-1.83 1.708-4.05 2.562-6.65 2.562z"/><path d="m1866.82 605.988c-6.74 0-12.58-1.483-17.53-4.449-4.94-2.967-8.78-7.117-11.5-12.451-2.7-5.334-4.05-11.566-4.05-18.698 0-7.131 1.35-13.379 4.05-18.743 2.72-5.363 6.56-9.528 11.5-12.495 4.95-2.966 10.79-4.45 17.53-4.45 6.75 0 12.59 1.484 17.53 4.45 4.95 2.967 8.77 7.132 11.46 12.495 2.73 5.364 4.09 11.612 4.09 18.743 0 7.132-1.36 13.364-4.09 18.698-2.69 5.334-6.51 9.484-11.46 12.451-4.94 2.966-10.78 4.449-17.53 4.449zm.09-13.034c3.66 0 6.72-1.004 9.17-3.012 2.46-2.037 4.29-4.764 5.49-8.18 1.22-3.416 1.84-7.222 1.84-11.417 0-4.225-.62-8.045-1.84-11.461-1.2-3.446-3.03-6.188-5.49-8.225-2.45-2.038-5.51-3.057-9.17-3.057-3.74 0-6.86 1.019-9.35 3.057-2.45 2.037-4.3 4.779-5.52 8.225-1.2 3.416-1.8 7.236-1.8 11.461 0 4.195.6 8.001 1.8 11.417 1.22 3.416 3.07 6.143 5.52 8.18 2.49 2.008 5.61 3.012 9.35 3.012z"/><path d="m1925.56 564.188v40.452h-16.28v-69.039h15.56v11.731h.81c1.58-3.865 4.12-6.936 7.59-9.214 3.51-2.277 7.84-3.416 12.99-3.416 4.77 0 8.92 1.019 12.45 3.057 3.57 2.037 6.32 4.989 8.27 8.854 1.98 3.866 2.95 8.555 2.92 14.069v43.958h-16.27v-41.441c0-4.615-1.2-8.226-3.59-10.832-2.37-2.607-5.65-3.911-9.85-3.911-2.84 0-5.38.629-7.59 1.888-2.19 1.228-3.91 3.011-5.17 5.349-1.23 2.337-1.84 5.168-1.84 8.495z"/><path d="m2001.85 606.033c-4.37 0-8.31-.779-11.82-2.337-3.48-1.588-6.23-3.925-8.27-7.012-2.01-3.086-3.01-6.892-3.01-11.416 0-3.896.72-7.117 2.15-9.664 1.44-2.547 3.41-4.584 5.89-6.113 2.49-1.528 5.29-2.682 8.41-3.461 3.14-.809 6.4-1.393 9.75-1.753 4.05-.419 7.33-.794 9.84-1.123 2.52-.36 4.35-.899 5.49-1.618 1.17-.749 1.75-1.903 1.75-3.461v-.27c0-3.386-1-6.008-3.01-7.866-2.01-1.857-4.9-2.786-8.67-2.786-3.99 0-7.15.869-9.49 2.607-2.31 1.738-3.86 3.79-4.67 6.157l-15.2-2.157c1.2-4.195 3.18-7.701 5.94-10.518 2.75-2.846 6.13-4.974 10.11-6.382 3.99-1.439 8.39-2.158 13.22-2.158 3.32 0 6.63.39 9.93 1.169 3.29.779 6.31 2.068 9.03 3.865 2.73 1.768 4.92 4.18 6.57 7.237 1.67 3.056 2.51 6.877 2.51 11.461v46.206h-15.64v-9.484h-.54c-.99 1.918-2.38 3.716-4.18 5.394-1.77 1.648-4 2.981-6.7 4-2.66.989-5.79 1.483-9.39 1.483zm4.23-11.956c3.26 0 6.09-.644 8.49-1.932 2.4-1.319 4.24-3.057 5.53-5.214 1.32-2.158 1.98-4.51 1.98-7.057v-8.135c-.51.419-1.38.809-2.61 1.168-1.2.36-2.55.674-4.05.944-1.49.27-2.98.51-4.45.719-1.46.21-2.74.39-3.82.54-2.42.329-4.6.869-6.51 1.618-1.92.749-3.43 1.798-4.54 3.146-1.11 1.319-1.67 3.026-1.67 5.124 0 2.996 1.1 5.259 3.29 6.787 2.18 1.528 4.97 2.292 8.36 2.292z"/><path d="m2066.5 512.588v92.052h-16.27v-92.052z"/><path d="m2133.37 553.85-14.83 1.618c-.42-1.498-1.16-2.907-2.2-4.225-1.02-1.319-2.4-2.382-4.14-3.191s-3.86-1.214-6.38-1.214c-3.39 0-6.23.734-8.54 2.202-2.28 1.469-3.4 3.371-3.37 5.709-.03 2.007.7 3.64 2.2 4.899 1.53 1.258 4.05 2.292 7.55 3.101l11.78 2.517c6.53 1.409 11.38 3.641 14.56 6.697 3.21 3.057 4.82 7.057 4.85 12.001-.03 4.345-1.3 8.181-3.82 11.507-2.48 3.296-5.94 5.873-10.38 7.731-4.43 1.857-9.53 2.786-15.28 2.786-8.45 0-15.25-1.768-20.41-5.303-5.15-3.566-8.22-8.525-9.21-14.878l15.87-1.528c.71 3.116 2.24 5.468 4.58 7.057 2.34 1.588 5.38 2.382 9.12 2.382 3.87 0 6.97-.794 9.31-2.382 2.37-1.589 3.55-3.551 3.55-5.889 0-1.977-.77-3.61-2.29-4.899-1.5-1.288-3.84-2.277-7.01-2.966l-11.78-2.472c-6.62-1.379-11.52-3.701-14.7-6.967-3.18-3.296-4.75-7.461-4.72-12.495-.03-4.255 1.13-7.941 3.46-11.057 2.37-3.147 5.65-5.574 9.85-7.282 4.22-1.738 9.09-2.607 14.6-2.607 8.09 0 14.46 1.723 19.11 5.169 4.67 3.446 7.56 8.106 8.67 13.979z"/><path d="m686.685 752.64-19.507-69.039h16.585l12.136 48.543h.629l12.406-48.543h16.405l12.406 48.273h.674l11.956-48.273h16.63l-19.552 69.039h-16.945l-12.945-46.655h-.944l-12.944 46.655z"/><path d="m773.935 752.64v-69.039h16.271v69.039zm8.181-78.837c-2.577 0-4.795-.854-6.652-2.562-1.858-1.738-2.787-3.821-2.787-6.248 0-2.457.929-4.539 2.787-6.247 1.857-1.738 4.075-2.607 6.652-2.607 2.607 0 4.824.869 6.652 2.607 1.858 1.708 2.787 3.79 2.787 6.247 0 2.427-.929 4.51-2.787 6.248-1.828 1.708-4.045 2.562-6.652 2.562z"/><path d="m836.982 683.601v12.585h-39.688v-12.585zm-29.89-16.54h16.271v64.813c0 2.188.33 3.866.989 5.034.689 1.139 1.588 1.918 2.697 2.338 1.108.419 2.337.629 3.685.629 1.019 0 1.948-.075 2.787-.225.869-.15 1.528-.284 1.978-.404l2.742 12.72c-.869.299-2.113.629-3.731.988-1.588.36-3.536.57-5.843.63-4.075.12-7.746-.495-11.012-1.843-3.266-1.378-5.858-3.506-7.776-6.383-1.888-2.876-2.817-6.472-2.787-10.787z"/><path d="m863.914 712.188v40.452h-16.271v-92.052h15.911v34.744h.809c1.618-3.895 4.12-6.966 7.506-9.214 3.416-2.277 7.761-3.416 13.035-3.416 4.794 0 8.974 1.004 12.54 3.012 3.566 2.007 6.323 4.944 8.271 8.809 1.977 3.866 2.966 8.585 2.966 14.159v43.958h-16.271v-41.441c0-4.645-1.198-8.256-3.596-10.832-2.367-2.607-5.693-3.911-9.978-3.911-2.876 0-5.453.629-7.731 1.888-2.247 1.228-4.015 3.011-5.303 5.349-1.259 2.337-1.888 5.168-1.888 8.495z"/><path d="m1009.47 683.601-24.587 69.039h-17.979l-24.586-69.039h17.35l15.866 51.285h.719l15.912-51.285z"/><path d="m1016.3 752.64v-69.039h16.27v69.039zm8.18-78.837c-2.58 0-4.8-.854-6.65-2.562-1.86-1.738-2.79-3.821-2.79-6.248 0-2.457.93-4.539 2.79-6.247 1.85-1.738 4.07-2.607 6.65-2.607 2.61 0 4.82.869 6.65 2.607 1.86 1.708 2.79 3.79 2.79 6.247 0 2.427-.93 4.51-2.79 6.248-1.83 1.708-4.04 2.562-6.65 2.562z"/><path d="m1099.44 701.85-14.84 1.618c-.42-1.498-1.15-2.907-2.2-4.225-1.02-1.319-2.4-2.382-4.13-3.191-1.74-.809-3.87-1.214-6.39-1.214-3.38 0-6.23.734-8.54 2.202-2.27 1.469-3.4 3.371-3.37 5.709-.03 2.007.71 3.64 2.21 4.899 1.52 1.258 4.04 2.292 7.55 3.101l11.77 2.517c6.54 1.409 11.39 3.641 14.57 6.697 3.2 3.057 4.82 7.057 4.85 12.001-.03 4.345-1.3 8.181-3.82 11.507-2.49 3.296-5.95 5.873-10.38 7.731-4.44 1.857-9.53 2.786-15.29 2.786-8.45 0-15.25-1.768-20.4-5.303-5.16-3.566-8.23-8.525-9.22-14.878l15.87-1.528c.72 3.116 2.25 5.468 4.59 7.057 2.33 1.588 5.37 2.382 9.12 2.382 3.87 0 6.97-.794 9.3-2.382 2.37-1.589 3.55-3.551 3.55-5.889 0-1.977-.76-3.61-2.29-4.899-1.5-1.288-3.83-2.277-7.01-2.966l-11.78-2.472c-6.62-1.379-11.52-3.701-14.69-6.967-3.18-3.296-4.75-7.461-4.72-12.495-.03-4.255 1.12-7.941 3.46-11.057 2.37-3.147 5.65-5.574 9.84-7.282 4.23-1.738 9.1-2.607 14.61-2.607 8.09 0 14.46 1.723 19.1 5.169 4.68 3.446 7.57 8.106 8.68 13.979z"/><path d="m1109.91 752.64v-69.039h16.27v69.039zm8.18-78.837c-2.58 0-4.8-.854-6.66-2.562-1.85-1.738-2.78-3.821-2.78-6.248 0-2.457.93-4.539 2.78-6.247 1.86-1.738 4.08-2.607 6.66-2.607 2.6 0 4.82.869 6.65 2.607 1.86 1.708 2.79 3.79 2.79 6.247 0 2.427-.93 4.51-2.79 6.248-1.83 1.708-4.05 2.562-6.65 2.562z"/><path d="m1168.59 753.988c-6.74 0-12.58-1.483-17.53-4.449-4.94-2.967-8.78-7.117-11.5-12.451-2.7-5.333-4.05-11.566-4.05-18.698 0-7.131 1.35-13.379 4.05-18.743 2.72-5.363 6.56-9.528 11.5-12.495 4.95-2.966 10.79-4.45 17.53-4.45 6.75 0 12.59 1.484 17.53 4.45 4.95 2.967 8.77 7.132 11.46 12.495 2.73 5.364 4.09 11.612 4.09 18.743 0 7.132-1.36 13.365-4.09 18.698-2.69 5.334-6.51 9.484-11.46 12.451-4.94 2.966-10.78 4.449-17.53 4.449zm.09-13.034c3.66 0 6.72-1.004 9.17-3.012 2.46-2.037 4.29-4.764 5.49-8.18 1.22-3.416 1.84-7.222 1.84-11.417 0-4.225-.62-8.045-1.84-11.461-1.2-3.446-3.03-6.188-5.49-8.225-2.45-2.038-5.51-3.057-9.17-3.057-3.74 0-6.86 1.019-9.35 3.057-2.45 2.037-4.3 4.779-5.52 8.225-1.2 3.416-1.8 7.236-1.8 11.461 0 4.195.6 8.001 1.8 11.417 1.22 3.416 3.07 6.143 5.52 8.18 2.49 2.008 5.61 3.012 9.35 3.012z"/><path d="m1227.33 712.188v40.452h-16.28v-69.039h15.56v11.731h.8c1.59-3.865 4.13-6.936 7.6-9.214 3.51-2.277 7.84-3.416 12.99-3.416 4.77 0 8.92 1.019 12.45 3.057 3.57 2.037 6.32 4.989 8.27 8.854 1.98 3.866 2.95 8.555 2.92 14.069v43.958h-16.27v-41.441c0-4.615-1.2-8.226-3.59-10.832-2.37-2.607-5.65-3.911-9.85-3.911-2.84 0-5.38.629-7.59 1.888-2.19 1.228-3.91 3.011-5.17 5.349-1.23 2.337-1.84 5.168-1.84 8.495z"/><path d="m1303.62 754.033c-4.37 0-8.32-.779-11.82-2.337-3.48-1.588-6.23-3.925-8.27-7.012-2.01-3.086-3.01-6.892-3.01-11.416 0-3.896.72-7.117 2.15-9.664 1.44-2.547 3.41-4.584 5.89-6.113 2.49-1.528 5.29-2.682 8.41-3.461 3.14-.809 6.4-1.393 9.75-1.753 4.05-.419 7.33-.794 9.84-1.123 2.52-.36 4.35-.899 5.49-1.618 1.17-.749 1.75-1.903 1.75-3.461v-.27c0-3.386-1-6.008-3.01-7.866-2.01-1.857-4.9-2.786-8.68-2.786-3.98 0-7.14.869-9.48 2.607-2.31 1.738-3.86 3.79-4.67 6.157l-15.2-2.157c1.2-4.195 3.18-7.701 5.94-10.518 2.75-2.846 6.13-4.974 10.11-6.382 3.99-1.439 8.39-2.158 13.21-2.158 3.33 0 6.64.39 9.94 1.169 3.29.779 6.31 2.068 9.03 3.865 2.73 1.768 4.92 4.18 6.56 7.237 1.68 3.056 2.52 6.877 2.52 11.461v46.206h-15.64v-9.484h-.54c-.99 1.918-2.38 3.716-4.18 5.394-1.77 1.648-4 2.981-6.7 4-2.66.989-5.79 1.483-9.39 1.483zm4.22-11.956c3.27 0 6.1-.644 8.5-1.932 2.4-1.319 4.24-3.057 5.53-5.214 1.32-2.158 1.98-4.51 1.98-7.057v-8.135c-.51.419-1.38.809-2.61 1.168-1.2.36-2.55.674-4.05.944-1.49.27-2.98.51-4.45.719-1.46.21-2.74.39-3.82.54-2.42.329-4.6.869-6.51 1.618-1.92.749-3.43 1.798-4.54 3.146-1.11 1.319-1.67 3.026-1.67 5.124 0 2.996 1.1 5.259 3.28 6.787 2.19 1.528 4.98 2.292 8.36 2.292z"/><path d="m1352 752.64v-69.039h15.78v11.507h.72c1.26-3.986 3.41-7.057 6.47-9.214 3.09-2.188 6.61-3.282 10.56-3.282.9 0 1.91.045 3.01.135 1.14.06 2.09.165 2.84.315v14.967c-.69-.239-1.79-.449-3.28-.629-1.47-.21-2.9-.315-4.27-.315-2.97 0-5.64.645-8.01 1.933-2.33 1.259-4.18 3.012-5.52 5.259-1.35 2.247-2.03 4.839-2.03 7.776v40.587z"/><path d="m1409.97 778.529c-2.22 0-4.27-.179-6.16-.539-1.86-.33-3.34-.719-4.45-1.169l3.78-12.675c2.37.689 4.48 1.019 6.34.989 1.85-.03 3.49-.614 4.9-1.753 1.43-1.108 2.65-2.966 3.64-5.573l1.39-3.731-25.04-70.477h17.26l15.91 52.139h.72l15.96-52.139h17.3l-27.64 77.399c-1.29 3.656-2.99 6.787-5.12 9.394-2.13 2.637-4.74 4.644-7.82 6.023-3.06 1.408-6.71 2.112-10.97 2.112z"/><path d="m1525.43 753.988c-6.89 0-12.81-1.513-17.75-4.539-4.91-3.027-8.7-7.207-11.37-12.541-2.64-5.363-3.96-11.536-3.96-18.518 0-7.011 1.35-13.199 4.05-18.563 2.69-5.393 6.5-9.589 11.41-12.585 4.95-3.026 10.79-4.54 17.53-4.54 5.61 0 10.57 1.034 14.88 3.102 4.35 2.037 7.81 4.929 10.38 8.674 2.58 3.716 4.05 8.061 4.41 13.035h-15.55c-.63-3.326-2.13-6.098-4.5-8.315-2.33-2.247-5.47-3.371-9.39-3.371-3.33 0-6.25.899-8.77 2.697-2.51 1.768-4.48 4.315-5.88 7.641-1.38 3.326-2.07 7.311-2.07 11.956 0 4.704.69 8.749 2.07 12.135 1.37 3.356 3.31 5.948 5.79 7.776 2.52 1.798 5.47 2.697 8.86 2.697 2.4 0 4.54-.45 6.43-1.349 1.91-.928 3.52-2.262 4.81-4 1.28-1.738 2.17-3.85 2.65-6.337h15.55c-.39 4.884-1.83 9.214-4.32 12.989-2.48 3.746-5.87 6.682-10.15 8.81-4.29 2.097-9.32 3.146-15.11 3.146z"/><path d="m1580.21 660.588v92.052h-16.27v-92.052z"/><path d="m1592.51 752.64v-69.039h16.27v69.039zm8.18-78.837c-2.57 0-4.79-.854-6.65-2.562-1.86-1.738-2.79-3.821-2.79-6.248 0-2.457.93-4.539 2.79-6.247 1.86-1.738 4.08-2.607 6.65-2.607 2.61 0 4.83.869 6.65 2.607 1.86 1.708 2.79 3.79 2.79 6.247 0 2.427-.93 4.51-2.79 6.248-1.82 1.708-4.04 2.562-6.65 2.562z"/><path d="m1651.65 753.988c-6.92 0-12.9-1.438-17.94-4.315-5-2.906-8.85-7.011-11.55-12.315-2.69-5.334-4.04-11.611-4.04-18.833 0-7.102 1.35-13.334 4.04-18.698 2.73-5.393 6.54-9.589 11.42-12.585 4.88-3.026 10.62-4.54 17.21-4.54 4.26 0 8.27.69 12.05 2.068 3.81 1.348 7.16 3.446 10.07 6.292 2.93 2.847 5.24 6.473 6.92 10.878 1.68 4.375 2.52 9.588 2.52 15.641v4.989h-56.59v-10.967h40.99c-.03-3.116-.7-5.888-2.02-8.315-1.32-2.457-3.16-4.39-5.53-5.798-2.34-1.408-5.06-2.113-8.18-2.113-3.33 0-6.25.809-8.77 2.428-2.51 1.588-4.48 3.685-5.88 6.292-1.38 2.577-2.09 5.409-2.12 8.495v9.574c0 4.015.74 7.461 2.21 10.338 1.46 2.846 3.52 5.034 6.15 6.562 2.64 1.498 5.73 2.247 9.26 2.247 2.37 0 4.51-.329 6.43-.989 1.92-.689 3.58-1.693 4.99-3.011 1.41-1.319 2.47-2.952 3.19-4.899l15.19 1.708c-.96 4.015-2.78 7.521-5.48 10.517-2.67 2.967-6.08 5.274-10.25 6.922-4.16 1.618-8.93 2.427-14.29 2.427z"/><path d="m1707.95 712.188v40.452h-16.27v-69.039h15.55v11.731h.81c1.59-3.865 4.12-6.936 7.6-9.214 3.5-2.277 7.83-3.416 12.99-3.416 4.76 0 8.91 1.019 12.45 3.057 3.56 2.037 6.32 4.989 8.27 8.854 1.98 3.866 2.95 8.555 2.92 14.069v43.958h-16.27v-41.441c0-4.615-1.2-8.226-3.6-10.832-2.36-2.607-5.64-3.911-9.84-3.911-2.85 0-5.38.629-7.6 1.888-2.18 1.228-3.91 3.011-5.16 5.349-1.23 2.337-1.85 5.168-1.85 8.495z"/><path d="m1798.86 683.601v12.585h-39.69v-12.585zm-29.89-16.54h16.27v64.813c0 2.188.33 3.866.99 5.034.68 1.139 1.58 1.918 2.69 2.338 1.11.419 2.34.629 3.69.629 1.02 0 1.95-.075 2.78-.225.87-.15 1.53-.284 1.98-.404l2.74 12.72c-.87.299-2.11.629-3.73.988-1.58.36-3.53.57-5.84.63-4.08.12-7.75-.495-11.01-1.843-3.27-1.378-5.86-3.506-7.78-6.383-1.89-2.876-2.81-6.472-2.78-10.787z"/><path d="m1861.61 701.85-14.83 1.618c-.42-1.498-1.16-2.907-2.21-4.225-1.01-1.319-2.39-2.382-4.13-3.191s-3.87-1.214-6.38-1.214c-3.39 0-6.24.734-8.54 2.202-2.28 1.469-3.4 3.371-3.37 5.709-.03 2.007.7 3.64 2.2 4.899 1.53 1.258 4.04 2.292 7.55 3.101l11.78 2.517c6.53 1.409 11.38 3.641 14.56 6.697 3.21 3.057 4.82 7.057 4.85 12.001-.03 4.345-1.3 8.181-3.82 11.507-2.48 3.296-5.95 5.873-10.38 7.731-4.43 1.857-9.53 2.786-15.28 2.786-8.45 0-15.25-1.768-20.41-5.303-5.15-3.566-8.22-8.525-9.21-14.878l15.86-1.528c.72 3.116 2.25 5.468 4.59 7.057 2.34 1.588 5.38 2.382 9.12 2.382 3.87 0 6.97-.794 9.31-2.382 2.36-1.589 3.55-3.551 3.55-5.889 0-1.977-.77-3.61-2.29-4.899-1.5-1.288-3.84-2.277-7.02-2.966l-11.77-2.472c-6.62-1.379-11.52-3.701-14.7-6.967-3.18-3.296-4.75-7.461-4.72-12.495-.03-4.255 1.12-7.941 3.46-11.057 2.37-3.147 5.65-5.574 9.84-7.282 4.23-1.738 9.1-2.607 14.61-2.607 8.09 0 14.46 1.723 19.11 5.169 4.67 3.446 7.56 8.106 8.67 13.979z"/><path d="m974.722 1246.21c-.105-.89-.532-1.58-1.281-2.07-.748-.49-1.666-.74-2.753-.74-.796 0-1.491.13-2.088.39-.59.25-1.052.61-1.385 1.06-.328.45-.492.96-.492 1.53 0 .48.114.89.342 1.24.234.34.532.62.895.85.362.22.743.41 1.14.55.398.14.763.26 1.096.34l1.825.5c.467.12.988.29 1.561.5.578.22 1.131.52 1.657.89.532.37.971.84 1.316 1.42s.517 1.29.517 2.13c0 .97-.254 1.85-.763 2.63-.503.79-1.239 1.41-2.21 1.87-.965.46-2.137.69-3.517.69-1.286 0-2.4-.2-3.341-.62-.936-.41-1.672-.99-2.21-1.74-.532-.74-.833-1.6-.904-2.58h2.246c.058.68.286 1.24.684 1.68.403.44.912.77 1.526.98.619.21 1.286.32 1.999.32.831 0 1.576-.14 2.237-.4.66-.28 1.184-.66 1.57-1.14.385-.5.578-1.07.578-1.72 0-.6-.166-1.08-.5-1.46-.333-.37-.771-.68-1.315-.91s-1.131-.44-1.763-.61l-2.21-.64c-1.403-.4-2.514-.98-3.333-1.72-.818-.75-1.227-1.73-1.227-2.94 0-1.01.271-1.88.815-2.63.55-.76 1.286-1.34 2.21-1.76.93-.42 1.968-.63 3.114-.63 1.157 0 2.186.21 3.087.62.9.41 1.613.97 2.14 1.69.532.71.812 1.52.842 2.43z"/><path d="m986.226 1246.21v1.75h-6.981v-1.75zm-4.946-3.23h2.069v12.84c0 .58.085 1.02.255 1.31.175.29.397.48.666.58.275.1.564.14.869.14.228 0 .415-.01.561-.03.146-.03.263-.05.351-.07l.421 1.86c-.141.05-.337.1-.588.16-.251.05-.57.08-.956.08-.585 0-1.158-.12-1.719-.37-.555-.25-1.017-.64-1.386-1.15-.362-.52-.543-1.17-.543-1.95z"/><path d="m989.339 1259.68v-13.47h2v2.03h.14c.246-.66.69-1.21 1.333-1.62.644-.42 1.369-.62 2.175-.62.152 0 .342 0 .57.01.228 0 .401.01.518.02v2.11c-.07-.02-.231-.05-.482-.08-.246-.04-.506-.06-.781-.06-.655 0-1.24.13-1.754.41-.509.27-.912.64-1.21 1.12-.293.47-.439 1.02-.439 1.62v8.53z"/><path d="m1002.49 1259.99c-.85 0-1.63-.16-2.32-.48-.697-.33-1.25-.8-1.659-1.41-.41-.62-.614-1.37-.614-2.25 0-.77.152-1.39.456-1.87.304-.49.71-.87 1.219-1.14.508-.28 1.068-.48 1.688-.62s1.24-.25 1.86-.33c.82-.1 1.49-.18 1.99-.24.52-.05.89-.15 1.13-.29.24-.13.36-.36.36-.7v-.07c0-.86-.24-1.54-.71-2.01-.47-.48-1.18-.72-2.13-.72-.99 0-1.77.21-2.33.65-.56.43-.95.89-1.18 1.38l-1.967-.7c.351-.82.818-1.46 1.403-1.91.594-.46 1.234-.79 1.934-.97s1.39-.28 2.07-.28c.43 0 .92.05 1.49.16.56.1 1.11.31 1.64.62.53.32.97.79 1.32 1.43s.53 1.49.53 2.56v8.88h-2.07v-1.83h-.11c-.14.3-.37.61-.7.94-.33.34-.76.62-1.31.85-.54.24-1.2.35-1.99.35zm.32-1.86c.82 0 1.51-.16 2.07-.48.57-.32.99-.73 1.28-1.24s.44-1.05.44-1.61v-1.89c-.09.1-.28.2-.58.29-.29.08-.63.15-1.02.22-.38.05-.75.11-1.11.15-.36.05-.65.08-.87.11-.54.07-1.04.18-1.51.34-.46.15-.84.38-1.12.69s-.423.72-.423 1.25c0 .72.263 1.26.793 1.63.54.36 1.22.54 2.05.54z"/><path d="m1012.73 1259.68v-13.37c0-1 .21-1.86.65-2.58.45-.73 1.06-1.29 1.84-1.67.78-.39 1.68-.59 2.7-.59.99 0 1.88.19 2.67.56.79.38 1.41.91 1.87 1.6s.68 1.51.68 2.47c0 1.03-.26 1.89-.79 2.59-.52.69-1.21 1.19-2.05 1.48v.18c1.14.11 2.08.56 2.8 1.34.73.78 1.1 1.79 1.1 3.04 0 .95-.22 1.8-.65 2.55-.44.74-1.04 1.33-1.83 1.76-.78.42-1.7.64-2.75.64h-1.97v-1.93h2c.64 0 1.19-.13 1.65-.39.47-.25.83-.61 1.09-1.07.26-.45.39-.97.39-1.56 0-.92-.32-1.68-.94-2.29-.63-.6-1.47-.9-2.54-.9h-1.57v-1.97h1.12c.59 0 1.1-.14 1.52-.44.44-.31.77-.7 1-1.18.24-.48.35-.99.35-1.53 0-.84-.28-1.56-.84-2.14-.55-.59-1.31-.88-2.28-.88-.9 0-1.66.27-2.26.82-.6.53-.9 1.23-.9 2.09v13.37z"/><path d="m1033.14 1259.96c-1.3 0-2.42-.29-3.36-.86-.93-.58-1.65-1.39-2.16-2.42-.51-1.04-.76-2.25-.76-3.63s.25-2.6.76-3.65c.51-1.06 1.21-1.88 2.12-2.47.91-.6 1.98-.9 3.19-.9.7 0 1.4.12 2.08.35.68.24 1.31.62 1.87 1.14s1.01 1.21 1.34 2.07.5 1.92.5 3.18v.87h-10.38v-1.78h8.27c0-.76-.15-1.44-.45-2.04s-.73-1.07-1.28-1.41c-.55-.35-1.2-.52-1.95-.52-.82 0-1.54.21-2.14.62-.59.4-1.05.92-1.38 1.57-.32.65-.48 1.35-.48 2.09v1.19c0 1.02.18 1.88.53 2.59.36.7.85 1.24 1.48 1.61.63.36 1.37.54 2.2.54.55 0 1.04-.08 1.48-.23.44-.16.82-.39 1.14-.7.33-.32.57-.71.75-1.18l2 .57c-.21.67-.56 1.27-1.06 1.79-.5.5-1.11.9-1.84 1.19-.73.28-1.56.42-2.47.42z"/><path d="m1047.83 1252.14v-1.09c.98 0 1.66-.21 2.05-.62.39-.4.58-1.09.58-2.05v-2.8c0-.81.08-1.51.23-2.1.16-.59.41-1.08.76-1.46.35-.39.82-.68 1.41-.86.58-.19 1.3-.28 2.16-.28v1.71c-.67 0-1.21.11-1.6.32s-.66.54-.83.98c-.15.44-.23 1-.23 1.69v3.5c0 .46-.06.88-.19 1.25-.11.37-.33.69-.65.96-.33.27-.79.48-1.38.63-.59.14-1.36.22-2.31.22zm7.19 11.19c-.86 0-1.58-.1-2.16-.28-.59-.19-1.06-.48-1.41-.86-.35-.39-.6-.88-.76-1.47-.15-.59-.23-1.29-.23-2.09v-2.81c0-.96-.19-1.64-.58-2.05s-1.07-.62-2.05-.62v-1.08c.95 0 1.72.07 2.31.21.59.15 1.05.36 1.38.63.32.27.54.59.65.96.13.38.19.79.19 1.25v3.51c0 .68.08 1.24.23 1.68.17.44.44.76.83.97.39.22.93.33 1.6.33zm-7.19-10.18v-2.1h2.07v2.1z"/><path d="m1063.76 1246.21v1.75h-7.26v-1.75zm-5.09 13.47v-15.33c0-.77.19-1.42.55-1.93.36-.52.83-.9 1.41-1.16s1.19-.38 1.83-.38c.51 0 .93.04 1.25.12s.56.16.72.23l-.6 1.78c-.1-.03-.25-.07-.44-.13-.18-.05-.42-.08-.72-.08-.68 0-1.17.18-1.48.52-.3.35-.45.85-.45 1.52v14.84z"/><path d="m1072.8 1252.07v1.08c-.98 0-1.66.21-2.05.62s-.58 1.09-.58 2.05v2.81c0 .8-.08 1.5-.24 2.09-.15.59-.4 1.08-.75 1.47-.35.38-.82.67-1.4.86-.59.18-1.31.28-2.17.28v-1.72c.68 0 1.21-.11 1.6-.33.39-.21.66-.53.82-.97s.25-1 .25-1.68v-3.51c0-.46.05-.87.17-1.25.12-.37.35-.69.67-.96s.77-.48 1.37-.63c.59-.14 1.36-.21 2.31-.21zm-7.19-11.19c.86 0 1.58.09 2.17.28.58.18 1.05.47 1.4.86.35.38.6.87.75 1.46.16.59.24 1.29.24 2.1v2.8c0 .96.19 1.65.58 2.05.39.41 1.07.62 2.05.62v1.09c-.95 0-1.72-.08-2.31-.22-.6-.15-1.05-.36-1.37-.63s-.55-.59-.67-.96-.17-.79-.17-1.25v-3.5c0-.69-.09-1.25-.25-1.69s-.43-.77-.82-.98-.92-.32-1.6-.32zm7.19 10.17v2.1h-2.07v-2.1z"/><path d="m1083.29 1252.1c0-2.21.29-4.24.86-6.09.58-1.86 1.4-3.57 2.47-5.13h1.83c-.42.57-.82 1.29-1.19 2.13-.36.85-.68 1.77-.95 2.79-.28 1-.49 2.04-.65 3.12-.15 1.07-.23 2.13-.23 3.18 0 1.39.14 2.8.41 4.24.26 1.43.63 2.76 1.08 3.99.46 1.23.97 2.22 1.53 3h-1.83c-1.07-1.56-1.89-3.27-2.47-5.13-.57-1.85-.86-3.89-.86-6.1z"/><path d="m1101.61 1246.21c-.11-.89-.54-1.58-1.28-2.07-.75-.49-1.67-.74-2.76-.74-.79 0-1.49.13-2.09.39-.59.25-1.05.61-1.38 1.06s-.49.96-.49 1.53c0 .48.11.89.34 1.24.23.34.53.62.89.85.37.22.75.41 1.14.55.4.14.77.26 1.1.34l1.82.5c.47.12.99.29 1.57.5.57.22 1.13.52 1.65.89.54.37.97.84 1.32 1.42.34.58.52 1.29.52 2.13 0 .97-.26 1.85-.77 2.63-.5.79-1.24 1.41-2.21 1.87-.96.46-2.13.69-3.51.69-1.29 0-2.4-.2-3.34-.62-.94-.41-1.68-.99-2.21-1.74-.54-.74-.84-1.6-.91-2.58h2.25c.06.68.28 1.24.68 1.68s.91.77 1.53.98 1.28.32 2 .32c.83 0 1.57-.14 2.23-.4.66-.28 1.19-.66 1.57-1.14.39-.5.58-1.07.58-1.72 0-.6-.17-1.08-.5-1.46-.33-.37-.77-.68-1.31-.91-.55-.23-1.14-.44-1.77-.61l-2.21-.64c-1.4-.4-2.51-.98-3.33-1.72-.82-.75-1.23-1.73-1.23-2.94 0-1.01.27-1.88.82-2.63.55-.76 1.28-1.34 2.21-1.76s1.97-.63 3.11-.63c1.16 0 2.19.21 3.09.62s1.61.97 2.14 1.69c.53.71.81 1.52.84 2.43z"/><path d="m1113.11 1246.21v1.75h-6.98v-1.75zm-4.95-3.23h2.07v12.84c0 .58.09 1.02.26 1.31s.4.48.66.58c.28.1.57.14.87.14.23 0 .42-.01.56-.03.15-.03.27-.05.35-.07l.43 1.86c-.14.05-.34.1-.59.16-.25.05-.57.08-.96.08-.58 0-1.16-.12-1.72-.37-.55-.25-1.01-.64-1.38-1.15-.36-.52-.55-1.17-.55-1.95z"/><path d="m1116.22 1259.68v-13.47h2v2.03h.14c.25-.66.69-1.21 1.34-1.62.64-.42 1.36-.62 2.17-.62.15 0 .34 0 .57.01.23 0 .4.01.52.02v2.11c-.07-.02-.23-.05-.48-.08-.25-.04-.51-.06-.78-.06-.66 0-1.24.13-1.76.41-.51.27-.91.64-1.21 1.12-.29.47-.44 1.02-.44 1.62v8.53z"/><path d="m1130.65 1259.96c-1.3 0-2.42-.29-3.36-.86-.93-.58-1.66-1.39-2.16-2.42-.51-1.04-.76-2.25-.76-3.63s.25-2.6.76-3.65c.5-1.06 1.21-1.88 2.12-2.47.91-.6 1.97-.9 3.19-.9.7 0 1.39.12 2.08.35.68.24 1.31.62 1.87 1.14s1.01 1.21 1.34 2.07.5 1.92.5 3.18v.87h-10.39v-1.78h8.28c0-.76-.15-1.44-.45-2.04s-.73-1.07-1.28-1.41c-.55-.35-1.2-.52-1.95-.52-.82 0-1.54.21-2.14.62-.6.4-1.06.92-1.38 1.57s-.48 1.35-.48 2.09v1.19c0 1.02.18 1.88.53 2.59.35.7.85 1.24 1.48 1.61.63.36 1.36.54 2.2.54.54 0 1.04-.08 1.47-.23.45-.16.83-.39 1.15-.7.32-.32.57-.71.75-1.18l2 .57c-.21.67-.57 1.27-1.06 1.79-.5.5-1.11.9-1.85 1.19-.73.28-1.55.42-2.46.42z"/><path d="m1145.02 1259.96c-1.29 0-2.41-.29-3.35-.86-.94-.58-1.66-1.39-2.17-2.42-.5-1.04-.75-2.25-.75-3.63s.25-2.6.75-3.65c.51-1.06 1.22-1.88 2.12-2.47.91-.6 1.98-.9 3.19-.9.71 0 1.4.12 2.08.35.69.24 1.31.62 1.87 1.14s1.01 1.21 1.34 2.07c.34.86.5 1.92.5 3.18v.87h-10.38v-1.78h8.28c0-.76-.15-1.44-.46-2.04-.3-.6-.72-1.07-1.28-1.41-.55-.35-1.2-.52-1.95-.52-.82 0-1.53.21-2.14.62-.59.4-1.05.92-1.37 1.57s-.48 1.35-.48 2.09v1.19c0 1.02.17 1.88.52 2.59.36.7.85 1.24 1.48 1.61.63.36 1.37.54 2.2.54.55 0 1.04-.08 1.48-.23.44-.16.83-.39 1.15-.7.32-.32.57-.71.74-1.18l2 .57c-.21.67-.56 1.27-1.06 1.79-.5.5-1.11.9-1.84 1.19-.73.28-1.55.42-2.47.42z"/><path d="m1159.61 1246.21v1.75h-6.98v-1.75zm-4.95-3.23h2.07v12.84c0 .58.09 1.02.26 1.31s.39.48.66.58c.28.1.57.14.87.14.23 0 .42-.01.56-.03.15-.03.27-.05.35-.07l.43 1.86c-.15.05-.34.1-.59.16-.25.05-.57.08-.96.08-.58 0-1.16-.12-1.72-.37-.55-.25-1.01-.64-1.38-1.15-.37-.52-.55-1.17-.55-1.95z"/><path d="m1167.14 1252.1c0 2.21-.29 4.25-.87 6.1-.57 1.86-1.39 3.57-2.46 5.13h-1.82c.42-.58.81-1.3 1.17-2.14.37-.85.69-1.77.97-2.77.27-1.02.48-2.06.64-3.14.15-1.08.23-2.14.23-3.18 0-1.39-.13-2.8-.4-4.24-.27-1.43-.63-2.76-1.09-3.99-.45-1.22-.96-2.22-1.52-2.99h1.82c1.07 1.56 1.89 3.27 2.46 5.13.58 1.85.87 3.88.87 6.09z"/><path d="m1173.18 1259.82c-.43 0-.8-.16-1.11-.47s-.47-.68-.47-1.11.16-.8.47-1.11.68-.47 1.11-.47.8.16 1.11.47.47.68.47 1.11c0 .29-.08.55-.22.79s-.33.43-.57.58c-.24.14-.5.21-.79.21zm0-10c-.43 0-.8-.15-1.11-.46s-.47-.69-.47-1.12.16-.8.47-1.11.68-.47 1.11-.47.8.16 1.11.47.47.68.47 1.11c0 .29-.08.55-.22.79s-.33.43-.57.58c-.24.14-.5.21-.79.21z"/><path d="m1191.28 1246.21v1.75h-6.98v-1.75zm-4.95-3.23h2.07v12.84c0 .58.08 1.02.25 1.31.18.29.4.48.67.58.28.1.56.14.87.14.23 0 .41-.01.56-.03.15-.03.26-.05.35-.07l.42 1.86c-.14.05-.33.1-.59.16-.25.05-.57.08-.95.08-.59 0-1.16-.12-1.72-.37s-1.02-.64-1.39-1.15c-.36-.52-.54-1.17-.54-1.95z"/><path d="m1196.75 1251.57v8.11h-2.07v-17.96h2.07v6.59h.17c.32-.69.79-1.25 1.43-1.66.63-.41 1.48-.62 2.54-.62.92 0 1.72.19 2.41.55.69.37 1.23.93 1.61 1.68s.57 1.7.57 2.86v8.56h-2.07v-8.42c0-1.07-.27-1.9-.83-2.48-.55-.59-1.31-.89-2.29-.89-.68 0-1.28.14-1.82.43-.53.29-.96.71-1.26 1.25-.31.55-.46 1.22-.46 2z"/><path d="m1214.92 1259.96c-1.3 0-2.42-.29-3.36-.86-.94-.58-1.66-1.39-2.17-2.42-.5-1.04-.75-2.25-.75-3.63s.25-2.6.75-3.65c.51-1.06 1.22-1.88 2.13-2.47.91-.6 1.97-.9 3.19-.9.7 0 1.39.12 2.08.35.68.24 1.3.62 1.86 1.14.57.52 1.01 1.21 1.35 2.07.33.86.5 1.92.5 3.18v.87h-10.39v-1.78h8.28c0-.76-.15-1.44-.45-2.04s-.73-1.07-1.29-1.41c-.54-.35-1.19-.52-1.94-.52-.83 0-1.54.21-2.14.62-.6.4-1.06.92-1.38 1.57s-.48 1.35-.48 2.09v1.19c0 1.02.17 1.88.53 2.59.35.7.85 1.24 1.48 1.61.63.36 1.36.54 2.2.54.54 0 1.03-.08 1.47-.23.45-.16.83-.39 1.15-.7.32-.32.57-.71.75-1.18l2 .57c-.21.67-.57 1.27-1.07 1.79-.49.5-1.11.9-1.84 1.19-.73.28-1.55.42-2.46.42z"/><path d="m1236.06 1259.96c-1.21 0-2.28-.29-3.2-.87-.91-.58-1.62-1.39-2.14-2.43-.51-1.04-.76-2.26-.76-3.65 0-1.4.25-2.63.76-3.67.52-1.05 1.23-1.86 2.14-2.44.92-.58 1.99-.87 3.2-.87 1.22 0 2.28.29 3.2.87.91.58 1.63 1.39 2.14 2.44.51 1.04.77 2.27.77 3.67 0 1.39-.26 2.61-.77 3.65s-1.23 1.85-2.14 2.43c-.92.58-1.98.87-3.2.87zm0-1.86c.93 0 1.69-.24 2.28-.71.6-.47 1.04-1.1 1.33-1.87.28-.77.43-1.61.43-2.51s-.15-1.74-.43-2.51c-.29-.78-.73-1.41-1.33-1.89-.59-.48-1.35-.72-2.28-.72-.92 0-1.68.24-2.28.72-.59.48-1.03 1.11-1.32 1.89-.29.77-.43 1.61-.43 2.51s.14 1.74.43 2.51.73 1.4 1.32 1.87c.6.47 1.36.71 2.28.71z"/><path d="m1245.33 1259.68v-13.47h2v2.03h.14c.24-.66.69-1.21 1.33-1.62.64-.42 1.37-.62 2.17-.62.16 0 .35 0 .57.01.23 0 .41.01.52.02v2.11c-.07-.02-.23-.05-.48-.08-.25-.04-.51-.06-.78-.06-.66 0-1.24.13-1.75.41-.51.27-.92.64-1.21 1.12-.3.47-.44 1.02-.44 1.62v8.53z"/><path d="m1254.52 1259.68v-13.47h2.07v13.47zm1.05-15.72c-.41 0-.75-.14-1.05-.41-.28-.27-.43-.61-.43-.99 0-.39.15-.72.43-.99.3-.28.64-.41 1.05-.41.4 0 .75.13 1.03.41.3.27.44.6.44.99 0 .38-.14.72-.44.99-.28.27-.63.41-1.03.41z"/><path d="m1265.81 1265.01c-1 0-1.86-.13-2.57-.39-.72-.25-1.32-.58-1.8-1-.48-.4-.85-.84-1.13-1.31l1.64-1.16c.19.25.43.53.72.84.28.33.67.6 1.17.84s1.16.36 1.97.36c1.09 0 1.99-.27 2.7-.79.7-.53 1.06-1.35 1.06-2.48v-2.73h-.18c-.15.24-.37.55-.65.91-.27.36-.67.67-1.19.96-.51.27-1.21.41-2.09.41-1.08 0-2.06-.26-2.93-.77-.86-.52-1.54-1.27-2.04-2.25s-.75-2.17-.75-3.58c0-1.38.25-2.58.73-3.6.49-1.03 1.16-1.83 2.03-2.39.86-.56 1.86-.85 3-.85.88 0 1.57.15 2.09.44s.91.61 1.19.98.5.66.65.9h.21v-2.14h2v13.85c0 1.16-.27 2.1-.79 2.83s-1.22 1.26-2.11 1.6c-.87.35-1.85.52-2.93.52zm-.07-7.4c.83 0 1.54-.19 2.11-.57s1.01-.93 1.31-1.64c.29-.71.44-1.57.44-2.56 0-.97-.14-1.83-.44-2.57-.29-.74-.72-1.33-1.29-1.75-.58-.42-1.28-.63-2.13-.63-.87 0-1.6.22-2.19.67-.58.44-1.01 1.04-1.31 1.79-.28.75-.43 1.58-.43 2.49 0 .93.15 1.76.44 2.48.3.71.74 1.27 1.32 1.68s1.31.61 2.17.61z"/><path d="m1275.43 1259.68v-13.47h2.07v13.47zm1.05-15.72c-.41 0-.75-.14-1.05-.41-.28-.27-.43-.61-.43-.99 0-.39.15-.72.43-.99.3-.28.64-.41 1.05-.41.4 0 .75.13 1.03.41.3.27.44.6.44.99 0 .38-.14.72-.44.99-.28.27-.63.41-1.03.41z"/><path d="m1283.36 1251.57v8.11h-2.07v-13.47h2v2.1h.17c.32-.68.8-1.23 1.44-1.65s1.47-.63 2.49-.63c.91 0 1.71.19 2.39.56.69.37 1.22.93 1.6 1.69.38.75.57 1.69.57 2.84v8.56h-2.07v-8.42c0-1.06-.27-1.88-.82-2.47-.55-.6-1.31-.9-2.27-.9-.66 0-1.25.14-1.77.43-.51.29-.92.71-1.22 1.25-.29.55-.44 1.22-.44 2z"/><path d="m1308.15 1259.96c-1.21 0-2.28-.29-3.2-.87-.91-.58-1.62-1.39-2.14-2.43-.51-1.04-.76-2.26-.76-3.65 0-1.4.25-2.63.76-3.67.52-1.05 1.23-1.86 2.14-2.44.92-.58 1.99-.87 3.2-.87 1.22 0 2.28.29 3.19.87.92.58 1.64 1.39 2.14 2.44.52 1.04.78 2.27.78 3.67 0 1.39-.26 2.61-.78 3.65-.5 1.04-1.22 1.85-2.14 2.43-.91.58-1.97.87-3.19.87zm0-1.86c.93 0 1.69-.24 2.28-.71.6-.47 1.04-1.1 1.33-1.87.28-.77.43-1.61.43-2.51s-.15-1.74-.43-2.51c-.29-.78-.73-1.41-1.33-1.89-.59-.48-1.35-.72-2.28-.72-.92 0-1.68.24-2.28.72-.59.48-1.04 1.11-1.32 1.89-.29.77-.43 1.61-.43 2.51s.14 1.74.43 2.51c.28.77.73 1.4 1.32 1.87.6.47 1.36.71 2.28.71z"/><path d="m1323.41 1246.21v1.75h-7.26v-1.75zm-5.08 13.47v-15.33c0-.77.18-1.42.54-1.93.36-.52.83-.9 1.41-1.16s1.19-.38 1.84-.38c.5 0 .92.04 1.24.12s.56.16.72.23l-.6 1.78c-.1-.03-.25-.07-.43-.13-.19-.05-.43-.08-.72-.08-.69 0-1.18.18-1.49.52-.29.35-.44.85-.44 1.52v14.84z"/><path d="m1338.73 1259.96c-1.26 0-2.35-.3-3.26-.9-.91-.59-1.61-1.41-2.1-2.46-.5-1.05-.74-2.24-.74-3.59 0-1.37.25-2.57.75-3.62.51-1.05 1.22-1.87 2.13-2.46.91-.6 1.97-.9 3.19-.9.95 0 1.8.18 2.56.53s1.38.84 1.87 1.47c.48.63.78 1.37.9 2.21h-2.07c-.16-.61-.51-1.16-1.05-1.63-.54-.48-1.26-.72-2.18-.72-.8 0-1.51.21-2.12.63-.6.42-1.07 1.01-1.41 1.77-.33.75-.5 1.64-.5 2.65 0 1.04.16 1.95.49 2.72s.8 1.37 1.4 1.8c.61.43 1.32.64 2.14.64.54 0 1.03-.09 1.47-.28s.81-.46 1.11-.81c.31-.35.52-.77.65-1.26h2.07c-.12.79-.41 1.51-.87 2.15-.45.63-1.06 1.13-1.81 1.51-.75.36-1.62.55-2.62.55z"/><path d="m1352.53 1259.96c-1.22 0-2.28-.29-3.2-.87-.91-.58-1.63-1.39-2.14-2.43s-.77-2.26-.77-3.65c0-1.4.26-2.63.77-3.67.51-1.05 1.23-1.86 2.14-2.44.92-.58 1.98-.87 3.2-.87 1.21 0 2.28.29 3.19.87.92.58 1.63 1.39 2.14 2.44.52 1.04.77 2.27.77 3.67 0 1.39-.25 2.61-.77 3.65-.51 1.04-1.22 1.85-2.14 2.43-.91.58-1.98.87-3.19.87zm0-1.86c.92 0 1.68-.24 2.28-.71s1.04-1.1 1.32-1.87c.29-.77.43-1.61.43-2.51s-.14-1.74-.43-2.51c-.28-.78-.72-1.41-1.32-1.89s-1.36-.72-2.28-.72c-.93 0-1.69.24-2.28.72-.6.48-1.04 1.11-1.33 1.89-.28.77-.43 1.61-.43 2.51s.15 1.74.43 2.51c.29.77.73 1.4 1.33 1.87.59.47 1.35.71 2.28.71z"/><path d="m1361.79 1259.68v-13.47h2v2.1h.18c.28-.72.73-1.28 1.36-1.67.62-.41 1.37-.61 2.25-.61.89 0 1.63.2 2.22.61.6.39 1.06.95 1.39 1.67h.14c.35-.69.87-1.25 1.56-1.66s1.51-.62 2.48-.62c1.2 0 2.19.38 2.95 1.13.77.75 1.15 1.92 1.15 3.5v9.02h-2.07v-9.02c0-.99-.27-1.7-.81-2.13-.55-.43-1.19-.64-1.92-.64-.95 0-1.68.29-2.2.86s-.79 1.29-.79 2.16v8.77h-2.1v-9.23c0-.76-.25-1.38-.75-1.85-.49-.47-1.13-.71-1.92-.71-.53 0-1.04.14-1.5.43-.47.29-.84.68-1.13 1.19-.28.51-.42 1.09-.42 1.75v8.42z"/><path d="m1383.26 1259.68v-13.47h2v2.1h.17c.28-.72.74-1.28 1.36-1.67.63-.41 1.38-.61 2.26-.61s1.62.2 2.21.61c.6.39 1.07.95 1.4 1.67h.14c.34-.69.86-1.25 1.55-1.66s1.52-.62 2.48-.62c1.21 0 2.19.38 2.96 1.13.76.75 1.15 1.92 1.15 3.5v9.02h-2.07v-9.02c0-.99-.27-1.7-.82-2.13-.54-.43-1.18-.64-1.92-.64-.95 0-1.68.29-2.2.86s-.78 1.29-.78 2.16v8.77h-2.11v-9.23c0-.76-.24-1.38-.74-1.85s-1.14-.71-1.92-.71c-.54 0-1.04.14-1.51.43-.46.29-.84.68-1.12 1.19s-.42 1.09-.42 1.75v8.42z"/><path d="m1410.37 1259.96c-1.3 0-2.42-.29-3.36-.86-.93-.58-1.66-1.39-2.17-2.42-.5-1.04-.75-2.25-.75-3.63s.25-2.6.75-3.65c.51-1.06 1.22-1.88 2.13-2.47.91-.6 1.97-.9 3.19-.9.7 0 1.39.12 2.08.35.68.24 1.3.62 1.87 1.14.56.52 1 1.21 1.34 2.07.33.86.5 1.92.5 3.18v.87h-10.39v-1.78h8.28c0-.76-.15-1.44-.45-2.04s-.73-1.07-1.28-1.41c-.55-.35-1.2-.52-1.95-.52-.82 0-1.54.21-2.14.62-.6.4-1.06.92-1.38 1.57s-.48 1.35-.48 2.09v1.19c0 1.02.18 1.88.53 2.59.35.7.85 1.24 1.48 1.61.63.36 1.36.54 2.2.54.54 0 1.03-.08 1.47-.23.45-.16.83-.39 1.15-.7.32-.32.57-.71.75-1.18l2 .57c-.21.67-.57 1.27-1.06 1.79-.5.5-1.11.9-1.85 1.19-.73.28-1.55.42-2.46.42z"/><path d="m1419.1 1259.68v-13.47h2v2.03h.14c.24-.66.69-1.21 1.33-1.62.64-.42 1.37-.62 2.17-.62.16 0 .35 0 .57.01.23 0 .4.01.52.02v2.11c-.07-.02-.23-.05-.48-.08-.25-.04-.51-.06-.78-.06-.66 0-1.24.13-1.76.41-.5.27-.91.64-1.21 1.12-.29.47-.43 1.02-.43 1.62v8.53z"/><path d="m1433.35 1259.96c-1.27 0-2.35-.3-3.26-.9-.92-.59-1.62-1.41-2.11-2.46s-.74-2.24-.74-3.59c0-1.37.26-2.57.76-3.62.51-1.05 1.21-1.87 2.12-2.46.91-.6 1.98-.9 3.19-.9.95 0 1.8.18 2.56.53s1.39.84 1.87 1.47c.49.63.79 1.37.9 2.21h-2.06c-.16-.61-.51-1.16-1.06-1.63-.54-.48-1.26-.72-2.17-.72-.81 0-1.52.21-2.12.63-.61.42-1.08 1.01-1.42 1.77-.33.75-.5 1.64-.5 2.65 0 1.04.17 1.95.49 2.72.34.77.81 1.37 1.41 1.8.61.43 1.32.64 2.14.64.54 0 1.02-.09 1.46-.28s.81-.46 1.12-.81c.3-.35.52-.77.65-1.26h2.06c-.11.79-.4 1.51-.86 2.15-.46.63-1.06 1.13-1.82 1.51-.75.36-1.62.55-2.61.55z"/><path d="m1447.32 1259.96c-1.3 0-2.42-.29-3.36-.86-.94-.58-1.66-1.39-2.17-2.42-.5-1.04-.75-2.25-.75-3.63s.25-2.6.75-3.65c.51-1.06 1.22-1.88 2.13-2.47.91-.6 1.97-.9 3.19-.9.7 0 1.39.12 2.08.35.68.24 1.3.62 1.86 1.14.57.52 1.01 1.21 1.35 2.07.33.86.5 1.92.5 3.18v.87h-10.39v-1.78h8.28c0-.76-.15-1.44-.45-2.04s-.73-1.07-1.28-1.41c-.55-.35-1.2-.52-1.95-.52-.83 0-1.54.21-2.14.62-.6.4-1.06.92-1.38 1.57s-.48 1.35-.48 2.09v1.19c0 1.02.17 1.88.53 2.59.35.7.85 1.24 1.48 1.61.63.36 1.36.54 2.2.54.54 0 1.03-.08 1.47-.23.45-.16.83-.39 1.15-.7.32-.32.57-.71.75-1.18l2 .57c-.21.67-.57 1.27-1.07 1.79-.49.5-1.11.9-1.84 1.19-.73.28-1.55.42-2.46.42z"/><path d="m1466.95 1259.99c-.85 0-1.62-.16-2.32-.48-.69-.33-1.25-.8-1.66-1.41-.41-.62-.61-1.37-.61-2.25 0-.77.15-1.39.46-1.87.3-.49.71-.87 1.21-1.14.51-.28 1.07-.48 1.69-.62s1.24-.25 1.87-.33c.81-.1 1.48-.18 1.99-.24.51-.05.89-.15 1.12-.29.24-.13.36-.36.36-.7v-.07c0-.86-.24-1.54-.71-2.01-.47-.48-1.18-.72-2.13-.72-.99 0-1.77.21-2.33.65-.56.43-.95.89-1.18 1.38l-1.96-.7c.35-.82.81-1.46 1.4-1.91.59-.46 1.23-.79 1.93-.97s1.39-.28 2.07-.28c.43 0 .93.05 1.49.16.57.1 1.11.31 1.64.62.53.32.97.79 1.32 1.43s.53 1.49.53 2.56v8.88h-2.07v-1.83h-.11c-.14.3-.37.61-.7.94-.32.34-.76.62-1.3.85-.55.24-1.21.35-2 .35zm.32-1.86c.82 0 1.51-.16 2.07-.48.57-.32.99-.73 1.28-1.24s.44-1.05.44-1.61v-1.89c-.09.1-.28.2-.58.29-.29.08-.63.15-1.02.22-.38.05-.75.11-1.11.15-.36.05-.65.08-.87.11-.54.07-1.04.18-1.51.34-.46.15-.83.38-1.12.69-.28.31-.42.72-.42 1.25 0 .72.27 1.26.8 1.63.54.36 1.22.54 2.04.54z"/><path d="m1478.98 1251.57v8.11h-2.07v-13.47h2v2.1h.17c.32-.68.8-1.23 1.44-1.65s1.47-.63 2.49-.63c.91 0 1.71.19 2.4.56.68.37 1.21.93 1.59 1.69.38.75.57 1.69.57 2.84v8.56h-2.07v-8.42c0-1.06-.27-1.88-.82-2.47-.55-.6-1.31-.9-2.27-.9-.66 0-1.25.14-1.77.43-.51.29-.92.71-1.22 1.25-.29.55-.44 1.22-.44 2z"/><path d="m1496.44 1259.96c-1.12 0-2.11-.28-2.97-.85s-1.53-1.38-2.02-2.42c-.49-1.05-.73-2.29-.73-3.71s.24-2.64.73-3.69c.49-1.04 1.16-1.84 2.03-2.41.86-.56 1.86-.85 3-.85.87 0 1.57.15 2.07.44.52.29.91.61 1.18.98s.49.66.64.9h.17v-6.63h2.07v17.96h-2v-2.07h-.24c-.15.24-.37.55-.65.93-.28.37-.68.7-1.2.99s-1.21.43-2.08.43zm.28-1.86c.83 0 1.53-.22 2.11-.65.57-.44 1-1.04 1.3-1.81.3-.78.45-1.68.45-2.7 0-1-.15-1.88-.44-2.64s-.72-1.35-1.3-1.77c-.57-.43-1.28-.64-2.12-.64-.88 0-1.61.23-2.19.68-.58.44-1.02 1.05-1.31 1.81-.28.76-.43 1.62-.43 2.56 0 .96.15 1.83.44 2.62.3.77.74 1.39 1.32 1.86.58.45 1.31.68 2.17.68z"/><path d="m1513.64 1259.68v-13.47h2v2.03h.14c.24-.66.69-1.21 1.33-1.62.64-.42 1.37-.62 2.18-.62.15 0 .34 0 .57.01.22 0 .4.01.51.02v2.11c-.07-.02-.23-.05-.48-.08-.24-.04-.5-.06-.78-.06-.65 0-1.24.13-1.75.41-.51.27-.92.64-1.21 1.12-.3.47-.44 1.02-.44 1.62v8.53z"/><path d="m1528.07 1259.96c-1.3 0-2.42-.29-3.36-.86-.94-.58-1.66-1.39-2.17-2.42-.5-1.04-.75-2.25-.75-3.63s.25-2.6.75-3.65c.51-1.06 1.22-1.88 2.12-2.47.91-.6 1.98-.9 3.19-.9.71 0 1.4.12 2.08.35.69.24 1.31.62 1.87 1.14s1.01 1.21 1.34 2.07c.34.86.5 1.92.5 3.18v.87h-10.38v-1.78h8.28c0-.76-.15-1.44-.46-2.04-.3-.6-.72-1.07-1.28-1.41-.55-.35-1.2-.52-1.95-.52-.82 0-1.53.21-2.14.62-.59.4-1.05.92-1.37 1.57s-.48 1.35-.48 2.09v1.19c0 1.02.17 1.88.52 2.59.36.7.85 1.24 1.48 1.61.64.36 1.37.54 2.21.54.54 0 1.03-.08 1.47-.23.44-.16.83-.39 1.15-.7.32-.32.57-.71.74-1.18l2 .57c-.21.67-.56 1.27-1.06 1.79-.5.5-1.11.9-1.84 1.19-.73.28-1.55.42-2.46.42z"/><path d="m1542.65 1246.21v1.75h-6.98v-1.75zm-4.95-3.23h2.07v12.84c0 .58.09 1.02.26 1.31s.4.48.66.58c.28.1.57.14.87.14.23 0 .42-.01.56-.03.15-.03.27-.05.35-.07l.43 1.86c-.14.05-.34.1-.59.16-.25.05-.57.08-.96.08-.58 0-1.16-.12-1.72-.37-.55-.25-1.01-.64-1.38-1.15-.37-.52-.55-1.17-.55-1.95z"/><path d="m1549.73 1259.99c-.86 0-1.63-.16-2.33-.48-.69-.33-1.24-.8-1.65-1.41-.41-.62-.62-1.37-.62-2.25 0-.77.15-1.39.46-1.87.3-.49.71-.87 1.22-1.14.51-.28 1.07-.48 1.68-.62.62-.14 1.24-.25 1.87-.33.82-.1 1.48-.18 1.99-.24.51-.05.89-.15 1.12-.29.24-.13.36-.36.36-.7v-.07c0-.86-.23-1.54-.71-2.01-.47-.48-1.18-.72-2.13-.72-.99 0-1.76.21-2.32.65-.56.43-.96.89-1.19 1.38l-1.96-.7c.35-.82.82-1.46 1.4-1.91.59-.46 1.23-.79 1.93-.97s1.39-.28 2.07-.28c.43 0 .93.05 1.49.16.57.1 1.12.31 1.64.62.53.32.97.79 1.33 1.43.35.64.52 1.49.52 2.56v8.88h-2.07v-1.83h-.1c-.14.3-.38.61-.7.94-.33.34-.77.62-1.31.85-.55.24-1.21.35-1.99.35zm.31-1.86c.82 0 1.51-.16 2.07-.48.57-.32 1-.73 1.28-1.24.3-.51.44-1.05.44-1.61v-1.89c-.09.1-.28.2-.58.29-.29.08-.63.15-1.01.22-.38.05-.76.11-1.12.15-.35.05-.64.08-.87.11-.53.07-1.04.18-1.5.34-.47.15-.84.38-1.13.69-.28.31-.42.72-.42 1.25 0 .72.27 1.26.8 1.63.54.36 1.22.54 2.04.54z"/><path d="m1559.68 1259.68v-13.47h2.07v13.47zm1.05-15.72c-.4 0-.75-.14-1.04-.41s-.43-.61-.43-.99c0-.39.14-.72.43-.99.29-.28.64-.41 1.04-.41.41 0 .75.13 1.04.41.29.27.44.6.44.99 0 .38-.15.72-.44.99s-.63.41-1.04.41z"/><path d="m1567.61 1241.72v17.96h-2.07v-17.96z"/><path d="m2330.99 90.3704v-15.7161h10.22v2.3866h-7.38v4.2666h6.85v2.3866h-6.85v4.2897h7.44v2.3866z"/><path d="m2346.77 83.4639v6.9065h-2.78v-11.7871h2.65v2.0029h.14c.27-.6599.71-1.1843 1.3-1.5731.6-.3889 1.34-.5833 2.22-.5833.81 0 1.52.174 2.12.5219.61.3479 1.08.8518 1.42 1.5117.33.66.5 1.4606.49 2.4019v7.5051h-2.77v-7.0753c0-.7879-.21-1.4043-.62-1.8494-.4-.4451-.96-.6676-1.68-.6676-.48 0-.92.1074-1.3.3223-.37.2097-.66.5141-.88.9131-.21.3991-.31.8825-.31 1.4504z"/><path d="m2362.28 95.0361c-.99 0-1.85-.1356-2.57-.4067-.71-.266-1.29-.6241-1.72-1.0743-.44-.4502-.74-.949-.91-1.4964l2.5-.6063c.12.2302.28.4579.49.683.22.2302.51.4195.87.5679.37.1534.83.2302 1.39.2302.79 0 1.44-.1919 1.96-.5756.51-.3785.77-1.0027.77-1.8724v-2.2331h-.14c-.14.2865-.35.5807-.63.8825-.27.3018-.63.5551-1.08.7597-.44.2047-1 .307-1.68.307-.9 0-1.72-.2123-2.46-.637-.73-.4297-1.32-1.0692-1.75-1.9184-.43-.8544-.65-1.9236-.65-3.2077 0-1.2943.22-2.3866.65-3.2768.43-.8952 1.02-1.5731 1.76-2.0335.73-.4656 1.55-.6984 2.46-.6984.69 0 1.26.1177 1.7.353.45.2303.81.5091 1.08.8365.26.3223.47.6267.6.9132h.16v-1.9492h2.74v11.9789c0 1.0079-.24 1.8418-.72 2.5017-.49.66-1.14 1.1537-1.98 1.4811-.83.3274-1.78.4911-2.84.4911zm.03-7.0139c.59 0 1.09-.1433 1.5-.4297.42-.2865.73-.6984.95-1.2355.21-.5372.32-1.1818.32-1.9339 0-.7418-.11-1.3915-.32-1.9491-.21-.5577-.53-.99-.94-1.2969-.41-.3121-.91-.4681-1.51-.4681-.62 0-1.14.1611-1.55.4834-.42.3223-.73.7649-.94 1.3276-.21.5577-.31 1.192-.31 1.9031 0 .7214.1 1.3532.31 1.8955.22.5372.53.9567.94 1.2585.42.2967.94.4451 1.55.4451z"/><path d="m2386.87 90.3704v-15.7161h10.22v2.3866h-7.38v4.2666h6.85v2.3866h-6.85v4.2897h7.44v2.3866z"/><path d="m2409.19 81.6989-2.54.2763c-.07-.2558-.19-.4963-.37-.7214s-.41-.4067-.71-.5448c-.29-.1381-.66-.2072-1.09-.2072-.58 0-1.06.1253-1.46.376-.38.2507-.58.5756-.57.9746-.01.3428.12.6216.38.8364.26.2149.69.3914 1.28.5295l2.02.4298c1.11.2404 1.94.6216 2.48 1.1434.55.5218.83 1.2048.83 2.0489 0 .7418-.22 1.3967-.65 1.9645-.43.5628-1.02 1.0027-1.77 1.3199-.76.3172-1.63.4758-2.61.4758-1.45 0-2.61-.3018-3.49-.9055-.88-.6088-1.4-1.4555-1.57-2.5401l2.71-.2609c.12.5321.38.9337.78 1.2048.4.2712.92.4067 1.56.4067.66 0 1.19-.1355 1.59-.4067.4-.2711.6-.6062.6-1.0052 0-.3377-.13-.6165-.39-.8365-.25-.22-.65-.3888-1.2-.5065l-2.01-.422c-1.13-.2354-1.96-.6319-2.51-1.1895-.54-.5627-.81-1.2739-.8-2.1333-.01-.7265.19-1.3557.59-1.8878.4-.5372.96-.9516 1.68-1.2432.72-.2967 1.55-.4451 2.49-.4451 1.39 0 2.47.2942 3.27.8825.79.5884 1.29 1.3839 1.48 2.3866z"/><path d="m2411.73 94.7906v-16.2073h2.73v1.9492h.16c.15-.2865.35-.5909.61-.9132.26-.3274.61-.6062 1.06-.8365.44-.2353 1.01-.353 1.7-.353.91 0 1.73.2328 2.47.6984.73.4604 1.32 1.1434 1.75 2.0489.43.9004.65 2.0054.65 3.3151 0 1.2943-.21 2.3943-.64 3.2998-.42.9055-1 1.5961-1.73 2.0719s-1.56.7137-2.49.7137c-.67 0-1.24-.1126-1.68-.3377-.45-.2251-.8-.4962-1.07-.8134-.27-.3223-.48-.6267-.63-.9132h-.11v6.2773zm2.73-10.3137c0 .7622.1 1.4299.32 2.0028.22.573.53 1.0207.94 1.343.42.3172.92.4757 1.51.4757.61 0 1.12-.1637 1.54-.4911.41-.3325.72-.7853.93-1.3583.22-.5781.33-1.2354.33-1.9721 0-.7316-.11-1.3813-.32-1.9492s-.52-1.013-.93-1.3353c-.42-.3223-.94-.4834-1.55-.4834-.6 0-1.1.156-1.52.4681-.41.3121-.73.7495-.94 1.3122-.21.5628-.31 1.2253-.31 1.9876z"/><rect height="111" rx="55.5" width="276" x="1128.41" y="925"/></g><path d="m1204.95 973.249c-.1-.862-.48-1.533-1.17-2.013-.68-.48-1.56-.72-2.64-.72-.77 0-1.42.115-1.97.345-.54.231-.96.543-1.25.938-.29.394-.44.845-.44 1.351 0 .421.09.786.28 1.096.2.309.47.572.8.789.34.21.71.388 1.12.533.4.144.82.266 1.23.365l1.89.473c.77.178 1.5.418 2.21.721.71.302 1.34.684 1.9 1.144s1.01 1.016 1.34 1.667c.33.652.49 1.415.49 2.289 0 1.184-.3 2.227-.9 3.128-.61.895-1.48 1.595-2.63 2.102-1.14.5-2.51.749-4.13.749-1.57 0-2.94-.243-4.1-.73-1.15-.486-2.05-1.197-2.7-2.131-.64-.934-.99-2.072-1.05-3.414h3.61c.05.704.27 1.29.65 1.757s.87.815 1.49 1.046c.61.23 1.31.345 2.07.345.79 0 1.49-.119 2.09-.355.61-.244 1.08-.579 1.42-1.007.34-.434.52-.94.52-1.519 0-.526-.16-.96-.46-1.303-.3-.348-.73-.638-1.27-.868-.54-.237-1.17-.447-1.9-.631l-2.3-.592c-1.66-.428-2.98-1.076-3.94-1.944-.96-.875-1.44-2.036-1.44-3.483 0-1.19.32-2.233.96-3.127.66-.895 1.54-1.589 2.66-2.082 1.12-.5 2.38-.75 3.8-.75 1.43 0 2.69.25 3.77.75 1.08.493 1.93 1.18 2.55 2.062.62.875.94 1.881.96 3.019z" fill="#372fff"/><path d="m1219.42 972.746v2.762h-8.71v-2.762zm-6.56-3.631h3.57v14.227c0 .481.07.849.21 1.105.16.25.35.421.6.513.24.093.51.139.81.139.22 0 .42-.017.61-.05s.33-.062.43-.089l.6 2.793c-.19.065-.46.138-.82.217-.34.079-.77.125-1.28.138-.89.026-1.7-.109-2.42-.405-.71-.302-1.28-.769-1.7-1.401-.42-.631-.62-1.42-.61-2.368z" fill="#372fff"/><path d="m1226.77 988.206c-.96 0-1.83-.171-2.6-.513-.76-.348-1.37-.861-1.81-1.539-.45-.677-.67-1.513-.67-2.506 0-.855.16-1.562.48-2.121.31-.559.74-1.006 1.29-1.342.55-.335 1.16-.589 1.85-.76.69-.177 1.4-.305 2.14-.384.88-.092 1.6-.175 2.16-.247.55-.079.95-.197 1.2-.355.26-.165.39-.418.39-.76v-.059c0-.743-.22-1.319-.67-1.727-.44-.408-1.07-.612-1.9-.612-.87 0-1.57.191-2.08.573-.51.381-.85.832-1.03 1.351l-3.33-.473c.26-.921.69-1.691 1.3-2.309.6-.625 1.34-1.092 2.22-1.401.87-.316 1.84-.473 2.9-.473.73 0 1.46.085 2.18.256s1.39.454 1.98.849c.6.388 1.08.917 1.44 1.588.37.671.56 1.51.56 2.516v10.143h-3.44v-2.082h-.11c-.22.421-.53.815-.92 1.184-.39.362-.88.654-1.47.878-.59.217-1.28.325-2.06.325zm.92-2.624c.72 0 1.34-.141 1.87-.424.52-.29.93-.671 1.21-1.145.29-.473.44-.99.44-1.549v-1.786c-.12.093-.31.178-.58.257-.26.079-.56.148-.88.207-.33.059-.66.112-.98.158s-.6.086-.84.118c-.53.073-1.01.191-1.43.356-.42.164-.75.394-1 .69-.24.29-.36.665-.36 1.125 0 .658.24 1.154.72 1.49.48.335 1.09.503 1.83.503z" fill="#372fff"/><path d="m1240.04 993.584c-.49 0-.94-.04-1.36-.119-.4-.072-.73-.158-.97-.256l.83-2.783c.52.152.98.224 1.39.218.4-.007.76-.135 1.07-.385.32-.244.58-.651.8-1.224l.31-.819-5.5-15.47h3.79l3.49 11.445h.16l3.5-11.445h3.8l-6.07 16.99c-.28.802-.65 1.49-1.12 2.062-.47.579-1.04 1.019-1.72 1.322-.67.309-1.47.464-2.4.464z" fill="#372fff"/><path d="m1268.28 972.746v2.762h-8.71v-2.762zm-6.56-3.631h3.57v14.227c0 .481.08.849.22 1.105.15.25.35.421.59.513.25.093.52.139.81.139.23 0 .43-.017.61-.05.19-.033.34-.062.44-.089l.6 2.793c-.19.065-.46.138-.82.217-.35.079-.78.125-1.28.138-.9.026-1.7-.109-2.42-.405-.72-.302-1.29-.769-1.71-1.401-.41-.631-.61-1.42-.61-2.368z" fill="#372fff"/><path d="m1280.93 981.527v-8.781h3.57v15.155h-3.46v-2.694h-.16c-.34.849-.9 1.543-1.69 2.082-.77.539-1.73.809-2.87.809-.99 0-1.87-.22-2.63-.661-.76-.447-1.35-1.095-1.78-1.944-.43-.855-.64-1.888-.64-3.098v-9.649h3.57v9.097c0 .96.27 1.723.79 2.289.53.565 1.22.848 2.07.848.53 0 1.04-.128 1.53-.385.5-.256.9-.638 1.22-1.144.32-.513.48-1.154.48-1.924z" fill="#372fff"/><path d="m1291.75 979.021v8.88h-3.58v-15.155h3.42v2.575h.18c.34-.849.9-1.523 1.66-2.023.77-.5 1.72-.749 2.85-.749 1.05 0 1.96.223 2.74.67.78.448 1.38 1.096 1.81 1.944.44.849.65 1.878.64 3.088v9.65h-3.57v-9.097c0-1.013-.26-1.806-.79-2.378-.52-.572-1.24-.858-2.16-.858-.62 0-1.18.138-1.67.414-.48.27-.85.661-1.13 1.174-.27.513-.4 1.135-.4 1.865z" fill="#372fff"/><path d="m1311.81 988.197c-1.52 0-2.83-.316-3.93-.948-1.1-.638-1.95-1.539-2.54-2.703-.59-1.171-.89-2.549-.89-4.134 0-1.559.3-2.927.89-4.104.6-1.184 1.44-2.105 2.51-2.763 1.07-.664 2.33-.996 3.78-.996.93 0 1.81.151 2.64.453.84.296 1.57.757 2.21 1.382.65.625 1.15 1.42 1.52 2.387.37.961.55 2.105.55 3.434v1.095h-12.42v-2.407h9c-.01-.684-.16-1.293-.45-1.826-.28-.539-.69-.963-1.21-1.272-.51-.31-1.11-.464-1.79-.464-.73 0-1.38.177-1.93.533-.55.348-.98.809-1.29 1.381-.3.566-.46 1.187-.46 1.865v2.101c0 .882.16 1.638.48 2.269.32.625.77 1.106 1.35 1.441.58.329 1.26.493 2.03.493.52 0 .99-.072 1.41-.217.43-.151.79-.371 1.1-.661.31-.289.54-.648.7-1.075l3.33.375c-.21.881-.61 1.651-1.2 2.308-.58.652-1.33 1.158-2.25 1.52-.91.355-1.96.533-3.14.533z" fill="#372fff"/><path d="m1327.2 988.167c-1.19 0-2.26-.306-3.2-.918-.94-.611-1.68-1.499-2.23-2.663-.54-1.165-.82-2.579-.82-4.243 0-1.684.28-3.105.83-4.262.56-1.165 1.31-2.043 2.26-2.635.95-.598 2-.897 3.17-.897.89 0 1.62.151 2.19.453.57.296 1.02.655 1.36 1.076.34.414.6.806.78 1.174h.15v-7.558h3.58v20.207h-3.51v-2.388h-.22c-.18.368-.45.76-.8 1.174-.35.408-.81.756-1.38 1.046-.57.289-1.29.434-2.16.434zm.99-2.93c.76 0 1.41-.204 1.94-.612.53-.414.94-.99 1.21-1.727.28-.736.42-1.595.42-2.575s-.14-1.832-.42-2.555c-.27-.724-.67-1.286-1.2-1.687-.53-.402-1.18-.602-1.95-.602-.79 0-1.46.207-1.99.621-.53.415-.93.987-1.2 1.717s-.41 1.566-.41 2.506c0 .947.14 1.793.41 2.536.27.737.68 1.319 1.21 1.746.54.421 1.2.632 1.98.632z" fill="#372fff"/></g><g fill="#fff"><path d="m1136.45 352.502h11.16c.03 1.817.6 3.21 1.7 4.177 1.14.937 2.69 1.406 4.64 1.406 1.74 0 3.08-.381 4.05-1.143.96-.791 1.45-1.861 1.45-3.209 0-1.465-.56-2.623-1.66-3.473-1.08-.85-3.2-1.582-6.35-2.198-4.82-.85-8.39-2.374-10.68-4.572-2.3-2.198-3.45-5.172-3.45-8.924 0-4.22 1.42-7.751 4.25-10.594 2.84-2.843 6.86-4.264 12.05-4.264 4.69 0 8.52 1.333 11.5 4 2.98 2.638 4.56 6.111 4.73 10.419h-11.24c-.09-3.488-1.78-5.232-5.07-5.232-1.56 0-2.77.411-3.62 1.231-.85.821-1.28 1.905-1.28 3.253 0 1.436.54 2.536 1.62 3.298 1.11.761 3.16 1.406 6.17 1.934 5.2.908 8.89 2.491 11.07 4.748 2.19 2.227 3.28 5.275 3.28 9.143 0 2.521-.45 4.748-1.36 6.682-.91 1.935-2.16 3.488-3.75 4.66-1.59 1.173-3.39 2.052-5.4 2.638-2.02.586-4.21.879-6.56.879-5.37 0-9.55-1.333-12.56-4-2.98-2.667-4.54-6.287-4.69-10.859z"/><path d="m1175.96 331.313v-10.594h7.23l.09-11.078h11.41l-.09 11.078h10.14v10.594h-10.22l-.17 18.464c0 2.374.42 4.074 1.28 5.099.85.997 2.34 1.495 4.47 1.495 1.56 0 3.1-.22 4.64-.659v10.286c-1.71.645-4.09.967-7.16.967-4.96 0-8.64-1.128-11.02-3.384-2.39-2.257-3.57-5.921-3.54-10.991l.17-21.277z"/><ellipse cx="1254.31" cy="326.599" rx="6.4287" ry="6.57722"/><ellipse cx="1390.57" cy="360.087" rx="6.42869" ry="6.57722"/><ellipse cx="1235.37" cy="326.599" rx="6.4287" ry="6.57722"/><path d="m1213.03 320.545h11.24v46.046h-11.24z"/><path d="m1382.47 348.984.42-4.787c0-6.113-1.99-11.2-5.92-15.303-3.98-4.104-8.9-6.156-14.82-6.156-5.97 0-11.06 2.223-15.28 6.583-4.27 4.36-6.38 9.618-6.38 15.731 0 6.155 2.16 11.413 6.46 15.773 4.31 4.36 9.48 6.54 15.61 6.54 2.15 0 4.22-.256 6.25-.769s3.69-1.069 4.97-1.753c1.24-.684 2.44-1.453 3.6-2.308 1.12-.855 1.86-1.453 2.2-1.795l.78-.813-5.92-7.865-1.2 1.325c-.74.898-2.07 1.796-3.89 2.651s-3.81 1.282-5.96 1.282c-2.98 0-5.47-.769-7.41-2.394-1.99-1.624-3.19-3.591-3.6-5.942zm-20.32-16.158c2.4 0 4.47.77 6.12 2.223 1.66 1.496 2.74 3.377 3.19 5.643h-19.08c.66-2.309 1.86-4.232 3.56-5.686 1.69-1.453 3.76-2.18 6.21-2.18z"/><path d="m1313.58 356.493c-6.12 0-11.16-4.831-11.16-11.892 0-3.531 1.08-6.318 3.33-8.455s4.86-3.252 7.83-3.252c6.21 0 11.07 4.739 11.07 11.707 0 7.061-4.86 11.892-11.07 11.892zm-11.34 4.088c2.16 4.181 7.47 6.782 13.14 6.782s10.53-2.044 14.58-6.225c4.05-4.18 6.03-9.662 6.03-16.351 0-6.783-1.98-12.171-6.03-16.352s-8.91-6.318-14.58-6.318c-5.76 0-10.98 2.508-13.14 6.689v-29.359h-10.97v66.987h10.97z"/><path d="m1271.07 366.482s0-5.057 0-7.297c-1.17 2.455-3.09 4.373-5.76 5.754-2.67 1.38-5.76 2.071-9.27 2.071-4.68 0-8.43-1.335-11.25-4.005-2.81-2.669-4.22-6.259-4.22-10.77 0-4.541 1.41-8.147 4.22-10.817 2.82-2.669 6.66-4.157 11.52-4.464l9.31-.737c.87-.061 1.56-.169 2.07-.322.51-.184 1.04-.614 1.58-1.289.57-.706.85-1.687.85-2.946 0-2.148 0-11.115 0-11.115h11.88v13.417 19.884c.02 1.457.08 9.079 0 12.636zm-.68-20.369v-2.255l-11.02.828c-4.68.369-7.02 2.563-7.02 6.582 0 2.026.65 3.591 1.94 4.695 1.29 1.105 3.01 1.657 5.17 1.657 3.18 0 5.79-1.074 7.83-3.222 2.07-2.178 3.1-4.94 3.1-8.285z"/></g></g></svg>