<svg width="2042" height="1236" viewBox="0 0 2042 1236" fill="none" xmlns="http://www.w3.org/2000/svg">
<rect width="2042" height="1235" transform="translate(0 1)" fill="white"/>
<mask id="mask0_114_64210" style="mask-type:alpha" maskUnits="userSpaceOnUse" x="236" y="513" width="582" height="149">
<path d="M236 629.127H260.79C260.853 633.104 262.115 636.151 264.575 638.268C267.098 640.32 270.535 641.347 274.888 641.347C278.736 641.347 281.732 640.513 283.877 638.845C286.021 637.113 287.094 634.772 287.094 631.821C287.094 628.614 285.864 626.08 283.403 624.22C281.007 622.36 276.307 620.756 269.305 619.409C258.582 617.549 250.666 614.214 245.556 609.403C240.447 604.592 237.892 598.081 237.892 589.871C237.892 580.634 241.046 572.905 247.354 566.683C253.662 560.461 262.588 557.35 274.131 557.35C284.539 557.35 293.055 560.268 299.678 566.106C306.301 571.879 309.802 579.48 310.18 588.909H285.201C285.012 581.276 281.259 577.459 273.942 577.459C270.472 577.459 267.792 578.357 265.899 580.153C264.007 581.949 263.061 584.322 263.061 587.273C263.061 590.416 264.259 592.822 266.656 594.489C269.116 596.157 273.689 597.568 280.376 598.723C291.919 600.711 300.119 604.175 304.976 609.114C309.833 613.989 312.262 620.66 312.262 629.127C312.262 634.644 311.253 639.518 309.234 643.752C307.216 647.985 304.44 651.385 300.908 653.951C297.375 656.517 293.37 658.441 288.891 659.724C284.413 661.007 279.556 661.648 274.32 661.648C262.398 661.648 253.094 658.73 246.408 652.893C239.785 647.055 236.315 639.134 236 629.127Z" fill="#847878"/>
<path d="M323.779 582.751V559.563H339.864L340.053 535.316H365.411L365.221 559.563H387.74V582.751H365.032L364.654 623.162C364.654 628.357 365.6 632.078 367.492 634.323C369.385 636.504 372.696 637.594 377.427 637.594C380.896 637.594 384.334 637.113 387.74 636.151V658.666C383.956 660.077 378.657 660.782 371.845 660.782C360.806 660.782 352.637 658.313 347.339 653.374C342.04 648.435 339.422 640.417 339.485 629.32L339.864 582.751H323.779Z" fill="#847878"/>
<path d="M512.197 572.431C512.197 580.381 505.801 586.826 497.911 586.826C490.021 586.826 483.625 580.381 483.625 572.431C483.625 564.48 490.021 558.035 497.911 558.035C505.801 558.035 512.197 564.48 512.197 572.431Z" fill="#847878"/>
<path d="M817.318 647.253C817.318 655.203 810.922 661.648 803.032 661.648C795.142 661.648 788.746 655.203 788.746 647.253C788.746 639.302 795.142 632.857 803.032 632.857C810.922 632.857 817.318 639.302 817.318 647.253Z" fill="#847878"/>
<path d="M470.093 572.431C470.093 580.381 463.697 586.826 455.807 586.826C447.917 586.826 441.521 580.381 441.521 572.431C441.521 564.48 447.917 558.035 455.807 558.035C463.697 558.035 470.093 564.48 470.093 572.431Z" fill="#847878"/>
<path d="M406.166 559.176H431.145V659.956H406.166V559.176Z" fill="#847878"/>
<path d="M782.713 621.417L783.633 610.939C783.633 597.56 779.217 586.427 770.477 577.445C761.644 568.463 750.696 563.973 737.539 563.973C724.291 563.973 712.974 568.838 703.59 578.381C694.114 587.923 689.421 599.431 689.421 612.81C689.421 626.282 694.206 637.79 703.774 647.333C713.342 656.876 724.843 661.647 738.459 661.647C743.243 661.647 747.844 661.086 752.352 659.963C756.86 658.84 760.54 657.624 763.392 656.127C766.152 654.63 768.82 652.946 771.397 651.075C773.881 649.204 775.537 647.894 776.273 647.146L778.021 645.368L764.864 628.153L762.196 631.054C760.54 633.018 757.596 634.983 753.548 636.854C749.5 638.725 745.084 639.661 740.299 639.661C733.675 639.661 728.155 637.977 723.831 634.422C719.415 630.867 716.746 626.563 715.826 621.417H782.713ZM737.539 586.052C742.875 586.052 747.476 587.736 751.156 590.917C754.836 594.192 757.228 598.308 758.24 603.267H715.826C717.298 598.215 719.967 594.005 723.739 590.824C727.511 587.643 732.111 586.052 737.539 586.052Z" fill="#847878"/>
<path d="M629.617 637.855C616.02 637.855 604.821 627.281 604.821 611.826C604.821 604.099 607.221 597.999 612.22 593.322C617.219 588.645 623.018 586.205 629.617 586.205C643.415 586.205 654.214 596.575 654.214 611.826C654.214 627.281 643.415 637.855 629.617 637.855ZM604.421 646.802C609.221 655.953 621.019 661.646 633.617 661.646C646.215 661.646 657.013 657.173 666.012 648.022C675.01 638.872 679.41 626.874 679.41 612.233C679.41 597.389 675.01 585.595 666.012 576.444C657.013 567.294 646.215 562.617 633.617 562.617C620.819 562.617 609.221 568.107 604.421 577.258V513H580.025V659.613H604.421V646.802Z" fill="#847878"/>
<path d="M535.143 659.718C535.143 659.718 535.143 648.65 535.143 643.747C532.543 649.12 528.278 653.317 522.346 656.339C516.414 659.362 509.549 660.873 501.751 660.873C491.354 660.873 483.022 657.951 476.757 652.108C470.492 646.265 467.36 638.408 467.36 628.535C467.36 618.595 470.492 610.704 476.757 604.861C483.022 599.018 491.554 595.761 502.351 595.089L523.046 593.477C524.978 593.343 526.511 593.108 527.644 592.772C528.777 592.369 529.944 591.429 531.144 589.952C532.41 588.407 533.043 586.258 533.043 583.504C533.043 578.803 533.043 559.176 533.043 559.176H559.436C559.436 566.805 559.436 576.117 559.436 588.541V632.061C559.477 635.25 559.616 651.933 559.436 659.718H535.143ZM533.643 615.137V610.2L509.149 612.014C498.752 612.82 493.553 617.622 493.553 626.42C493.553 630.852 494.986 634.277 497.852 636.695C500.718 639.113 504.55 640.322 509.349 640.322C516.414 640.322 522.212 637.971 526.745 633.27C531.344 628.502 533.643 622.457 533.643 615.137Z" fill="#847878"/>
</mask>
<g mask="url(#mask0_114_64210)">
<rect x="67.2759" y="329.029" width="1050.96" height="536.661" fill="#372FFF"/>
<path d="M-81.2251 400.275C-53.0988 391.022 -38.2612 385.947 -9.66179 383.1C27.1284 379.438 67.6598 405.703 67.6598 405.703C67.6598 405.703 117.798 587.468 287.426 635.733C537.573 706.908 512.743 1071.26 641.437 1159.19C770.13 1247.11 439.161 1472.21 91.0449 1362.22C-257.071 1252.22 -350.404 488.835 -81.2251 400.275Z" fill="#090149"/>
<path d="M761.041 690.247L760.877 690.241L760.731 690.314C730.73 705.255 700.203 702.037 673.998 691.144C647.781 680.246 625.938 661.684 613.388 646.044C608.337 639.749 601.599 632.822 594.316 625.335C592.474 623.442 590.598 621.513 588.706 619.55C579.311 609.804 569.485 599.177 561.384 587.739C545.185 564.866 535.962 538.873 550.775 510.269C574.08 465.267 595.74 445.739 624.546 435.316C638.982 430.093 655.239 427.147 674.458 424.459C680.952 423.551 687.786 422.672 695 421.745C709.113 419.93 724.679 417.928 741.992 415.155C767.499 411.069 793.47 424.298 812.625 450.707C831.776 477.111 844.06 516.639 842.127 564.935C840.193 613.268 828.691 644.956 813.308 664.369C797.937 683.767 778.663 690.95 761.041 690.247Z" stroke="black" stroke-width="1.275"/>
<path d="M143.691 546.808C118.472 515.38 51.0648 468.163 81.0086 410.341C127.71 320.158 168.066 331.65 272.69 314.891C324.318 306.621 377.439 368.501 373.564 465.326C369.689 562.151 327.47 592.672 291.815 591.249C231.396 621.34 168.91 578.236 143.691 546.808Z" fill="#FA4B6A"/>
<path d="M546.529 -505.251C735.494 -769.254 1739.33 -267.123 1644.14 169.51C1512.2 774.687 1279.52 845.818 1043.88 882.512C878.089 908.329 633.095 598.219 633.095 598.219C633.095 598.219 604.014 392.033 633.095 251.9C654.061 150.868 609.398 -7.5577 609.398 -7.5577C609.398 -7.5577 397.951 -297.673 546.529 -505.251Z" fill="#0000B0"/>
<path d="M850.165 -3.73464C878.291 -12.9882 893.128 -18.0624 921.728 -20.9096C958.518 -24.5722 999.049 1.69364 999.049 1.69364C999.049 1.69364 1049.19 183.459 1218.82 231.723C1468.96 302.898 1444.13 667.253 1572.83 755.177C1701.52 843.102 1370.55 1068.2 1022.43 958.207C674.318 848.215 580.986 84.8248 850.165 -3.73464Z" fill="#090149"/>
</g>
<rect x="431.994" y="1140.02" width="31.555" height="31.555" rx="15.7775" fill="#372FFF"/>
<rect x="471.438" y="1140.02" width="31.555" height="31.555" rx="15.7775" fill="#FA4B6A"/>
<rect x="510.883" y="1140.02" width="31.555" height="31.555" rx="15.7775" fill="#FFB8A9"/>
<rect x="550.325" y="1140.02" width="31.555" height="31.555" rx="15.7775" fill="#0903B0"/>
<rect x="589.769" y="1140.02" width="31.555" height="31.555" rx="15.7775" fill="black"/>
<g clip-path="url(#clip0_114_64210)">
<rect x="1054" y="0.996094" width="988.003" height="1235" fill="#372FFF"/>
<path d="M829.81 782.696C1078.3 650.173 1016.19 890.094 1266.1 932.136C1463.87 965.407 1616.97 1373.96 1616.97 1373.96C1616.97 1373.96 1625.96 1464.43 1620.26 1499.71C1592.97 1668.82 1464.04 1864.59 1114.89 1794.31C765.747 1724.02 581.32 915.219 829.81 782.696Z" fill="#FFB8A9"/>
<path d="M962.731 715.963C1173.95 704.955 1034.68 841.783 1200.28 954.767C1365.89 1067.75 1255.61 1387.25 1330.55 1486.57C1405.49 1585.89 1122.56 1692.72 894.284 1526.7C666.01 1360.68 751.515 726.97 962.731 715.963Z" fill="black"/>
<path d="M2143.07 399.06C1991.41 508.758 1801.7 426.001 1801.7 426.001L1506.19 105.86C1506.19 105.86 1310.22 -65.1467 1506.19 -173.304C1702.17 -281.46 2178.65 -685.976 2296.76 -419.078C2414.87 -152.179 2294.72 289.362 2143.07 399.06Z" fill="#FA4B6A"/>
<path d="M1709.09 275.387L1708.93 275.38L1708.78 275.453C1655.6 302.336 1601.5 296.536 1555.09 276.957C1508.68 257.373 1470.01 224.021 1447.78 195.907C1438.87 184.636 1426.99 172.236 1414.12 158.808C1410.86 155.411 1407.54 151.948 1404.19 148.421C1387.59 130.936 1370.2 111.852 1355.86 91.3001C1327.19 50.2014 1310.77 3.35399 1337.08 -48.2104C1378.3 -129.006 1416.66 -164.151 1467.73 -182.904C1493.29 -192.292 1522.06 -197.582 1556.03 -202.403C1567.52 -204.034 1579.6 -205.611 1592.35 -207.275C1617.29 -210.529 1644.78 -214.118 1675.37 -219.091C1720.68 -226.458 1766.75 -202.593 1800.68 -155.114C1834.6 -107.642 1856.33 -36.6162 1852.91 50.1102C1849.49 136.872 1829.15 193.834 1801.87 228.774C1774.61 263.698 1740.39 276.655 1709.09 275.387Z" stroke="black" stroke-width="1.235"/>
<path d="M1846.46 -104.903C1980.43 -313.925 2653.31 -19.4963 2624.63 429.334C2595.95 878.164 2366.12 964.795 2199.06 993.847C2081.52 1014.29 1907.83 770.325 1907.83 770.325C1907.83 770.325 1887.21 605.515 1907.83 494.565C1939.31 325.186 1902.29 229.148 1864.74 155.386C1838.69 104.216 1808.52 16.9885 1808.52 16.9885C1808.52 16.9885 1815.18 -56.0958 1846.46 -104.903Z" fill="#0903B0" style="mix-blend-mode:multiply"/>
<path d="M1267 628.769H1290.96C1291.02 632.614 1292.24 635.559 1294.62 637.605C1297.06 639.589 1300.38 640.581 1304.59 640.581C1308.31 640.581 1311.21 639.775 1313.28 638.163C1315.35 636.489 1316.39 634.226 1316.39 631.374C1316.39 628.273 1315.2 625.824 1312.82 624.026C1310.51 622.228 1305.96 620.678 1299.19 619.376C1288.83 617.578 1281.18 614.353 1276.24 609.703C1271.3 605.053 1268.83 598.759 1268.83 590.823C1268.83 581.894 1271.88 574.423 1277.98 568.408C1284.07 562.394 1292.7 559.386 1303.86 559.386C1313.92 559.386 1322.15 562.208 1328.55 567.85C1334.96 573.43 1338.34 580.778 1338.71 589.893H1314.56C1314.38 582.514 1310.75 578.825 1303.68 578.825C1300.32 578.825 1297.73 579.693 1295.9 581.429C1294.07 583.165 1293.16 585.459 1293.16 588.312C1293.16 591.35 1294.32 593.675 1296.63 595.287C1299.01 596.899 1303.43 598.263 1309.9 599.379C1321.05 601.301 1328.98 604.65 1333.68 609.424C1338.37 614.136 1340.72 620.585 1340.72 628.769C1340.72 634.102 1339.74 638.814 1337.79 642.906C1335.84 646.999 1333.16 650.285 1329.74 652.765C1326.33 655.245 1322.46 657.106 1318.13 658.346C1313.8 659.586 1309.1 660.206 1304.04 660.206C1292.52 660.206 1283.52 657.385 1277.06 651.742C1270.66 646.1 1267.3 638.442 1267 628.769Z" fill="#E7E9F0"/>
<path d="M1351.85 583.94V561.526H1367.4L1367.58 538.088H1392.09L1391.91 561.526H1413.68V583.94H1391.73L1391.36 623.003C1391.36 628.025 1392.28 631.622 1394.11 633.792C1395.94 635.9 1399.14 636.954 1403.71 636.954C1407.06 636.954 1410.39 636.489 1413.68 635.559V657.323C1410.02 658.687 1404.9 659.369 1398.31 659.369C1387.64 659.369 1379.75 656.982 1374.62 652.207C1369.5 647.433 1366.97 639.682 1367.03 628.956L1367.4 583.94H1351.85Z" fill="#E7E9F0"/>
<ellipse cx="1520.17" cy="573.96" rx="13.8095" ry="13.9153" fill="#E7E9F0"/>
<ellipse cx="1815.12" cy="646.288" rx="13.8096" ry="13.9153" fill="#E7E9F0"/>
<ellipse cx="1479.48" cy="573.96" rx="13.8095" ry="13.9153" fill="#E7E9F0"/>
<path d="M1431.49 561.15H1455.64V658.569H1431.49V561.15Z" fill="#E7E9F0"/>
<path d="M1795.48 621.317L1796.37 611.188C1796.37 598.256 1792.1 587.494 1783.65 578.812C1775.11 570.13 1764.53 565.789 1751.81 565.789C1739 565.789 1728.06 570.492 1718.99 579.716C1709.83 588.941 1705.3 600.065 1705.3 612.997C1705.3 626.02 1709.92 637.144 1719.17 646.369C1728.42 655.593 1739.54 660.205 1752.7 660.205C1757.32 660.205 1761.77 659.663 1766.13 658.578C1770.49 657.492 1774.04 656.317 1776.8 654.87C1779.47 653.423 1782.05 651.795 1784.54 649.986C1786.94 648.177 1788.54 646.911 1789.25 646.188L1790.94 644.469L1778.22 627.829L1775.64 630.632C1774.04 632.532 1771.2 634.431 1767.28 636.24C1763.37 638.048 1759.1 638.953 1754.48 638.953C1748.07 638.953 1742.74 637.325 1738.56 633.888C1734.29 630.452 1731.71 626.292 1730.82 621.317H1795.48ZM1751.81 587.132C1756.97 587.132 1761.41 588.76 1764.97 591.835C1768.53 595 1770.84 598.979 1771.82 603.773H1730.82C1732.24 598.889 1734.82 594.819 1738.47 591.745C1742.12 588.67 1746.56 587.132 1751.81 587.132Z" fill="#E7E9F0"/>
<path d="M1647.49 637.206C1634.34 637.206 1623.52 626.985 1623.52 612.046C1623.52 604.576 1625.84 598.679 1630.67 594.158C1635.5 589.637 1641.11 587.279 1647.49 587.279C1660.83 587.279 1671.26 597.303 1671.26 612.046C1671.26 626.985 1660.83 637.206 1647.49 637.206ZM1623.13 645.855C1627.77 654.7 1639.18 660.204 1651.35 660.204C1663.53 660.204 1673.97 655.879 1682.67 647.034C1691.37 638.189 1695.62 626.591 1695.62 612.439C1695.62 598.09 1691.37 586.689 1682.67 577.844C1673.97 568.998 1663.53 564.477 1651.35 564.477C1638.98 564.477 1627.77 569.784 1623.13 578.63V516.516H1599.55V658.238H1623.13V645.855Z" fill="#E7E9F0"/>
<path d="M1556.16 658.338C1556.16 658.338 1556.16 647.64 1556.16 642.901C1553.65 648.094 1549.53 652.152 1543.79 655.073C1538.06 657.994 1531.42 659.455 1523.89 659.455C1513.84 659.455 1505.78 656.631 1499.73 650.983C1493.67 645.335 1490.64 637.739 1490.64 628.196C1490.64 618.588 1493.67 610.96 1499.73 605.312C1505.78 599.664 1514.03 596.515 1524.47 595.866L1544.47 594.308C1546.34 594.178 1547.82 593.951 1548.92 593.626C1550.01 593.237 1551.14 592.328 1552.3 590.9C1553.52 589.406 1554.13 587.329 1554.13 584.667C1554.13 580.123 1554.13 561.15 1554.13 561.15H1579.65C1579.65 568.525 1579.65 577.526 1579.65 589.536V631.604C1579.69 634.687 1579.82 650.813 1579.65 658.338H1556.16ZM1554.71 615.245V610.473L1531.04 612.226C1520.99 613.005 1515.96 617.647 1515.96 626.151C1515.96 630.436 1517.35 633.747 1520.12 636.084C1522.89 638.421 1526.59 639.59 1531.23 639.59C1538.06 639.59 1543.66 637.317 1548.05 632.773C1552.49 628.164 1554.71 622.321 1554.71 615.245Z" fill="#E7E9F0"/>
</g>
<defs>
<clipPath id="clip0_114_64210">
<rect width="988.003" height="1235" fill="white" transform="translate(1054 0.996094)"/>
</clipPath>
</defs>
</svg>
