<svg fill="none" height="926" viewBox="0 0 632 926" width="632" xmlns="http://www.w3.org/2000/svg" xmlns:xlink="http://www.w3.org/1999/xlink"><clipPath id="a"><path d="m0 0h632v926h-632z"/></clipPath><g clip-path="url(#a)"><path d="m0 0h632v926h-632z" fill="#0c0263"/><path d="m81.944 835.762c-.1458-1.364-.7605-2.427-1.844-3.188-1.073-.76-2.4691-1.14-4.1881-1.14-1.2085 0-2.2451.182-3.1098.547-.8647.364-1.5262.859-1.9846 1.484s-.6928 1.339-.7032 2.141c0 .667.151 1.245.4531 1.735.3126.489.7345.906 1.2658 1.25.5314.333 1.12.615 1.7659.844s1.2971.422 1.9534.578l3.0004.75c1.2085.281 2.3702.662 3.4849 1.141 1.1251.479 2.1305 1.083 3.016 1.813.896.729 1.6044 1.609 2.1253 2.641.5209 1.031.7814 2.24.7814 3.625 0 1.875-.4792 3.527-1.4377 4.954-.9585 1.417-2.3441 2.526-4.1568 3.329-1.8024.791-3.985 1.187-6.5478 1.187-2.49 0-4.6517-.385-6.4853-1.156-1.8232-.771-3.2505-1.896-4.2819-3.376-1.0209-1.479-1.5731-3.281-1.6564-5.407h5.7039c.0833 1.115.4271 2.042 1.0314 2.782.6042.74 1.3908 1.292 2.3597 1.656.9793.365 2.0732.547 3.2817.547 1.2606 0 2.3649-.187 3.313-.562.9584-.386 1.7085-.917 2.2503-1.594.5417-.688.8178-1.49.8282-2.407-.0104-.833-.2552-1.521-.7345-2.063-.4792-.552-1.1512-1.01-2.0159-1.375-.8543-.375-1.8544-.708-3.0004-1l-3.6411-.938c-2.6358-.677-4.7194-1.703-6.2509-3.078-1.521-1.386-2.2816-3.224-2.2816-5.516 0-1.886.5105-3.537 1.5315-4.954 1.0314-1.417 2.4326-2.516 4.2037-3.298 1.7711-.791 3.7766-1.187 6.0165-1.187 2.2711 0 4.261.396 5.9696 1.187 1.7189.782 3.0681 1.87 4.0474 3.266.9793 1.386 1.4846 2.98 1.5158 4.782zm14.6119 9.142v14.065h-5.657v-32.005h5.532v12.08h.2813c.5626-1.354 1.4325-2.422 2.6097-3.203 1.1881-.792 2.6981-1.188 4.5321-1.188 1.667 0 3.12.349 4.36 1.047s2.198 1.719 2.875 3.063c.688 1.344 1.032 2.985 1.032 4.922v15.284h-5.657v-14.409c0-1.614-.417-2.87-1.251-3.766-.823-.906-1.979-1.359-3.469-1.359-1 0-1.896.219-2.6877.656-.7814.427-1.3961 1.047-1.844 1.86-.4376.812-.6564 1.797-.6564 2.953zm26.2581 14.549c-1.521 0-2.891-.271-4.11-.812-1.209-.553-2.167-1.365-2.875-2.438-.698-1.073-1.047-2.396-1.047-3.97 0-1.354.25-2.474.75-3.359.5-.886 1.182-1.594 2.047-2.126.865-.531 1.839-.932 2.922-1.203 1.094-.281 2.224-.484 3.391-.609 1.407-.146 2.547-.277 3.423-.391.875-.125 1.51-.313 1.906-.563.406-.26.61-.661.61-1.203v-.094c0-1.177-.349-2.089-1.047-2.735-.698-.645-1.704-.968-3.017-.968-1.385 0-2.484.302-3.297.906-.802.604-1.344 1.318-1.625 2.141l-5.282-.75c.417-1.459 1.104-2.678 2.063-3.657.958-.99 2.13-1.729 3.516-2.219 1.385-.5 2.917-.75 4.594-.75 1.157 0 2.308.135 3.454.406s2.193.719 3.141 1.344c.948.615 1.708 1.453 2.281 2.516.584 1.063.876 2.391.876 3.985v16.065h-5.439v-3.298h-.187c-.344.667-.828 1.292-1.454 1.876-.614.573-1.39 1.036-2.328 1.39-.927.344-2.016.516-3.266.516zm1.469-4.157c1.135 0 2.12-.224 2.953-.672.834-.458 1.475-1.062 1.923-1.812.458-.75.687-1.568.687-2.454v-2.828c-.177.146-.479.281-.906.406-.417.125-.886.234-1.407.328s-1.036.177-1.547.25c-.51.073-.953.136-1.328.188-.844.114-1.599.302-2.266.562-.667.261-1.193.625-1.578 1.094-.386.459-.579 1.052-.579 1.782 0 1.041.381 1.828 1.141 2.359.761.532 1.73.797 2.907.797zm14.913 3.673v-24.004h5.485v4.001h.25c.437-1.386 1.187-2.454 2.25-3.204 1.073-.76 2.297-1.14 3.672-1.14.313 0 .662.015 1.048.046.395.021.724.058.984.11v5.204c-.24-.084-.62-.157-1.141-.219-.51-.073-1.005-.109-1.484-.109-1.032 0-1.959.224-2.782.672-.813.437-1.453 1.047-1.922 1.828s-.703 1.682-.703 2.703v14.112zm25.105.469c-2.406 0-4.485-.501-6.235-1.501-1.74-1.01-3.079-2.437-4.016-4.281-.938-1.855-1.407-4.038-1.407-6.548 0-2.469.469-4.636 1.407-6.501.948-1.875 2.271-3.334 3.969-4.376 1.698-1.052 3.693-1.578 5.985-1.578 1.48 0 2.876.239 4.188.719 1.323.469 2.49 1.198 3.501 2.188 1.021.989 1.823 2.25 2.406 3.781.584 1.521.876 3.334.876 5.439v1.734h-19.675v-3.813h14.252c-.011-1.083-.245-2.047-.703-2.891-.459-.854-1.099-1.526-1.922-2.016-.813-.489-1.761-.734-2.845-.734-1.156 0-2.172.281-3.047.844-.875.552-1.557 1.281-2.047 2.187-.479.896-.724 1.881-.735 2.954v3.329c0 1.396.256 2.594.766 3.594.511.989 1.224 1.75 2.141 2.281.917.521 1.99.782 3.219.782.823 0 1.568-.115 2.235-.344.667-.24 1.245-.589 1.735-1.047.489-.459.859-1.026 1.109-1.703l5.282.593c-.333 1.396-.969 2.615-1.906 3.657-.928 1.032-2.115 1.834-3.563 2.407-1.449.562-3.105.844-4.97.844zm16.964-.125c-.948 0-1.761-.334-2.438-1.001-.677-.666-1.01-1.479-1-2.437-.01-.938.323-1.74 1-2.407s1.49-1 2.438-1c.917 0 1.714.333 2.391 1 .687.667 1.036 1.469 1.047 2.407-.011.635-.177 1.213-.5 1.734-.313.521-.729.938-1.25 1.25-.511.302-1.073.454-1.688.454z" fill="#534dff"/><g stroke="#fff" stroke-width="1.57165"><path d="m303.33 287.874h71.649l-35.825 62.05z"/><path d="m194.229 287.874h71.649l-35.824 62.05z"/><path d="m248.772 350.852 35.825-62.05 35.824 62.05z"/><path d="m357.713 350.852 35.825-62.05 35.825 62.05z"/><path d="m303.331 449.428h71.649l-35.825 62.05z"/><path d="m194.23 449.428h71.649l-35.824 62.05z"/><path d="m248.773 512.407 35.825-62.05 35.825 62.05z"/><path d="m357.718 512.407 35.824-62.05 35.825 62.05z"/></g><path d="m376.341 432.67-37.186-64.408-37.185 64.408z" fill="#372fff"/><path d="m194.23 431.884h71.649l-35.824-62.05z" stroke="#fff" stroke-width="1.57165"/><path d="m248.773 368.906 35.825 62.05 35.825-62.05z" stroke="#fff" stroke-width="1.57165"/><path d="m357.718 368.906 35.824 62.05 35.825-62.05z" stroke="#fff" stroke-width="1.57165"/><ellipse cx="568.34" cy="49.2136" fill="#372fff" rx="7.79842" ry="7.85813"/><ellipse cx="545.358" cy="49.2136" fill="#372fff" rx="7.79841" ry="7.85813"/></g></svg>